<svg height="512" viewBox="0 0 58 58" width="512" xmlns="http://www.w3.org/2000/svg"><g id="Page-1" fill="none" fill-rule="evenodd"><g id="032---Cheese-and-Wine" fill-rule="nonzero"><path id="Shape" d="m53 19c-2.7614237 0-5 2.2385763-5 5 0-2.7614237-2.2385763-5-5-5s-5 2.2385763-5 5c0-2.7614237-2.2385763-5-5-5s-5 2.2385763-5 5 2.2385763 5 5 5c.3666698.0007419.7322734-.039508 1.09-.12-1.1991677 1.5016962-1.431553 3.5577833-.597807 5.2892457.8337461 1.7314624 2.5860648 2.8318608 4.507807 2.8307543.3666698.0007419.7322734-.039508 1.09-.12-1.6305757 2.0458115-1.4084507 5.0027123.5094666 6.7819579s4.8831495 1.7792456 6.8010668 0 2.1400423-4.7361464.5094666-6.7819579c.3577266.080492.7233302.1207419 1.09.12 1.9217422.0011065 3.6740609-1.0992919 4.507807-2.8307543.833746-1.7314624.6013607-3.7875495-.597807-5.2892457.3577266.080492.7233302.1207419 1.09.12 2.7614237 0 5-2.2385763 5-5s-2.2385763-5-5-5z" fill="#3d324c"/><path id="Shape" d="m52.71 8.41c-.8415733 1.46516019-2.1468256 2.6085752-3.71 3.25-1.35.67-3.29 1.46-4.7.54-.5499397-.3878278-.9379281-.964471-1.09-1.62-.3213962-1.67147049-.0227719-3.40278026.84-4.87 1.1488278-2.11102266 3.0580789-3.70564059 5.34-4.46l.22-.06c1.6364595-.39829225 3.3158193-.59309799 5-.58h.56c.19 0 .56 0 .65.18s-.19.47-.31.62c-.31.36-.6.72-.89 1.09-.4524108.54702569-.8291268 1.15246202-1.12 1.8-.0035715.02654708-.0035715.05345292 0 .08-.089504.21674598-.1597746.44094282-.21.67-.23 1.09 0 2.25-.52 3.3z" fill="#71c285"/><path id="Shape" d="m35.12 6.12c1.1911526.37111342 2.2252941 1.12737337 2.94 2.15.7.87 1.58 2.15 1.13 3.32-.198095.4576283-.5525733.8298305-1 1.05-1.1610107.4919631-2.4604873.5487708-3.66.16-1.7091651-.5087732-3.1629335-1.6446414-4.07-3.18l-.09-.15c-.5467157-1.12507129-.9498745-2.31438969-1.2-3.54 0-.13-.07-.27-.11-.4s-.11-.4 0-.5.37.06.5.13c.31.16.62.32.94.47.4715992.25535088.9764417.44382542 1.5.56h.06c.1730066.01505054.3469934.01505054.52 0 .8152426-.1412127 1.6440222-.18818807 2.47-.14z" fill="#71c285"/><path id="Shape" d="m43 20c-.5522847 0-1-.4477153-1-1 0-.32-.11-8-7-8-.5522847 0-1-.4477153-1-1 0-.55228475.4477153-1 1-1 3.2601099-.14034452 6.289664 1.6773879 7.7 4.62.85-3.51 2.74-7.75 6.91-9.54.3316478-.15600738.7220669-.11808733 1.0174942.09882566.2954274.21691298.4485222.57805982.3989895.94120586s-.2937557.67009917-.6364837.79996848c-6.3 2.7-6.39 12.98-6.39 13.08 0 .5522847-.4477153 1-1 1z" fill="#4c8056"/><path id="Shape" d="m38 24c.0028156 1.1355147-.3856462 2.2373335-1.1 3.12-1.1059528.2520741-2.0933264.8727089-2.8 1.76-.3609877.0812363-.7299875.1214908-1.1.12-2.7614237 0-5-2.2385763-5-5s2.2385763-5 5-5 5 2.2385763 5 5z" fill="#894b9d"/><path id="Shape" d="m48 24c.0028156 1.1355147-.3856462 2.2373335-1.1 3.12-1.1059528.2520741-2.0933264.8727089-2.8 1.76-.7178217.1603415-1.4621783.1603415-2.18 0-.7066736-.8872911-1.6940472-1.5079259-2.8-1.76-.7215459-.8799579-1.1171661-1.9820429-1.12-3.12 0-2.7614237 2.2385763-5 5-5s5 2.2385763 5 5z" fill="#894b9d"/><path id="Shape" d="m58 24c0 2.7614237-2.2385763 5-5 5-.3666698.0007419-.7322734-.039508-1.09-.12-.7066736-.8872911-1.6940472-1.5079259-2.8-1.76-.7179486-.8813143-1.1099889-1.9832656-1.11-3.12 0-2.7614237 2.2385763-5 5-5s5 2.2385763 5 5z" fill="#894b9d"/><path id="Shape" d="m43 32c.0028156 1.1355147-.3856462 2.2373335-1.1 3.12-1.1059528.2520741-2.0933264.8727089-2.8 1.76-.3609877.0812363-.7299875.1214908-1.1.12-1.9217422.0011065-3.6740609-1.0992919-4.507807-2.8307543-.833746-1.7314624-.6013607-3.7875495.597807-5.2892457.9489838-1.1828565 2.3835174-1.8711024 3.9-1.8711024s2.9510162.6882459 3.9 1.8711024c.7136602.8837223 1.1051433 1.9841072 1.11 3.12z" fill="#955ba5"/><path id="Shape" d="m53 32c0 2.7614237-2.2385763 5-5 5-.3666698.0007419-.7322734-.039508-1.09-.12-.7066736-.8872911-1.6940472-1.5079259-2.8-1.76-.7179486-.8813143-1.1099889-1.9832656-1.11-3.12-.0008175-1.1334859.3835221-2.2336141 1.09-3.12.9489838-1.1828565 2.3835174-1.8711024 3.9-1.8711024s2.9510162.6882459 3.9 1.8711024c.7136602.8837223 1.1051433 1.9841072 1.11 3.12z" fill="#955ba5"/><path id="Shape" d="m48 40c-.0015832 2.1931188-1.4321533 4.1292167-3.5280912 4.7748304-2.0959378.6456138-4.3679516-.1499735-5.6032707-1.962088-1.2353192-1.8121146-1.1455614-4.2177225.2213619-5.9327424.9489838-1.1828565 2.3835174-1.8711024 3.9-1.8711024s2.9510162.6882459 3.9 1.8711024c.7136602.8837223 1.1051433 1.9841072 1.11 3.12z" fill="#894b9d"/><path id="Shape" d="m10 39.31c-.02584266-3.5865305-1.95179167-6.8903324-5.06-8.68-2.34576993-1.354415-4.04175258-3.6024942-4.7-6.23-.26970505-1.1948429-.31042411-2.429988-.12-3.64l1-7.41c2.33.84 3 2.9 6.48 2.9 4.4 0 4.4-3.25 8.68-3.25 4.06 0 4.32 2.84 7.88 3.21l.62 4.55c.1904241 1.210012.149705 2.4451571-.12 3.64-.6487122 2.620551-2.3294053 4.8674863-4.66 6.23-3.0851256 1.8047961-4.9866092 5.1057714-5 8.68z" fill="#df4d60"/><path id="Shape" d="m24.16 16.21c-3.56-.37-3.82-3.21-7.88-3.21-4.28 0-4.28 3.25-8.67 3.25-3.45 0-4.15-2.06-6.48-2.9l1.7-12.49c.07024958-.49701626.49806797-.86494008 1-.86h17.25c.501932-.00494008.9297504.36298374 1 .86z" fill="#84b5cb"/><path id="Shape" d="m23.78 26.69c-.8726876 1.6366892-2.1808743 3.0002489-3.78 3.94-1.7325181 1.0335126-3.1233937 2.5530441-4 4.37h-7c-.89268505-1.8252308-2.30526449-3.3456673-4.06-4.37-2.34576993-1.354415-4.04175258-3.6024942-4.7-6.23-.26970505-1.1948429-.31042411-2.429988-.12-3.64l1-7.41c2.33.84 3 2.9 6.48 2.9.47025559.0019396.93944048-.0449789 1.4-.14 1 6 4.66 11.14 14.78 10.58z" fill="#ff5364"/><path id="Shape" d="m9 16.11c-.47037362.0971112-.94972342.1440405-1.43.14-3.45 0-4.15-2.06-6.48-2.9l1.74-12.49c.07024958-.49701626.49806797-.86494008 1-.86l7.12-.00004916c-.86 2.60004916-2.9 9.83004916-1.95 16.11004916z" fill="#9fc9d3"/><path id="Shape" d="m6.91 28.18c-.17608621-.0018287-.34856719-.0501234-.5-.14-1.63044302-.9539326-2.80613592-2.5263317-3.26-4.36-.1790166-.8286669-.19937578-1.6837523-.06-2.52.07455844-.5522847.58271525-.9395584 1.135-.865s.93955844.5827153.865 1.135c-.10766813.585088-.10766813 1.184912 0 1.77.32937368 1.3091743 1.16823251 2.4324531 2.33 3.12.4725074.2780112.63308212.8846268.36 1.36-.17934097.3106342-.51131524.501424-.87.5z" fill="#fff"/><path id="Shape" d="m24 57c0 .5522847-.4477153 1-1 1h-21c-.55228475 0-1-.4477153-1-1 0-1.24 3-3.16 7.26-3.81 1.0019841-.1313358 1.7485708-.9894814 1.74-2v-11.88c-.02191864-3.1229157-1.50154821-6.0562813-4-7.93 1.94090565 1.1823457 4.1776624 1.7892177 6.45 1.75 2.2723376.0392177 4.5090944-.5676543 6.45-1.75-2.460812 1.8943614-3.9018585 4.8244892-3.9 7.93v11.9c-.0085708 1.0105186.7380159 1.8686642 1.74 2 4.26.63 7.26 2.55 7.26 3.79z" fill="#3b97d3"/><path id="Shape" d="m48.24 36c-.1557847-.0103699-.3120874.0100174-.46.06l-19.78 6.94v14c0 .5522847.4477153 1 1 1h28c.5522847 0 1-.4477153 1-1v-14s0-5.91-9.76-7z" fill="#f0c419"/><path id="Shape" d="m58 43h-5c0-1.1-1.34-2-3-2s-3 .9-3 2h-19l19.78-6.92c.1479126-.0499826.3042153-.0703699.46-.06 9.76 1.07 9.76 6.98 9.76 6.98z" fill="#f3d55b"/><g fill="#f29c1f"><path id="Shape" d="m53 43c0 1.6568542-1.3431458 3-3 3s-3-1.3431458-3-3c0-1.1 1.34-2 3-2s3 .9 3 2z"/><circle id="Oval" cx="34" cy="52" r="2"/><circle id="Oval" cx="45" cy="51" r="3"/><circle id="Oval" cx="54" cy="49" r="1"/><circle id="Oval" cx="52" cy="54" r="1"/><circle id="Oval" cx="38" cy="47" r="1"/><circle id="Oval" cx="45" cy="40" r="1"/></g></g></g></svg>