<svg id="Capa_1" enable-background="new 0 0 512 512" height="512" viewBox="0 0 512 512" width="512" xmlns="http://www.w3.org/2000/svg"><g><path d="m512 256c0 28.13-4.54 55.21-12.93 80.53-33.75 101.93-129.82 140.71-243.07 140.71s-209.32-38.78-243.07-140.71c-8.39-25.32-12.93-52.4-12.93-80.53 0-141.38 114.62-256 256-256s256 114.62 256 256z" fill="#dd636e"/><g><path d="m137.66 135.799c9.376 22.515 4.604 39.018-28.101 40.52l4.516 21.01 27.836 17.489 50.642-25.337-28.252-83.86" fill="#e7a52e"/><path d="m370.335 130.193s-15.565 83.589 67.011 99.623v37.418l-147.436 20.7v-120.202l-11.03-58.422" fill="#e7a52e"/><path d="m499.07 336.53c-33.75 101.93-129.82 175.47-243.07 175.47s-209.32-73.54-243.07-175.47c30.29-57.59 64.1-112.08 96.63-160.21 4.42 10.57 14.85 17.99 27.03 17.99 16.16 0 29.27-13.1 29.27-29.26 0-15.82-12.53-28.69-28.2-29.25 34.45-48.43 65.69-88.06 87.41-114.57 16-19.54 45.86-19.54 61.86 0 20.88 25.49 50.54 63.07 83.4 108.96-23.33 8.79-39.91 31.32-39.91 57.72 0 34.06 27.61 61.68 61.68 61.68 17.88 0 33.98-7.61 45.25-19.77 21.18 33.69 42.18 69.55 61.72 106.71z" fill="#ffd064"/><path d="m211.98 319.57c0 28.9-23.43 52.33-52.34 52.33-.55 0-1.1-.01-1.64-.03-28.14-.86-50.69-23.95-50.69-52.3 0-28.9 23.43-52.34 52.33-52.34 17.03 0 32.16 8.13 41.71 20.73 6.67 8.78 10.63 19.73 10.63 31.61z" fill="#e7a52e"/><path d="m211.98 319.57c0 28.9-23.43 52.33-52.34 52.33-.55 0-1.1-.01-1.64-.03-6.66-8.78-10.62-19.73-10.62-31.6 0-28.9 23.43-52.34 52.34-52.34.55 0 1.09.01 1.63.03 6.67 8.78 10.63 19.73 10.63 31.61z" fill="#f2800f"/><path d="m268.16 371.9c0 8.2-3.12 15.68-8.22 21.3-5.8 6.35-14.14 10.34-23.42 10.34-17.47 0-31.63-14.16-31.63-31.64 0-17.47 14.16-31.63 31.63-31.63 2.85 0 5.61.38 8.23 1.09 13.49 3.61 23.41 15.92 23.41 30.54z" fill="#e7a52e"/><path d="m268.16 371.9c0 8.2-3.12 15.68-8.22 21.3-13.49-3.62-23.42-15.93-23.42-30.56 0-8.2 3.12-15.66 8.23-21.28 13.49 3.61 23.41 15.92 23.41 30.54z" fill="#f2800f"/><g fill="#e7a52e"><circle cx="308.544" cy="127.944" r="18.634"/><circle cx="348.722" cy="445.795" r="27.878"/><circle cx="184.498" cy="212.953" r="18.634"/><circle cx="66.315" cy="340.269" r="18.634"/><path d="m449.78 331.01c0 14.89-7.55 28.01-19.03 35.75-6.87 4.62-15.14 7.32-24.04 7.32-23.79 0-43.07-19.28-43.07-43.07 0-.69.02-1.37.05-2.05 1.07-22.84 19.92-41.03 43.02-41.03 23.79 0 43.07 19.29 43.07 43.08z"/></g><path d="m430.8 364.71c0 .69-.02 1.37-.05 2.05-6.87 4.62-15.14 7.32-24.04 7.32-23.79 0-43.07-19.28-43.07-43.07 0-.69.02-1.37.05-2.05 6.87-4.63 15.14-7.33 24.04-7.33 23.79 0 43.07 19.29 43.07 43.08z" fill="#f2800f"/></g></g></svg>