<svg height="512pt" viewBox="0 -66 512 512" width="512pt" xmlns="http://www.w3.org/2000/svg"><path d="m241.207031 1.828125c-3.578125-2.179687-8.003906-2.421875-11.8125-.667969l-33.074219 15.242188c-2.148437.992187-3.433593 3.257812-3.125 5.601562 2.5625 19.488282-20.882812 31.898438-35.492187 18.378906-2.679687-2.480468-6.558594-3.160156-9.875-1.632812l-147.828125 68.132812h321.109375c-23.515625-65.617187-64.570313-95.710937-79.902344-105.054687zm0 0" fill="#ffe183"/><path d="m298.382812 379.585938 202.542969-67.226563c6.613281-2.195313 11.074219-8.378906 11.074219-15.34375v-157.410156zm0 0" fill="#ffc964"/><path d="m512 170.574219v-30.96875l-213.617188 239.980469 39.125-12.988282zm0 0" fill="#f3a334"/><path d="m321.109375 137.710938v-30.828126h-321.109375v123.722657c0 5.46875 4.433594 9.902343 9.902344 9.902343h219.703125zm0 0" fill="#ffc964"/><path d="m20.605469 230.605469v-123.722657h-20.605469v123.722657c0 5.46875 4.433594 9.902343 9.902344 9.902343h20.605468c-5.46875 0-9.902343-4.433593-9.902343-9.902343zm0 0" fill="#f3a334"/><path d="m210.210938 169.523438c0 13.492187-10.941407 24.433593-24.433594 24.433593-13.492188 0-24.433594-10.941406-24.433594-24.433593 0-13.492188 10.941406-24.429688 24.433594-24.429688 13.492187 0 24.433594 10.9375 24.433594 24.429688zm0 0" fill="#f3a334"/><path d="m437.148438 300.984375c-13.492188 0-24.429688 10.941406-24.429688 24.433594 0 5.480469 1.828125 10.523437 4.875 14.597656l43.988281-14.597656c0-13.492188-10.9375-24.433594-24.433593-24.433594zm0 0" fill="#f3a334"/><path d="m378.734375 84.605469c-4.535156-1.871094-9.757813-.667969-13.019531 2.996093l-152.617188 171.449219c-1.339844 1.507813-1.425781 3.757813-.179687 5.34375 11.925781 15.164063 2.195312 37.367188-16.554688 39.351563-5.726562.605468-11.101562-.769532-15.535156-3.519532-1.632813-1.015624-3.753906-.707031-5.03125.730469l-10.167969 11.421875c-3.953125 4.441406-2.339844 11.453125 3.152344 13.722656l129.601562 53.484376 213.617188-239.980469zm0 0" fill="#ffe183"/><g fill="#ffc964"><path d="m198.910156 303.328125c-.832031.175781-1.675781.324219-2.546875.417969-5.722656.605468-11.101562-.769532-15.535156-3.519532-1.632813-1.015624-3.753906-.707031-5.03125.730469l-10.167969 11.421875c-3.953125 4.441406-2.339844 11.453125 3.152344 13.722656l7.210938 2.972657zm0 0"/><path d="m389.609375 89.09375-10.875-4.488281c-4.535156-1.871094-9.757813-.667969-13.019531 2.996093l-152.617188 171.449219c-1.339844 1.507813-1.425781 3.757813-.179687 5.34375 4.210937 5.351563 5.710937 11.582031 5.078125 17.492188zm0 0"/><path d="m418.269531 139.605469c15.304688 0 27.882813-11.652344 29.351563-26.566407l-52.222656-21.554687c-4.140626 5.078125-6.628907 11.558594-6.628907 18.625.003907 16.289063 13.210938 29.496094 29.5 29.496094zm0 0"/></g><path d="m122.753906 148.3125c0 8.316406-6.742187 15.058594-15.058594 15.058594-8.316406 0-15.058593-6.742188-15.058593-15.058594 0-8.320312 6.742187-15.0625 15.058593-15.0625 8.316407 0 15.058594 6.742188 15.058594 15.0625zm0 0" fill="#f3a334"/><path d="m399.519531 208.851562c0 8.316407-6.742187 15.058594-15.058593 15.058594-8.316407 0-15.058594-6.742187-15.058594-15.058594 0-8.316406 6.742187-15.058593 15.058594-15.058593 8.316406 0 15.058593 6.742187 15.058593 15.058593zm0 0" fill="#ffc964"/><path d="m297.902344 318.359375c0 8.316406-6.742188 15.058594-15.058594 15.058594s-15.0625-6.742188-15.0625-15.058594 6.746094-15.058594 15.0625-15.058594 15.058594 6.742188 15.058594 15.058594zm0 0" fill="#ffc964"/><path d="m433.324219 325.417969c0-9.8125 5.785156-18.265625 14.128906-22.152344-3.132813-1.460937-6.621094-2.28125-10.300781-2.28125-13.496094 0-24.433594 10.941406-24.433594 24.433594 0 5.480469 1.828125 10.523437 4.875 14.597656l17.410156-5.777344c-1.070312-2.734375-1.679687-5.703125-1.679687-8.820312zm0 0" fill="#e87e04"/><path d="m409.378906 110.109375c0-4.210937.898438-8.207031 2.488282-11.828125l-16.46875-6.796875c-4.140626 5.078125-6.625 11.558594-6.625 18.625 0 16.289063 13.207031 29.496094 29.496093 29.496094 3.625 0 7.089844-.660157 10.296875-1.855469-11.207031-4.179688-19.1875-14.976562-19.1875-27.640625zm0 0" fill="#f3a334"/><path d="m393.21875 196.617188c-2.46875-1.769532-5.488281-2.824219-8.757812-2.824219-8.316407 0-15.058594 6.742187-15.058594 15.058593 0 8.320313 6.742187 15.0625 15.058594 15.0625 3.269531 0 6.289062-1.054687 8.757812-2.824218-8.410156-6.03125-8.394531-18.457032 0-24.472656zm0 0" fill="#f3a334"/><path d="m285.296875 318.359375c0-5.046875 2.492187-9.503906 6.304687-12.238281-2.46875-1.769532-5.488281-2.820313-8.757812-2.820313-8.316406 0-15.0625 6.742188-15.0625 15.058594s6.742188 15.058594 15.0625 15.058594c3.269531 0 6.289062-1.054688 8.757812-2.824219-3.8125-2.730469-6.304687-7.1875-6.304687-12.234375zm0 0" fill="#f3a334"/><path d="m240.21875 58.144531c0 8.316407-6.742188 15.058594-15.058594 15.058594s-15.058594-6.742187-15.058594-15.058594c0-8.316406 6.742188-15.058593 15.058594-15.058593s15.058594 6.742187 15.058594 15.058593zm0 0" fill="#ffc964"/><path d="m93.890625 202.273438c-18.714844 0-33.882813 15.171874-33.882813 33.886718 0 1.472656.105469 2.921875.285157 4.347656h67.195312c.183594-1.425781.285157-2.875.285157-4.347656 0-18.714844-15.167969-33.886718-33.882813-33.886718zm0 0" fill="#f3a334"/><path d="m196.078125 147.371094c-3.128906-1.460938-6.617187-2.277344-10.300781-2.277344-13.492188 0-24.433594 10.9375-24.433594 24.429688 0 13.496093 10.9375 24.433593 24.433594 24.433593 3.683594 0 7.171875-.820312 10.300781-2.277343-18.816406-8.769532-18.796875-35.554688 0-44.308594zm0 0" fill="#e87e04"/><path d="m113.242188 148.3125c0-4.328125 1.832031-8.21875 4.753906-10.964844-2.691406-2.53125-6.308594-4.097656-10.300782-4.097656-8.316406 0-15.058593 6.742188-15.058593 15.0625 0 8.316406 6.742187 15.058594 15.058593 15.058594 3.992188 0 7.609376-1.5625 10.300782-4.09375-2.921875-2.75-4.753906-6.640625-4.753906-10.964844zm0 0" fill="#e87e04"/><path d="m235.464844 47.183594c-2.695313-2.535156-6.3125-4.097656-10.304688-4.097656-8.316406 0-15.058594 6.742187-15.058594 15.058593 0 8.320313 6.742188 15.0625 15.058594 15.0625 3.992188 0 7.609375-1.5625 10.304688-4.097656-6.347656-5.96875-6.34375-15.96875 0-21.925781zm0 0" fill="#f3a334"/><path d="m104.191406 203.875c-3.246094-1.035156-6.707031-1.601562-10.300781-1.601562-18.710937 0-33.882813 15.171874-33.882813 33.886718 0 1.472656.105469 2.921875.285157 4.347656h20.605469c-.183594-1.425781-.285157-2.875-.285157-4.347656 0-15.121094 9.90625-27.925781 23.578125-32.285156zm0 0" fill="#e87e04"/><path d="m327.429688 240.507812c0 13.492188-10.941407 24.429688-24.433594 24.429688-13.492188 0-24.433594-10.9375-24.433594-24.429688 0-13.496093 10.941406-24.433593 24.433594-24.433593 13.492187 0 24.433594 10.9375 24.433594 24.433593zm0 0" fill="#ffc964"/><path d="m300.820312 240.507812c0-9.484374 5.410157-17.699218 13.304688-21.746093-3.339844-1.714844-7.117188-2.6875-11.128906-2.6875-13.492188 0-24.433594 10.941406-24.433594 24.433593 0 13.492188 10.941406 24.429688 24.433594 24.429688 4.011718 0 7.789062-.96875 11.128906-2.683594-7.894531-4.046875-13.304688-12.265625-13.304688-21.746094zm0 0" fill="#f3a334"/></svg>