<svg height="512" viewBox="0 0 58 58" width="512" xmlns="http://www.w3.org/2000/svg"><g id="Page-1" fill="none" fill-rule="evenodd"><g id="028---Wine-and-Cheese" fill-rule="nonzero"><path id="Shape" d="m34 20c0-.23.01-.49.02-.79.05-1.05.18-2.49.39-4.19l-28.94-.02c-.29746798-.0036879-.59177323.061333-.86.19-2.8 1.34-4.61 3.21-4.61 5.73v28c0 3.47 3.1 6.01 6.42 6.94.18870073.0517056.38523428.0686482.58.05.19081211-.0031835.37987913-.0369455.56-.1l17.06-5.71 8.46-2.82 10.89-3.64v-11.81c-5.7634017-.9846416-9.9759624-5.9830963-9.97-11.83z" fill="#f0c419"/><path id="Shape" d="m34.41 15.02c-.21 1.7-.34 3.14-.39 4.19l-5.09 1.66c-.0790701-.2147797-.1831176-.4195184-.31-.61-1.8-2.31-6-1.83-8.26-.63-.8535666.4201087-1.5150744 1.1495551-1.85 2.04-.2249158.5892597-.1344773 1.2524758.24 1.76.17.2.35.39.53.58l-11.78 3.83c-.16241032.0501239-.33030528.080345-.5.09-.23236229.0214375-.46667724-.0023336-.69-.07-3.82-1.19-6.31-3.86-6.31-6.94 0-2.52 1.81-4.39 4.61-5.73.26822677-.128667.56253202-.1936879.86-.19z" fill="#f3d55b"/><path id="Shape" d="m43.97 31.83v11.81l-10.89 3.64-8.46 2.82-17.06 5.71c-.18012087.0630545-.36918789.0968165-.56.1v-27.98c.16969472-.009655.33758968-.0398761.5-.09l11.78-3.83c.3068296.3062638.5877883.6373938.84.99.7796515 1.1358411 2.0273487 1.8624413 3.4 1.98 2.7949953.1405262 5.201561-1.9525236 5.45-4.74.0522689-.456229.0387983-.9175978-.04-1.37l5.09-1.66c-.01.3-.02.56-.02.79-.0059624 5.8469037 4.2065983 10.8453584 9.97 11.83z" fill="#f29c1f"/><g fill="#d25627"><path id="Shape" d="m33.08 47.27c-.420876-1.7239589-1.8444173-3.0209632-3.6-3.28-2.41-.23-4.59 1.95-4.87 4.87-.0417709.4124671-.0384177.8282603.01 1.24z"/><circle id="Oval" cx="20.5" cy="35.5" r="4.5"/><circle id="Oval" cx="34" cy="36" r="3"/><circle id="Oval" cx="14" cy="46" r="3"/></g><ellipse id="Oval" cx="9.3" cy="20.4" fill="#f29c1f" rx="3.7" ry="2"/><circle id="Oval" cx="31" cy="27" fill="#d25627" r="1"/><circle id="Oval" cx="12" cy="32" fill="#d25627" r="1"/><circle id="Oval" cx="21" cy="44" fill="#d25627" r="1"/><path id="Shape" d="m28.97 22.24c-.248439 2.7874764-2.6550047 4.8805262-5.45 4.74-1.3726513-.1175587-2.6203485-.8441589-3.4-1.98-.2522117-.3526062-.5331704-.6837362-.84-.99-.18-.19-.36-.38-.53-.58-.3744773-.5075242-.4649158-1.1707403-.24-1.76.3349256-.8904449.9964334-1.6198913 1.85-2.04 2.26-1.2 6.46-1.68 8.26.63.1268824.1904816.2309299.3952203.31.61.0787983.4524022.0922689.913771.04 1.37z" fill="#d25627"/><path id="Shape" d="m56.52 8.083c.7552548 3.9345051 1.2397253 7.9161845 1.45 11.917.0059712 5.8573914-4.2233644 10.8606954-10 11.83-.6540746.1120158-1.3164038.1688824-1.98.17-.6768764-.0006975-1.3525278-.0575592-2.02-.17-5.7634017-.9846416-9.9759624-5.9830963-9.97-11.83 0-.23.01-.49.02-.79.05-1.05.18-2.49.39-4.19.249-2.056.6-4.5 1.076-7.113z" fill="#802d40"/><path id="Shape" d="m47.97 50c4.98.31 8 2.13 8 3.85 0 1.96-4.05 4.14-10 4.14s-10-2.18-10-4.14c0-1.72 3.02-3.54 8-3.85z" fill="#9fc9d3"/><path id="Shape" d="m47.97 31.83v19.16c0 1.1045695-.8954305 2-2 2s-2-.8954305-2-2v-19.16z" fill="#84b5cb"/><path id="Shape" d="m57.11 11.66-.01-.01" fill="#84b5cb"/><path id="Shape" d="m45.987 29c-4.9654852-.0071724-8.9870052-4.0345096-8.987-9 0-.5522847.4477153-1 1-1s1 .4477153 1 1c-.0000067 3.8609221 3.1260845 6.9928297 6.987 7 .5522847 0 1 .4477153 1 1s-.4477153 1-1 1z" fill="#fff"/><path id="Shape" d="m57.1 11.65-3.13-1.72c-2.4863845-1.38672616-5.5136155-1.38672616-8 0-2.4916704 1.3800581-5.5183296 1.3800581-8.01 0l-2.58-1.43c.42-2.49.93-5.16 1.53-7.81.0988736-.4013856.4566446-.68513496.87-.69h16.41c.4155147-.00128951.7766275.28511026.87.69.85 3.81 1.54 7.65 2.04 10.96z" fill="#84b5cb"/></g></g></svg>