<svg height="512" viewBox="0 0 54 59" width="512" xmlns="http://www.w3.org/2000/svg"><g id="016---Gruyere" fill="none"><path id="Shape" d="m35 0h-15.3c-.4198933.00014084-.7949766.26257932-.939.657l-18.761 51.343c4 7 15 6 15 6h20c6.5613263.1019427 12.9926526-1.8344082 18.407-5.542.3568823-.2624828.4964605-.7297842.342-1.145z" fill="#e4c05c"/><path id="Shape" d="m53.749 51.313c.1544605.4152158.0148823.8825172-.342 1.145-5.4143474 3.7075918-11.8456737 5.6439427-18.407 5.542-12 0-19-6-19-6l19-52z" fill="#b19046"/><path id="Shape" d="m35 58h-20s-11 1-15-6h16s7 6 19 6z" fill="#7f6e5d"/><path id="Shape" d="m6 49c-.33207577.0002548-.64261706-.1643542-.82880358-.4393251-.18618652-.2749708-.22372874-.6244312-.10019642-.9326749l6-15c.2054499-.5130725.7879275-.7624499 1.301-.557.5130725.20545.7624499.7879275.557 1.301l-6 15c-.15212746.3795963-.52005501.6283137-.929.628z" fill="#f3d55b"/></g></svg>