<svg height="512" viewBox="0 0 58 50" width="512" xmlns="http://www.w3.org/2000/svg"><g id="004---Camembert" fill="none" transform="translate(-1)"><path id="Shape" d="m55 24.42c0-1.554-.01 5.425-.01-14.42 0-5.52-11.18-10-24.99-10s-24.99 4.48-24.99 10c0 0-.01 14.27 0 14.4-.199.2-4.01 2.327-4.01 5.6v9c0 6.08 12.98 11 29 11s29-4.92 29-11v-9c0-2.04-1.46-3.95-4-5.58z" fill="#e4c05c"/><path id="Shape" d="m55 35.58v-11.16c5.338 3.426 5.334 7.737 0 11.16z" fill="#5f5346"/><path id="Shape" d="m5 24.42v11.16c-5.338-3.426-5.334-7.737 0-11.16z" fill="#5f5346"/><path id="Shape" d="m55 24.42v11.16c-11.211 7.229-38.811 7.215-50 0v-11.16c0-.01 0-.01.01-.02.53 5.34 11.52 9.6 24.99 9.6 2.3391123.0023958 4.6763867-.1311628 7-.4 8-.93 14.35-3.42 16.84-6.6.623988-.7322904 1.0263682-1.6272394 1.16-2.58z" fill="#a59078"/><path id="Shape" d="m54.99 24c0 .14.01.27 0 .4z" fill="#b19046"/><path id="Shape" d="m5.01 24.4c-.01-.13-.01-.26-.01-.4z" fill="#b19046"/><path id="Shape" d="m30 10 6.98 9.6c-2.3169175.268851-4.6475374.4024109-6.98.4-13.81 0-24.99-4.48-24.99-10s11.18-10 24.99-10 24.99 4.48 24.99 10z" fill="#f3d55b"/><path id="Shape" d="m55 24.42-.01-.42" fill="#b19046"/><path id="Shape" d="m37 19.63v13.97c-2.3236133.2688372-4.6608877.4023958-7 .4-13.47 0-24.46-4.26-24.99-9.6v-14.4c0 5.52 11.18 10 24.99 10 4.641 0 6.933-.47 7-.37z" fill="#f0c419"/><path id="Shape" d="m54.99 10v14.4c-.1215359.9602818-.5212795 1.8640498-1.15 2.6h-16.84v-7.37l-7-9.63z" fill="#f9eab0"/><path id="Shape" d="m53.84 27c-2.49 3.18-8.84 5.67-16.84 6.6v-6.6z" fill="#cbb292"/></g></svg>