<svg height="512" viewBox="0 0 58 58" width="512" xmlns="http://www.w3.org/2000/svg"><g id="014---Mascarpone" fill="none"><path id="Shape" d="m53 25s0-8-9-10c0 0 0-9-9-10-.8596962-1.35639451-2.3990667-2.12607978-4-2-3 0-1-3-1-3-6 0-7 5-7 5-9 1-9 10-9 10-9 2-9 10-9 10l16 6h17z" fill="#f3d55b"/><path id="Shape" d="m50 25s0-8-7.875-10c0 0 0-9-7.875-10-.6794221-1.28964763-2.0439816-2.06939588-3.5-2-2.625 0-.875-3-.875-3-2.9834783-.03760199-5.5645485 2.06939411-6.125 5-7.875 1-7.875 10-7.875 10-7.875 2-7.875 10-7.875 10z" fill="#f9eab0"/><path id="Shape" d="m20 16h-1c-.5522847 0-1-.4477153-1-1s.4477153-1 1-1h1c.5522847 0 1 .4477153 1 1s-.4477153 1-1 1z" fill="#f3d55b"/><path id="Shape" d="m28 16h-4c-.5522847 0-1-.4477153-1-1s.4477153-1 1-1h4c.5522847 0 1 .4477153 1 1s-.4477153 1-1 1z" fill="#f3d55b"/><path id="Shape" d="m17 51h24v6c0 .5522847-.4477153 1-1 1h-22c-.5522847 0-1-.4477153-1-1z" fill="#14a085"/><path id="Shape" d="m2 25h54c1.1045695 0 2 .8954305 2 2v8c0 9.9411255-8.0588745 18-18 18h-22c-9.9411255 0-18-8.0588745-18-18v-8c0-1.1045695.8954305-2 2-2z" fill="#26b99a"/><g fill="#65ddb9"><path id="Shape" d="m5 30h-1c-.55228475 0-1-.4477153-1-1s.44771525-1 1-1h1c.55228475 0 1 .4477153 1 1s-.44771525 1-1 1z"/><path id="Shape" d="m29 30h-20c-.55228475 0-1-.4477153-1-1s.44771525-1 1-1h20c.5522847 0 1 .4477153 1 1s-.4477153 1-1 1z"/></g></g></svg>