<svg height="512" viewBox="0 0 58 58" width="512" xmlns="http://www.w3.org/2000/svg"><g id="017---Maasdam" fill="none"><path id="Shape" d="m29 0c-16.02 0-29 7.61-29 17v24c0 9.39 12.98 17 29 17 2.78733.0035716 5.5697306-.2343177 8.316-.711.9677788-.1611503 1.6788231-.9959095 1.684-1.977v-14.312h17c1.1032019-.0032948 1.9967052-.8967981 2-2v-22c0-9.39-12.98-17-29-17z" fill="#f3d55b"/><path id="Shape" d="m39 33v22.312c-.0051769.9810905-.7162212 1.8158497-1.684 1.977-18.083 3.171-37.316-4.627-37.316-16.289v-24c0 9.39 12.98 17 29 17 3.3578908-.0079452 6.7070287-.342859 10-1z" fill="#f0c419"/><g fill="#f9eab0"><path id="Shape" d="m58 17v22c-.0032948 1.1032019-.8967981 1.9967052-2 2h-17v-8l-10-16z"/><path id="Shape" d="m28 5.01c-.5522847.00579898-1.004701-.43721526-1.0105-.9895s.4372153-1.004701.9895-1.0105c.3393333-.00666667.6796667-.01 1.021-.01.5522847 0 1 .44771525 1 1s-.4477153 1-1 1c-.328 0-1 .01-1 .01z"/><path id="Shape" d="m4 18c-.55228475 0-1-.4477153-1-1 0-6.781 8.581-12.427 20.868-13.732.5492472-.05826604 1.041734.33975282 1.1.889s-.3397528 1.04173396-.889 1.1c-11.055 1.174-19.079 6.112-19.079 11.743 0 .5522847-.44771525 1-1 1z"/></g><circle id="Oval" cx="42" cy="24" fill="#a59078" r="3"/><path id="Shape" d="m58 32c-2.0627742 1.5470806-4.9637377 1.2718336-6.6987447-.6355851-1.7350071-1.9074188-1.7350071-4.821411 0-6.7288298 1.735007-1.9074187 4.6359705-2.1826657 6.6987447-.6355851z" fill="#a59078"/><circle id="Oval" cx="46" cy="34" fill="#a59078" r="2"/></g></svg>