<svg height="512" viewBox="0 0 58 48" width="512" xmlns="http://www.w3.org/2000/svg"><g id="009---Feta" fill="none"><path id="Shape" d="m58 13s-8-5-12-7-15-6-17-6c-2.063 0-29 12.02-29 16 0 .36.02 9 1 10.95 1 1.99 0 5.98 1 6.97 4.16865643 3.2218995 8.5083121 6.216262 13 8.97 1.886.938 8.113 6.017 13 4.98 5-1 6-4.98 11-7.97s14-7.97 16-9.96 3-2 3-3.99-1-4.98-1-6.97 1-3.99 1-5.98z" fill="#f9eab0"/><path id="Shape" d="m57 18.98c0 1.99 1 4.98 1 6.97s-1 1.99-3 3.99-11 6.97-16 9.96-6 6.97-11 7.97c-.3260418.0662286-.6573725.1030432-.99.11 1-2.01 1.99-6.99.99-8.98s0-7 0-7c2 0 2-3 4-3s4-2 7-3 3-5 5-5 2 0 4-2 3-1 6-3c1.4155983-.8853369 2.7537091-1.88892 4-3 0 1.99-1 3.99-1 5.98z" fill="#f3d55b"/><path id="Shape" d="m27.01 47.98c-4.78.25-10.14-4.16-12.01-5.09-4.4916879-2.753738-8.83134357-5.7481005-13-8.97-1-.99 0-4.98-1-6.97-.98-1.95-1-10.59-1-10.95 0 1 3 0 5 2 6.977 6.977 6.374 2.916 11 6 3 2 4 5 6 5s4 3 6 3c0 0-1 5 0 7s.01 6.97-.99 8.98z" fill="#f0c419"/><path id="Shape" d="m27.01 47.98c0 .01-.01.01-.01.02z" fill="#f9eab0"/><g fill="#f3d55b"><path id="Shape" d="m10 17c-.32126722-.0002439-.62285427-.1548257-.81063489-.4155001s-.23888567-.5956946-.13736511-.9004999c.559-1.684 1.526-3.684 2.948-3.684.5250262-.0004913.9610303.4051289.9983995.9288238.0373692.5236948-.3366231.9871137-.8563995 1.0611762-.5406606.6937643-.9457297 1.4832082-1.194 2.327-.1363018.4077985-.5180258.682817-.948.683z"/><path id="Shape" d="m19 11c-.4637737.0004331-.8669864-.3180616-.9739657-.7693284-.1069792-.45126668.1103516-.91687025.5249657-1.1246716.5722895-.25677039 1.0716424-.65199123 1.453-1.15.0002082-.26315325.1063485-.51514253.294484-.69913904s.4424232-.2845058.705516-.27886096c1.32 0 1.786 2.246-1.555 3.917-.1394434.0695-.2931973.1054558-.449.105z"/><path id="Shape" d="m46 15c-.3464401-.000185-.6681037-.1796678-.8501945-.4743943-.1820909-.2947265-.1986643-.6627032-.0438055-.9726057.638-1.275.179-1.852.16-1.876-.3479362-.4141624-.3133202-1.0276093.079-1.4.3830293-.36512784.9870047-.35936725 1.363.013.561.561 1.231 2.066.188 4.154-.1687448.3405402-.5159441.5559898-.896.556z"/><path id="Shape" d="m25.293 25.707c-.3973688-.3835618-.4085617-1.0166311-.025-1.414.3835618-.3973688 1.0166311-.4085617 1.414-.025.056.044.638.454 1.871-.163.4942948-.2468713 1.0951287-.0462948 1.342.448.2468713.4942949.0462948 1.0951287-.448 1.342-1.805.905-3.392.574-4.154-.188z"/></g></g></svg>