<svg height="512" viewBox="0 0 58 52" width="512" xmlns="http://www.w3.org/2000/svg"><g id="003---Brie" fill="none"><path id="Shape" d="m58 20c0-11.05-12.98-20-29-20s-29 8.95-29 20v12c0 10.81 12.43 19.62 27.98 19.99.2696777.0029403.5293087-.1022028.7209481-.2919634.1916393-.1897605.2993352-.448343.2990519-.7180366v-18.98z" fill="#e64c3c"/><path id="Shape" d="m29 40v10.98c.0002833.2696936-.1074126.5282761-.2990519.7180366-.1916394.1897606-.4512704.2949037-.7209481.2919634-15.55-.37-27.98-9.18-27.98-19.99v-12c0 11.05 12.98 20 29 20z" fill="#c03a2b"/><path id="Shape" d="m58 20v11c0 .5522847-.4477153 1-1 1h-3v7c-.0033854.8063114-.4906258 1.5317303-1.2357575 1.8398346s-1.6024026.138627-2.1742425-.4298346c-.743-.723-.59-1.39-.59-3.41-.0033854-.8063114-.4906258-1.5317303-1.2357575-1.8398346s-1.6024026-.138627-2.1742425.4298346c-.3798589.3704612-.5928231.8794095-.59 1.41v6c-.0033854.8063114-.4906258 1.5317303-1.2357575 1.8398346s-1.6024026.138627-2.1742425-.4298346c-.3798589-.3704612-.5928231-.8794095-.59-1.41v-11h-13v-10c.0032948-1.1032019.8967981-1.9967052 2-2z" fill="#f9eab0"/><path id="Shape" d="m42 26v6h-2v-6c0-.5522847.4477153-1 1-1s1 .4477153 1 1z" fill="#e4c05c"/><path id="Shape" d="m56 31v1h-2v-1c0-.5522847.4477153-1 1-1s1 .4477153 1 1z" fill="#e4c05c"/><path id="Shape" d="m24.9 36.794c-12.691-1.31-21.9-8.373-21.9-16.794 0-.5522847.44771525-1 1-1s1 .4477153 1 1c0 7.257 8.642 13.622 20.1 14.805.3605116.0304296.6764725.2532121.826217.5825617.1497445.3293495.109917.7138975-.1041463 1.0055676s-.568975.4449706-.9280707.4008707z" fill="#fb7b76"/><path id="Shape" d="m53.21 17c-.4083338.0000689-.7756915-.2481351-.928-.627-2.688-6.696-12.262-11.373-23.282-11.373-.5522847 0-1-.44771525-1-1s.4477153-1 1-1c11.816 0 22.153 5.192 25.138 12.627.1238959.308189.0866779.6577836-.0993256.9329806-.1860035.2751969-.4965138.4400754-.8286744.4400194z" fill="#fb7b76"/><g fill="#e4c05c"><path id="Shape" d="m33 28c0 .5522847-.4477153 1-1 1h-3v-2h3c.5522847 0 1 .4477153 1 1z"/><path id="Shape" d="m37 29h-1c-.5522847 0-1-.4477153-1-1s.4477153-1 1-1h1c.5522847 0 1 .4477153 1 1s-.4477153 1-1 1z"/><path id="Shape" d="m55 28c-.5522847 0-1-.4477153-1-1v-1c0-.5522847.4477153-1 1-1s1 .4477153 1 1v1c0 .5522847-.4477153 1-1 1z"/></g></g></svg>