<svg height="512" viewBox="0 0 56 58" width="512" xmlns="http://www.w3.org/2000/svg"><g id="002---Cheddar" fill="none"><path id="Shape" d="m34.89 29.21c.6778676-1.3544617.5347394-2.9752911-.37-4.19l-.49-.65c-.6587354-.8741405-.9298582-1.9803218-.75-3.06l.72-4.31-17-17c-12 0-17 7-17 7v30.64c-.00085866.8226105.50352852 1.5613193 1.27 1.86l26.73 10.5 5.31-2.28c.9558839-.4095441 1.4384213-1.4832985 1.11-2.47-.982-2.942-1.531-3.908-1-5.51 1.652-4.987 1.7-4.26.94-7.3-.2615374-1.1042502-.0707075-2.2672327.53-3.23z" fill="#f0c419"/><path id="Shape" d="m55.09 49.28c-.138-.414-.056-.415.91-4.28l-8.65-4.81c-.2233722-.1206861-.4840039-.1528188-.73-.09-3.6.973-3.547.816-3.83 1.16l-2.92 3.65v.01c-.5452771.3674381-.8715482.9824778-.87 1.64v3.05c0 .53-.028.493-1.51 4.17-.2947296.7403277-.1218712 1.5849766.44 2.15l1.48 1.48c.3761733.3774773.8870877.5897587 1.42.59h6.47c.4546436.0001259.895679-.1551186 1.25-.44 3.377-2.71 3.364-2.64 3.59-2.99l3.22-2.15c.3760392-.2456255.5401232-.7132649.4-1.14z" fill="#f0c419"/><path id="Shape" d="m34 17-6 2-28-12s5-7 17-7z" fill="#f3d55b"/><path id="Shape" d="m34.66 29.68c-1.274 2.519.8 3.922-.03 6.43-1.841 5.56-1.848 4.233-.21 9.14.3284213.9867015-.1541161 2.0604559-1.11 2.47l-5.31 2.28-1.42-4.25c-.674-2.023.388-3.355 1.19-4.69.7616524-1.26773.7616524-2.85227 0-4.12l-.54-.88c-.7601009-1.2681598-.7601009-2.8518402 0-4.12l.39-.63c.8348762-1.3957479.7440216-3.1575361-.23-4.46-.8854364-1.0702641-1.1609397-2.5194873-.73-3.84l1.34-4.01 6-2-.72 4.31c-.1798582 1.0796782.0912646 2.1858595.75 3.06l.49.65c.9083733 1.2133214 1.0516883 2.8362675.37 4.19z" fill="#f29c1f"/><path id="Shape" d="m56 45-4.47 2.68c-.1069425-.6308913-.5080297-1.1731019-1.08-1.46l-3.71-1.85c-.4744102-.2410898-1.0259808-.2807452-1.53-.11-2.406.807-1.981.788-3.72.36-.5565954-.1402828-1.1466348-.0346584-1.62.29 3.174-3.968 3.009-3.88 3.46-3.99 3.639-.887 3.55-.975 4.02-.73z" fill="#f3d55b"/><path id="Shape" d="m55.76 51.28c.1401232.4267351-.0239608.8943745-.4 1.14l-3.22 2.15c.4092492-.5982206.4628111-1.3710426.14-2.02l-.91-1.81c-.674-1.321.354-1.817.16-3.06l4.47-2.68c-1.028 4.112-1.032 3.913-.91 4.28z" fill="#f29c1f"/><circle id="Oval" cx="13" cy="27" fill="#f29c1f" r="1"/><circle id="Oval" cx="16" cy="39" fill="#b19046" r="1"/><circle id="Oval" cx="7" cy="33" fill="#b19046" r="1"/><circle id="Oval" cx="21" cy="32" fill="#f29c1f" r="1"/><circle id="Oval" cx="7" cy="19" fill="#f29c1f" r="1"/><circle id="Oval" cx="21" cy="22" fill="#b19046" r="1"/></g></svg>