<svg height="512" viewBox="0 0 58 45" width="512" xmlns="http://www.w3.org/2000/svg"><g id="007---Roquefort" fill="none"><path id="Shape" d="m41 45-39.56-11.58c-.85333333-.2488889-1.44-1.0311111-1.44-1.92v-13.5l10.66 6c.48.438.1.288 9.86 3.17.659.2.459.119 6.29 5.95.1261382.1237287.2672292.2312266.42.32z" fill="#f3d55b"/><path id="Shape" d="m58 20.9v4.1l-17 20c-15.155-8.661-13.923-7.923-14.19-8.19-5.953-5.953-5.639-5.758-6.29-5.95-9.79-2.891-9.385-2.737-9.86-3.17l-10.66-9.69 24.84-17.2c.6941967-.47894683 1.6142372-.47094648 2.3.02l5.55 3.95c.413.295.213.1 3.58 4.31.4698634.59236653 1.1437921.9881659 1.89 1.11l3.87.65c.6336918.1025872 1.2184494.4037199 1.67.86l3.7 3.7c.3941759.3897683.8838651.6690981 1.42.81l6.85 1.71c1.3699135.3387549 2.3316797 1.5688249 2.33 2.98z" fill="#f9eab0"/><path id="Shape" d="m11.336 16.642-1.673 1.619c-.39448868.3853602-.40519324 1.0164834-.024 1.415.768.814 2.109 1.883 3.361 1.13 2.139-1.288.72-3.182-.271-4.164-.3879762-.3765909-1.0050238-.3765909-1.393 0z" fill="#41767f"/><path id="Shape" d="m25 28c0 1 0 3 3 3s4 1 5 0-1-4-3-4-5-1-5 1z" fill="#547580"/><path id="Shape" d="m38 25c-1 1 1 2 2 4 .9558222 1.8738896 2.8967693 3.0384579 5 3 2 0 2 0 1-2s-7-6-8-5z" fill="#547580"/><path id="Shape" d="m34 24c-.4797287-.0000811-.891811-.3408253-.982-.812-.3149673-.1569564-.667748-.2221065-1.018-.188-1.5417025-.0605166-3.0548682-.4348099-4.447-1.1-.3197527-.1595191-.530114-.4775068-.5518427-.8341803-.0217288-.3566735.148476-.6978456.4465-.895.2980239-.1971545.67859-.2203388.9983427-.0608197 1.1146758.5273176 2.3223606.8297485 3.554.89 3.521 0 3.579 3 2 3z" fill="#41767f"/><path id="Shape" d="m24 7.889c0 1 0 3 3 4s4 1 5 0-2-2-4-4c-.5224574-.54522571-1.2448624-.85351885-2-.85351885s-1.4775426.30829314-2 .85351885z" fill="#547580"/><g fill="#41767f"><circle id="Oval" cx="20" cy="14" r="1"/><circle id="Oval" cx="21" cy="22" r="1"/><circle id="Oval" cx="26" cy="17" r="1"/><path id="Shape" d="m50 25c-.337 0-.127.055-4.446-2.105-1.5009547-.7320043-2.481017-2.2266569-2.554-3.895 0-.5522847.4477153-1 1-1s1 .4477153 1 1c.0681617.9108862.6192502 1.7153838 1.444 2.108l4 2c.4114889.2084923.6269691.6714038.5215793 1.1204975-.1053899.4490936-.5043.7678248-.9655793.7715025z"/><path id="Shape" d="m39 38c-.1543931.001545-.307047-.0326823-.446-.1-1.5023338-.7330202-2.4825995-2.2299019-2.554-3.9 0-.5522847.4477153-1 1-1s1 .4477153 1 1c.0681617.9108862.6192502 1.7153838 1.444 2.108.4114889.2084923.6269691.6714038.5215793 1.1204975-.1053899.4490936-.5043.7678248-.9655793.7715025z"/></g></g></svg>