<svg height="512" viewBox="0 0 58 58" width="512" xmlns="http://www.w3.org/2000/svg"><g id="005---Edam" fill="none"><path id="Shape" d="m29 0c-16.02 0-29 7.61-29 17v24c0 9.39 12.98 17 29 17 2.78733.0035716 5.5697306-.2343177 8.316-.711.9677788-.1611503 1.6788231-.9959095 1.684-1.977v-14.312h17c1.1032019-.0032948 1.9967052-.8967981 2-2v-22c0-9.39-12.98-17-29-17z" fill="#c03a2b"/><path id="Shape" d="m38.98 32.97c-18.022 3.883-38.98-3.67-38.98-15.97 0-9.39 12.98-17 29-17s29 7.61 29 17h-29c3.574 5.718 1.966 3.146 9.98 15.97z" fill="#e64c3c"/><path id="Shape" d="m54 22v14c0 .5522847-.4477153 1-1 1h-14v-4l-7.5-12h21.5c.5522847 0 1 .4477153 1 1z" fill="#f9eab0"/><path id="Shape" d="m58 17v22c-.0032948 1.1032019-.8967981 1.9967052-2 2h-17v-4h14c.5522847 0 1-.4477153 1-1v-14c0-.5522847-.4477153-1-1-1h-21.5l-2.5-4z" fill="#802f34"/><g fill="#fff"><path id="Shape" d="m28 5.01c-.5522847.00579898-1.004701-.43721526-1.0105-.9895s.4372153-1.004701.9895-1.0105c.3393333-.00666667.6796667-.01 1.021-.01.5522847 0 1 .44771525 1 1s-.4477153 1-1 1c-.328 0-1 .01-1 .01z"/><path id="Shape" d="m4 18c-.55228475 0-1-.4477153-1-1 0-6.781 8.581-12.427 20.868-13.732.5475844-.0526828 1.0366238.34254998 1.1.889.0280022.26376204-.0499327.52784373-.2166567.73413882-.1667239.2062951-.4085768.33790132-.6723433.36586118-11.055 1.174-19.079 6.112-19.079 11.743 0 .5522847-.44771525 1-1 1z"/></g></g></svg>