<svg height="512" viewBox="0 0 53 58" width="512" xmlns="http://www.w3.org/2000/svg"><g id="010---Brie" fill="none" transform="translate(0 -1)"><path id="Shape" d="m25.95 2.24c-13.19-4.68-17.81 5.36-17.81 5.36l-8.02 22.61c-.17963503.4999044-.15301907 1.0507353.07397698 1.5309914.22699604.480256.63572243.85048 1.13602302 1.0290086l31.34 11.12c.7945247.2846841 1.3260563 1.0360219 1.33 1.88v7.23c.0469442 1.6568542 1.4281458 2.9619442 3.085 2.915s2.9619442-1.4281458 2.915-3.085v-.83c.0303675-1.0717968.6302251-2.045977 1.5736121-2.5555763.9433871-.5095993 2.0869806-.4771975 3.0000001.085.9130194.5621975 1.4567554 1.5687795 1.4263878 2.6405763v3.83c.0303675 1.0717968.6302251 2.045977 1.5736121 2.5555763.9433871.5095993 2.0869806.4771975 3.0000001-.085.9130194-.5621975 1.4567554-1.5687795 1.4263878-2.6405763 0-33.23.09-32.83-.01-32.83.05-.1.7.529-26.04-20.76z" fill="#f3d55b"/><path id="Shape" d="m52 22.98-43.86-15.38s4.62-10.04 17.81-5.36z" fill="#f5efca"/><circle id="Oval" cx="13" cy="28" fill="#f0c419" r="2"/><circle id="Oval" cx="35" cy="26" fill="#f0c419" r="2"/><g fill="#f5efca"><path id="Shape" d="m48 28c-.5522847 0-1-.4477153-1-1v-1c0-.5522847.4477153-1 1-1s1 .4477153 1 1v1c0 .5522847-.4477153 1-1 1z"/><path id="Shape" d="m48 44c-.5522847 0-1-.4477153-1-1v-12c0-.5522847.4477153-1 1-1s1 .4477153 1 1v12c0 .5522847-.4477153 1-1 1z"/></g></g></svg>