<?xml version="1.0"?>
<svg xmlns="http://www.w3.org/2000/svg" xmlns:xlink="http://www.w3.org/1999/xlink" version="1.1" id="Capa_1" x="0px" y="0px" viewBox="0 0 511.77 511.77" style="enable-background:new 0 0 511.77 511.77;" xml:space="preserve" width="512px" height="512px" class="hovered-paths"><g><path id="SVGCleanerId_0" style="fill:#5D9CEC;" d="M454.245,273.385c-20.943-21.029-231.799-164-231.799-164  C233.644,176.306,9.986,8.473,4.067,4.069c4.404,5.919,172.324,229.577,105.309,218.379c0,0,142.978,210.86,164.003,231.888  c49.89,49.898,130.89,49.898,180.866,0C504.221,404.361,504.221,323.282,454.245,273.385z M363.812,451.776  c-48.539,0-87.958-39.419-87.958-87.958c0-48.531,39.419-87.958,87.958-87.958s87.958,39.427,87.958,87.958  C451.77,412.357,412.351,451.776,363.812,451.776z" data-original="#5D9CEC" class=""/><g>
	<path id="SVGCleanerId_0_1_" style="fill:#5D9CEC;" d="M454.245,273.385c-20.943-21.029-231.799-164-231.799-164   C233.644,176.306,9.986,8.473,4.067,4.069c4.404,5.919,172.324,229.577,105.309,218.379c0,0,142.978,210.86,164.003,231.888   c49.89,49.898,130.89,49.898,180.866,0C504.221,404.361,504.221,323.282,454.245,273.385z M363.812,451.776   c-48.539,0-87.958-39.419-87.958-87.958c0-48.531,39.419-87.958,87.958-87.958s87.958,39.427,87.958,87.958   C451.77,412.357,412.351,451.776,363.812,451.776z" data-original="#5D9CEC" class=""/>
</g><path style="fill:#403F4C" d="M109.376,222.448l11.229,16.507l13.603-8.425c1.5-1.656,2.796-3.538,3.85-5.638  c10.503-20.935-11.588-72.152-65.897-152.872c51.85,34.749,110.275,69.107,138.542,69.1c9.667,0,15.915-3.389,19.803-6.926  l8.199-13.751l-16.258-11.058C233.644,176.306,9.986,8.473,4.067,4.069C8.471,9.988,176.39,233.646,109.376,222.448z" data-original="#AC92EC" class="active-path" data-old_color="#AC92EC"/><g style="opacity:0.3;">
	<path style="fill:#FFFFFF;" d="M491.75,363.841c0,70.677-57.262,127.938-127.938,127.938s-127.935-57.262-127.935-127.938   s57.258-127.938,127.935-127.938S491.75,293.164,491.75,363.841z" data-original="#FFFFFF" class=""/>
</g><g style="opacity:0.3;">
	<path style="fill:#FFFFFF;" d="M471.76,363.841c0,59.628-48.32,107.948-107.948,107.948s-107.944-48.32-107.944-107.948   s48.316-107.948,107.944-107.948S471.76,304.213,471.76,363.841z" data-original="#FFFFFF" class=""/>
</g><circle style="fill:#FFFFFF;" cx="363.815" cy="363.845" r="87.974" data-original="#FFFFFF" class=""/><g>
	<path style="fill:#3A3847;" d="M318.825,435.666c-2.21,0-4.037-1.789-4.037-3.998c0-2.211,1.749-3.998,3.951-3.998h0.086   c2.202,0,3.998,1.787,3.998,3.998C322.823,433.877,321.028,435.666,318.825,435.666z" data-original="#3A3847" class=""/>
	<path style="fill:#3A3847;" d="M341.455,435.666c-2.21,0-4.037-1.789-4.037-3.998c0-2.211,1.749-3.998,3.951-3.998h0.086   c2.202,0,3.998,1.787,3.998,3.998C345.453,433.877,343.657,435.666,341.455,435.666z" data-original="#3A3847" class=""/>
	<path style="fill:#3A3847;" d="M364.07,435.666c-2.21,0-4.037-1.789-4.037-3.998c0-2.211,1.749-3.998,3.951-3.998h0.086   c2.202,0,3.998,1.787,3.998,3.998C368.068,433.877,366.272,435.666,364.07,435.666z" data-original="#3A3847" class=""/>
	<path style="fill:#3A3847;" d="M386.684,435.666c-2.21,0-4.037-1.789-4.037-3.998c0-2.211,1.749-3.998,3.951-3.998h0.086   c2.202,0,3.998,1.787,3.998,3.998C390.682,433.877,388.886,435.666,386.684,435.666z" data-original="#3A3847" class=""/>
	<path style="fill:#3A3847;" d="M409.298,435.666c-2.21,0-4.037-1.789-4.037-3.998c0-2.211,1.749-3.998,3.951-3.998h0.086   c2.202,0,3.998,1.787,3.998,3.998C413.296,433.877,411.5,435.666,409.298,435.666z" data-original="#3A3847" class=""/>
	<path style="fill:#3A3847;" d="M296.211,413.052c-2.209,0-4.037-1.788-4.037-3.998s1.75-3.999,3.951-3.999h0.086   c2.202,0,3.998,1.789,3.998,3.999S298.413,413.052,296.211,413.052z" data-original="#3A3847" class=""/>
	<path style="fill:#3A3847;" d="M318.825,413.052c-2.21,0-4.037-1.788-4.037-3.998s1.749-3.999,3.951-3.999h0.086   c2.202,0,3.998,1.789,3.998,3.999S321.028,413.052,318.825,413.052z" data-original="#3A3847" class=""/>
	<path style="fill:#3A3847;" d="M341.455,413.052c-2.21,0-4.037-1.788-4.037-3.998s1.749-3.999,3.951-3.999h0.086   c2.202,0,3.998,1.789,3.998,3.999S343.657,413.052,341.455,413.052z" data-original="#3A3847" class=""/>
	<path style="fill:#3A3847;" d="M364.07,413.052c-2.21,0-4.037-1.788-4.037-3.998s1.749-3.999,3.951-3.999h0.086   c2.202,0,3.998,1.789,3.998,3.999S366.272,413.052,364.07,413.052z" data-original="#3A3847" class=""/>
	<path style="fill:#3A3847;" d="M386.684,413.052c-2.21,0-4.037-1.788-4.037-3.998s1.749-3.999,3.951-3.999h0.086   c2.202,0,3.998,1.789,3.998,3.999S388.886,413.052,386.684,413.052z" data-original="#3A3847" class=""/>
	<path style="fill:#3A3847;" d="M409.298,413.052c-2.21,0-4.037-1.788-4.037-3.998s1.749-3.999,3.951-3.999h0.086   c2.202,0,3.998,1.789,3.998,3.999S411.5,413.052,409.298,413.052z" data-original="#3A3847" class=""/>
	<path style="fill:#3A3847;" d="M431.912,413.052c-2.21,0-4.037-1.788-4.037-3.998s1.749-3.999,3.951-3.999h0.086   c2.201,0,3.998,1.789,3.998,3.999S434.114,413.052,431.912,413.052z" data-original="#3A3847" class=""/>
	<path style="fill:#3A3847;" d="M296.211,390.438c-2.209,0-4.037-1.788-4.037-3.998s1.75-3.998,3.951-3.998h0.086   c2.202,0,3.998,1.788,3.998,3.998S298.413,390.438,296.211,390.438z" data-original="#3A3847" class=""/>
	<path style="fill:#3A3847;" d="M318.825,390.438c-2.21,0-4.037-1.788-4.037-3.998s1.749-3.998,3.951-3.998h0.086   c2.202,0,3.998,1.788,3.998,3.998S321.028,390.438,318.825,390.438z" data-original="#3A3847" class=""/>
	<path style="fill:#3A3847;" d="M341.455,390.438c-2.21,0-4.037-1.788-4.037-3.998s1.749-3.998,3.951-3.998h0.086   c2.202,0,3.998,1.788,3.998,3.998S343.657,390.438,341.455,390.438z" data-original="#3A3847" class=""/>
	<path style="fill:#3A3847;" d="M364.07,390.438c-2.21,0-4.037-1.788-4.037-3.998s1.749-3.998,3.951-3.998h0.086   c2.202,0,3.998,1.788,3.998,3.998S366.272,390.438,364.07,390.438z" data-original="#3A3847" class=""/>
	<path style="fill:#3A3847;" d="M386.684,390.438c-2.21,0-4.037-1.788-4.037-3.998s1.749-3.998,3.951-3.998h0.086   c2.202,0,3.998,1.788,3.998,3.998S388.886,390.438,386.684,390.438z" data-original="#3A3847" class=""/>
	<path style="fill:#3A3847;" d="M409.298,390.438c-2.21,0-4.037-1.788-4.037-3.998s1.749-3.998,3.951-3.998h0.086   c2.202,0,3.998,1.788,3.998,3.998S411.5,390.438,409.298,390.438z" data-original="#3A3847" class=""/>
	<path style="fill:#3A3847;" d="M431.912,390.438c-2.21,0-4.037-1.788-4.037-3.998s1.749-3.998,3.951-3.998h0.086   c2.201,0,3.998,1.788,3.998,3.998S434.114,390.438,431.912,390.438z" data-original="#3A3847" class=""/>
	<path style="fill:#3A3847;" d="M296.211,367.823c-2.209,0-4.037-1.788-4.037-3.998s1.75-3.998,3.951-3.998h0.086   c2.202,0,3.998,1.788,3.998,3.998S298.413,367.823,296.211,367.823z" data-original="#3A3847" class=""/>
	<path style="fill:#3A3847;" d="M318.825,367.823c-2.21,0-4.037-1.788-4.037-3.998s1.749-3.998,3.951-3.998h0.086   c2.202,0,3.998,1.788,3.998,3.998S321.028,367.823,318.825,367.823z" data-original="#3A3847" class=""/>
	<path style="fill:#3A3847;" d="M341.455,367.823c-2.21,0-4.037-1.788-4.037-3.998s1.749-3.998,3.951-3.998h0.086   c2.202,0,3.998,1.788,3.998,3.998S343.657,367.823,341.455,367.823z" data-original="#3A3847" class=""/>
	<path style="fill:#3A3847;" d="M364.07,367.823c-2.21,0-4.037-1.788-4.037-3.998s1.749-3.998,3.951-3.998h0.086   c2.202,0,3.998,1.788,3.998,3.998S366.272,367.823,364.07,367.823z" data-original="#3A3847" class=""/>
	<path style="fill:#3A3847;" d="M386.684,367.823c-2.21,0-4.037-1.788-4.037-3.998s1.749-3.998,3.951-3.998h0.086   c2.202,0,3.998,1.788,3.998,3.998S388.886,367.823,386.684,367.823z" data-original="#3A3847" class=""/>
	<path style="fill:#3A3847;" d="M409.298,367.823c-2.21,0-4.037-1.788-4.037-3.998s1.749-3.998,3.951-3.998h0.086   c2.202,0,3.998,1.788,3.998,3.998S411.5,367.823,409.298,367.823z" data-original="#3A3847" class=""/>
	<path style="fill:#3A3847;" d="M431.912,367.823c-2.21,0-4.037-1.788-4.037-3.998s1.749-3.998,3.951-3.998h0.086   c2.201,0,3.998,1.788,3.998,3.998S434.114,367.823,431.912,367.823z" data-original="#3A3847" class=""/>
	<path style="fill:#3A3847;" d="M296.211,345.201c-2.209,0-4.037-1.788-4.037-3.998s1.75-3.998,3.951-3.998h0.086   c2.202,0,3.998,1.788,3.998,3.998S298.413,345.201,296.211,345.201z" data-original="#3A3847" class=""/>
	<path style="fill:#3A3847;" d="M318.825,345.201c-2.21,0-4.037-1.788-4.037-3.998s1.749-3.998,3.951-3.998h0.086   c2.202,0,3.998,1.788,3.998,3.998S321.028,345.201,318.825,345.201z" data-original="#3A3847" class=""/>
	<path style="fill:#3A3847;" d="M341.455,345.201c-2.21,0-4.037-1.788-4.037-3.998s1.749-3.998,3.951-3.998h0.086   c2.202,0,3.998,1.788,3.998,3.998S343.657,345.201,341.455,345.201z" data-original="#3A3847" class=""/>
	<path style="fill:#3A3847;" d="M364.07,345.201c-2.21,0-4.037-1.788-4.037-3.998s1.749-3.998,3.951-3.998h0.086   c2.202,0,3.998,1.788,3.998,3.998S366.272,345.201,364.07,345.201z" data-original="#3A3847" class=""/>
	<path style="fill:#3A3847;" d="M386.684,345.201c-2.21,0-4.037-1.788-4.037-3.998s1.749-3.998,3.951-3.998h0.086   c2.202,0,3.998,1.788,3.998,3.998S388.886,345.201,386.684,345.201z" data-original="#3A3847" class=""/>
	<path style="fill:#3A3847;" d="M409.298,345.201c-2.21,0-4.037-1.788-4.037-3.998s1.749-3.998,3.951-3.998h0.086   c2.202,0,3.998,1.788,3.998,3.998S411.5,345.201,409.298,345.201z" data-original="#3A3847" class=""/>
	<path style="fill:#3A3847;" d="M431.912,345.201c-2.21,0-4.037-1.788-4.037-3.998s1.749-3.998,3.951-3.998h0.086   c2.201,0,3.998,1.788,3.998,3.998S434.114,345.201,431.912,345.201z" data-original="#3A3847" class=""/>
	<path style="fill:#3A3847;" d="M296.211,322.587c-2.209,0-4.037-1.788-4.037-3.998s1.75-3.998,3.951-3.998h0.086   c2.202,0,3.998,1.788,3.998,3.998S298.413,322.587,296.211,322.587z" data-original="#3A3847" class=""/>
	<path style="fill:#3A3847;" d="M318.825,322.587c-2.21,0-4.037-1.788-4.037-3.998s1.749-3.998,3.951-3.998h0.086   c2.202,0,3.998,1.788,3.998,3.998S321.028,322.587,318.825,322.587z" data-original="#3A3847" class=""/>
	<path style="fill:#3A3847;" d="M341.455,322.587c-2.21,0-4.037-1.788-4.037-3.998s1.749-3.998,3.951-3.998h0.086   c2.202,0,3.998,1.788,3.998,3.998S343.657,322.587,341.455,322.587z" data-original="#3A3847" class=""/>
	<path style="fill:#3A3847;" d="M364.07,322.587c-2.21,0-4.037-1.788-4.037-3.998s1.749-3.998,3.951-3.998h0.086   c2.202,0,3.998,1.788,3.998,3.998S366.272,322.587,364.07,322.587z" data-original="#3A3847" class=""/>
	<path style="fill:#3A3847;" d="M386.684,322.587c-2.21,0-4.037-1.788-4.037-3.998s1.749-3.998,3.951-3.998h0.086   c2.202,0,3.998,1.788,3.998,3.998S388.886,322.587,386.684,322.587z" data-original="#3A3847" class=""/>
	<path style="fill:#3A3847;" d="M409.298,322.587c-2.21,0-4.037-1.788-4.037-3.998s1.749-3.998,3.951-3.998h0.086   c2.202,0,3.998,1.788,3.998,3.998S411.5,322.587,409.298,322.587z" data-original="#3A3847" class=""/>
	<path style="fill:#3A3847;" d="M431.912,322.587c-2.21,0-4.037-1.788-4.037-3.998s1.749-3.998,3.951-3.998h0.086   c2.201,0,3.998,1.788,3.998,3.998S434.114,322.587,431.912,322.587z" data-original="#3A3847" class=""/>
	<path style="fill:#3A3847;" d="M318.825,299.965c-2.21,0-4.037-1.788-4.037-3.998c0-2.209,1.749-3.998,3.951-3.998h0.086   c2.202,0,3.998,1.789,3.998,3.998C322.823,298.177,321.028,299.965,318.825,299.965z" data-original="#3A3847" class=""/>
	<path style="fill:#3A3847;" d="M341.455,299.965c-2.21,0-4.037-1.788-4.037-3.998c0-2.209,1.749-3.998,3.951-3.998h0.086   c2.202,0,3.998,1.789,3.998,3.998C345.453,298.177,343.657,299.965,341.455,299.965z" data-original="#3A3847" class=""/>
	<path style="fill:#3A3847;" d="M364.07,299.965c-2.21,0-4.037-1.788-4.037-3.998c0-2.209,1.749-3.998,3.951-3.998h0.086   c2.202,0,3.998,1.789,3.998,3.998C368.068,298.177,366.272,299.965,364.07,299.965z" data-original="#3A3847" class=""/>
	<path style="fill:#3A3847;" d="M386.684,299.965c-2.21,0-4.037-1.788-4.037-3.998c0-2.209,1.749-3.998,3.951-3.998h0.086   c2.202,0,3.998,1.789,3.998,3.998C390.682,298.177,388.886,299.965,386.684,299.965z" data-original="#3A3847" class=""/>
	<path style="fill:#3A3847;" d="M409.298,299.965c-2.21,0-4.037-1.788-4.037-3.998c0-2.209,1.749-3.998,3.951-3.998h0.086   c2.202,0,3.998,1.789,3.998,3.998C413.296,298.177,411.5,299.965,409.298,299.965z" data-original="#3A3847" class=""/>
	<path style="fill:#3A3847;" d="M363.827,455.797c-50.71,0-91.972-41.254-91.972-91.964s41.246-91.964,91.94-91.964   c50.726,0,91.987,41.254,92.003,91.964C455.768,414.543,414.506,455.797,363.827,455.797z M363.827,279.865   c-46.313,0-83.976,37.67-83.976,83.968s37.67,83.968,83.976,83.968c46.274,0,83.944-37.67,83.976-83.968   C447.787,317.535,410.117,279.865,363.827,279.865z" data-original="#3A3847" class=""/>
	<path style="fill:#3A3847;" d="M363.827,475.787c-49.608,0-92.658-31.859-107.108-79.282c-0.641-2.108,0.547-4.342,2.658-4.99   c2.121-0.64,4.346,0.547,4.99,2.663c13.416,44.025,53.389,73.613,99.46,73.613c4.561,0,9.168-0.305,13.712-0.898   c2.14-0.289,4.193,1.258,4.482,3.451c0.281,2.188-1.257,4.193-3.451,4.482C373.69,475.467,368.732,475.787,363.827,475.787z    M393.688,471.602c-1.741,0-3.342-1.141-3.842-2.897c-0.608-2.116,0.617-4.333,2.741-4.942c4.927-1.414,9.776-3.218,14.423-5.342   c1.983-0.937,4.365-0.047,5.294,1.969c0.922,2.006,0.039,4.372-1.968,5.294c-4.997,2.296-10.229,4.24-15.547,5.763   C394.422,471.555,394.055,471.602,393.688,471.602z M257.035,383.753c-1.948,0-3.659-1.429-3.951-3.412   c-0.805-5.419-1.211-10.979-1.211-16.508c0-2.21,1.789-3.998,3.998-3.998c2.21,0,3.998,1.788,3.998,3.998   c0,5.138,0.379,10.3,1.125,15.336c0.324,2.187-1.188,4.217-3.369,4.537C257.426,383.738,257.231,383.753,257.035,383.753z    M468.043,339.603c-1.765,0-3.373-1.171-3.857-2.952c-1.344-4.95-3.062-9.831-5.115-14.508c-0.882-2.023,0.031-4.381,2.054-5.271   c2.03-0.859,4.389,0.031,5.271,2.054c2.21,5.044,4.061,10.3,5.505,15.633c0.578,2.132-0.68,4.326-2.812,4.904   C468.739,339.556,468.387,339.603,468.043,339.603z M455.252,310.406c-1.327,0-2.623-0.663-3.381-1.866   c-19.179-30.47-52.092-48.664-88.036-48.664c0,0,0,0-0.008,0c-13.931,0-27.455,2.71-40.199,8.051   c-2.046,0.852-4.373-0.102-5.231-2.14c-0.859-2.038,0.102-4.381,2.139-5.231c13.736-5.759,28.299-8.676,43.292-8.676h0.008   c38.716,0,74.152,19.584,94.798,52.396c1.18,1.874,0.617,4.342-1.249,5.514C456.721,310.21,455.987,310.406,455.252,310.406z    M294.853,284.785c-1.147,0-2.28-0.492-3.077-1.445c-1.405-1.694-1.179-4.217,0.523-5.63c4.24-3.529,8.785-6.771,13.486-9.628   c1.89-1.133,4.342-0.539,5.497,1.343c1.14,1.89,0.539,4.35-1.343,5.498c-4.373,2.646-8.59,5.653-12.533,8.94   C296.664,284.481,295.759,284.785,294.853,284.785z" data-original="#3A3847" class=""/>
	<path style="fill:#3A3847;" d="M454.284,458.295c-1.023,0-2.046-0.391-2.827-1.171c-1.562-1.562-1.562-4.092,0-5.653   c23.41-23.411,36.303-54.537,36.303-87.646s-12.893-64.235-36.303-87.646C433.005,257.723,262.079,141.15,226.632,117.04   c-0.805,5.299-3.549,8.188-6.13,9.753c-2.358,1.429-5.439,2.093-9.113,2.097C164.486,128.903,19.204,20.467,1.599,7.192   C-0.166,5.86-0.517,3.354,0.81,1.593C2.145-0.16,4.648-0.531,6.409,0.804c70.048,52.807,188.987,131.91,209.946,119.15   c0.862-0.52,3.479-2.108,2.179-9.913c-0.262-1.578,0.441-3.159,1.784-4.021c1.351-0.855,3.076-0.844,4.404,0.059   c8.621,5.845,211.36,143.415,232.388,164.448c24.918,24.917,38.646,58.05,38.646,93.299c0.008,35.249-13.72,68.381-38.646,93.299   C456.33,457.905,455.307,458.295,454.284,458.295z" data-original="#3A3847" class=""/>
	<path style="fill:#3A3847;" d="M363.82,495.699c-33.788,0-67.569-12.861-93.291-38.575   c-21.041-21.045-158.604-223.787-164.452-232.408c-0.894-1.323-0.917-3.057-0.055-4.404c0.863-1.343,2.476-2.034,4.021-1.784   c7.844,1.304,9.398-1.316,9.917-2.179C132.665,195.391,53.621,76.451,0.811,6.404C-0.517,4.643-0.166,2.136,1.6,0.805   c1.769-1.332,4.271-0.964,5.599,0.789c14.313,18.983,139.28,186.434,119.603,218.903c-1.57,2.581-4.455,5.326-9.757,6.134   c24.11,35.444,140.679,206.374,159.138,224.841c48.328,48.312,126.947,48.312,175.275,0c1.562-1.562,4.092-1.562,5.653,0   c1.562,1.562,1.562,4.092,0,5.653C431.389,482.838,397.608,495.699,363.82,495.699z" data-original="#3A3847" class=""/>
	<path style="fill:#3A3847;" d="M363.827,511.77c-39.513,0-76.658-15.391-104.605-43.338c-1.562-1.562-1.562-4.092,0-5.654   c1.562-1.562,4.095-1.562,5.653,0c26.433,26.433,61.58,40.996,98.952,40.996c37.373-0.008,72.505-14.563,98.937-41.004   c26.441-26.433,40.996-61.572,41.004-98.937c0-37.381-14.562-72.521-41.004-98.96c-1.562-1.562-1.562-4.092,0-5.654   c1.562-1.562,4.092-1.562,5.654,0c27.955,27.948,43.346,65.102,43.346,104.614c-0.008,39.505-15.398,76.65-43.346,104.591   C440.479,496.371,403.332,511.762,363.827,511.77z" data-original="#3A3847" class=""/>
	<path style="fill:#3A3847;" d="M134.203,234.544c-0.96,0-1.917-0.343-2.682-1.035c-1.64-1.483-1.765-4.01-0.281-5.646   c1.015-1.121,1.804-2.237,2.405-3.225c7.747-12.779,7.536-38.416-52.818-131.601C76.528,86.4,72.199,79.845,67.892,73.43   c-1.066-1.589-0.859-3.709,0.492-5.061c1.351-1.343,3.475-1.558,5.06-0.484c6.407,4.311,12.967,8.64,19.596,12.939   c93.189,60.334,118.83,60.569,131.601,52.807c0.999-0.601,2.108-1.39,3.225-2.393c1.64-1.476,4.162-1.347,5.646,0.296   c1.476,1.64,1.344,4.17-0.296,5.646c-1.539,1.386-3.069,2.471-4.436,3.295c-18.093,10.944-48.828,6.146-140.089-52.939   c-1.101-0.715-2.198-1.429-3.295-2.147c0.715,1.097,1.429,2.198,2.144,3.303c59.104,91.257,63.911,122.008,52.939,140.101   c-0.835,1.367-1.921,2.901-3.311,4.436C136.378,234.103,135.293,234.544,134.203,234.544z" data-original="#3A3847" class=""/>
	<path style="fill:#3A3847;" d="M465.591,266.044c-1.022,0-2.046-0.391-2.827-1.171l-22.613-22.614   c-1.562-1.562-1.562-4.092,0-5.654c1.562-1.562,4.092-1.562,5.653,0l22.614,22.614c1.562,1.562,1.562,4.092,0,5.654   C467.637,265.654,466.614,266.044,465.591,266.044z" data-original="#3A3847" class=""/>
	<path style="fill:#3A3847;" d="M431.67,232.123c-1.023,0-2.046-0.391-2.827-1.172l-11.307-11.307c-1.562-1.562-1.562-4.092,0-5.653   c1.562-1.562,4.092-1.562,5.653,0l11.307,11.307c1.562,1.562,1.562,4.092,0,5.653C433.716,231.733,432.693,232.123,431.67,232.123z   " data-original="#3A3847" class=""/>
	<path style="fill:#3A3847;" d="M250.741,458.287c-1.023,0-2.046-0.391-2.827-1.171l-5.653-5.653c-1.562-1.562-1.562-4.092,0-5.654   c1.562-1.562,4.092-1.562,5.653,0l5.654,5.654c1.562,1.562,1.562,4.092,0,5.653C252.787,457.897,251.764,458.287,250.741,458.287z" data-original="#3A3847" class=""/>
	<path style="fill:#3A3847;" d="M352.521,164.273c-1.023,0-2.046-0.391-2.827-1.171L247.914,61.33c-1.562-1.562-1.562-4.092,0-5.654   s4.092-1.562,5.654,0l101.779,101.771c1.562,1.562,1.562,4.092,0,5.654C354.567,163.882,353.543,164.273,352.521,164.273z" data-original="#3A3847" class=""/>
	<path style="fill:#3A3847;" d="M216.82,73.809c-1.023,0-2.046-0.391-2.827-1.172l-33.925-33.929c-1.562-1.562-1.562-4.092,0-5.653   c1.562-1.562,4.092-1.562,5.654,0l33.925,33.929c1.562,1.562,1.562,4.092,0,5.653C218.866,73.418,217.843,73.809,216.82,73.809z" data-original="#3A3847" class=""/>
	<path style="fill:#3A3847;" d="M160.277,333.895c-1.022,0-2.046-0.391-2.826-1.172l-22.614-22.614   c-1.562-1.562-1.562-4.092,0-5.653s4.092-1.562,5.653,0l22.614,22.614c1.562,1.562,1.562,4.092,0,5.653   C162.323,333.504,161.3,333.895,160.277,333.895z" data-original="#3A3847" class=""/>
	<path style="fill:#3A3847;" d="M103.738,254.737c-1.022,0-2.046-0.39-2.827-1.171l-67.85-67.85c-1.562-1.562-1.562-4.092,0-5.654   c1.562-1.562,4.092-1.562,5.653,0l67.851,67.851c1.562,1.562,1.562,4.092,0,5.653C105.783,254.347,104.761,254.737,103.738,254.737   z" data-original="#3A3847" class=""/>
</g></g> </svg>
