<?xml version="1.0"?>
<svg xmlns="http://www.w3.org/2000/svg" xmlns:xlink="http://www.w3.org/1999/xlink" version="1.1" id="Capa_1" x="0px" y="0px" viewBox="0 0 511.788 511.788" style="enable-background:new 0 0 511.788 511.788;" xml:space="preserve" width="512px" height="512px" class="hovered-paths"><g><path style="fill:#403F4C" d="M483.568,383.832h-31.984c8.832,0,15.992-7.161,15.992-15.992c0-8.832-7.16-15.992-15.992-15.992  H419.6c8.831,0,15.992-7.161,15.992-15.992c0-8.832-7.161-15.993-15.992-15.993h-47.978c8.832,0,15.993-7.16,15.993-15.992  c0-8.831-7.161-15.992-15.993-15.992h87.958c8.832,0,15.992-7.16,15.992-15.992s-7.16-15.993-15.992-15.993H419.6  c8.831,0,15.992-7.161,15.992-15.992c0-8.832-7.161-15.992-15.992-15.992h-15.992c8.831,0,15.992-7.161,15.992-15.992  c0-8.832-7.161-15.993-15.992-15.993h79.961c8.832,0,15.992-7.161,15.992-15.992s-7.16-15.993-15.992-15.993h-31.984  c8.832,0,15.992-7.16,15.992-15.992s-7.16-15.992-15.992-15.992h-31.984c8.831,0,15.992-7.161,15.992-15.992  c0-8.832-7.161-15.992-15.992-15.992h-23.988c8.831,0,15.992-7.161,15.992-15.993s-7.161-15.992-15.992-15.992H155.726  c-8.832,0-15.992,7.161-15.992,15.992s7.16,15.992,15.992,15.992H99.752c-8.832,0-15.992,7.16-15.992,15.992  s7.161,15.992,15.992,15.992H83.76c-8.832,0-15.992,7.161-15.992,15.992c0,8.832,7.16,15.992,15.992,15.992h47.977  c-8.832,0-15.993,7.161-15.993,15.993s7.161,15.992,15.993,15.992H43.78c-8.832,0-15.993,7.161-15.993,15.993  c0,8.831,7.161,15.992,15.993,15.992h39.98c-8.832,0-15.992,7.16-15.992,15.992s7.16,15.992,15.992,15.992H43.78  c-8.832,0-15.993,7.16-15.993,15.992s7.161,15.992,15.993,15.992H27.787c-8.832,0-15.992,7.161-15.992,15.992  c0,8.832,7.161,15.992,15.992,15.992h39.981c-8.832,0-15.992,7.161-15.992,15.993c0,8.831,7.16,15.992,15.992,15.992H51.776  c-8.832,0-15.993,7.16-15.993,15.992c0,8.831,7.161,15.992,15.993,15.992h79.961c-8.832,0-15.993,7.161-15.993,15.992  c0,8.832,7.161,15.992,15.993,15.992H99.752c-8.832,0-15.992,7.161-15.992,15.993c0,8.831,7.161,15.992,15.992,15.992h271.869  c8.832,0,15.993-7.161,15.993-15.992c0-8.832-7.161-15.993-15.993-15.993h111.946c8.832,0,15.992-7.16,15.992-15.992  C499.56,390.994,492.4,383.832,483.568,383.832z" data-original="#656D78" class="hovered-path active-path" data-old_color="#656D78"/><path style="fill:#AC92EC;" d="M475.572,395.827c0,4.42-3.584,7.996-7.996,7.996c-4.42,0-7.996-3.576-7.996-7.996  s3.576-7.996,7.996-7.996C471.988,387.831,475.572,391.407,475.572,395.827z" data-original="#AC92EC"/><path style="fill:#FC6E51;" d="M403.607,255.894c0,81.695-66.234,147.929-147.929,147.929S107.749,337.59,107.749,255.894  s66.234-147.929,147.929-147.929S403.607,174.199,403.607,255.894z" data-original="#FC6E51"/><g style="opacity:0.3;">
	<path style="fill:#FFFFFF;" d="M139.733,255.894c0-76.288,57.769-139.05,131.936-147.031c-5.263-0.566-10.584-0.898-15.992-0.898   c-81.695,0-147.929,66.233-147.929,147.929s66.234,147.929,147.929,147.929c5.408,0,10.729-0.327,15.992-0.897   C197.502,394.945,139.733,332.185,139.733,255.894z" data-original="#FFFFFF" class=""/>
</g><g style="opacity:0.2;">
	<path d="M371.622,255.894c0,76.291-57.769,139.051-131.937,147.031c5.26,0.57,10.585,0.897,15.993,0.897   c81.695,0,147.929-66.233,147.929-147.929s-66.234-147.929-147.929-147.929c-5.408,0-10.733,0.332-15.993,0.898   C313.853,116.844,371.622,179.606,371.622,255.894z" data-original="#000000"/>
</g><path style="fill:#E9573F;" d="M267.671,307.869c-13.251,0-31.984,11.994-31.984,11.994s18.733,11.995,31.984,11.995  c13.252,0,31.985-11.995,31.985-11.995S280.923,307.869,267.671,307.869z" data-original="#E9573F"/><g style="opacity:0.2;">
	<path d="M251.679,319.863c0,0,12.275-7.777,23.988-10.775c-2.748-0.703-5.481-1.219-7.996-1.219   c-13.251,0-31.984,11.994-31.984,11.994s18.733,11.995,31.984,11.995c2.515,0,5.248-0.516,7.996-1.219   C263.955,327.641,251.679,319.863,251.679,319.863z" data-original="#000000"/>
</g><path style="fill:#FFCE54;" d="M483.568,43.996c0,13.248-10.744,23.989-23.988,23.989s-23.988-10.741-23.988-23.989  c0-13.247,10.744-23.988,23.988-23.988S483.568,30.748,483.568,43.996z" data-original="#FFCE54" class=""/><g style="opacity:0.5;">
	<path style="fill:#FFFFFF;" d="M443.587,43.996c0-11.877,8.652-21.673,19.99-23.586c-1.312-0.219-2.624-0.402-3.998-0.402   c-13.244,0-23.988,10.741-23.988,23.988c0,13.248,10.744,23.989,23.988,23.989c1.374,0,2.687-0.184,3.998-0.402   C452.24,65.669,443.587,55.873,443.587,43.996z" data-original="#FFFFFF" class=""/>
</g><g style="opacity:0.2;">
	<path d="M475.572,43.996c0,11.877-8.652,21.674-19.99,23.587c1.312,0.218,2.624,0.402,3.998,0.402   c13.244,0,23.988-10.741,23.988-23.989c0-13.247-10.744-23.988-23.988-23.988c-1.374,0-2.687,0.184-3.998,0.402   C466.919,22.323,475.572,32.119,475.572,43.996z" data-original="#000000"/>
</g><g>
	<path style="fill:#3A3847;" d="M195.945,495.779c-2.206,0-4.037-1.788-4.037-3.998s1.749-3.998,3.959-3.998h0.078   c2.21,0,3.998,1.788,3.998,3.998S198.155,495.779,195.945,495.779z" data-original="#3A3847" class=""/>
	<path style="fill:#3A3847;" d="M20.029,375.836c-2.206,0-4.037-1.788-4.037-3.998s1.75-3.998,3.959-3.998h0.078   c2.21,0,3.999,1.788,3.999,3.998S22.239,375.836,20.029,375.836z" data-original="#3A3847" class=""/>
	<path style="fill:#3A3847;" d="M115.983,439.806c-2.206,0-4.037-1.789-4.037-3.998c0-2.211,1.749-3.998,3.959-3.998h0.078   c2.21,0,3.998,1.787,3.998,3.998C119.981,438.017,118.193,439.806,115.983,439.806z" data-original="#3A3847" class=""/>
	<path style="fill:#3A3847;" d="M371.856,439.806c-2.202,0-4.029-1.789-4.029-3.998c0-2.211,1.749-3.998,3.951-3.998h0.078   c2.218,0,3.998,1.787,3.998,3.998C375.854,438.017,374.074,439.806,371.856,439.806z" data-original="#3A3847" class=""/>
	<path style="fill:#3A3847;" d="M499.794,311.867c-2.202,0-4.029-1.788-4.029-3.998c0-2.209,1.749-3.998,3.951-3.998h0.078   c2.218,0,3.998,1.789,3.998,3.998C503.792,310.079,502.012,311.867,499.794,311.867z" data-original="#3A3847" class=""/>
	<path style="fill:#3A3847;" d="M451.818,223.91c-2.202,0-4.029-1.788-4.029-3.998s1.749-3.998,3.951-3.998h0.078   c2.218,0,3.998,1.788,3.998,3.998S454.036,223.91,451.818,223.91z" data-original="#3A3847" class=""/>
	<path style="fill:#3A3847;" d="M507.79,143.948c-2.201,0-4.029-1.788-4.029-3.998s1.75-3.998,3.951-3.998h0.078   c2.218,0,3.998,1.788,3.998,3.998S510.008,143.948,507.79,143.948z" data-original="#3A3847" class=""/>
	<path style="fill:#3A3847;" d="M52.014,295.874c-2.206,0-4.038-1.788-4.038-3.998c0-2.209,1.75-3.998,3.959-3.998h0.078   c2.209,0,3.998,1.789,3.998,3.998C56.012,294.086,54.224,295.874,52.014,295.874z" data-original="#3A3847" class=""/>
	<path style="fill:#3A3847;" d="M259.914,47.994c-2.205,0-4.037-1.788-4.037-3.998c0-2.209,1.75-3.998,3.959-3.998h0.078   c2.21,0,3.994,1.789,3.994,3.998C263.908,46.206,262.123,47.994,259.914,47.994z" data-original="#3A3847" class=""/>
	<path style="fill:#3A3847;" d="M4.037,183.929c-2.206,0-4.037-1.789-4.037-3.998c0-2.21,1.749-3.998,3.959-3.998h0.078   c2.21,0,3.998,1.788,3.998,3.998C8.035,182.14,6.247,183.929,4.037,183.929z" data-original="#3A3847" class=""/>
	<path style="fill:#3A3847;" d="M28.025,111.963c-2.206,0-4.037-1.788-4.037-3.998s1.749-3.998,3.959-3.998h0.078   c2.209,0,3.998,1.788,3.998,3.998S30.235,111.963,28.025,111.963z" data-original="#3A3847" class=""/>
	<path style="fill:#3A3847;" d="M35.799,479.787c-2.209,0-3.998-1.788-3.998-3.998v-31.985c0-2.21,1.789-3.998,3.998-3.998   c2.21,0,3.999,1.788,3.999,3.998v31.984C39.797,477.998,38.009,479.787,35.799,479.787z" data-original="#3A3847" class=""/>
	<path style="fill:#3A3847;" d="M43.795,463.794H27.803c-2.209,0-3.998-1.789-3.998-3.998c0-2.21,1.789-3.998,3.998-3.998h15.993   c2.209,0,3.998,1.788,3.998,3.998C47.793,462.005,46.005,463.794,43.795,463.794z" data-original="#3A3847" class=""/>
	<path style="fill:#3A3847;" d="M99.768,55.99c-2.21,0-3.998-1.789-3.998-3.998V20.007c0-2.21,1.788-3.998,3.998-3.998   s3.998,1.788,3.998,3.998v31.985C103.766,54.202,101.978,55.99,99.768,55.99z" data-original="#3A3847" class=""/>
	<path style="fill:#3A3847;" d="M107.764,39.998H91.772c-2.21,0-3.998-1.788-3.998-3.998s1.788-3.998,3.998-3.998h15.992   c2.21,0,3.998,1.788,3.998,3.998S109.974,39.998,107.764,39.998z" data-original="#3A3847" class=""/>
	<path style="fill:#3A3847;" d="M459.58,71.982c-7.473,0-14.501-2.913-19.787-8.199c-5.287-5.287-8.199-12.314-8.199-19.788   c0-7.473,2.912-14.5,8.199-19.787c10.572-10.573,29.002-10.573,39.574,0c5.287,5.287,8.199,12.314,8.199,19.787   c0,7.474-2.912,14.501-8.199,19.788C474.081,69.07,467.052,71.982,459.58,71.982z M459.58,24.005   c-5.341,0-10.354,2.081-14.134,5.856c-3.779,3.776-5.856,8.797-5.856,14.134c0,5.338,2.077,10.358,5.856,14.134   c7.551,7.552,20.717,7.552,28.268,0c3.779-3.775,5.856-8.796,5.856-14.134c0-5.337-2.077-10.358-5.856-14.134   C469.934,26.086,464.921,24.005,459.58,24.005z" data-original="#3A3847" class=""/>
	<path style="fill:#3A3847;" d="M480.234,71.28c-9.753,0.004-25.566-15.235-29.135-18.804c-4.248-4.248-25.035-25.851-16.961-33.921   c1.562-1.562,4.092-1.562,5.654,0c1.39,1.386,1.546,3.537,0.469,5.095c0.148,2.562,4.974,11.655,16.492,23.173   s20.614,16.344,23.176,16.492c1.562-1.07,3.701-0.918,5.092,0.468c1.562,1.562,1.562,4.092,0,5.654   C483.724,70.729,482.092,71.28,480.234,71.28z" data-original="#3A3847" class=""/>
	<path style="fill:#3A3847;" d="M467.56,407.821c-4.99,0-9.378-3.014-11.182-7.668c-2.374-6.169,0.702-13.126,6.871-15.508   c6.083-2.374,13.182,0.812,15.508,6.855c1.156,2.999,1.078,6.263-0.218,9.184c-1.297,2.936-3.663,5.185-6.653,6.333   C470.497,407.556,469.043,407.821,467.56,407.821z M467.576,391.829c-0.484,0-0.969,0.094-1.437,0.266   c-2.062,0.796-3.093,3.124-2.296,5.169c0.773,2.016,3.107,3.077,5.17,2.296c0.999-0.39,1.779-1.14,2.217-2.108   c0.438-0.983,0.453-2.068,0.078-3.061C470.699,392.829,469.239,391.829,467.576,391.829z" data-original="#3A3847" class=""/>
	<path style="fill:#3A3847;" d="M427.595,455.798c-1.312,0-2.593-0.648-3.357-1.836c-1.203-1.85-0.664-4.333,1.194-5.521   c31.196-20.084,35.912-45.368,35.959-45.626c0.375-2.171,2.444-3.576,4.615-3.265c2.171,0.367,3.631,2.421,3.271,4.592   c-0.195,1.171-5.169,28.916-39.52,51.015C429.094,455.595,428.345,455.798,427.595,455.798z" data-original="#3A3847" class=""/>
	<path style="fill:#3A3847;" d="M255.678,407.821c-83.772,0-151.927-68.154-151.927-151.927s68.155-151.927,151.927-151.927   s151.927,68.154,151.927,151.927S339.45,407.821,255.678,407.821z M255.678,111.963c-79.364,0-143.931,64.566-143.931,143.931   c0,79.368,64.567,143.931,143.931,143.931c79.368,0,143.931-64.562,143.931-143.931   C399.609,176.53,335.045,111.963,255.678,111.963z" data-original="#3A3847" class=""/>
	<path style="fill:#3A3847;" d="M123.737,247.898c-2.104,0-3.865-1.644-3.986-3.768c-0.129-2.206,1.558-4.096,3.76-4.221   c66.578-3.818,88.758-20.568,110.205-36.768c23.974-18.104,46.622-35.206,121.914-35.206c2.21,0,3.998,1.789,3.998,3.998   c0,2.21-1.788,3.999-3.998,3.999c-72.621,0-94.22,16.316-117.092,33.589c-22.403,16.917-45.568,34.413-114.566,38.368   C123.893,247.894,123.815,247.898,123.737,247.898z" data-original="#3A3847" class=""/>
	<path style="fill:#3A3847;" d="M147.729,191.925c-1.042,0-2.085-0.406-2.87-1.214c-1.538-1.581-1.499-4.115,0.086-5.653   c18.632-18.093,38.724-22.927,61.986-28.521c21.248-5.111,45.33-10.905,74.718-28.037c1.905-1.102,4.357-0.461,5.466,1.44   c1.108,1.909,0.469,4.357-1.437,5.47c-30.404,17.722-55.095,23.661-76.877,28.9c-23.032,5.541-41.222,9.917-58.289,26.487   C149.736,191.55,148.733,191.925,147.729,191.925z" data-original="#3A3847" class=""/>
	<path style="fill:#3A3847;" d="M145.227,304.574c-4.576,0-9.203-0.234-13.908-0.727c-2.198-0.227-3.791-2.193-3.557-4.396   c0.23-2.186,2.194-3.811,4.393-3.553c33.578,3.506,63.841-7.332,98.886-19.92c42.425-15.23,90.511-32.508,156.838-28.072   c2.202,0.148,3.874,2.054,3.726,4.256c-0.148,2.206-2.094,3.869-4.256,3.725c-64.703-4.322-111.923,12.65-153.606,27.619   C202.555,294.704,175.052,304.574,145.227,304.574z" data-original="#3A3847" class=""/>
	<path style="fill:#3A3847;" d="M267.671,335.856c-2.209,0-3.998-1.788-3.998-3.998s1.789-3.999,3.998-3.999   c7.255,0,17.227-4.396,23.989-7.996c-6.263-3.342-16.328-7.996-23.989-7.996c-2.209,0-3.998-1.788-3.998-3.998   c0-2.209,1.789-3.998,3.998-3.998c14.26,0,33.336,12.111,34.141,12.627c1.147,0.734,1.843,2.007,1.843,3.365   c0,1.359-0.695,2.632-1.843,3.366C301.007,323.745,281.931,335.856,267.671,335.856z" data-original="#3A3847" class=""/>
	<path style="fill:#3A3847;" d="M267.671,335.856c-14.258,0-33.335-12.111-34.14-12.627c-1.147-0.734-1.843-2.007-1.843-3.366   c0-1.358,0.695-2.631,1.843-3.365c0.805-0.516,19.881-12.627,34.14-12.627c2.211,0,3.998,1.789,3.998,3.998   c0,2.21-1.787,3.998-3.998,3.998c-7.254,0-17.226,4.396-23.988,7.996c6.263,3.343,16.328,7.996,23.988,7.996   c2.211,0,3.998,1.789,3.998,3.999S269.882,335.856,267.671,335.856z" data-original="#3A3847" class=""/>
	<path style="fill:#3A3847;" d="M253.854,369.589c-9.171,0-18.097-0.539-26.959-1.078c-15.86-0.968-30.829-1.873-46.614,0.383   c-2.206,0.289-4.213-1.21-4.525-3.396c-0.312-2.187,1.206-4.209,3.393-4.521c16.59-2.365,32.672-1.397,48.23-0.445   c38.139,2.297,77.596,4.717,133.226-39.793c1.726-1.382,4.24-1.093,5.622,0.625c1.382,1.726,1.102,4.24-0.625,5.622   C320.537,363.038,285.726,369.589,253.854,369.589z" data-original="#3A3847" class=""/>
</g></g> </svg>
