<?xml version="1.0"?>
<svg xmlns="http://www.w3.org/2000/svg" xmlns:xlink="http://www.w3.org/1999/xlink" version="1.1" id="Capa_1" x="0px" y="0px" viewBox="0 0 511.788 511.788" style="enable-background:new 0 0 511.788 511.788;" xml:space="preserve" width="512px" height="512px" class="hovered-paths"><g><circle style="fill:#ED5565;" cx="459.584" cy="51.994" r="31.984" data-original="#ED5565"/><g style="opacity:0.3;">
	<path style="fill:#FFFFFF;" d="M435.591,51.992c0-16.293,12.229-29.595,27.986-31.583c-1.327-0.168-2.624-0.402-3.998-0.402   c-17.663,0-31.984,14.321-31.984,31.985s14.321,31.985,31.984,31.985c1.374,0,2.671-0.234,3.998-0.402   C447.82,81.587,435.591,68.285,435.591,51.992z" data-original="#FFFFFF"/>
</g><g style="opacity:0.2;">
	<path d="M483.568,51.992c0,16.292-12.229,29.595-27.986,31.583c1.327,0.168,2.64,0.402,3.998,0.402   c17.663,0,31.984-14.321,31.984-31.985s-14.321-31.985-31.984-31.985c-1.358,0-2.671,0.234-3.998,0.402   C471.339,22.397,483.568,35.699,483.568,51.992z" data-original="#000000"/>
</g><path style="fill:#DA4453;" d="M475.572,59.988c0,4.419-5.356,7.996-11.994,7.996c-6.622,0-11.994-3.577-11.994-7.996  s5.372-7.996,11.994-7.996C470.215,51.992,475.572,55.569,475.572,59.988z" data-original="#DA4453"/><path style="fill:#403F4C" d="M483.568,375.836h-31.984c8.824,0,15.992-7.161,15.992-15.992c0-8.832-7.168-15.992-15.992-15.992  H419.6c8.823,0,15.992-7.161,15.992-15.993c0-8.831-7.169-15.992-15.992-15.992h-47.978c8.824,0,15.993-7.16,15.993-15.992  c0-8.831-7.169-15.992-15.993-15.992h87.958c8.824,0,15.992-7.16,15.992-15.992s-7.168-15.992-15.992-15.992H419.6  c8.823,0,15.992-7.161,15.992-15.992c0-8.832-7.169-15.992-15.992-15.992h-15.992c8.823,0,15.992-7.161,15.992-15.993  s-7.169-15.992-15.992-15.992h79.961c8.824,0,15.992-7.161,15.992-15.993c0-8.831-7.168-15.992-15.992-15.992h-31.984  c8.824,0,15.992-7.16,15.992-15.992s-7.168-15.992-15.992-15.992h-31.984c8.823,0,15.992-7.161,15.992-15.992  c0-8.832-7.169-15.992-15.992-15.992h-23.988c8.823,0,15.992-7.161,15.992-15.993s-7.169-15.992-15.992-15.992H155.722  c-8.832,0-15.992,7.161-15.992,15.992s7.161,15.993,15.992,15.993H99.748c-8.832,0-15.992,7.16-15.992,15.992  s7.161,15.992,15.992,15.992H83.756c-8.832,0-15.992,7.161-15.992,15.992c0,8.832,7.16,15.992,15.992,15.992h47.977  c-8.832,0-15.993,7.161-15.993,15.992c0,8.832,7.161,15.993,15.993,15.993H43.776c-8.832,0-15.993,7.161-15.993,15.992  s7.161,15.993,15.993,15.993h39.98c-8.832,0-15.992,7.16-15.992,15.992s7.16,15.992,15.992,15.992h-39.98  c-8.832,0-15.993,7.161-15.993,15.992c0,8.832,7.161,15.992,15.993,15.992H27.783c-8.832,0-15.992,7.161-15.992,15.992  c0,8.832,7.161,15.992,15.992,15.992h39.981c-8.832,0-15.992,7.161-15.992,15.992c0,8.832,7.16,15.993,15.992,15.993H51.772  c-8.832,0-15.993,7.16-15.993,15.992c0,8.831,7.161,15.992,15.993,15.992h79.961c-8.832,0-15.993,7.161-15.993,15.992  c0,8.832,7.161,15.992,15.993,15.992H99.748c-8.832,0-15.992,7.161-15.992,15.993c0,8.831,7.161,15.992,15.992,15.992h271.873  c8.824,0,15.993-7.161,15.993-15.992c0-8.832-7.169-15.993-15.993-15.993h111.946c8.824,0,15.992-7.16,15.992-15.992  C499.56,382.998,492.392,375.836,483.568,375.836z" data-original="#656D78" class="hovered-path active-path" data-old_color="#656D78"/><circle style="fill:#5D9CEC" cx="67.772" cy="435.774" r="31.985" data-original="#5D9CEC" class=""/><g style="opacity:0.3;">
	<path style="fill:#FFFFFF;" d="M43.784,435.777c0-16.289,12.229-29.596,27.986-31.579c-1.328-0.172-2.632-0.406-3.998-0.406   c-17.664,0-31.985,14.321-31.985,31.985c0,17.663,14.321,31.984,31.985,31.984c1.366,0,2.67-0.234,3.998-0.406   C56.012,465.372,43.784,452.066,43.784,435.777z" data-original="#FFFFFF"/>
</g><g style="opacity:0.2;">
	<path d="M91.76,435.777c0-16.289-12.229-29.596-27.986-31.579c1.327-0.172,2.631-0.406,3.998-0.406   c17.663,0,31.984,14.321,31.984,31.985c0,17.663-14.321,31.984-31.984,31.984c-1.367,0-2.671-0.234-3.998-0.406   C79.532,465.372,91.76,452.066,91.76,435.777z" data-original="#000000"/>
</g><path style="fill:#A0D468;" d="M85.248,425.796c-5.856,0.438-7.73-2.99-6.957-4.029l-10.972-3.49  c-0.953-0.539-4.779-1.187-6.075-1.413c-0.914-0.156-8.753,0.812-8.402,10.151c0.141,3.764,2.499,6.2,6.317,6.247  c3.163,0.031,6.364-0.344,7.395,3.404c0.875,3.171,0.546,6.466,1.328,9.62c0.32,1.281,0.983,3.046,2.6,3.187  c2.436,0.219,4.076-1.429,5.544-3.132c1.171-1.366,2.647-2.521,3.514-4.131c1.382-2.514,1.007-5.513,2.468-8.059  C83.186,432.114,87.098,425.656,85.248,425.796z" data-original="#A0D468"/><g style="opacity:0.3;">
	<path style="fill:#FFFFFF;" d="M74.487,448.115c-0.781-3.155,0.937-8.277,0.062-11.448c-1.031-3.748-5.005-8.449-8.168-8.48   c-3.818-0.047-5.856,0.391-5.997-3.373c-0.211-5.544,2.913-5.896,5.318-7.06c-1.522-0.375-3.568-0.733-4.459-0.89   c-0.914-0.156-8.753,0.812-8.402,10.151c0.141,3.764,2.499,6.2,6.317,6.247c3.163,0.031,6.364-0.344,7.395,3.404   c0.875,3.171,0.546,6.466,1.328,9.62c0.32,1.281,0.983,3.046,2.6,3.187C72.863,449.692,73.05,449.769,74.487,448.115   C73.363,449.325,74.503,448.162,74.487,448.115z" data-original="#FFFFFF"/>
</g><path style="fill:#CCD1D9;" d="M403.607,247.898c0,81.695-66.234,147.929-147.933,147.929c-81.695,0-147.929-66.233-147.929-147.929  S173.979,99.969,255.674,99.969C337.373,99.969,403.607,166.203,403.607,247.898z" data-original="#CCD1D9"/><path style="fill:#AAB2BD;" d="M267.656,171.918c0,17.656-14.325,31.985-31.988,31.985c-17.655,0-31.984-14.329-31.984-31.985  c0-17.655,14.329-31.984,31.984-31.984C253.331,139.934,267.656,154.263,267.656,171.918z" data-original="#AAB2BD"/><g style="opacity:0.2;">
	<path d="M211.679,171.918c0-16.285,12.236-29.591,27.986-31.582c-1.319-0.168-2.631-0.402-3.998-0.402   c-17.655,0-31.984,14.329-31.984,31.984c0,17.656,14.329,31.985,31.984,31.985c1.367,0,2.679-0.234,3.998-0.402   C223.915,201.51,211.679,188.204,211.679,171.918z" data-original="#000000"/>
</g><g>
	<path style="fill:#AAB2BD;" d="M347.633,211.915c0,4.419-3.576,7.996-7.996,7.996s-7.996-3.577-7.996-7.996   c0-4.42,3.576-7.997,7.996-7.997S347.633,207.496,347.633,211.915z" data-original="#AAB2BD"/>
	<path style="fill:#AAB2BD;" d="M251.683,343.852c0,6.622-5.364,11.994-11.994,11.994c-6.629,0-11.994-5.372-11.994-11.994   c0-6.63,5.365-11.994,11.994-11.994C246.319,331.858,251.683,337.222,251.683,343.852z" data-original="#AAB2BD"/>
</g><g style="opacity:0.2;">
	<path d="M235.691,343.852c0-5.217,3.342-9.612,7.996-11.261c-1.257-0.445-2.584-0.733-3.998-0.733   c-6.629,0-11.994,5.364-11.994,11.994c0,6.622,5.365,11.994,11.994,11.994c1.414,0,2.741-0.289,3.998-0.734   C239.033,353.456,235.691,349.068,235.691,343.852z" data-original="#000000"/>
</g><path style="fill:#AAB2BD;" d="M187.706,275.884c0,13.252-10.729,23.988-23.988,23.988c-13.244,0-23.989-10.736-23.989-23.988  c0-13.251,10.745-23.988,23.989-23.988C176.977,251.896,187.706,262.633,187.706,275.884z" data-original="#AAB2BD"/><g style="opacity:0.2;">
	<path d="M147.726,275.884c0-11.885,8.66-21.673,19.991-23.586c-1.305-0.219-2.632-0.402-3.998-0.402   c-13.244,0-23.989,10.737-23.989,23.988c0,13.252,10.745,23.988,23.989,23.988c1.366,0,2.693-0.188,3.998-0.406   C156.385,297.562,147.726,287.769,147.726,275.884z" data-original="#000000"/>
</g><g>
	<path style="fill:#AAB2BD;" d="M355.629,315.865c0,4.412-3.576,7.996-7.996,7.996s-7.996-3.584-7.996-7.996   c0-4.411,3.576-7.996,7.996-7.996S355.629,311.454,355.629,315.865z" data-original="#AAB2BD"/>
	<path style="fill:#AAB2BD;" d="M291.661,259.892c0,8.832-7.153,15.992-15.993,15.992c-8.823,0-15.996-7.16-15.996-15.992   s7.173-15.992,15.996-15.992C284.507,243.9,291.661,251.061,291.661,259.892z" data-original="#AAB2BD"/>
</g><g style="opacity:0.2;">
	<path d="M267.671,259.892c0-7.441,5.107-13.642,11.994-15.426c-1.28-0.332-2.607-0.566-3.998-0.566   c-8.823,0-15.996,7.161-15.996,15.992c0,8.832,7.173,15.992,15.996,15.992c1.391,0,2.718-0.234,3.998-0.562   C272.779,273.534,267.671,267.333,267.671,259.892z" data-original="#000000"/>
</g><g style="opacity:0.5;">
	<path style="fill:#FFFFFF;" d="M139.729,247.898c0-76.288,57.769-139.05,131.94-147.031c-5.263-0.566-10.584-0.897-15.996-0.897   c-81.695,0-147.929,66.233-147.929,147.929s66.234,147.929,147.929,147.929c5.412,0,10.733-0.328,15.996-0.897   C197.498,386.949,139.729,324.189,139.729,247.898z" data-original="#FFFFFF"/>
</g><g style="opacity:0.2;">
	<path d="M371.622,247.898c0,76.291-57.769,139.051-131.94,147.031c5.256,0.569,10.581,0.897,15.993,0.897   c81.699,0,147.933-66.233,147.933-147.929S337.373,99.969,255.674,99.969c-5.412,0-10.737,0.332-15.993,0.897   C313.853,108.848,371.622,171.61,371.622,247.898z" data-original="#000000"/>
</g><g>
	<path style="fill:#3A3847;" d="M507.79,255.894c-2.201,0-4.029-1.788-4.029-3.998s1.75-3.998,3.951-3.998h0.078   c2.202,0,3.998,1.788,3.998,3.998S509.993,255.894,507.79,255.894z" data-original="#3A3847" class=""/>
	<path style="fill:#3A3847;" d="M451.818,303.871c-2.202,0-4.029-1.788-4.029-3.998c0-2.209,1.749-3.998,3.951-3.998h0.078   c2.202,0,3.998,1.789,3.998,3.998S454.02,303.871,451.818,303.871z" data-original="#3A3847" class=""/>
	<path style="fill:#3A3847;" d="M419.833,391.829c-2.202,0-4.029-1.788-4.029-3.998s1.749-3.998,3.951-3.998h0.078   c2.201,0,3.998,1.788,3.998,3.998S422.035,391.829,419.833,391.829z" data-original="#3A3847" class=""/>
	<path style="fill:#3A3847;" d="M355.864,495.779c-2.202,0-4.029-1.788-4.029-3.998s1.749-3.998,3.951-3.998h0.078   c2.202,0,3.998,1.788,3.998,3.998S358.066,495.779,355.864,495.779z" data-original="#3A3847" class=""/>
	<path style="fill:#3A3847;" d="M163.96,431.81c-2.21,0-4.037-1.789-4.037-3.998c0-2.211,1.75-3.998,3.951-3.998h0.086   c2.202,0,3.998,1.787,3.998,3.998C167.958,430.021,166.162,431.81,163.96,431.81z" data-original="#3A3847" class=""/>
	<path style="fill:#3A3847;" d="M20.029,359.844c-2.209,0-4.037-1.788-4.037-3.998s1.75-3.998,3.952-3.998h0.085   c2.202,0,3.999,1.788,3.999,3.998S22.231,359.844,20.029,359.844z" data-original="#3A3847" class=""/>
	<path style="fill:#3A3847;" d="M60.01,271.886c-2.21,0-4.037-1.788-4.037-3.998s1.749-3.998,3.951-3.998h0.086   c2.202,0,3.998,1.788,3.998,3.998S62.212,271.886,60.01,271.886z" data-original="#3A3847" class=""/>
	<path style="fill:#3A3847;" d="M83.998,151.944c-2.21,0-4.037-1.788-4.037-3.998s1.749-3.998,3.951-3.998h0.086   c2.202,0,3.998,1.788,3.998,3.998S86.201,151.944,83.998,151.944z" data-original="#3A3847" class=""/>
	<path style="fill:#3A3847;" d="M179.953,79.978c-2.21,0-4.037-1.788-4.037-3.998c0-2.209,1.749-3.998,3.951-3.998h0.086   c2.202,0,3.998,1.789,3.998,3.998C183.951,78.19,182.154,79.978,179.953,79.978z" data-original="#3A3847" class=""/>
	<path style="fill:#3A3847;" d="M307.887,39.998c-2.202,0-4.029-1.788-4.029-3.998s1.749-3.998,3.951-3.998h0.078   c2.202,0,3.998,1.788,3.998,3.998S310.089,39.998,307.887,39.998z" data-original="#3A3847" class=""/>
	<path style="fill:#3A3847;" d="M451.818,151.944c-2.202,0-4.029-1.788-4.029-3.998s1.749-3.998,3.951-3.998h0.078   c2.202,0,3.998,1.788,3.998,3.998S454.02,151.944,451.818,151.944z" data-original="#3A3847" class=""/>
	<path style="fill:#3A3847;" d="M4.037,183.929c-2.21,0-4.037-1.789-4.037-3.998c0-2.21,1.749-3.998,3.951-3.998h0.086   c2.202,0,3.998,1.788,3.998,3.998C8.035,182.14,6.239,183.929,4.037,183.929z" data-original="#3A3847" class=""/>
	<path style="fill:#3A3847;" d="M291.894,431.81c-2.201,0-4.029-1.789-4.029-3.998c0-2.211,1.75-3.998,3.951-3.998h0.078   c2.203,0,3.998,1.787,3.998,3.998C295.892,430.021,294.097,431.81,291.894,431.81z" data-original="#3A3847" class=""/>
	<path style="fill:#3A3847;" d="M195.945,495.779c-2.21,0-4.037-1.788-4.037-3.998s1.749-3.998,3.951-3.998h0.086   c2.202,0,3.998,1.788,3.998,3.998S198.147,495.779,195.945,495.779z" data-original="#3A3847" class=""/>
	<path style="fill:#3A3847;" d="M75.76,55.99c-2.21,0-3.998-1.789-3.998-3.998V20.007c0-2.21,1.788-3.998,3.998-3.998   s3.998,1.788,3.998,3.998v31.985C79.758,54.202,77.97,55.99,75.76,55.99z" data-original="#3A3847" class=""/>
	<path style="fill:#3A3847;" d="M83.756,39.998H67.764c-2.21,0-3.998-1.788-3.998-3.998s1.788-3.998,3.998-3.998h15.992   c2.21,0,3.998,1.788,3.998,3.998S85.966,39.998,83.756,39.998z" data-original="#3A3847" class=""/>
	<path style="fill:#3A3847;" d="M459.58,471.79c-2.218,0-3.998-1.788-3.998-3.998v-31.984c0-2.211,1.78-3.998,3.998-3.998   c2.202,0,3.998,1.787,3.998,3.998v31.984C463.578,470.002,461.782,471.79,459.58,471.79z" data-original="#3A3847" class=""/>
	<path style="fill:#3A3847;" d="M467.576,455.798h-15.992c-2.218,0-3.998-1.789-3.998-3.998c0-2.21,1.78-3.998,3.998-3.998h15.992   c2.202,0,3.998,1.788,3.998,3.998C471.574,454.009,469.778,455.798,467.576,455.798z" data-original="#3A3847" class=""/>
	<path style="fill:#3A3847;" d="M67.772,471.79c-19.842,0-35.983-16.141-35.983-35.982c0-19.843,16.141-35.983,35.983-35.983   s35.982,16.141,35.982,35.983S87.614,471.79,67.772,471.79z M67.772,407.821c-15.43,0-27.986,12.557-27.986,27.987   s12.556,27.986,27.986,27.986s27.986-12.557,27.986-27.986C95.758,420.377,83.202,407.821,67.772,407.821z" data-original="#3A3847" class=""/>
	<path style="fill:#3A3847;" d="M70.918,453.518L70.918,453.518c-0.117,0-0.671-0.016-0.788-0.031   c-1.742-0.156-4.857-1.156-6.122-6.2c-0.43-1.741-0.578-3.506-0.719-5.279c-0.102-1.421-0.188-2.85-0.578-4.248   c-0.406-0.468-1.835-0.468-2.374-0.468c-0.016,0-1.203,0-1.218,0c-5.911-0.078-10.042-4.123-10.276-10.089   c-0.195-5.404,1.835-8.684,3.577-10.495c3.272-3.39,7.543-4.092,9.503-3.748c3.857,0.663,5.724,1.108,6.887,1.624l10.698,3.404   c1.234,0.391,2.202,1.359,2.593,2.585c0.109,0.32,0.164,0.648,0.188,0.976c0.367,0.156,0.991,0.32,1.968,0.32   c0.094-0.008,0.96-0.039,1.054-0.039c1.437,0,3.116,0.945,3.826,2.187c1.539,2.687,0.078,5.763-3.365,11.667   c-0.695,1.202-0.89,2.201-1.109,3.365c-0.289,1.554-0.625,3.334-1.609,5.114c-0.851,1.562-1.968,2.702-2.951,3.71   c-0.352,0.366-0.703,0.726-1.031,1.101C77.79,450.456,75.151,453.518,70.918,453.518z M70.84,445.522l0.078,3.998v-3.99   C70.895,445.522,70.864,445.522,70.84,445.522z M60.338,429.295c2.491,0,8.332,0,10.081,6.341c0.562,2.014,0.71,4.014,0.843,5.763   c0.094,1.249,0.172,2.483,0.445,3.701c0.492-0.406,1.015-1.007,1.296-1.343c0.43-0.5,0.906-0.984,1.382-1.469   c0.71-0.733,1.328-1.358,1.648-1.952c0.382-0.694,0.562-1.655,0.773-2.78c0.296-1.545,0.664-3.482,1.741-5.364   c0.656-1.132,1.21-2.085,1.656-2.896c-2.476-0.766-4.396-2.249-5.412-4.264c-0.031-0.062-0.055-0.125-0.086-0.18l-8.589-2.733   c-0.266-0.086-0.516-0.195-0.758-0.336c-0.109-0.016-1.14-0.312-4.6-0.921c-0.156,0.031-4.131,0.375-3.92,6.036   c0.078,2.085,1.188,2.382,2.374,2.397l0.805,3.998L60.338,429.295z" data-original="#3A3847" class=""/>
	<path style="fill:#3A3847;" d="M459.58,87.975c-19.834,0-35.982-16.141-35.982-35.983s16.148-35.983,35.982-35.983   c19.85,0,35.982,16.141,35.982,35.983S479.429,87.975,459.58,87.975z M459.58,24.005c-15.43,0-27.986,12.557-27.986,27.987   s12.557,27.986,27.986,27.986s27.986-12.556,27.986-27.986S475.009,24.005,459.58,24.005z" data-original="#3A3847" class=""/>
	<path style="fill:#3A3847;" d="M451.583,39.998H431.89c-2.218,0-3.998-1.788-3.998-3.998s1.78-3.998,3.998-3.998h19.693   c2.218,0,3.998,1.788,3.998,3.998S453.801,39.998,451.583,39.998z" data-original="#3A3847" class=""/>
	<path style="fill:#3A3847;" d="M463.578,71.982c-8.965,0-15.992-5.267-15.992-11.994s7.027-11.994,15.992-11.994   s15.992,5.268,15.992,11.995S472.542,71.982,463.578,71.982z M463.578,55.99c-4.873,0-7.996,2.366-7.996,3.998   s3.123,3.998,7.996,3.998c4.889,0,7.996-2.366,7.996-3.998S468.466,55.99,463.578,55.99z" data-original="#3A3847" class=""/>
	<path style="fill:#3A3847;" d="M255.674,399.825c-83.772,0-151.927-68.154-151.927-151.927S171.901,95.971,255.674,95.971   c83.776,0,151.931,68.154,151.931,151.927S339.45,399.825,255.674,399.825z M255.674,103.967   c-79.36,0-143.931,64.566-143.931,143.931c0,79.368,64.571,143.931,143.931,143.931c79.356,0,143.935-64.562,143.935-143.931   C399.609,168.534,335.03,103.967,255.674,103.967z" data-original="#3A3847" class=""/>
	<path style="fill:#3A3847;" d="M235.667,207.902c-19.842,0-35.982-16.141-35.982-35.983s16.141-35.982,35.982-35.982   c19.842,0,35.986,16.141,35.986,35.982C271.654,191.761,255.51,207.902,235.667,207.902z M235.667,143.932   c-15.43,0-27.986,12.557-27.986,27.986c0,15.431,12.557,27.987,27.986,27.987c15.431,0,27.986-12.556,27.986-27.987   C263.654,156.489,251.098,143.932,235.667,143.932z" data-original="#3A3847" class=""/>
	<path style="fill:#3A3847;" d="M339.637,223.91c-6.622,0-11.994-5.38-11.994-11.994s5.372-11.995,11.994-11.995   c6.606,0,11.994,5.38,11.994,11.995C351.631,218.529,346.244,223.91,339.637,223.91z M339.637,207.917   c-2.202,0-3.998,1.792-3.998,3.998s1.796,3.998,3.998,3.998s3.998-1.792,3.998-3.998S341.839,207.917,339.637,207.917z" data-original="#3A3847" class=""/>
	<path style="fill:#3A3847;" d="M239.689,359.844c-8.816,0-15.992-7.169-15.992-15.992c0-8.824,7.176-15.993,15.992-15.993   c8.816,0,15.993,7.169,15.993,15.993C255.682,352.675,248.505,359.844,239.689,359.844z M239.689,335.856   c-4.412,0-7.996,3.592-7.996,7.996c0,4.403,3.584,7.996,7.996,7.996s7.996-3.593,7.996-7.996   C247.685,339.448,244.101,335.856,239.689,335.856z" data-original="#3A3847" class=""/>
	<path style="fill:#3A3847;" d="M163.718,303.871c-15.431,0-27.987-12.557-27.987-27.986s12.556-27.986,27.987-27.986   c15.43,0,27.986,12.557,27.986,27.986S179.148,303.871,163.718,303.871z M163.718,255.894c-11.026,0-19.991,8.965-19.991,19.99   c0,11.026,8.964,19.99,19.991,19.99c11.025,0,19.99-8.964,19.99-19.99C183.708,264.859,174.744,255.894,163.718,255.894z" data-original="#3A3847" class=""/>
	<path style="fill:#3A3847;" d="M347.633,327.859c-6.622,0-11.994-5.38-11.994-11.994c0-6.613,5.372-11.994,11.994-11.994   c6.606,0,11.994,5.381,11.994,11.994C359.627,322.479,354.24,327.859,347.633,327.859z M347.633,311.867   c-2.202,0-3.998,1.797-3.998,3.998c0,2.203,1.796,3.998,3.998,3.998s3.998-1.795,3.998-3.998   C351.631,313.664,349.835,311.867,347.633,311.867z" data-original="#3A3847" class=""/>
	<path style="fill:#3A3847;" d="M275.667,279.882c-11.025,0-19.994-8.964-19.994-19.99c0-11.022,8.968-19.99,19.994-19.99   s19.991,8.968,19.991,19.99C295.659,270.918,286.694,279.882,275.667,279.882z M275.667,247.898   c-6.621,0-11.998,5.38-11.998,11.994s5.377,11.994,11.998,11.994c6.606,0,11.995-5.38,11.995-11.994   S282.274,247.898,275.667,247.898z" data-original="#3A3847" class=""/>
</g></g> </svg>
