<?xml version="1.0"?>
<svg xmlns="http://www.w3.org/2000/svg" xmlns:xlink="http://www.w3.org/1999/xlink" version="1.1" id="Capa_1" x="0px" y="0px" viewBox="0 0 511.863 511.863" style="enable-background:new 0 0 511.863 511.863;" xml:space="preserve" width="512px" height="512px" class="hovered-paths"><g><path style="fill:#AC92EC;" d="M459.53,28.04c0,13.252-10.737,23.989-23.988,23.989c-13.252,0-23.988-10.737-23.988-23.989  c0-13.243,10.736-23.988,23.988-23.988C448.792,4.052,459.53,14.797,459.53,28.04z" data-original="#AC92EC"/><g style="opacity:0.3;">
	<path style="fill:#FFFFFF;" d="M419.549,28.04c0-11.877,8.66-21.669,19.99-23.582c-1.305-0.227-2.632-0.406-3.998-0.406   c-13.252,0-23.988,10.745-23.988,23.988c0,13.252,10.736,23.989,23.988,23.989c1.366,0,2.693-0.18,3.998-0.406   C428.209,49.718,419.549,39.925,419.549,28.04z" data-original="#FFFFFF"/>
</g><g style="opacity:0.2;">
	<path d="M451.534,28.04c0,11.877-8.66,21.669-19.99,23.583c1.304,0.227,2.631,0.406,3.998,0.406   c13.251,0,23.988-10.745,23.988-23.989c0-13.251-10.737-23.988-23.988-23.988c-1.367,0-2.694,0.18-3.998,0.406   C442.873,6.364,451.534,16.156,451.534,28.04z" data-original="#000000"/>
</g><path style="fill:#403F4C" d="M483.518,375.873h-31.984c8.824,0,15.992-7.161,15.992-15.992c0-8.832-7.168-15.992-15.992-15.992  H419.55c8.824,0,15.992-7.161,15.992-15.993c0-8.831-7.168-15.992-15.992-15.992h-47.978c8.824,0,15.993-7.16,15.993-15.992  c0-8.831-7.169-15.992-15.993-15.992h87.958c8.824,0,15.992-7.16,15.992-15.992s-7.168-15.992-15.992-15.992h-39.98  c8.824,0,15.992-7.161,15.992-15.992c0-8.832-7.168-15.992-15.992-15.992h-15.992c8.823,0,15.992-7.161,15.992-15.993  s-7.169-15.992-15.992-15.992h79.961c8.824,0,15.992-7.161,15.992-15.993c0-8.831-7.168-15.992-15.992-15.992h-31.984  c8.824,0,15.992-7.16,15.992-15.992s-7.168-15.992-15.992-15.992h-31.984c8.824,0,15.992-7.161,15.992-15.992  c0-8.832-7.168-15.992-15.992-15.992h-23.988c8.823,0,15.992-7.161,15.992-15.993s-7.169-15.992-15.992-15.992H155.676  c-8.832,0-15.993,7.161-15.993,15.992s7.161,15.993,15.993,15.993H99.703c-8.832,0-15.992,7.16-15.992,15.992  s7.161,15.992,15.992,15.992H83.71c-8.832,0-15.992,7.161-15.992,15.992c0,8.832,7.161,15.992,15.992,15.992h47.977  c-8.832,0-15.993,7.161-15.993,15.992c0,8.832,7.161,15.993,15.993,15.993H43.73c-8.832,0-15.993,7.161-15.993,15.992  s7.161,15.993,15.993,15.993h39.98c-8.832,0-15.992,7.16-15.992,15.992s7.161,15.992,15.992,15.992H43.73  c-8.832,0-15.993,7.16-15.993,15.992s7.161,15.992,15.993,15.992H27.737c-8.832,0-15.992,7.161-15.992,15.992  c0,8.832,7.161,15.992,15.992,15.992h39.981c-8.832,0-15.992,7.161-15.992,15.992c0,8.832,7.16,15.993,15.992,15.993H51.726  c-8.832,0-15.992,7.16-15.992,15.992c0,8.831,7.16,15.992,15.992,15.992h79.961c-8.832,0-15.993,7.161-15.993,15.992  c0,8.832,7.161,15.992,15.993,15.992H99.703c-8.832,0-15.992,7.161-15.992,15.993c0,8.831,7.161,15.992,15.992,15.992h271.869  c8.824,0,15.993-7.161,15.993-15.992c0-8.832-7.169-15.993-15.993-15.993h111.946c8.824,0,15.992-7.16,15.992-15.992  C499.51,383.035,492.342,375.873,483.518,375.873z" data-original="#656D78" class="hovered-path active-path" data-old_color="#656D78"/><polygon style="fill:#AAB2BD;" points="281.405,332.503 266.974,318.089 334.832,250.239 349.246,264.661 " data-original="#AAB2BD"/><path style="fill:#E6E9ED;" d="M295.163,165.451l50.89,50.89l5.653,5.654c3.163,3.162,3.163,8.145,0.008,11.307l-16.913,16.906  l-67.905,67.905l-39.579,39.582c-3.107,3.107-8.145,3.162-11.307,0l-62.142-62.143c-3.167-3.162-3.163-8.254-0.055-11.361  l39.579-39.583l67.905-67.905l16.905-16.906c3.171-3.162,8.199-3.107,11.308,0L295.163,165.451z" data-original="#E6E9ED"/><path style="fill:#FFFFFF;" d="M159.522,289.899l39.578-39.574l67.905-67.905l16.913-16.914c3.155-3.163,8.191-3.108,11.308,0  l-0.062-0.055l-5.653-5.654c-3.108-3.107-8.137-3.162-11.308,0l-16.905,16.906l-67.905,67.905l-39.579,39.583  c-3.108,3.107-3.112,8.199,0.055,11.361l5.708,5.709C156.41,298.098,156.413,293.007,159.522,289.899z" data-original="#FFFFFF"/><g style="opacity:0.2;">
	<path d="M351.761,222.049l-5.653-5.654c3.107,3.116,3.17,8.145,0,11.307l-16.906,16.906l-67.904,67.905l-39.579,39.583   c-3.107,3.107-8.195,3.107-11.361-0.055l5.653,5.653c3.166,3.17,8.254,3.162,11.361,0.055l39.579-39.582l67.905-67.905   l16.905-16.906C354.932,230.194,354.87,225.164,351.761,222.049z" data-original="#000000"/>
</g><path style="fill:#CCD1D9;" d="M317.778,165.451l28.275,28.276l5.653,5.653c3.163,3.162,3.163,8.145,0.008,11.307l-5.661,5.654  l-50.89-50.89l5.653-5.654c3.171-3.162,8.199-3.107,11.307,0L317.778,165.451z" data-original="#CCD1D9"/><g style="opacity:0.7;">
	<path style="fill:#FFFFFF;" d="M317.778,165.451l-5.654-5.654c-3.107-3.107-8.136-3.162-11.307,0l5.654,5.654   C309.641,162.288,314.669,162.343,317.778,165.451z" data-original="#FFFFFF"/>
</g><g style="opacity:0.2;">
	<path d="M346.053,193.727l5.653,5.653c3.116,3.107,3.163,8.145,0.008,11.307l-5.661-5.653   C349.215,201.871,349.168,196.834,346.053,193.727z" data-original="#000000"/>
</g><polygon style="fill:#AAB2BD;" points="357.368,182.419 346.053,193.727 317.778,165.451 329.092,154.144 " data-original="#AAB2BD"/><path style="fill:#FFCE54;" d="M300.707,91.838l59.487,59.479l59.362,59.37c-9.332,9.332-24.535,9.387-33.922,0l-28.268-28.268  l-28.275-28.275l-28.385-28.385C291.322,116.373,291.376,101.169,300.707,91.838z" data-original="#FFCE54" class=""/><g style="opacity:0.5;">
	<path style="fill:#FFFFFF;" d="M312.015,103.145l-11.308-11.307c-9.331,9.331-9.386,24.535,0,33.921l11.308,11.307   C302.628,127.68,302.683,112.477,312.015,103.145z" data-original="#FFFFFF"/>
</g><g style="opacity:0.2;">
	<path d="M408.281,199.404l11.308,11.314c-9.34,9.324-24.535,9.387-33.93,0l-11.307-11.314   C383.739,208.789,398.942,208.735,408.281,199.404z" data-original="#000000"/>
</g><g>
	
		<rect x="298.648" y="242.95" transform="matrix(-0.7071 -0.7071 0.7071 -0.7071 326.4412 789.0355)" style="fill:#5D9CEC;" width="55.974" height="167.918" data-original="#5D9CEC"/>
	<polygon style="fill:#5D9CEC;" points="337.924,456.952 298.35,417.369 417.089,298.637 456.664,338.22  " data-original="#5D9CEC"/>
	<polygon style="fill:#5D9CEC;" points="388.814,507.841 349.231,468.259 467.971,349.519 507.545,389.101  " data-original="#5D9CEC"/>
	<polygon style="fill:#5D9CEC;" points="210.376,329.404 182.104,301.128 295.163,188.073 323.439,216.341  " data-original="#5D9CEC"/>
</g><polygon style="fill:#AAB2BD;" points="193.447,244.554 179.028,230.139 246.878,162.288 261.297,176.703 " data-original="#AAB2BD"/><g style="opacity:0.3;">
	<polygon style="fill:#FFFFFF;" points="253.098,372.164 247.44,366.511 366.2,247.747 371.861,253.409  " data-original="#FFFFFF"/>
</g><g style="opacity:0.2;">
	<polygon points="287.027,406.093 281.366,400.432 400.128,281.676 405.782,287.329  " data-original="#000000"/>
</g><g style="opacity:0.3;">
	<polygon style="fill:#FFFFFF;" points="303.988,423.054 298.334,417.4 417.089,298.637 422.743,304.298  " data-original="#FFFFFF"/>
</g><g style="opacity:0.2;">
	
		<rect x="390.464" y="310.794" transform="matrix(-0.7071 -0.7071 0.7071 -0.7071 394.2475 952.8286)" width="7.995" height="167.938" data-original="#000000"/>
</g><g style="opacity:0.3;">
	<polygon style="fill:#FFFFFF;" points="354.87,473.944 349.215,468.283 467.971,349.527 473.632,355.18  " data-original="#FFFFFF"/>
</g><g style="opacity:0.2;">
	<polygon points="388.798,507.865 383.137,502.211 501.9,383.448 507.561,389.109  " data-original="#000000"/>
</g><g>
	<polygon style="fill:#5D9CEC;" points="43.3,162.32 3.718,122.745 122.453,4.005 162.036,43.588  " data-original="#5D9CEC"/>
	
		<rect x="105.768" y="50.089" transform="matrix(-0.7071 -0.7071 0.7071 -0.7071 133.5499 323.4142)" style="fill:#5D9CEC;" width="55.977" height="167.918" data-original="#5D9CEC"/>
	
		<rect x="156.654" y="100.972" transform="matrix(-0.7071 -0.7071 0.7071 -0.7071 184.4424 446.2505)" style="fill:#5D9CEC;" width="55.977" height="167.908" data-original="#5D9CEC"/>
</g><g style="opacity:0.3;">
	<polygon style="fill:#FFFFFF;" points="9.352,128.422 3.694,122.761 122.453,4.005 128.111,9.659  " data-original="#FFFFFF"/>
</g><g style="opacity:0.2;">
	<polygon points="43.277,162.343 37.62,156.69 156.378,37.926 162.036,43.588  " data-original="#000000"/>
</g><g style="opacity:0.3;">
	<polygon style="fill:#FFFFFF;" points="60.237,179.312 54.58,173.65 173.339,54.895 178.996,60.548  " data-original="#FFFFFF"/>
</g><g style="opacity:0.2;">
	<polygon points="94.162,213.233 88.505,207.579 207.264,88.816 212.922,94.477  " data-original="#000000"/>
</g><g style="opacity:0.3;">
	<polygon style="fill:#FFFFFF;" points="111.127,230.194 105.469,224.54 224.229,105.777 229.886,111.438  " data-original="#FFFFFF"/>
</g><g style="opacity:0.2;">
	<polygon points="145.052,264.122 139.395,258.461 258.154,139.705 263.811,145.359  " data-original="#000000"/>
</g><g style="opacity:0.3;">
	<polygon style="fill:#FFFFFF;" points="187.844,306.914 182.085,301.152 295.163,188.073 300.926,193.828  " data-original="#FFFFFF"/>
</g><g style="opacity:0.2;">
	<polygon points="210.357,329.427 204.598,323.664 317.684,210.585 323.439,216.341  " data-original="#000000"/>
</g><g style="opacity:0.2;">
	<polygon points="351.714,210.687 300.817,159.797 295.163,165.451 346.053,216.341  " data-original="#000000"/>
</g><g style="opacity:0.2;">
	<rect x="314.609" y="172.762" transform="matrix(-0.707 -0.7072 0.7072 -0.707 446.4044 538.4626)" width="40.27" height="7.995" data-original="#000000"/>
</g><g style="opacity:0.5;">
	
		<rect x="325.175" y="155.845" transform="matrix(-0.7072 -0.707 0.707 -0.7072 448.9575 505.6111)" style="fill:#FFFFFF;" width="7.996" height="7.995" data-original="#FFFFFF"/>
</g><g style="opacity:0.2;">
	
		<rect x="347.652" y="178.365" transform="matrix(-0.7071 -0.7071 0.7071 -0.7071 471.3543 559.9658)" width="7.995" height="7.995" data-original="#000000"/>
</g><g>
	<path style="fill:#3A3847" d="M52.268,295.911c-2.206,0-4.037-1.788-4.037-3.998c0-2.209,1.75-3.998,3.959-3.998h0.078   c2.21,0,3.998,1.789,3.998,3.998C56.266,294.123,54.478,295.911,52.268,295.911z" data-original="#3A3847" class="" data-old_color="#3A3847"/>
	<path style="fill:#3A3847" d="M164.215,415.854c-2.206,0-4.037-1.788-4.037-3.998s1.749-3.998,3.959-3.998h0.078   c2.209,0,3.998,1.788,3.998,3.998S166.424,415.854,164.215,415.854z" data-original="#3A3847" class="" data-old_color="#3A3847"/>
	<path style="fill:#3A3847" d="M460.069,159.977c-2.202,0-4.029-1.788-4.029-3.998s1.749-3.998,3.951-3.998h0.078   c2.218,0,3.998,1.788,3.998,3.998S462.286,159.977,460.069,159.977z" data-original="#3A3847" class="" data-old_color="#3A3847"/>
	<path style="fill:#3A3847" d="M244.176,48.031c-2.206,0-4.037-1.788-4.037-3.998c0-2.209,1.749-3.998,3.959-3.998h0.078   c2.21,0,3.998,1.789,3.998,3.998C248.174,46.243,246.386,48.031,244.176,48.031z" data-original="#3A3847" class="" data-old_color="#3A3847"/>
	<path style="fill:#3A3847" d="M52.031,423.851c-2.21,0-3.999-1.789-3.999-3.999v-31.984c0-2.21,1.789-3.998,3.999-3.998   c2.209,0,3.998,1.788,3.998,3.998v31.984C56.029,422.062,54.24,423.851,52.031,423.851z" data-original="#3A3847" class="" data-old_color="#3A3847"/>
	<path style="fill:#3A3847" d="M60.027,407.858H44.034c-2.209,0-3.998-1.788-3.998-3.998s1.789-3.998,3.998-3.998h15.993   c2.209,0,3.998,1.788,3.998,3.998S62.236,407.858,60.027,407.858z" data-original="#3A3847" class="" data-old_color="#3A3847"/>
	<path style="fill:#3A3847" d="M211.953,503.812c-2.21,0-3.998-1.788-3.998-3.998V467.83c0-2.21,1.788-3.998,3.998-3.998   s3.998,1.788,3.998,3.998v31.984C215.952,502.024,214.163,503.812,211.953,503.812z" data-original="#3A3847" class="" data-old_color="#3A3847"/>
	<path style="fill:#3A3847" d="M219.95,487.82h-15.992c-2.21,0-3.998-1.788-3.998-3.998s1.788-3.998,3.998-3.998h15.992   c2.21,0,3.998,1.788,3.998,3.998S222.16,487.82,219.95,487.82z" data-original="#3A3847" class="" data-old_color="#3A3847"/>
	<path style="fill:#3A3847" d="M483.823,295.911c-2.21,0-3.998-1.788-3.998-3.998v-31.984c0-2.21,1.788-3.998,3.998-3.998   s3.998,1.788,3.998,3.998v31.984C487.821,294.123,486.033,295.911,483.823,295.911z" data-original="#3A3847" class="" data-old_color="#3A3847"/>
	<path style="fill:#3A3847" d="M491.819,279.919h-15.992c-2.21,0-3.998-1.788-3.998-3.998s1.788-3.998,3.998-3.998h15.992   c2.21,0,3.998,1.788,3.998,3.998S494.029,279.919,491.819,279.919z" data-original="#3A3847" class="" data-old_color="#3A3847"/>
	<path style="fill:#3A3847" d="M435.846,56.027c-7.473,0-14.501-2.913-19.787-8.199c-5.287-5.287-8.199-12.314-8.199-19.788   c0-7.473,2.912-14.501,8.199-19.787c10.572-10.573,29.001-10.573,39.574,0c5.287,5.286,8.199,12.314,8.199,19.787   s-2.912,14.501-8.199,19.788S443.319,56.027,435.846,56.027z M435.846,8.05c-5.342,0-10.354,2.077-14.134,5.856   s-5.856,8.801-5.856,14.134s2.076,10.354,5.856,14.134c7.551,7.559,20.716,7.559,28.268,0c3.779-3.779,5.856-8.8,5.856-14.134   c0-5.333-2.077-10.354-5.856-14.134S441.187,8.05,435.846,8.05z" data-original="#3A3847" class="" data-old_color="#3A3847"/>
	<path style="fill:#3A3847" d="M415.192,55.325c-1.858,0-3.49-0.555-4.787-1.843c-1.562-1.562-1.562-4.092,0-5.654   c1.391-1.39,3.529-1.539,5.092-0.468c2.561-0.148,11.658-4.975,23.176-16.492c11.519-11.518,16.344-20.607,16.492-23.177   c-1.077-1.554-0.921-3.709,0.469-5.091c1.562-1.562,4.092-1.562,5.653,0c8.074,8.074-12.712,29.673-16.96,33.921   C440.757,40.089,424.945,55.325,415.192,55.325z" data-original="#3A3847" class="" data-old_color="#3A3847"/>
	<path style="fill:#3A3847" d="M193.744,248.622c-1.023,0-2.046-0.391-2.827-1.172l-14.461-14.454   c-1.562-1.562-1.562-4.092,0-5.653s4.092-1.562,5.653,0l14.462,14.454c1.562,1.562,1.562,4.092,0,5.653   C195.789,248.232,194.766,248.622,193.744,248.622z" data-original="#3A3847" class="" data-old_color="#3A3847"/>
	<path style="fill:#3A3847" d="M261.61,180.756c-1.023,0-2.047-0.391-2.827-1.171l-14.455-14.454c-1.562-1.562-1.562-4.092,0-5.654   s4.092-1.562,5.653,0l14.455,14.454c1.562,1.562,1.562,4.092,0,5.653C263.655,180.366,262.632,180.756,261.61,180.756z" data-original="#3A3847" class="" data-old_color="#3A3847"/>
	<path style="fill:#3A3847" d="M281.702,336.587c-1.023,0-2.047-0.391-2.827-1.171l-14.454-14.462   c-1.562-1.562-1.562-4.092,0-5.653s4.092-1.562,5.653,0l14.454,14.462c1.562,1.562,1.562,4.092,0,5.653   C283.746,336.197,282.724,336.587,281.702,336.587z" data-original="#3A3847" class="" data-old_color="#3A3847"/>
	<path style="fill:#3A3847" d="M349.567,268.714c-1.022,0-2.046-0.391-2.826-1.172l-14.454-14.454   c-1.562-1.562-1.562-4.092,0-5.654c1.562-1.562,4.092-1.562,5.653,0l14.454,14.454c1.562,1.562,1.562,4.092,0,5.653   C351.613,268.324,350.59,268.714,349.567,268.714z" data-original="#3A3847" class="" data-old_color="#3A3847"/>
	<path style="fill:#3A3847" d="M154.161,288.204c-1.022,0-2.045-0.391-2.826-1.171c-1.562-1.562-1.562-4.092,0-5.653   l124.393-124.394c1.562-1.562,4.092-1.562,5.654,0c1.562,1.562,1.562,4.092,0,5.653L156.988,287.034   C156.206,287.814,155.184,288.204,154.161,288.204z" data-original="#3A3847" class="" data-old_color="#3A3847"/>
	<path style="fill:#3A3847" d="M154.161,299.535c-1.022,0-2.045-0.39-2.826-1.171c-4.682-4.685-4.682-12.299,0-16.983   c1.562-1.562,4.092-1.562,5.653,0c1.562,1.562,1.562,4.092,0,5.653c-1.565,1.562-1.565,4.115,0,5.677   c1.562,1.562,1.562,4.092,0,5.653C156.206,299.145,155.184,299.535,154.161,299.535z" data-original="#3A3847" class="" data-old_color="#3A3847"/>
	<path style="fill:#3A3847" d="M222.011,364.043c-3.073,0-6.142-1.171-8.48-3.507c-1.562-1.562-1.562-4.092,0-5.653   c1.562-1.562,4.092-1.562,5.653,0c1.562,1.562,4.092,1.562,5.654,0s4.092-1.562,5.654,0c1.562,1.562,1.562,4.092,0,5.653   C228.153,362.872,225.084,364.043,222.011,364.043z" data-original="#3A3847" class="" data-old_color="#3A3847"/>
	<path style="fill:#3A3847" d="M216.35,361.716c-1.023,0-2.046-0.391-2.827-1.172l-62.188-62.181c-1.562-1.562-1.562-4.092,0-5.653   c1.562-1.562,4.092-1.562,5.653,0l62.188,62.181c1.562,1.562,1.562,4.092,0,5.653C218.396,361.326,217.372,361.716,216.35,361.716z   " data-original="#3A3847" class="" data-old_color="#3A3847"/>
	<path style="fill:#3A3847" d="M227.664,361.708c-1.022,0-2.046-0.391-2.827-1.172c-1.562-1.562-1.562-4.092,0-5.653L349.23,230.49   c1.562-1.562,4.092-1.562,5.654,0c1.562,1.562,1.562,4.092,0,5.654L230.492,360.536   C229.71,361.318,228.688,361.708,227.664,361.708z" data-original="#3A3847" class="" data-old_color="#3A3847"/>
	<path style="fill:#3A3847" d="M352.058,226.008c-1.022,0-2.046-0.391-2.827-1.172l-62.196-62.196   c-1.562-1.562-1.562-4.092,0-5.653c1.562-1.562,4.092-1.562,5.653,0l62.197,62.196c1.562,1.562,1.562,4.092,0,5.653   C354.104,225.618,353.08,226.008,352.058,226.008z" data-original="#3A3847" class="" data-old_color="#3A3847"/>
	<path style="fill:#3A3847" d="M312.483,163.819c-1.022,0-2.045-0.39-2.826-1.171c-0.766-0.758-1.765-1.179-2.835-1.179l0,0   c-1.069,0-2.069,0.421-2.819,1.179c-1.561,1.562-4.091,1.562-5.652,0c-1.57-1.554-1.57-4.084-0.016-5.653   c2.264-2.265,5.278-3.514,8.479-3.522h0.008c3.21,0,6.224,1.25,8.488,3.522c1.562,1.562,1.562,4.092,0,5.653   C314.53,163.429,313.506,163.819,312.483,163.819z" data-original="#3A3847" class="" data-old_color="#3A3847"/>
	<path style="fill:#3A3847" d="M352.05,214.701c-1.022,0-2.054-0.39-2.835-1.171c-1.554-1.569-1.554-4.1,0.016-5.653   c0.75-0.758,1.172-1.757,1.172-2.827s-0.422-2.077-1.18-2.834c-1.562-1.562-1.562-4.092,0-5.654c1.562-1.562,4.092-1.562,5.654,0   c2.271,2.272,3.521,5.287,3.521,8.496c0,3.202-1.25,6.216-3.529,8.473C354.088,214.31,353.073,214.701,352.05,214.701z" data-original="#3A3847" class="" data-old_color="#3A3847"/>
	<path style="fill:#3A3847" d="M352.05,203.386c-1.022,0-2.046-0.391-2.827-1.171l-39.566-39.567c-1.562-1.562-1.562-4.092,0-5.653   c1.562-1.562,4.092-1.562,5.653,0l39.567,39.566c1.562,1.562,1.562,4.092,0,5.654C354.096,202.995,353.073,203.386,352.05,203.386z   " data-original="#3A3847" class="" data-old_color="#3A3847"/>
	<path style="fill:#3A3847" d="M193.744,293.858c-1.023,0-2.046-0.39-2.827-1.171c-1.562-1.562-1.562-4.092,0-5.653l90.457-90.457   c1.562-1.562,4.092-1.562,5.653,0c1.562,1.562,1.562,4.092,0,5.654l-90.457,90.457   C195.789,293.468,194.766,293.858,193.744,293.858z" data-original="#3A3847" class="" data-old_color="#3A3847"/>
	<path style="fill:#3A3847" d="M222.011,322.126c-1.023,0-2.046-0.391-2.827-1.172c-1.562-1.562-1.562-4.092,0-5.653l90.457-90.457   c1.562-1.562,4.092-1.562,5.653,0c1.562,1.562,1.562,4.092,0,5.654l-90.457,90.457   C224.057,321.736,223.034,322.126,222.011,322.126z" data-original="#3A3847" class="" data-old_color="#3A3847"/>
	<path style="fill:#3A3847" d="M301.02,129.734c-1.023,0-2.046-0.391-2.826-1.171c-5.295-5.287-8.199-12.314-8.199-19.788   c0-7.465,2.904-14.493,8.199-19.788c1.562-1.562,4.092-1.562,5.653,0c1.562,1.562,1.562,4.092,0,5.654   c-3.78,3.779-5.856,8.8-5.856,14.134c0,5.341,2.076,10.354,5.856,14.134c1.562,1.562,1.562,4.092,0,5.654   C303.066,129.343,302.043,129.734,301.02,129.734z" data-original="#3A3847" class="" data-old_color="#3A3847"/>
	<path style="fill:#3A3847" d="M402.94,221.729c-7.473,0-14.493-2.913-19.787-8.199c-1.562-1.562-1.562-4.092,0-5.653   c1.562-1.562,4.092-1.562,5.653,0c7.793,7.793,20.475,7.793,28.268,0c1.562-1.562,4.092-1.562,5.653,0   c1.562,1.562,1.562,4.092,0,5.653C417.441,218.816,410.412,221.729,402.94,221.729L402.94,221.729z" data-original="#3A3847" class="" data-old_color="#3A3847"/>
	<path style="fill:#3A3847" d="M419.909,214.701c-1.023,0-2.047-0.39-2.827-1.171L298.194,94.641c-1.562-1.562-1.562-4.092,0-5.654   s4.092-1.562,5.653,0l118.888,118.889c1.562,1.562,1.562,4.092,0,5.653C421.953,214.31,420.931,214.701,419.909,214.701z" data-original="#3A3847" class="" data-old_color="#3A3847"/>
	<path style="fill:#3A3847" d="M385.979,214.701c-1.022,0-2.046-0.39-2.826-1.171l-84.967-84.959c-1.562-1.562-1.562-4.092,0-5.654   s4.092-1.562,5.653,0l84.967,84.959c1.562,1.562,1.562,4.092,0,5.653C388.025,214.31,387.002,214.701,385.979,214.701z" data-original="#3A3847" class="" data-old_color="#3A3847"/>
	<path style="fill:#3A3847" d="M360.538,155.339c-1.023,0-2.046-0.39-2.827-1.171c-1.562-1.562-1.562-4.092,0-5.653l22.614-22.622   c1.562-1.562,4.092-1.562,5.653,0c1.562,1.562,1.562,4.092,0,5.653l-22.613,22.622   C362.584,154.949,361.561,155.339,360.538,155.339z" data-original="#3A3847" class="" data-old_color="#3A3847"/>
	<path style="fill:#3A3847" d="M323.783,163.811c-1.022,0-2.054-0.39-2.835-1.171c-1.554-1.562-1.554-4.092,0.008-5.653   l5.654-5.646c1.562-1.562,4.1-1.562,5.661,0c1.554,1.562,1.554,4.092-0.008,5.654l-5.653,5.646   C325.828,163.421,324.805,163.811,323.783,163.811z" data-original="#3A3847" class="" data-old_color="#3A3847"/>
	<path style="fill:#3A3847" d="M352.058,192.087c-1.022,0-2.046-0.39-2.827-1.171c-1.562-1.562-1.562-4.092,0-5.653l5.639-5.654   c1.562-1.562,4.1-1.562,5.661,0s1.562,4.092,0.008,5.654l-5.653,5.653C354.104,191.697,353.08,192.087,352.058,192.087z" data-original="#3A3847" class="" data-old_color="#3A3847"/>
	<path style="fill:#3A3847" d="M289.862,163.811c-1.023,0-2.047-0.39-2.827-1.171c-1.562-1.562-4.092-1.562-5.653,0   c-1.562,1.562-4.092,1.562-5.654,0c-1.562-1.562-1.562-4.092,0-5.653c4.678-4.67,12.283-4.67,16.961,0   c1.562,1.562,1.562,4.092,0,5.653C291.907,163.421,290.884,163.811,289.862,163.811z" data-original="#3A3847" class="" data-old_color="#3A3847"/>
	<path style="fill:#3A3847" d="M352.058,237.315c-1.022,0-2.046-0.39-2.827-1.171c-1.562-1.562-1.562-4.092,0-5.654   c1.562-1.562,1.562-4.092,0-5.654c-1.562-1.562-1.562-4.092,0-5.653c1.562-1.562,4.092-1.562,5.654,0   c4.677,4.678,4.677,12.283,0,16.961C354.104,236.925,353.08,237.315,352.058,237.315z" data-original="#3A3847" class="" data-old_color="#3A3847"/>
	<path style="fill:#3A3847" d="M335.097,231.661c-1.022,0-2.046-0.391-2.826-1.171l-51.046-51.038   c-1.562-1.562-1.562-4.092,0-5.654c1.562-1.562,4.092-1.562,5.653,0l51.046,51.038c1.562,1.562,1.562,4.092,0,5.654   C337.143,231.271,336.12,231.661,335.097,231.661z" data-original="#3A3847" class="" data-old_color="#3A3847"/>
	<path style="fill:#3A3847" d="M222.003,344.747c-1.023,0-2.046-0.391-2.827-1.171l-50.881-50.882   c-1.562-1.562-1.562-4.092,0-5.653s4.092-1.562,5.654,0l50.881,50.882c1.562,1.562,1.562,4.092,0,5.653   C224.049,344.357,223.026,344.747,222.003,344.747z" data-original="#3A3847" class="" data-old_color="#3A3847"/>
	<path style="fill:#3A3847" d="M284.45,226.008c-2.21,0-4.045-1.788-4.045-3.998s1.75-3.998,3.967-3.998h0.078   c2.202,0,3.998,1.788,3.998,3.998S286.652,226.008,284.45,226.008z" data-original="#3A3847" class="" data-old_color="#3A3847"/>
	<path style="fill:#3A3847" d="M261.847,248.607c-2.206,0-4.037-1.789-4.037-3.999c0-2.209,1.749-3.998,3.96-3.998h0.077   c2.206,0,4.003,1.789,4.003,3.998C265.85,246.818,264.053,248.607,261.847,248.607z" data-original="#3A3847" class="" data-old_color="#3A3847"/>
	<path style="fill:#3A3847" d="M239.241,271.204c-2.206,0-4.037-1.787-4.037-3.998c0-2.209,1.749-3.998,3.959-3.998h0.078   c2.21,0,3.998,1.789,3.998,3.998C243.239,269.417,241.451,271.204,239.241,271.204z" data-original="#3A3847" class="" data-old_color="#3A3847"/>
	<path style="fill:#3A3847" d="M216.65,293.812c-2.206,0-4.037-1.789-4.037-3.999s1.75-3.998,3.959-3.998h0.078   c2.21,0,3.999,1.788,3.999,3.998S218.86,293.812,216.65,293.812z" data-original="#3A3847" class="" data-old_color="#3A3847"/>
	<path style="fill:#3A3847" d="M278.796,242.969c-2.21,0-4.045-1.789-4.045-3.998c0-2.21,1.749-3.999,3.967-3.999h0.078   c2.202,0,3.998,1.789,3.998,3.999C282.794,241.18,280.998,242.969,278.796,242.969z" data-original="#3A3847" class="" data-old_color="#3A3847"/>
	<path style="fill:#3A3847" d="M256.194,265.567c-2.206,0-4.037-1.788-4.037-3.998s1.749-3.998,3.959-3.998h0.078   c2.21,0,3.998,1.788,3.998,3.998S258.404,265.567,256.194,265.567z" data-original="#3A3847" class="" data-old_color="#3A3847"/>
	<path style="fill:#3A3847" d="M233.595,288.173c-2.206,0-4.037-1.788-4.037-3.998s1.75-3.998,3.959-3.998h0.078   c2.21,0,3.998,1.788,3.998,3.998S235.805,288.173,233.595,288.173z" data-original="#3A3847" class="" data-old_color="#3A3847"/>
	<path style="fill:#3A3847" d="M43.581,166.318c-1.023,0-2.046-0.391-2.827-1.171L1.172,125.564C0.422,124.814,0,123.799,0,122.737   s0.422-2.077,1.172-2.827L119.911,1.179c1.562-1.562,4.092-1.562,5.654,0l39.59,39.575c0.75,0.75,1.171,1.765,1.171,2.827   s-0.422,2.077-1.171,2.827L46.408,165.147C45.627,165.927,44.604,166.318,43.581,166.318z M9.652,122.737l33.929,33.929   L156.675,43.58L122.739,9.659L9.652,122.737z" data-original="#3A3847" class="" data-old_color="#3A3847"/>
	<path style="fill:#3A3847" d="M29.455,140.877c-1.023,0-2.046-0.391-2.827-1.172c-1.562-1.562-1.562-4.092,0-5.653L134.045,26.627   c1.562-1.562,4.092-1.562,5.654,0s1.562,4.092,0,5.653L32.282,139.705C31.501,140.487,30.478,140.877,29.455,140.877z" data-original="#3A3847" class="" data-old_color="#3A3847"/>
	<path style="fill:#3A3847" d="M139.715,58.877c-1.023,0-2.046-0.391-2.827-1.171L108.62,29.438c-1.562-1.562-1.562-4.092,0-5.654   c1.562-1.562,4.092-1.562,5.653,0l28.268,28.268c1.562,1.562,1.562,4.091,0,5.653C141.761,58.487,140.738,58.877,139.715,58.877z" data-original="#3A3847" class="" data-old_color="#3A3847"/>
	<path style="fill:#3A3847" d="M122.754,75.838c-1.023,0-2.046-0.391-2.827-1.172L91.66,46.399c-1.562-1.562-1.562-4.092,0-5.653   s4.092-1.562,5.653,0l28.268,28.268c1.562,1.562,1.562,4.092,0,5.653C124.8,75.448,123.777,75.838,122.754,75.838z" data-original="#3A3847" class="" data-old_color="#3A3847"/>
	<path style="fill:#3A3847" d="M105.793,92.798c-1.022,0-2.046-0.39-2.827-1.171L74.699,63.36c-1.562-1.562-1.562-4.092,0-5.654   s4.092-1.562,5.654,0l28.268,28.268c1.562,1.562,1.562,4.092,0,5.653C107.839,92.408,106.817,92.798,105.793,92.798z" data-original="#3A3847" class="" data-old_color="#3A3847"/>
	<path style="fill:#3A3847" d="M88.825,109.767c-1.023,0-2.046-0.391-2.827-1.171l-28.26-28.275c-1.562-1.562-1.562-4.092,0-5.654   s4.092-1.562,5.653,0l28.26,28.275c1.562,1.562,1.562,4.092,0,5.654C90.871,109.376,89.848,109.767,88.825,109.767z" data-original="#3A3847" class="" data-old_color="#3A3847"/>
	<path style="fill:#3A3847" d="M71.865,126.727c-1.023,0-2.046-0.39-2.827-1.171l-28.26-28.275c-1.562-1.562-1.562-4.092,0-5.653   c1.562-1.562,4.092-1.562,5.654,0l28.26,28.275c1.562,1.562,1.562,4.092,0,5.653C73.911,126.337,72.887,126.727,71.865,126.727z" data-original="#3A3847" class="" data-old_color="#3A3847"/>
	<path style="fill:#3A3847" d="M54.911,143.688c-1.022,0-2.046-0.39-2.827-1.171l-28.268-28.268c-1.562-1.562-1.562-4.092,0-5.654   s4.092-1.562,5.654,0l28.268,28.268c1.562,1.562,1.562,4.091,0,5.653C56.957,143.298,55.935,143.688,54.911,143.688z" data-original="#3A3847" class="" data-old_color="#3A3847"/>
	<path style="fill:#3A3847" d="M94.463,217.207L94.463,217.207c-1.062,0-2.077-0.422-2.827-1.171l-39.575-39.583   c-1.562-1.562-1.562-4.092,0-5.653L170.809,52.06c0.75-0.749,1.765-1.171,2.827-1.171l0,0c1.062,0,2.077,0.422,2.827,1.171   l39.567,39.583c1.562,1.562,1.562,4.092,0,5.653L97.29,216.036C96.54,216.785,95.525,217.207,94.463,217.207z M60.542,173.627   l33.921,33.929L207.549,94.47l-33.913-33.929L60.542,173.627z" data-original="#3A3847" class="" data-old_color="#3A3847"/>
	<path style="fill:#3A3847" d="M80.337,191.759c-1.023,0-2.046-0.39-2.827-1.171c-1.562-1.562-1.562-4.092,0-5.653L184.935,77.509   c1.562-1.562,4.092-1.562,5.654,0c1.562,1.562,1.562,4.092,0,5.653L83.163,190.587C82.383,191.369,81.36,191.759,80.337,191.759z" data-original="#3A3847" class="" data-old_color="#3A3847"/>
	<path style="fill:#3A3847" d="M190.612,109.759c-1.023,0-2.046-0.391-2.827-1.171L159.51,80.313c-1.562-1.562-1.562-4.092,0-5.654   s4.092-1.562,5.653,0l28.275,28.275c1.562,1.562,1.562,4.092,0,5.654C192.658,109.369,191.635,109.759,190.612,109.759z" data-original="#3A3847" class="" data-old_color="#3A3847"/>
	<path style="fill:#3A3847" d="M173.636,126.727c-1.023,0-2.046-0.39-2.827-1.171l-28.268-28.275c-1.562-1.562-1.562-4.092,0-5.653   s4.092-1.562,5.653,0l28.268,28.275c1.562,1.562,1.562,4.092,0,5.653C175.682,126.337,174.659,126.727,173.636,126.727z" data-original="#3A3847" class="" data-old_color="#3A3847"/>
	<path style="fill:#3A3847" d="M156.683,143.688c-1.022,0-2.046-0.39-2.827-1.171l-28.275-28.268c-1.562-1.562-1.562-4.092,0-5.654   s4.092-1.562,5.654,0l28.275,28.268c1.562,1.562,1.562,4.091,0,5.653C158.729,143.298,157.706,143.688,156.683,143.688z" data-original="#3A3847" class="" data-old_color="#3A3847"/>
	<path style="fill:#3A3847" d="M139.707,160.649c-1.023,0-2.046-0.391-2.827-1.171l-28.268-28.268   c-1.562-1.562-1.562-4.092,0-5.654s4.092-1.562,5.653,0l28.268,28.268c1.562,1.562,1.562,4.092,0,5.654   C141.753,160.258,140.73,160.649,139.707,160.649z" data-original="#3A3847" class="" data-old_color="#3A3847"/>
	<path style="fill:#3A3847" d="M122.754,177.617c-1.023,0-2.046-0.39-2.827-1.171L91.652,148.17c-1.562-1.562-1.562-4.092,0-5.653   c1.562-1.562,4.092-1.562,5.653,0l28.276,28.275c1.562,1.562,1.562,4.092,0,5.653C124.8,177.227,123.777,177.617,122.754,177.617z" data-original="#3A3847" class="" data-old_color="#3A3847"/>
	<path style="fill:#3A3847" d="M105.793,194.577c-1.022,0-2.046-0.39-2.827-1.171l-28.267-28.275c-1.562-1.562-1.562-4.092,0-5.654   s4.092-1.562,5.654,0l28.268,28.275c1.562,1.562,1.562,4.092,0,5.654C107.839,194.187,106.817,194.577,105.793,194.577z" data-original="#3A3847" class="" data-old_color="#3A3847"/>
	<path style="fill:#3A3847" d="M145.369,268.089c-1.023,0-2.046-0.391-2.827-1.172l-39.598-39.574   c-0.75-0.75-1.171-1.765-1.171-2.827s0.422-2.077,1.171-2.827l118.748-118.74c0.75-0.749,1.765-1.171,2.827-1.171l0,0   c1.062,0,2.077,0.422,2.826,1.171l39.575,39.583c1.562,1.562,1.562,4.092,0,5.653L148.195,266.917   C147.414,267.699,146.391,268.089,145.369,268.089z M111.424,224.516l33.945,33.921l113.07-113.079l-33.921-33.929L111.424,224.516   z" data-original="#3A3847" class="" data-old_color="#3A3847"/>
	<path style="fill:#3A3847" d="M131.219,242.648c-1.023,0-2.046-0.39-2.827-1.171c-1.562-1.562-1.562-4.092,0-5.653   l107.433-107.425c1.562-1.562,4.092-1.562,5.654,0c1.562,1.562,1.562,4.092,0,5.653L134.045,241.477   C133.265,242.258,132.242,242.648,131.219,242.648z" data-original="#3A3847" class="" data-old_color="#3A3847"/>
	<path style="fill:#3A3847" d="M241.494,160.641c-1.023,0-2.046-0.391-2.827-1.171l-28.268-28.268   c-1.562-1.562-1.562-4.092,0-5.654s4.092-1.562,5.653,0l28.268,28.268c1.562,1.562,1.562,4.092,0,5.654   C243.54,160.25,242.517,160.641,241.494,160.641z" data-original="#3A3847" class="" data-old_color="#3A3847"/>
	<path style="fill:#3A3847" d="M224.526,177.617c-1.023,0-2.046-0.39-2.827-1.171l-28.26-28.275c-1.562-1.562-1.562-4.092,0-5.653   c1.562-1.562,4.092-1.562,5.653,0l28.26,28.275c1.562,1.562,1.562,4.092,0,5.653C226.572,177.227,225.548,177.617,224.526,177.617z   " data-original="#3A3847" class="" data-old_color="#3A3847"/>
	<path style="fill:#3A3847" d="M207.573,194.57c-1.023,0-2.046-0.39-2.827-1.171l-28.275-28.268c-1.562-1.562-1.562-4.092,0-5.654   c1.562-1.562,4.092-1.562,5.653,0l28.276,28.268c1.562,1.562,1.562,4.092,0,5.654C209.619,194.18,208.596,194.57,207.573,194.57z" data-original="#3A3847" class="" data-old_color="#3A3847"/>
	<path style="fill:#3A3847" d="M190.612,211.538c-1.023,0-2.046-0.391-2.827-1.171l-28.283-28.268   c-1.562-1.562-1.562-4.091,0-5.653s4.092-1.562,5.653,0l28.283,28.268c1.562,1.562,1.562,4.092,0,5.654   C192.658,211.148,191.635,211.538,190.612,211.538z" data-original="#3A3847" class="" data-old_color="#3A3847"/>
	<path style="fill:#3A3847" d="M173.636,228.499c-1.023,0-2.046-0.39-2.827-1.171l-28.268-28.268c-1.562-1.562-1.562-4.092,0-5.653   c1.562-1.562,4.092-1.562,5.653,0l28.268,28.268c1.562,1.562,1.562,4.092,0,5.653C175.682,228.109,174.659,228.499,173.636,228.499   z" data-original="#3A3847" class="" data-old_color="#3A3847"/>
	<path style="fill:#3A3847" d="M156.675,245.459c-1.022,0-2.046-0.39-2.827-1.171L125.58,216.02c-1.562-1.562-1.562-4.092,0-5.654   s4.092-1.562,5.654,0l28.268,28.268c1.562,1.562,1.562,4.092,0,5.654C158.721,245.069,157.699,245.459,156.675,245.459z" data-original="#3A3847" class="" data-old_color="#3A3847"/>
	<path style="fill:#3A3847" d="M139.699,92.814c-1.023,0-2.046-0.39-2.827-1.171l-11.299-11.307c-1.562-1.562-1.562-4.092,0-5.654   s4.092-1.562,5.654,0l11.299,11.308c1.562,1.562,1.562,4.092,0,5.653C141.745,92.424,140.722,92.814,139.699,92.814z" data-original="#3A3847" class="" data-old_color="#3A3847"/>
	<path style="fill:#3A3847" d="M190.589,143.696c-1.023,0-2.046-0.39-2.827-1.171l-11.307-11.307c-1.562-1.562-1.562-4.092,0-5.654   s4.092-1.562,5.653,0l11.307,11.308c1.562,1.562,1.562,4.091,0,5.653C192.635,143.306,191.612,143.696,190.589,143.696z" data-original="#3A3847" class="" data-old_color="#3A3847"/>
	<path style="fill:#3A3847" d="M88.817,143.696c-1.023,0-2.046-0.39-2.827-1.171l-11.307-11.299c-1.562-1.562-1.562-4.092,0-5.654   s4.092-1.562,5.654,0l11.307,11.3c1.562,1.562,1.562,4.091,0,5.653C90.863,143.306,89.84,143.696,88.817,143.696z" data-original="#3A3847" class="" data-old_color="#3A3847"/>
	<path style="fill:#3A3847" d="M139.699,194.585c-1.023,0-2.046-0.39-2.827-1.171l-11.307-11.308c-1.562-1.562-1.562-4.091,0-5.653   s4.092-1.562,5.654,0l11.307,11.307c1.562,1.562,1.562,4.092,0,5.654C141.745,194.195,140.722,194.585,139.699,194.585z" data-original="#3A3847" class="" data-old_color="#3A3847"/>
	<path style="fill:#3A3847" d="M287.355,410.091c-1.062,0-2.077-0.422-2.827-1.171l-39.574-39.583   c-1.562-1.562-1.562-4.092,0-5.653l118.731-118.74c1.562-1.562,4.092-1.562,5.653,0l39.583,39.575   c0.749,0.75,1.171,1.765,1.171,2.826c0,1.062-0.422,2.078-1.171,2.827L290.182,408.92   C289.432,409.669,288.416,410.091,287.355,410.091z M253.433,366.511l33.921,33.929L400.44,287.345l-33.929-33.921L253.433,366.511   z" data-original="#3A3847" class="" data-old_color="#3A3847"/>
	<path style="fill:#3A3847" d="M273.221,384.643c-1.023,0-2.046-0.391-2.827-1.172c-1.562-1.562-1.562-4.092,0-5.653   l107.417-107.425c1.562-1.562,4.092-1.562,5.654,0c1.562,1.562,1.562,4.092,0,5.653L276.047,383.471   C275.267,384.252,274.244,384.643,273.221,384.643z" data-original="#3A3847" class="" data-old_color="#3A3847"/>
	<path style="fill:#3A3847" d="M383.489,302.651c-1.023,0-2.047-0.391-2.827-1.171l-28.275-28.275   c-1.562-1.562-1.562-4.092,0-5.654c1.562-1.562,4.092-1.562,5.653,0l28.275,28.275c1.562,1.562,1.562,4.092,0,5.654   C385.534,302.26,384.511,302.651,383.489,302.651z" data-original="#3A3847" class="" data-old_color="#3A3847"/>
	<path style="fill:#3A3847" d="M366.52,319.612c-1.023,0-2.046-0.391-2.827-1.172l-28.268-28.268c-1.562-1.562-1.562-4.092,0-5.653   s4.092-1.562,5.653,0l28.268,28.268c1.562,1.562,1.562,4.092,0,5.653C368.566,319.221,367.542,319.612,366.52,319.612z" data-original="#3A3847" class="" data-old_color="#3A3847"/>
	<path style="fill:#3A3847" d="M349.567,336.564c-1.022,0-2.046-0.391-2.826-1.171l-28.275-28.268   c-1.562-1.562-1.562-4.092,0-5.653c1.562-1.562,4.092-1.562,5.653,0l28.275,28.268c1.562,1.562,1.562,4.092,0,5.653   C351.613,336.173,350.59,336.564,349.567,336.564z" data-original="#3A3847" class="" data-old_color="#3A3847"/>
	<path style="fill:#3A3847" d="M332.598,353.533c-1.022,0-2.045-0.391-2.826-1.172l-28.268-28.275   c-1.562-1.562-1.562-4.092,0-5.653c1.562-1.562,4.092-1.562,5.653,0l28.268,28.275c1.562,1.562,1.562,4.092,0,5.653   C334.645,353.142,333.621,353.533,332.598,353.533z" data-original="#3A3847" class="" data-old_color="#3A3847"/>
	<path style="fill:#3A3847" d="M315.638,370.501c-1.022,0-2.046-0.391-2.827-1.172l-28.268-28.275   c-1.562-1.562-1.562-4.092,0-5.653c1.562-1.562,4.092-1.562,5.654,0l28.268,28.275c1.562,1.562,1.562,4.092,0,5.653   C317.684,370.111,316.661,370.501,315.638,370.501z" data-original="#3A3847" class="" data-old_color="#3A3847"/>
	<path style="fill:#3A3847" d="M298.677,387.453c-1.022,0-2.046-0.39-2.826-1.171l-28.269-28.268c-1.562-1.562-1.562-4.092,0-5.654   c1.562-1.562,4.092-1.562,5.654,0l28.268,28.269c1.562,1.562,1.562,4.092,0,5.653C300.723,387.064,299.701,387.453,298.677,387.453   z" data-original="#3A3847" class="" data-old_color="#3A3847"/>
	<path style="fill:#3A3847" d="M338.237,460.981L338.237,460.981c-1.062,0-2.077-0.422-2.827-1.171l-39.574-39.583   c-1.562-1.562-1.562-4.092,0-5.653l118.739-118.748c0.75-0.749,1.765-1.171,2.827-1.171l0,0c1.062,0,2.077,0.422,2.827,1.171   l39.574,39.591c1.562,1.562,1.562,4.092,0,5.653l-118.74,118.74C340.314,460.559,339.298,460.981,338.237,460.981z M304.315,417.4   l33.922,33.93l113.086-113.086l-33.921-33.938L304.315,417.4z" data-original="#3A3847" class="" data-old_color="#3A3847"/>
	<path style="fill:#3A3847" d="M324.103,435.533c-1.023,0-2.046-0.391-2.827-1.172c-1.562-1.562-1.562-4.092,0-5.653   l107.433-107.433c1.562-1.562,4.092-1.562,5.653,0c1.562,1.562,1.562,4.092,0,5.653L326.929,434.361   C326.149,435.142,325.125,435.533,324.103,435.533z" data-original="#3A3847" class="" data-old_color="#3A3847"/>
	<path style="fill:#3A3847" d="M434.377,353.533c-1.022,0-2.045-0.391-2.826-1.172l-28.268-28.275   c-1.562-1.562-1.562-4.092,0-5.653c1.562-1.562,4.092-1.562,5.653,0l28.268,28.275c1.562,1.562,1.562,4.092,0,5.653   C436.424,353.142,435.401,353.533,434.377,353.533z" data-original="#3A3847" class="" data-old_color="#3A3847"/>
	<path style="fill:#3A3847" d="M417.41,370.501c-1.023,0-2.046-0.391-2.827-1.172l-28.268-28.275c-1.562-1.562-1.562-4.092,0-5.653   s4.092-1.562,5.653,0l28.269,28.275c1.562,1.562,1.562,4.092,0,5.653C419.455,370.111,418.432,370.501,417.41,370.501z" data-original="#3A3847" class="" data-old_color="#3A3847"/>
	<path style="fill:#3A3847" d="M400.456,387.453c-1.022,0-2.046-0.39-2.827-1.171l-28.283-28.268c-1.562-1.562-1.562-4.092,0-5.654   c1.562-1.562,4.092-1.562,5.654,0l28.283,28.269c1.562,1.562,1.562,4.092,0,5.653C402.502,387.064,401.48,387.453,400.456,387.453z   " data-original="#3A3847" class="" data-old_color="#3A3847"/>
	<path style="fill:#3A3847" d="M383.481,404.414c-1.023,0-2.047-0.391-2.827-1.171l-28.268-28.26c-1.562-1.562-1.562-4.092,0-5.654   c1.562-1.562,4.092-1.562,5.653,0l28.268,28.26c1.562,1.562,1.562,4.092,0,5.654C385.526,404.024,384.503,404.414,383.481,404.414z   " data-original="#3A3847" class="" data-old_color="#3A3847"/>
	<path style="fill:#3A3847" d="M366.52,421.382c-1.023,0-2.046-0.39-2.827-1.171l-28.268-28.268c-1.562-1.562-1.562-4.092,0-5.653   s4.092-1.562,5.653,0l28.268,28.268c1.562,1.562,1.562,4.092,0,5.653C368.566,420.993,367.542,421.382,366.52,421.382z" data-original="#3A3847" class="" data-old_color="#3A3847"/>
	<path style="fill:#3A3847" d="M349.559,438.351c-1.022,0-2.046-0.391-2.826-1.171l-28.268-28.283   c-1.562-1.562-1.562-4.092,0-5.653c1.562-1.562,4.092-1.562,5.653,0l28.268,28.283c1.562,1.562,1.562,4.092,0,5.653   C351.605,437.96,350.582,438.351,349.559,438.351z" data-original="#3A3847" class="" data-old_color="#3A3847"/>
	<path style="fill:#3A3847" d="M389.134,511.855c-1.023,0-2.046-0.391-2.827-1.171l-39.59-39.567   c-0.75-0.75-1.172-1.765-1.172-2.826c0-1.062,0.422-2.078,1.172-2.827l118.739-118.74c1.562-1.562,4.092-1.562,5.653,0   l39.583,39.575c0.749,0.75,1.171,1.765,1.171,2.826c0,1.062-0.422,2.078-1.171,2.827L391.96,510.684   C391.18,511.464,390.157,511.855,389.134,511.855z M355.198,468.29l33.937,33.913l113.077-113.079l-33.929-33.921L355.198,468.29z" data-original="#3A3847" class="" data-old_color="#3A3847"/>
	<path style="fill:#3A3847" d="M374.993,486.421c-1.023,0-2.046-0.39-2.827-1.171c-1.562-1.562-1.562-4.092,0-5.653   l107.433-107.433c1.562-1.562,4.092-1.562,5.654,0c1.562,1.562,1.562,4.092,0,5.653L377.819,485.25   C377.038,486.032,376.015,486.421,374.993,486.421z" data-original="#3A3847" class="" data-old_color="#3A3847"/>
	<path style="fill:#3A3847" d="M485.268,404.414c-1.023,0-2.047-0.391-2.827-1.171l-28.275-28.268   c-1.562-1.562-1.562-4.092,0-5.654c1.562-1.562,4.092-1.562,5.653,0l28.275,28.268c1.562,1.562,1.562,4.092,0,5.654   C487.313,404.024,486.29,404.414,485.268,404.414z" data-original="#3A3847" class="" data-old_color="#3A3847"/>
	<path style="fill:#3A3847" d="M468.299,421.382c-1.023,0-2.046-0.39-2.827-1.171l-28.268-28.275c-1.562-1.562-1.562-4.092,0-5.653   s4.092-1.562,5.653,0l28.268,28.275c1.562,1.562,1.562,4.092,0,5.653C470.345,420.993,469.322,421.382,468.299,421.382z" data-original="#3A3847" class="" data-old_color="#3A3847"/>
	<path style="fill:#3A3847" d="M451.338,438.343c-1.023,0-2.046-0.391-2.826-1.171l-28.268-28.275   c-1.562-1.562-1.562-4.092,0-5.653c1.562-1.562,4.092-1.562,5.653,0l28.268,28.275c1.562,1.562,1.562,4.092,0,5.653   C453.384,437.952,452.362,438.343,451.338,438.343z" data-original="#3A3847" class="" data-old_color="#3A3847"/>
	<path style="fill:#3A3847" d="M434.377,455.304c-1.022,0-2.045-0.391-2.826-1.172l-28.275-28.268   c-1.562-1.562-1.562-4.092,0-5.653c1.562-1.562,4.092-1.562,5.653,0l28.275,28.268c1.562,1.562,1.562,4.092,0,5.653   C436.424,454.913,435.401,455.304,434.377,455.304z" data-original="#3A3847" class="" data-old_color="#3A3847"/>
	<path style="fill:#3A3847" d="M417.41,472.273c-1.023,0-2.046-0.391-2.827-1.172l-28.268-28.268c-1.562-1.562-1.562-4.092,0-5.653   s4.092-1.562,5.653,0l28.269,28.268c1.562,1.562,1.562,4.092,0,5.653C419.455,471.882,418.432,472.273,417.41,472.273z" data-original="#3A3847" class="" data-old_color="#3A3847"/>
	<path style="fill:#3A3847" d="M400.449,489.233c-1.022,0-2.046-0.39-2.827-1.171l-28.275-28.268c-1.562-1.562-1.562-4.092,0-5.654   c1.562-1.562,4.092-1.562,5.654,0l28.275,28.268c1.562,1.562,1.562,4.092,0,5.654C402.494,488.843,401.472,489.233,400.449,489.233   z" data-original="#3A3847" class="" data-old_color="#3A3847"/>
	<path style="fill:#3A3847" d="M383.473,336.587c-1.023,0-2.047-0.391-2.827-1.171l-11.308-11.315   c-1.562-1.562-1.562-4.092,0-5.653c1.562-1.562,4.092-1.562,5.654,0l11.307,11.315c1.562,1.562,1.562,4.092,0,5.653   C385.518,336.197,384.495,336.587,383.473,336.587z" data-original="#3A3847" class="" data-old_color="#3A3847"/>
	<path style="fill:#3A3847" d="M434.354,387.469c-1.022,0-2.045-0.39-2.826-1.171l-11.299-11.307c-1.562-1.562-1.562-4.092,0-5.654   c1.562-1.562,4.092-1.562,5.653,0l11.299,11.308c1.562,1.562,1.562,4.092,0,5.653C436.401,387.079,435.377,387.469,434.354,387.469   z" data-original="#3A3847" class="" data-old_color="#3A3847"/>
	<path style="fill:#3A3847" d="M332.582,387.469c-1.022,0-2.045-0.39-2.826-1.171l-11.307-11.307c-1.562-1.562-1.562-4.092,0-5.654   c1.562-1.562,4.092-1.562,5.653,0l11.307,11.308c1.562,1.562,1.562,4.092,0,5.653C334.629,387.079,333.606,387.469,332.582,387.469   z" data-original="#3A3847" class="" data-old_color="#3A3847"/>
	<path style="fill:#3A3847" d="M383.465,438.351c-1.023,0-2.047-0.391-2.827-1.171l-11.3-11.3c-1.562-1.562-1.562-4.092,0-5.653   c1.562-1.562,4.092-1.562,5.654,0l11.299,11.3c1.562,1.562,1.562,4.092,0,5.653C385.51,437.96,384.488,438.351,383.465,438.351z" data-original="#3A3847" class="" data-old_color="#3A3847"/>
</g></g> </svg>
