<?xml version="1.0"?>
<svg xmlns="http://www.w3.org/2000/svg" xmlns:xlink="http://www.w3.org/1999/xlink" version="1.1" id="Capa_1" x="0px" y="0px" viewBox="0 0 510.867 510.867" style="enable-background:new 0 0 510.867 510.867;" xml:space="preserve" width="512px" height="512px" class=""><g><path style="fill:#403F4C" d="M483.238,383.441h-31.984c8.824,0,15.992-7.161,15.992-15.992c0-8.832-7.168-15.992-15.992-15.992  H419.27c8.823,0,15.992-7.161,15.992-15.992c0-8.832-7.169-15.993-15.992-15.993h-47.978c8.824,0,15.993-7.16,15.993-15.992  c0-8.831-7.169-15.992-15.993-15.992h87.958c8.824,0,15.992-7.16,15.992-15.992c0-8.836-7.168-15.996-15.992-15.996h-39.98  c8.823,0,15.992-7.161,15.992-15.992c0-8.832-7.169-15.992-15.992-15.992h-15.992c8.823,0,15.992-7.161,15.992-15.993  s-7.169-15.992-15.992-15.992h79.961c8.824,0,15.992-7.161,15.992-15.993c0-8.831-7.168-15.992-15.992-15.992h-31.984  c8.824,0,15.992-7.16,15.992-15.992s-7.168-15.992-15.992-15.992h-31.984c8.823,0,15.992-7.161,15.992-15.992  c0-8.832-7.169-15.992-15.992-15.992h-23.988c8.823,0,15.992-7.161,15.992-15.993s-7.169-15.992-15.992-15.992H155.392  c-8.832,0-15.992,7.161-15.992,15.992s7.161,15.993,15.992,15.993H99.418c-8.832,0-15.992,7.16-15.992,15.992  s7.161,15.992,15.992,15.992H83.426c-8.832,0-15.992,7.161-15.992,15.992c0,8.832,7.16,15.992,15.992,15.992h47.977  c-8.831,0-15.992,7.161-15.992,15.992c0,8.832,7.161,15.993,15.992,15.993H43.445c-8.832,0-15.992,7.161-15.992,15.992  s7.161,15.993,15.992,15.993h39.981c-8.832,0-15.992,7.16-15.992,15.992s7.16,15.992,15.992,15.992H43.445  c-8.832,0-15.992,7.16-15.992,15.996c0,8.832,7.161,15.992,15.992,15.992H27.453c-8.832,0-15.993,7.161-15.993,15.992  c0,8.832,7.161,15.992,15.993,15.992h39.981c-8.832,0-15.992,7.161-15.992,15.993c0,8.831,7.16,15.992,15.992,15.992H51.442  c-8.832,0-15.993,7.16-15.993,15.992c0,8.831,7.161,15.992,15.993,15.992h79.961c-8.831,0-15.992,7.161-15.992,15.992  c0,8.832,7.161,15.992,15.992,15.992H99.418c-8.832,0-15.992,7.161-15.992,15.993c0,8.831,7.161,15.992,15.992,15.992h271.873  c8.824,0,15.993-7.161,15.993-15.992c0-8.832-7.169-15.993-15.993-15.993h111.946c8.824,0,15.992-7.16,15.992-15.992  C499.23,390.602,492.062,383.441,483.238,383.441z" data-original="#656D78" class="active-path" data-old_color="#656D78"/><path id="SVGCleanerId_0" style="fill:#FFCE54;" d="M403.269,255.502c0,81.695-66.234,147.929-147.93,147.929  c-81.695,0-147.929-66.233-147.929-147.929c0-81.703,66.234-147.933,147.929-147.933  C337.035,107.57,403.269,173.799,403.269,255.502z" data-original="#FFCE54"/><g>
	<path id="SVGCleanerId_0_1_" style="fill:#FFCE54;" d="M403.269,255.502c0,81.695-66.234,147.929-147.93,147.929   c-81.695,0-147.929-66.233-147.929-147.929c0-81.703,66.234-147.933,147.929-147.933   C337.035,107.57,403.269,173.799,403.269,255.502z" data-original="#FFCE54"/>
</g><g style="opacity:0.3;">
	<path style="fill:#FFFFFF;" d="M139.395,255.502c0-76.295,57.769-139.054,131.936-147.035c-5.255-0.565-10.584-0.897-15.992-0.897   c-81.695,0-147.929,66.229-147.929,147.933c0,81.695,66.234,147.929,147.929,147.929c5.408,0,10.737-0.336,15.992-0.897   C197.164,394.553,139.395,331.793,139.395,255.502z" data-original="#FFFFFF"/>
</g><g style="opacity:0.2;">
	<path d="M371.284,255.495c0,76.299-57.769,139.059-131.937,147.039c5.255,0.562,10.589,0.897,15.992,0.897   c81.695,0,147.93-66.233,147.93-147.937c0-81.695-66.234-147.925-147.93-147.925c-5.403,0-10.737,0.332-15.992,0.897   C313.515,116.448,371.284,179.207,371.284,255.495z" data-original="#000000"/>
</g><path style="fill:#CCD1D9;" d="M378.64,326.593c-23.747-26.12-49.984-53.825-78.033-82.214c-5.544-5.767-11.197-11.42-16.961-17.187  c-34.374-34.378-68.014-66.433-99.339-94.931C90.392,47.056,16.833-6.493,5.073,5.267c-10.967,10.968,36.408,77.459,111.95,162.387  l11.588,11.588c4.014-6.727,8.542-12.947,13.517-18.827l-0.457-0.34l-10.229-10.229c-28.217-32.855-59.936-62.989-56.371-66.554  c7.067-7.067,102.283,68.811,193.028,159.45c5.653,5.654,11.252,11.362,16.906,17.016  c83.904,85.381,157.189,169.402,150.568,176.017c-3.562,3.562-41.387-27.932-73.785-55.691l-11.307-11.315  c-5.881,4.975-12.096,9.504-18.827,13.518l11.588,11.588c84.928,75.542,151.364,122.863,162.328,111.899  C517.339,494.012,463.849,420.509,378.64,326.593z" data-original="#CCD1D9"/><g style="opacity:0.2;">
	<path d="M350.482,368.768c-5.881,4.975-12.096,9.504-18.827,13.518l8.573,8.574c6.56-4.115,12.822-8.637,18.694-13.643   L350.482,368.768z" data-original="#000000"/>
	<path d="M128.612,179.242c4.014-6.727,8.542-12.947,13.517-18.827l-0.457-0.34l-8.102-8.102c-4.981,5.853-9.483,12.1-13.591,18.636   L128.612,179.242z" data-original="#000000"/>
</g><g style="opacity:0.7;">
	<path style="fill:#FFFFFF;" d="M178.681,137.914c31.321,28.494,64.961,60.553,99.335,94.931   c5.763,5.767,11.417,11.42,16.961,17.188c28.049,28.389,54.286,56.094,78.032,82.214   c78.268,86.264,129.719,155.254,128.485,175.057c1.757-0.102,3.155-0.586,4.1-1.53c11.768-11.761-41.722-85.264-126.931-179.18   c-23.747-26.12-49.984-53.825-78.033-82.214c-5.544-5.767-11.197-11.42-16.961-17.187c-34.366-34.378-68.014-66.437-99.335-94.931   C90.415,47.056,16.857-6.493,5.097,5.267C4.148,6.216,3.663,7.61,3.57,9.374C23.373,8.145,92.418,59.651,178.681,137.914z" data-original="#FFFFFF"/>
</g><path style="fill:#4FC1E9;" d="M483.613,51.623c0,13.248-10.745,23.989-23.988,23.989c-13.244,0-23.988-10.741-23.988-23.989  c0-13.251,10.744-23.988,23.988-23.988C472.868,27.635,483.613,38.372,483.613,51.623z" data-original="#4FC1E9"/><g style="opacity:0.5;">
	<path style="fill:#FFFFFF;" d="M443.632,51.623c0-11.881,8.66-21.673,19.99-23.586c-1.305-0.219-2.632-0.402-3.998-0.402   c-13.244,0-23.988,10.737-23.988,23.988c0,13.248,10.744,23.989,23.988,23.989c1.366,0,2.693-0.183,3.998-0.402   C452.292,73.297,443.632,63.501,443.632,51.623z" data-original="#FFFFFF"/>
</g><g style="opacity:0.2;">
	<path d="M475.617,51.623c0,11.881-8.66,21.674-19.99,23.587c1.304,0.219,2.631,0.402,3.998,0.402   c13.243,0,23.988-10.737,23.988-23.989c0-13.247-10.745-23.988-23.988-23.988c-1.367,0-2.694,0.184-3.998,0.402   C466.956,29.951,475.617,39.746,475.617,51.623z" data-original="#000000"/>
</g><g>
	<path style="fill:#3A3847" d="M491.851,231.541c-2.21,0-4.037-1.788-4.037-3.998s1.749-3.998,3.951-3.998h0.086   c2.202,0,3.998,1.788,3.998,3.998S494.053,231.541,491.851,231.541z" data-original="#3A3847" class="" data-old_color="#3A3847"/>
	<path style="fill:#3A3847" d="M203.985,47.629c-2.206,0-4.037-1.788-4.037-3.998s1.75-3.998,3.959-3.998h0.078   c2.21,0,3.999,1.788,3.999,3.998S206.195,47.629,203.985,47.629z" data-original="#3A3847" class="" data-old_color="#3A3847"/>
	<path style="fill:#3A3847" d="M4.081,143.583c-2.206,0-4.037-1.788-4.037-3.998s1.749-3.998,3.959-3.998h0.078   c2.21,0,3.998,1.788,3.998,3.998S6.291,143.583,4.081,143.583z" data-original="#3A3847" class="" data-old_color="#3A3847"/>
	<path style="fill:#3A3847" d="M315.935,39.633c-2.209,0-4.037-1.788-4.037-3.998s1.75-3.998,3.951-3.998h0.086   c2.203,0,3.998,1.788,3.998,3.998S318.138,39.633,315.935,39.633z" data-original="#3A3847" class="" data-old_color="#3A3847"/>
	<path style="fill:#3A3847" d="M427.882,159.576c-2.211,0-4.037-1.788-4.037-3.998s1.748-3.998,3.951-3.998h0.086   c2.201,0,3.998,1.788,3.998,3.998S430.083,159.576,427.882,159.576z" data-original="#3A3847" class="" data-old_color="#3A3847"/>
	<path style="fill:#3A3847" d="M323.931,503.414c-2.209,0-4.037-1.788-4.037-3.998s1.75-3.998,3.951-3.998h0.086   c2.203,0,3.998,1.788,3.998,3.998S326.134,503.414,323.931,503.414z" data-original="#3A3847" class="" data-old_color="#3A3847"/>
	<path style="fill:#3A3847" d="M195.989,471.43c-2.206,0-4.037-1.789-4.037-3.998c0-2.21,1.75-3.998,3.959-3.998h0.078   c2.21,0,3.998,1.788,3.998,3.998C199.987,469.641,198.199,471.43,195.989,471.43z" data-original="#3A3847" class="" data-old_color="#3A3847"/>
	<path style="fill:#3A3847" d="M12.078,351.488c-2.206,0-4.037-1.788-4.037-3.998s1.749-3.998,3.959-3.998h0.078   c2.21,0,3.998,1.788,3.998,3.998S14.288,351.488,12.078,351.488z" data-original="#3A3847" class="" data-old_color="#3A3847"/>
	<path style="fill:#3A3847" d="M76.047,399.464c-2.206,0-4.037-1.788-4.037-3.998s1.75-3.998,3.959-3.998h0.078   c2.21,0,3.998,1.788,3.998,3.998S78.257,399.464,76.047,399.464z" data-original="#3A3847" class="" data-old_color="#3A3847"/>
	<path style="fill:#3A3847" d="M75.813,503.407c-2.21,0-3.998-1.788-3.998-3.998v-31.977c0-2.21,1.788-3.998,3.998-3.998   c2.209,0,3.998,1.788,3.998,3.998v31.977C79.811,501.619,78.022,503.407,75.813,503.407z" data-original="#3A3847" class="" data-old_color="#3A3847"/>
	<path style="fill:#3A3847" d="M83.805,487.414H67.816c-2.209,0-3.998-1.788-3.998-3.998s1.789-3.998,3.998-3.998h15.989   c2.21,0,3.998,1.788,3.998,3.998S86.015,487.414,83.805,487.414z" data-original="#3A3847" class="" data-old_color="#3A3847"/>
	<path style="fill:#3A3847" d="M35.828,271.526c-2.209,0-3.998-1.788-3.998-3.998V235.54c0-2.21,1.789-3.998,3.998-3.998   c2.21,0,3.999,1.788,3.999,3.998v31.988C39.826,269.738,38.038,271.526,35.828,271.526z" data-original="#3A3847" class="" data-old_color="#3A3847"/>
	<path style="fill:#3A3847" d="M43.824,255.53L43.824,255.53l-15.993-0.008c-2.209,0-3.998-1.792-3.998-3.998   c0-2.21,1.792-3.998,3.998-3.998l0,0l15.993,0.008c2.209,0,3.998,1.792,3.998,3.998C47.822,253.742,46.03,255.53,43.824,255.53z" data-original="#3A3847" class="" data-old_color="#3A3847"/>
	<path style="fill:#3A3847" d="M467.621,343.492c-2.21,0-3.998-1.788-3.998-3.998v-31.985c0-2.209,1.788-3.998,3.998-3.998   s3.998,1.789,3.998,3.998v31.985C471.619,341.704,469.83,343.492,467.621,343.492z" data-original="#3A3847" class="" data-old_color="#3A3847"/>
	<path style="fill:#3A3847" d="M475.617,327.498h-15.993c-2.21,0-3.998-1.787-3.998-3.998c0-2.209,1.788-3.998,3.998-3.998h15.992   c2.21,0,3.998,1.789,3.998,3.998C479.615,325.711,477.827,327.498,475.617,327.498z" data-original="#3A3847" class="" data-old_color="#3A3847"/>
	<path style="fill:#3A3847" d="M459.624,79.602c-15.43,0-27.986-12.552-27.986-27.979c0-15.426,12.557-27.979,27.986-27.979   s27.986,12.549,27.986,27.971C487.611,67.046,475.054,79.602,459.624,79.602z M459.624,31.641c-11.026,0-19.99,8.965-19.99,19.982   c0,11.019,8.964,19.983,19.99,19.983c11.025,0,19.99-8.968,19.99-19.991C479.615,40.602,470.65,31.641,459.624,31.641z" data-original="#3A3847" class="" data-old_color="#3A3847"/>
	<path style="fill:#3A3847" d="M459.624,87.599c-1.211,0-3.022-0.367-4.771-2.12c-5.333-5.322-7.223-21.564-7.223-33.855   c0-6.005,0.578-35.967,11.994-35.967c2.21,0,3.998,1.788,3.998,3.998c0,1.96-1.414,3.592-3.271,3.932   c-1.711,1.917-4.725,11.752-4.725,28.037s3.014,26.125,4.717,28.045c1.865,0.335,3.279,1.964,3.279,3.924   c0.008,2.21-1.78,4.002-3.99,4.006C459.624,87.599,459.624,87.599,459.624,87.599z" data-original="#3A3847" class="" data-old_color="#3A3847"/>
	<path style="fill:#3A3847" d="M15.693,19.623c-2.206,0-4.037-1.788-4.037-3.998s1.75-3.998,3.959-3.998h0.078   c2.21,0,3.998,1.788,3.998,3.998S17.903,19.623,15.693,19.623z" data-original="#3A3847" class="" data-old_color="#3A3847"/>
	<path style="fill:#3A3847" d="M31.685,35.616c-2.206,0-4.037-1.788-4.037-3.998s1.749-3.998,3.959-3.998h0.078   c2.209,0,3.998,1.788,3.998,3.998S33.895,35.616,31.685,35.616z" data-original="#3A3847" class="" data-old_color="#3A3847"/>
	<path style="fill:#3A3847" d="M47.678,51.608c-2.206,0-4.037-1.788-4.037-3.998c0-2.209,1.75-3.998,3.959-3.998h0.078   c2.21,0,3.998,1.789,3.998,3.998C51.676,49.82,49.888,51.608,47.678,51.608z" data-original="#3A3847" class="" data-old_color="#3A3847"/>
	<path style="fill:#3A3847" d="M79.663,51.608c-2.206,0-4.037-1.788-4.037-3.998c0-2.209,1.749-3.998,3.959-3.998h0.078   c2.21,0,3.998,1.789,3.998,3.998C83.661,49.82,81.872,51.608,79.663,51.608z" data-original="#3A3847" class="" data-old_color="#3A3847"/>
	<path style="fill:#3A3847" d="M63.67,67.6c-2.206,0-4.037-1.789-4.037-3.998c0-2.21,1.749-3.998,3.959-3.998h0.078   c2.209,0,3.998,1.788,3.998,3.998C67.668,65.812,65.88,67.6,63.67,67.6z" data-original="#3A3847" class="" data-old_color="#3A3847"/>
	<path style="fill:#3A3847" d="M47.678,83.593c-2.206,0-4.037-1.788-4.037-3.998c0-2.209,1.75-3.998,3.959-3.998h0.078   c2.21,0,3.998,1.789,3.998,3.998C51.676,81.805,49.888,83.593,47.678,83.593z" data-original="#3A3847" class="" data-old_color="#3A3847"/>
	<path style="fill:#3A3847" d="M95.655,67.6c-2.206,0-4.037-1.789-4.037-3.998c0-2.21,1.749-3.998,3.959-3.998h0.078   c2.21,0,3.998,1.788,3.998,3.998C99.653,65.812,97.865,67.6,95.655,67.6z" data-original="#3A3847" class="" data-old_color="#3A3847"/>
	<path style="fill:#3A3847" d="M79.663,83.593c-2.206,0-4.037-1.788-4.037-3.998c0-2.209,1.749-3.998,3.959-3.998h0.078   c2.21,0,3.998,1.789,3.998,3.998C83.661,81.805,81.872,83.593,79.663,83.593z" data-original="#3A3847" class="" data-old_color="#3A3847"/>
	<path style="fill:#3A3847" d="M63.67,99.585c-2.206,0-4.037-1.789-4.037-3.998c0-2.21,1.749-3.998,3.959-3.998h0.078   c2.209,0,3.998,1.788,3.998,3.998C67.668,97.797,65.88,99.585,63.67,99.585z" data-original="#3A3847" class="" data-old_color="#3A3847"/>
	<path style="fill:#3A3847" d="M111.647,83.593c-2.206,0-4.037-1.788-4.037-3.998c0-2.209,1.749-3.998,3.959-3.998h0.078   c2.21,0,3.998,1.789,3.998,3.998C115.645,81.805,113.857,83.593,111.647,83.593z" data-original="#3A3847" class="" data-old_color="#3A3847"/>
	<path style="fill:#3A3847" d="M79.663,115.578c-2.206,0-4.037-1.788-4.037-3.998s1.749-3.998,3.959-3.998h0.078   c2.21,0,3.998,1.788,3.998,3.998S81.872,115.578,79.663,115.578z" data-original="#3A3847" class="" data-old_color="#3A3847"/>
	<path style="fill:#3A3847" d="M127.639,99.585c-2.206,0-4.037-1.789-4.037-3.998c0-2.21,1.749-3.998,3.959-3.998h0.078   c2.21,0,3.998,1.788,3.998,3.998S129.849,99.585,127.639,99.585z" data-original="#3A3847" class="" data-old_color="#3A3847"/>
	<path style="fill:#3A3847" d="M95.655,131.57c-2.206,0-4.037-1.788-4.037-3.998c0-2.21,1.749-3.998,3.959-3.998h0.078   c2.21,0,3.998,1.788,3.998,3.998C99.653,129.782,97.865,131.57,95.655,131.57z" data-original="#3A3847" class="" data-old_color="#3A3847"/>
	<path style="fill:#3A3847" d="M143.631,115.578c-2.206,0-4.037-1.788-4.037-3.998s1.75-3.998,3.959-3.998h0.078   c2.21,0,3.998,1.788,3.998,3.998S145.841,115.578,143.631,115.578z" data-original="#3A3847" class="" data-old_color="#3A3847"/>
	<path style="fill:#3A3847" d="M111.647,147.562c-2.206,0-4.037-1.788-4.037-3.998s1.749-3.998,3.959-3.998h0.078   c2.21,0,3.998,1.788,3.998,3.998S113.857,147.562,111.647,147.562z" data-original="#3A3847" class="" data-old_color="#3A3847"/>
	<path style="fill:#3A3847" d="M159.624,131.57c-2.206,0-4.037-1.788-4.037-3.998c0-2.21,1.749-3.998,3.959-3.998h0.078   c2.209,0,3.998,1.788,3.998,3.998C163.622,129.782,161.833,131.57,159.624,131.57z" data-original="#3A3847" class="" data-old_color="#3A3847"/>
	<path style="fill:#3A3847" d="M175.616,147.562c-2.206,0-4.037-1.788-4.037-3.998s1.75-3.998,3.959-3.998h0.078   c2.21,0,3.998,1.788,3.998,3.998S177.826,147.562,175.616,147.562z" data-original="#3A3847" class="" data-old_color="#3A3847"/>
	<path style="fill:#3A3847" d="M191.609,163.554c-2.206,0-4.037-1.788-4.037-3.998s1.749-3.998,3.959-3.998h0.078   c2.209,0,3.998,1.788,3.998,3.998S193.818,163.554,191.609,163.554z" data-original="#3A3847" class="" data-old_color="#3A3847"/>
	<path style="fill:#3A3847" d="M207.601,179.547c-2.206,0-4.037-1.789-4.037-3.999c0-2.209,1.749-3.998,3.959-3.998h0.078   c2.21,0,3.998,1.789,3.998,3.998C211.599,177.758,209.811,179.547,207.601,179.547z" data-original="#3A3847" class="" data-old_color="#3A3847"/>
	<path style="fill:#3A3847" d="M223.593,195.539c-2.206,0-4.037-1.788-4.037-3.998s1.749-3.998,3.959-3.998h0.078   c2.21,0,3.998,1.788,3.998,3.998S225.803,195.539,223.593,195.539z" data-original="#3A3847" class="" data-old_color="#3A3847"/>
	<path style="fill:#3A3847" d="M239.585,211.532c-2.206,0-4.037-1.789-4.037-3.999c0-2.209,1.749-3.998,3.959-3.998h0.078   c2.21,0,3.998,1.789,3.998,3.998C243.583,209.743,241.795,211.532,239.585,211.532z" data-original="#3A3847" class="" data-old_color="#3A3847"/>
	<path style="fill:#3A3847" d="M255.578,227.524c-2.206,0-4.037-1.788-4.037-3.998s1.749-3.998,3.959-3.998h0.078   c2.21,0,3.998,1.788,3.998,3.998S257.788,227.524,255.578,227.524z" data-original="#3A3847" class="" data-old_color="#3A3847"/>
	<path style="fill:#3A3847" d="M271.574,243.516c-2.209,0-4.037-1.788-4.037-3.998s1.75-3.998,3.951-3.998h0.086   c2.202,0,3.998,1.788,3.998,3.998S273.776,243.516,271.574,243.516z" data-original="#3A3847" class="" data-old_color="#3A3847"/>
	<path style="fill:#3A3847" d="M287.566,259.508c-2.209,0-4.037-1.788-4.037-3.998c0-2.21,1.75-3.998,3.951-3.998h0.086   c2.203,0,3.998,1.788,3.998,3.998S289.769,259.508,287.566,259.508z" data-original="#3A3847" class="" data-old_color="#3A3847"/>
	<path style="fill:#3A3847" d="M303.558,275.5c-2.209,0-4.037-1.788-4.037-3.998s1.75-3.998,3.952-3.998h0.085   c2.203,0,3.999,1.788,3.999,3.998S305.761,275.5,303.558,275.5z" data-original="#3A3847" class="" data-old_color="#3A3847"/>
	<path style="fill:#3A3847" d="M319.551,291.493c-2.21,0-4.037-1.788-4.037-3.998s1.749-3.998,3.951-3.998h0.086   c2.202,0,3.998,1.788,3.998,3.998S321.753,291.493,319.551,291.493z" data-original="#3A3847" class="" data-old_color="#3A3847"/>
	<path style="fill:#3A3847" d="M335.543,307.485c-2.21,0-4.037-1.788-4.037-3.998c0-2.209,1.749-3.998,3.951-3.998h0.086   c2.202,0,3.998,1.789,3.998,3.998C339.541,305.697,337.746,307.485,335.543,307.485z" data-original="#3A3847" class="" data-old_color="#3A3847"/>
	<path style="fill:#3A3847" d="M351.536,323.477c-2.21,0-4.037-1.787-4.037-3.998c0-2.209,1.749-3.998,3.951-3.998h0.086   c2.202,0,3.998,1.789,3.998,3.998C355.534,321.69,353.738,323.477,351.536,323.477z" data-original="#3A3847" class="" data-old_color="#3A3847"/>
	<path style="fill:#3A3847" d="M367.528,339.47c-2.21,0-4.037-1.788-4.037-3.998s1.749-3.999,3.951-3.999h0.086   c2.202,0,3.998,1.789,3.998,3.999S369.73,339.47,367.528,339.47z" data-original="#3A3847" class="" data-old_color="#3A3847"/>
	<path style="fill:#3A3847" d="M383.52,355.462c-2.21,0-4.037-1.788-4.037-3.998s1.749-3.998,3.951-3.998h0.086   c2.202,0,3.998,1.788,3.998,3.998S385.722,355.462,383.52,355.462z" data-original="#3A3847" class="" data-old_color="#3A3847"/>
	<path style="fill:#3A3847" d="M399.512,371.454c-2.21,0-4.037-1.788-4.037-3.998s1.749-3.998,3.952-3.998h0.085   c2.202,0,3.999,1.788,3.999,3.998S401.714,371.454,399.512,371.454z" data-original="#3A3847" class="" data-old_color="#3A3847"/>
	<path style="fill:#3A3847" d="M367.528,403.439c-2.21,0-4.037-1.788-4.037-3.998s1.749-3.998,3.951-3.998h0.086   c2.202,0,3.998,1.788,3.998,3.998S369.73,403.439,367.528,403.439z" data-original="#3A3847" class="" data-old_color="#3A3847"/>
	<path style="fill:#3A3847" d="M415.505,387.447c-2.211,0-4.037-1.788-4.037-3.998s1.748-3.998,3.951-3.998h0.086   c2.201,0,3.998,1.788,3.998,3.998S417.706,387.447,415.505,387.447z" data-original="#3A3847" class="" data-old_color="#3A3847"/>
	<path style="fill:#3A3847" d="M383.52,419.431c-2.21,0-4.037-1.788-4.037-3.998s1.749-3.998,3.951-3.998h0.086   c2.202,0,3.998,1.788,3.998,3.998S385.722,419.431,383.52,419.431z" data-original="#3A3847" class="" data-old_color="#3A3847"/>
	<path style="fill:#3A3847" d="M431.497,403.439c-2.21,0-4.037-1.788-4.037-3.998s1.749-3.998,3.951-3.998h0.086   c2.201,0,3.998,1.788,3.998,3.998S433.699,403.439,431.497,403.439z" data-original="#3A3847" class="" data-old_color="#3A3847"/>
	<path style="fill:#3A3847" d="M399.512,435.424c-2.21,0-4.037-1.789-4.037-3.998c0-2.211,1.749-3.998,3.952-3.998h0.085   c2.202,0,3.999,1.787,3.999,3.998C403.511,433.635,401.714,435.424,399.512,435.424z" data-original="#3A3847" class="" data-old_color="#3A3847"/>
	<path style="fill:#3A3847" d="M447.49,419.431c-2.21,0-4.037-1.788-4.037-3.998s1.749-3.998,3.951-3.998h0.086   c2.202,0,3.998,1.788,3.998,3.998S449.692,419.431,447.49,419.431z" data-original="#3A3847" class="" data-old_color="#3A3847"/>
	<path style="fill:#3A3847" d="M415.505,451.416c-2.211,0-4.037-1.789-4.037-3.998c0-2.21,1.748-3.998,3.951-3.998h0.086   c2.201,0,3.998,1.788,3.998,3.998C419.503,449.627,417.706,451.416,415.505,451.416z" data-original="#3A3847" class="" data-old_color="#3A3847"/>
	<path style="fill:#3A3847" d="M463.482,435.424c-2.21,0-4.037-1.789-4.037-3.998c0-2.211,1.749-3.998,3.951-3.998h0.086   c2.202,0,3.998,1.787,3.998,3.998C467.48,433.635,465.684,435.424,463.482,435.424z" data-original="#3A3847" class="" data-old_color="#3A3847"/>
	<path style="fill:#3A3847" d="M447.49,451.416c-2.21,0-4.037-1.789-4.037-3.998c0-2.21,1.749-3.998,3.951-3.998h0.086   c2.202,0,3.998,1.788,3.998,3.998C451.488,449.627,449.692,451.416,447.49,451.416z" data-original="#3A3847" class="" data-old_color="#3A3847"/>
	<path style="fill:#3A3847" d="M431.497,467.409c-2.21,0-4.037-1.789-4.037-3.998c0-2.21,1.749-3.998,3.951-3.998h0.086   c2.201,0,3.998,1.788,3.998,3.998C435.496,465.62,433.699,467.409,431.497,467.409z" data-original="#3A3847" class="" data-old_color="#3A3847"/>
	<path style="fill:#3A3847" d="M463.482,467.409c-2.21,0-4.037-1.789-4.037-3.998c0-2.21,1.749-3.998,3.951-3.998h0.086   c2.202,0,3.998,1.788,3.998,3.998C467.48,465.62,465.684,467.409,463.482,467.409z" data-original="#3A3847" class="" data-old_color="#3A3847"/>
	<path style="fill:#3A3847" d="M479.474,483.401c-2.21,0-4.037-1.788-4.037-3.998s1.749-3.998,3.951-3.998h0.086   c2.202,0,3.998,1.788,3.998,3.998S481.676,483.401,479.474,483.401z" data-original="#3A3847" class="" data-old_color="#3A3847"/>
	<path style="fill:#3A3847" d="M495.466,499.393c-2.21,0-4.037-1.788-4.037-3.998s1.749-3.998,3.951-3.998h0.086   c2.202,0,3.998,1.788,3.998,3.998S497.668,499.393,495.466,499.393z" data-original="#3A3847" class="" data-old_color="#3A3847"/>
	<path style="fill:#3A3847" d="M255.339,407.437c-83.772,0-151.927-68.154-151.927-151.927c0-39.758,15.266-77.361,42.987-105.887   c1.538-1.577,4.068-1.624,5.653-0.078c1.582,1.539,1.616,4.068,0.078,5.653c-26.261,27.022-40.723,62.646-40.723,100.312   c0,79.368,64.567,143.931,143.931,143.931c37.678,0,73.309-14.462,100.319-40.723c1.585-1.538,4.123-1.499,5.653,0.078   c1.539,1.585,1.508,4.115-0.078,5.653C332.716,392.171,295.11,407.437,255.339,407.437z" data-original="#3A3847" class="" data-old_color="#3A3847"/>
	<path style="fill:#3A3847" d="M390.447,319.854c-0.547,0-1.102-0.109-1.632-0.344c-2.015-0.905-2.921-3.271-2.015-5.286   c8.277-18.507,12.471-38.255,12.471-58.714c0-79.364-64.571-143.931-143.932-143.931c-20.435,0-40.188,4.201-58.714,12.482   c-2.026,0.909-4.38-0.012-5.282-2.019c-0.902-2.015,0.004-4.381,2.019-5.283c19.557-8.742,40.41-13.177,61.978-13.177   c83.772,0,151.928,68.154,151.928,151.927c0,21.591-4.428,42.44-13.174,61.979C393.429,318.98,391.969,319.854,390.447,319.854z" data-original="#3A3847" class="" data-old_color="#3A3847"/>
	<path style="fill:#3A3847" d="M501.737,510.856c-15.103,0-55.364-19.928-161.173-114.039c-1.655-1.468-1.796-3.998-0.336-5.646   c1.484-1.647,4.006-1.804,5.646-0.327c103.739,92.26,151.31,117.717,156.908,112.094c10.636-10.643-68.646-119.622-221.939-272.916   C127.557,76.752,18.598-2.585,7.912,8.082c-5.606,5.614,19.869,53.173,112.106,156.893c1.468,1.648,1.319,4.174-0.332,5.642   s-4.178,1.319-5.642-0.332C-0.475,41.515-5.149,9.847,2.254,2.429c22.849-22.774,182.498,120.208,284.242,221.94   c101.725,101.732,244.78,261.375,221.94,284.224C507.117,509.919,505.017,510.856,501.737,510.856z" data-original="#3A3847" class="" data-old_color="#3A3847"/>
	<path style="fill:#3A3847" d="M435.113,440.273c-5.475,0-20.061-9.245-75.925-57.168c-1.679-1.437-1.874-3.959-0.437-5.638   c1.452-1.671,3.982-1.866,5.638-0.43c40.379,34.632,58.026,47.883,65.655,52.615c-12.119-21.739-78.915-98.195-164.771-184.06   C181.801,162.129,104.97,100.885,82.196,88.934c4.845,6.146,13.99,16.043,22.337,25.078c9.269,10.034,19.776,21.403,29.9,33.187   c1.437,1.675,1.245,4.197-0.43,5.638c-1.667,1.441-4.189,1.25-5.638-0.429c-10.03-11.674-20.482-22.985-29.705-32.969   C73.25,91.937,67.437,85.26,72.274,80.434c13.048-13.021,134.38,95.243,198.651,159.506c44.275,44.283,88.23,90.964,120.59,128.07   c54.724,62.76,50.21,67.281,46.907,70.576C437.565,439.454,436.737,440.273,435.113,440.273z" data-original="#3A3847" class="" data-old_color="#3A3847"/>
</g></g> </svg>
