<?xml version="1.0"?>
<svg xmlns="http://www.w3.org/2000/svg" id="Capa_1" enable-background="new 0 0 512 512" height="512px" viewBox="0 0 512 512" width="512px"><g transform="matrix(6.12323e-17 1 -1 6.12323e-17 512 0)"><g><path d="m399.5 165c28.949 0 52.5-23.551 52.5-52.5s-23.551-52.5-52.5-52.5-52.5 23.551-52.5 52.5 23.551 52.5 52.5 52.5zm0-75c12.407 0 22.5 10.093 22.5 22.5s-10.093 22.5-22.5 22.5-22.5-10.093-22.5-22.5 10.093-22.5 22.5-22.5z" data-original="#000000" class="active-path" data-old_color="#000000" fill="#403F4C"/><path d="m112.5 203.5c-28.949 0-52.5 23.551-52.5 52.5s23.551 52.5 52.5 52.5 52.5-23.551 52.5-52.5-23.551-52.5-52.5-52.5zm0 75c-12.407 0-22.5-10.093-22.5-22.5s10.093-22.5 22.5-22.5 22.5 10.093 22.5 22.5-10.093 22.5-22.5 22.5z" data-original="#000000" class="active-path" data-old_color="#000000" fill="#403F4C"/><path d="m399.5 287c-38.594 0-72.708 19.538-92.98 49.24l-87.583-43.792c3.927-11.436 6.063-23.697 6.063-36.448s-2.136-25.012-6.063-36.448l87.583-43.792c20.272 29.702 54.386 49.24 92.98 49.24 62.033 0 112.5-50.467 112.5-112.5s-50.467-112.5-112.5-112.5-112.5 50.467-112.5 112.5c0 12.751 2.136 25.012 6.063 36.448l-87.583 43.792c-20.272-29.702-54.386-49.24-92.98-49.24-62.033 0-112.5 50.467-112.5 112.5s50.467 112.5 112.5 112.5c38.594 0 72.708-19.538 92.98-49.24l87.583 43.792c-3.927 11.436-6.063 23.697-6.063 36.448 0 62.033 50.467 112.5 112.5 112.5s112.5-50.467 112.5-112.5-50.467-112.5-112.5-112.5zm0-257c45.491 0 82.5 37.009 82.5 82.5s-37.009 82.5-82.5 82.5-82.5-37.009-82.5-82.5 37.009-82.5 82.5-82.5zm-287 308.5c-45.491 0-82.5-37.009-82.5-82.5s37.009-82.5 82.5-82.5 82.5 37.009 82.5 82.5-37.009 82.5-82.5 82.5zm287 143.5c-45.491 0-82.5-37.009-82.5-82.5s37.009-82.5 82.5-82.5 82.5 37.009 82.5 82.5-37.009 82.5-82.5 82.5z" data-original="#000000" class="active-path" data-old_color="#000000" fill="#403F4C"/><path d="m399.5 347c-28.949 0-52.5 23.551-52.5 52.5s23.551 52.5 52.5 52.5 52.5-23.551 52.5-52.5-23.551-52.5-52.5-52.5zm0 75c-12.407 0-22.5-10.093-22.5-22.5s10.093-22.5 22.5-22.5 22.5 10.093 22.5 22.5-10.093 22.5-22.5 22.5z" data-original="#000000" class="active-path" data-old_color="#000000" fill="#403F4C"/></g></g> </svg>
