<?xml version="1.0"?>
<svg xmlns="http://www.w3.org/2000/svg" xmlns:xlink="http://www.w3.org/1999/xlink" version="1.1" id="Capa_1" x="0px" y="0px" viewBox="0 0 511.754 511.754" style="enable-background:new 0 0 511.754 511.754;" xml:space="preserve" width="512px" height="512px" class="hovered-paths"><g><path style="fill:#403F4C" d="M491.764,383.815H459.78c8.824,0,15.992-7.161,15.992-15.992c0-8.832-7.168-15.992-15.992-15.992  h-31.984c8.823,0,15.992-7.161,15.992-15.992c0-8.832-7.169-15.993-15.992-15.993h-47.979c8.824,0,15.993-7.16,15.993-15.992  c0-8.831-7.169-15.992-15.993-15.992h87.958c8.824,0,15.992-7.16,15.992-15.992s-7.167-15.993-15.992-15.993h-39.98  c8.823,0,15.992-7.161,15.992-15.992c0-8.832-7.169-15.992-15.992-15.992h-15.992c8.823,0,15.992-7.161,15.992-15.992  c0-8.832-7.169-15.993-15.992-15.993h79.961c8.824,0,15.992-7.161,15.992-15.992s-7.168-15.993-15.992-15.993H459.78  c8.824,0,15.992-7.16,15.992-15.992s-7.168-15.992-15.992-15.992h-31.984c8.823,0,15.992-7.161,15.992-15.992  c0-8.832-7.169-15.992-15.992-15.992h-23.989c8.823,0,15.992-7.161,15.992-15.993S412.63,63.97,403.807,63.97H211.898  c-8.824,0-15.992,7.161-15.992,15.992s7.168,15.993,15.992,15.993h-55.973c-8.824,0-15.993,7.16-15.993,15.992  s7.169,15.992,15.993,15.992h-15.993c-8.823,0-15.992,7.161-15.992,15.992c0,8.832,7.169,15.992,15.992,15.992h47.978  c-8.824,0-15.993,7.161-15.993,15.993s7.168,15.992,15.993,15.992H99.952c-8.824,0-15.992,7.161-15.992,15.993  c0,8.831,7.168,15.992,15.992,15.992h39.98c-8.823,0-15.992,7.16-15.992,15.992s7.169,15.992,15.992,15.992h-39.98  c-8.824,0-15.992,7.16-15.992,15.992s7.168,15.992,15.992,15.992H83.96c-8.824,0-15.992,7.161-15.992,15.992  c0,8.832,7.168,15.992,15.992,15.992h39.98c-8.824,0-15.992,7.161-15.992,15.993c0,8.831,7.168,15.992,15.992,15.992h-15.992  c-8.824,0-15.992,7.16-15.992,15.992c0,8.831,7.168,15.992,15.992,15.992h79.962c-8.824,0-15.993,7.161-15.993,15.992  c0,8.832,7.168,15.992,15.993,15.992h-31.985c-8.824,0-15.993,7.161-15.993,15.993c0,8.831,7.169,15.992,15.993,15.992h223.892  c8.824,0,15.993-7.161,15.993-15.992c0-8.832-7.169-15.993-15.993-15.993h111.946c8.824,0,15.992-7.16,15.992-15.992  C507.756,390.977,500.588,383.815,491.764,383.815z" data-original="#656D78" class="hovered-path active-path" data-old_color="#656D78"/><g>
	<path style="fill:#F6BB42;" d="M411.787,351.831v7.996l-57.496,20.225l17.671-36.857   C384.042,348.707,397.551,351.831,411.787,351.831z" data-original="#F6BB42"/>
	<path style="fill:#F6BB42;" d="M411.787,151.927v7.996c-14.236,0-27.667,3.12-39.825,8.637l-0.234-0.48l-17.437-36.381   L411.787,151.927z" data-original="#F6BB42"/>
</g><path style="fill:#FFCE54;" d="M411.787,247.881v15.992h-39.981c-4.396,0-7.996-3.6-7.996-7.996c0-4.396,3.601-7.996,7.996-7.996  H411.787z" data-original="#FFCE54"/><g style="opacity:0.5;">
	<path style="fill:#FFFFFF;" d="M365.043,259.875c-0.71-1.194-1.233-2.515-1.233-3.998c0-4.396,3.601-7.996,7.996-7.996h39.981   v7.996h-39.981C368.894,255.877,366.441,257.532,365.043,259.875z" data-original="#FFFFFF"/>
</g><path style="fill:#CCD1D9;" d="M411.787,159.923c-14.236,0-27.667,3.12-39.825,8.637c-33.101,15.114-56.129,48.535-56.129,87.317  c0,38.778,23.028,72.199,56.129,87.317c12.08,5.513,25.589,8.637,39.825,8.637c53.014,0,95.953-42.94,95.953-95.954  S464.801,159.923,411.787,159.923z M411.787,263.873h-39.981c-4.396,0-7.996-3.6-7.996-7.996c0-4.396,3.601-7.996,7.996-7.996  h39.981V263.873z" data-original="#CCD1D9"/><g style="opacity:0.5;">
	<path style="fill:#FFFFFF;" d="M411.787,159.923c-2.601,0-5.146,0.215-7.692,0.418c49.117,4.217,87.653,45.326,87.653,95.536   s-38.536,91.323-87.653,95.532c2.546,0.203,5.092,0.422,7.692,0.422c53.014,0,95.953-42.94,95.953-95.954   S464.801,159.923,411.787,159.923z" data-original="#FFFFFF"/>
</g><g style="opacity:0.2;">
	<path d="M411.787,351.831c2.6,0,5.146-0.219,7.691-0.422c-49.117-4.217-87.653-45.322-87.653-95.532s38.536-91.323,87.653-95.536   c-2.546-0.203-5.092-0.418-7.691-0.418c-53.014,0-95.954,42.94-95.954,95.954S358.773,351.831,411.787,351.831z" data-original="#000000"/>
</g><g style="opacity:0.2;">
	<path d="M371.962,343.194l-3.42,7.122c13.181,6.051,27.799,9.511,43.245,9.511v-7.996   C397.551,351.831,384.042,348.707,371.962,343.194z" data-original="#000000"/>
</g><g style="opacity:0.2;">
	<path d="M371.728,168.079l0.234,0.48c12.158-5.517,25.589-8.637,39.825-8.637v-7.996c-15.454,0-30.064,3.463-43.245,9.507   L371.728,168.079z" data-original="#000000"/>
</g><g>
	<path style="fill:#3A3847" d="M244.141,211.898c-2.21,0-4.037-1.789-4.037-3.998c0-2.21,1.749-3.999,3.951-3.999h0.086   c2.202,0,3.998,1.789,3.998,3.999C248.139,210.11,246.343,211.898,244.141,211.898z" data-original="#3A3847" class="" data-old_color="#3A3847"/>
	<path style="fill:#3A3847" d="M36.241,371.821c-2.21,0-4.038-1.788-4.038-3.998s1.75-3.998,3.952-3.998h0.086   c2.202,0,3.998,1.788,3.998,3.998S38.442,371.821,36.241,371.821z" data-original="#3A3847" class="" data-old_color="#3A3847"/>
	<path style="fill:#3A3847" d="M148.187,395.81c-2.21,0-4.037-1.788-4.037-3.998s1.75-3.998,3.951-3.998h0.086   c2.202,0,3.998,1.788,3.998,3.998S150.389,395.81,148.187,395.81z" data-original="#3A3847" class="" data-old_color="#3A3847"/>
	<path style="fill:#3A3847" d="M252.137,316.418c-2.21,0-4.037-1.788-4.037-3.998s1.749-3.998,3.951-3.998h0.086   c2.202,0,3.998,1.788,3.998,3.998S254.339,316.418,252.137,316.418z" data-original="#3A3847" class="" data-old_color="#3A3847"/>
	<path style="fill:#3A3847" d="M172.175,139.933c-2.21,0-4.037-1.788-4.037-3.998s1.749-3.998,3.951-3.998h0.086   c2.202,0,3.998,1.788,3.998,3.998S174.377,139.933,172.175,139.933z" data-original="#3A3847" class="" data-old_color="#3A3847"/>
	<path style="fill:#3A3847" d="M332.099,443.787c-2.21,0-4.037-1.789-4.037-3.998c0-2.211,1.749-3.998,3.951-3.998h0.086   c2.202,0,3.998,1.787,3.998,3.998C336.097,441.998,334.301,443.787,332.099,443.787z" data-original="#3A3847" class="" data-old_color="#3A3847"/>
	<path style="fill:#3A3847" d="M244.141,483.768c-2.21,0-4.037-1.788-4.037-3.998s1.749-3.998,3.951-3.998h0.086   c2.202,0,3.998,1.788,3.998,3.998S246.343,483.768,244.141,483.768z" data-original="#3A3847" class="" data-old_color="#3A3847"/>
	<path style="fill:#3A3847" d="M476.029,403.806c-2.21,0-4.037-1.788-4.037-3.998s1.749-3.998,3.951-3.998h0.086   c2.202,0,3.998,1.788,3.998,3.998S478.231,403.806,476.029,403.806z" data-original="#3A3847" class="" data-old_color="#3A3847"/>
	<path style="fill:#3A3847" d="M348.091,11.994c-2.21,0-4.037-1.788-4.037-3.998s1.749-3.998,3.951-3.998h0.086   c2.202,0,3.998,1.788,3.998,3.998S350.293,11.994,348.091,11.994z" data-original="#3A3847" class="" data-old_color="#3A3847"/>
	<path style="fill:#3A3847" d="M428.053,99.952c-2.21,0-4.037-1.788-4.037-3.998s1.749-3.998,3.951-3.998h0.086   c2.201,0,3.998,1.788,3.998,3.998S430.254,99.952,428.053,99.952z" data-original="#3A3847" class="" data-old_color="#3A3847"/>
	<path style="fill:#3A3847" d="M204.16,27.986c-2.21,0-4.037-1.788-4.037-3.998s1.749-3.998,3.951-3.998h0.086   c2.202,0,3.998,1.788,3.998,3.998S206.362,27.986,204.16,27.986z" data-original="#3A3847" class="" data-old_color="#3A3847"/>
	<path style="fill:#3A3847" d="M59.987,155.933c-2.21,0-3.998-1.788-3.998-3.998v-31.984c0-2.21,1.788-3.998,3.998-3.998   c2.209,0,3.998,1.788,3.998,3.998v31.984C63.985,154.145,62.197,155.933,59.987,155.933z" data-original="#3A3847" class="" data-old_color="#3A3847"/>
	<path style="fill:#3A3847" d="M67.983,139.94H51.991c-2.21,0-3.999-1.788-3.999-3.998s1.789-3.998,3.999-3.998h15.992   c2.21,0,3.998,1.788,3.998,3.998S70.193,139.94,67.983,139.94z" data-original="#3A3847" class="" data-old_color="#3A3847"/>
	<path style="fill:#3A3847" d="M419.815,507.756c-2.21,0-3.998-1.788-3.998-3.998v-31.984c0-2.21,1.788-3.998,3.998-3.998   c2.209,0,3.998,1.788,3.998,3.998v31.984C423.813,505.968,422.023,507.756,419.815,507.756z" data-original="#3A3847" class="" data-old_color="#3A3847"/>
	<path style="fill:#3A3847" d="M427.811,491.764h-15.992c-2.211,0-3.998-1.788-3.998-3.998s1.787-3.998,3.998-3.998h15.992   c2.209,0,3.998,1.788,3.998,3.998S430.02,491.764,427.811,491.764z" data-original="#3A3847" class="" data-old_color="#3A3847"/>
	<path style="fill:#3A3847" d="M483.783,67.967c-2.21,0-3.998-1.788-3.998-3.998V31.984c0-2.21,1.788-3.998,3.998-3.998   s3.998,1.788,3.998,3.998v31.985C487.781,66.179,485.993,67.967,483.783,67.967z" data-original="#3A3847" class="" data-old_color="#3A3847"/>
	<path style="fill:#3A3847" d="M491.779,51.975h-15.992c-2.21,0-3.998-1.789-3.998-3.999c0-2.209,1.788-3.998,3.998-3.998h15.992   c2.21,0,3.998,1.789,3.998,3.998C495.777,50.187,493.989,51.975,491.779,51.975z" data-original="#3A3847" class="" data-old_color="#3A3847"/>
	<path style="fill:#3A3847" d="M411.803,355.829c-55.114,0-99.952-44.838-99.952-99.952s44.838-99.952,99.952-99.952   c55.113,0,99.951,44.838,99.951,99.952S466.916,355.829,411.803,355.829z M411.803,163.921c-50.703,0-91.956,41.25-91.956,91.956   c0,50.702,41.253,91.956,91.956,91.956c50.701,0,91.955-41.254,91.955-91.956C503.758,205.171,462.504,163.921,411.803,163.921z" data-original="#3A3847" class="" data-old_color="#3A3847"/>
	<path style="fill:#3A3847" d="M363.841,259.875H3.998c-2.21,0-3.998-1.788-3.998-3.998c0-2.21,1.788-3.998,3.998-3.998h359.843   c2.21,0,3.998,1.788,3.998,3.998C367.839,258.087,366.051,259.875,363.841,259.875z" data-original="#3A3847" class="" data-old_color="#3A3847"/>
	<path style="fill:#3A3847" d="M47.977,491.764c-1.647,0-3.194-1.031-3.771-2.671c-0.734-2.085,0.359-4.364,2.444-5.099   l363.841-127.938c2.101-0.742,4.373,0.374,5.1,2.444c0.733,2.084-0.359,4.364-2.444,5.099L49.305,491.537   C48.867,491.693,48.415,491.764,47.977,491.764z" data-original="#3A3847" class="" data-old_color="#3A3847"/>
	<path style="fill:#3A3847" d="M359.827,372.485c-0.585,0-1.171-0.125-1.733-0.391c-1.983-0.961-2.827-3.351-1.874-5.341   l7.996-16.656c0.968-1.999,3.35-2.804,5.341-1.875c1.983,0.961,2.827,3.351,1.875,5.342l-7.997,16.656   C362.74,371.649,361.311,372.485,359.827,372.485z" data-original="#3A3847" class="" data-old_color="#3A3847"/>
	<path style="fill:#3A3847" d="M411.818,155.925c-0.438,0-0.891-0.07-1.328-0.227L46.649,27.76   c-2.085-0.733-3.178-3.014-2.444-5.099c0.734-2.081,3.014-3.194,5.099-2.444l363.841,127.938c2.085,0.734,3.178,3.014,2.444,5.099   C415.012,154.898,413.466,155.925,411.818,155.925z" data-original="#3A3847" class="" data-old_color="#3A3847"/>
	<path style="fill:#3A3847" d="M367.823,163.921c-1.483,0-2.913-0.835-3.607-2.268l-7.996-16.656   c-0.953-1.991-0.109-4.376,1.874-5.333c1.999-0.937,4.373-0.121,5.341,1.874l7.997,16.656c0.952,1.991,0.108,4.377-1.875,5.333   C368.994,163.796,368.409,163.921,367.823,163.921z" data-original="#3A3847" class="" data-old_color="#3A3847"/>
	<path style="fill:#3A3847" d="M371.837,267.871c-6.614,0-11.994-5.38-11.994-11.994c0-6.614,5.38-11.994,11.994-11.994   c2.21,0,3.998,1.788,3.998,3.998s-1.788,3.998-3.998,3.998c-2.202,0-3.998,1.792-3.998,3.998s1.796,3.998,3.998,3.998   c2.21,0,3.998,1.788,3.998,3.998S374.047,267.871,371.837,267.871z" data-original="#3A3847" class="" data-old_color="#3A3847"/>
	<path style="fill:#3A3847" d="M411.818,267.871c-2.211,0-3.998-1.788-3.998-3.998v-15.992c0-2.21,1.787-3.998,3.998-3.998   c2.209,0,3.998,1.788,3.998,3.998v15.992C415.816,266.083,414.027,267.871,411.818,267.871z" data-original="#3A3847" class="" data-old_color="#3A3847"/>
	<path style="fill:#3A3847" d="M411.818,251.879h-39.981c-2.21,0-3.998-1.788-3.998-3.998s1.788-3.998,3.998-3.998h39.981   c2.209,0,3.998,1.788,3.998,3.998S414.027,251.879,411.818,251.879z" data-original="#3A3847" class="" data-old_color="#3A3847"/>
	<path style="fill:#3A3847" d="M411.818,267.871h-39.981c-2.21,0-3.998-1.788-3.998-3.998s1.788-3.998,3.998-3.998h39.981   c2.209,0,3.998,1.788,3.998,3.998S414.027,267.871,411.818,267.871z" data-original="#3A3847" class="" data-old_color="#3A3847"/>
	<path style="fill:#3A3847" d="M411.818,235.887c-2.211,0-3.998-1.788-3.998-3.998v-55.973c0-2.21,1.787-3.999,3.998-3.999   c2.209,0,3.998,1.789,3.998,3.999v55.973C415.816,234.099,414.027,235.887,411.818,235.887z" data-original="#3A3847" class="" data-old_color="#3A3847"/>
	<path style="fill:#3A3847" d="M411.818,339.837c-2.211,0-3.998-1.788-3.998-3.998v-55.974c0-2.21,1.787-3.998,3.998-3.998   c2.209,0,3.998,1.788,3.998,3.998v55.974C415.816,338.049,414.027,339.837,411.818,339.837z" data-original="#3A3847" class="" data-old_color="#3A3847"/>
</g></g> </svg>
