<?xml version="1.0"?>
<svg xmlns="http://www.w3.org/2000/svg" xmlns:xlink="http://www.w3.org/1999/xlink" version="1.1" id="Capa_1" x="0px" y="0px" viewBox="0 0 511.754 511.754" style="enable-background:new 0 0 511.754 511.754;" xml:space="preserve" width="512px" height="512px" class=""><g><path style="fill:#403F4C" d="M483.736,383.815h-31.984c8.832,0,15.992-7.161,15.992-15.992c0-8.832-7.16-15.992-15.992-15.992  h-31.984c8.831,0,15.992-7.161,15.992-15.992c0-8.832-7.161-15.993-15.992-15.993H371.79c8.832,0,15.992-7.16,15.992-15.992  c0-8.831-7.16-15.992-15.992-15.992h87.958c8.832,0,15.992-7.16,15.992-15.992s-7.16-15.993-15.992-15.993h-39.98  c8.831,0,15.992-7.161,15.992-15.992c0-8.832-7.161-15.992-15.992-15.992h-15.992c8.831,0,15.992-7.161,15.992-15.992  c0-8.832-7.161-15.993-15.992-15.993h79.961c8.832,0,15.992-7.161,15.992-15.992s-7.16-15.993-15.992-15.993h-31.984  c8.832,0,15.992-7.16,15.992-15.992s-7.16-15.992-15.992-15.992h-31.984c8.831,0,15.992-7.161,15.992-15.992  c0-8.832-7.161-15.992-15.992-15.992h-23.988c8.831,0,15.992-7.161,15.992-15.993s-7.161-15.992-15.992-15.992H155.894  c-8.832,0-15.993,7.161-15.993,15.992s7.161,15.993,15.993,15.993H99.921c-8.832,0-15.992,7.16-15.992,15.992  s7.161,15.992,15.992,15.992H83.929c-8.832,0-15.992,7.161-15.992,15.992c0,8.832,7.16,15.992,15.992,15.992h47.977  c-8.831,0-15.992,7.161-15.992,15.993s7.161,15.992,15.992,15.992H43.948c-8.832,0-15.992,7.161-15.992,15.993  c0,8.831,7.161,15.992,15.992,15.992h39.981c-8.832,0-15.992,7.16-15.992,15.992s7.16,15.992,15.992,15.992H43.948  c-8.832,0-15.992,7.16-15.992,15.992s7.161,15.992,15.992,15.992H27.956c-8.832,0-15.993,7.161-15.993,15.992  c0,8.832,7.161,15.992,15.993,15.992h39.981c-8.832,0-15.992,7.161-15.992,15.993c0,8.831,7.16,15.992,15.992,15.992H51.944  c-8.832,0-15.993,7.16-15.993,15.992c0,8.831,7.161,15.992,15.993,15.992h79.961c-8.831,0-15.992,7.161-15.992,15.992  c0,8.832,7.161,15.992,15.992,15.992H99.921c-8.832,0-15.992,7.161-15.992,15.993c0,8.831,7.161,15.992,15.992,15.992H371.79  c8.832,0,15.992-7.161,15.992-15.992c0-8.832-7.16-15.993-15.992-15.993h111.946c8.832,0,15.992-7.16,15.992-15.992  C499.729,390.977,492.568,383.815,483.736,383.815z" data-original="#656D78" class="" data-old_color="#656D78"/><g style="opacity:0.3;">
	<path style="fill:#FFCE54;" d="M511.754,255.877c0,141.182-114.663,255.869-255.877,255.869C114.66,511.746,0,397.059,0,255.877   C0,114.683,114.66,0,255.877,0C397.091,0,511.754,114.683,511.754,255.877z" data-original="#FFCE54" class=""/>
</g><g style="opacity:0.3;">
	<path style="fill:#FFCE54;" d="M479.77,255.877c0,123.534-100.326,223.885-223.893,223.885   c-123.569,0-223.892-100.351-223.892-223.885c0-123.546,100.323-223.893,223.892-223.893   C379.443,31.984,479.77,132.331,479.77,255.877z" data-original="#FFCE54" class=""/>
</g><g style="opacity:0.3;">
	<path style="fill:#FFCE54;" d="M447.785,255.877c0,105.887-85.99,191.9-191.908,191.9c-105.921,0-191.907-86.014-191.907-191.9   c0-105.898,85.986-191.908,191.907-191.908C361.795,63.969,447.785,149.979,447.785,255.877z" data-original="#FFCE54" class=""/>
</g><polygon style="fill:#F6BB42;" points="406.617,265.747 419.799,255.846 406.617,245.991 418.377,234.458 404.04,226.391   414.207,213.413 398.918,207.299 407.305,193.118 391.375,189.05 397.84,173.885 381.504,171.917 385.924,156.073 369.432,156.237   371.774,139.933 355.485,142.275 355.626,125.815 339.806,130.242 337.822,113.898 322.674,120.364 318.582,104.403   304.416,112.797 298.311,97.516 285.332,107.683 277.242,93.33 265.717,105.121 255.846,91.956 245.976,105.137 234.466,93.354   226.376,107.722 213.429,97.539 207.291,112.836 193.126,104.434 189.05,120.38 173.901,113.922 171.918,130.281 156.066,125.822   156.253,142.307 139.948,139.964 142.307,156.269 125.815,156.081 130.266,171.94 113.914,173.916 120.364,189.05 104.419,193.149   112.829,207.307 97.531,213.452 107.714,226.399 93.346,234.497 105.137,246.007 91.956,255.877 105.129,265.747 93.346,277.266   107.714,285.348 97.547,298.31 112.821,304.416 104.435,318.597 120.38,322.673 113.93,337.822 130.281,339.806 125.83,355.634   142.307,355.485 139.964,371.767 156.261,369.432 156.082,385.908 171.941,381.488 173.917,397.824 189.05,391.358 193.157,407.289   207.307,398.91 213.444,414.207 226.407,404.017 234.481,418.361 245.976,406.617 255.846,419.798 265.732,406.617 277.242,418.377   285.332,404.04 298.311,414.207 304.4,398.918 318.598,407.32 322.658,391.374 337.822,397.856 339.79,381.496 355.642,385.932   355.47,369.439 371.79,371.782 369.432,355.485 385.924,355.642 381.488,339.806 397.856,337.822 391.359,322.673 407.32,318.581   398.918,304.416 414.207,298.294 404.024,285.348 418.377,277.242 " data-original="#F6BB42" class=""/><circle style="fill:#FFCE54;" cx="255.877" cy="255.877" r="139.93" data-original="#FFCE54" class=""/><g>
	<path style="fill:#403F4C" d="M436.025,39.981c-2.202,0-4.029-1.788-4.029-3.998s1.749-3.998,3.951-3.998h0.078   c2.217,0,3.998,1.788,3.998,3.998S438.242,39.981,436.025,39.981z" data-original="#3A3847" class="active-path" data-old_color="#3A3847"/>
	<path style="fill:#403F4C" d="M60.21,63.969c-2.206,0-4.037-1.789-4.037-3.998c0-2.21,1.75-3.998,3.959-3.998h0.078   c2.21,0,3.998,1.788,3.998,3.998C64.208,62.181,62.419,63.969,60.21,63.969z" data-original="#3A3847" class="active-path" data-old_color="#3A3847"/>
	<path style="fill:#403F4C" d="M76.202,495.762c-2.206,0-4.037-1.788-4.037-3.998s1.749-3.998,3.959-3.998h0.078   c2.21,0,3.998,1.788,3.998,3.998S78.412,495.762,76.202,495.762z" data-original="#3A3847" class="active-path" data-old_color="#3A3847"/>
	<path style="fill:#403F4C" d="M491.998,159.923c-2.202,0-4.029-1.788-4.029-3.998s1.749-3.998,3.951-3.998h0.078   c2.218,0,3.998,1.788,3.998,3.998S494.216,159.923,491.998,159.923z" data-original="#3A3847" class="active-path" data-old_color="#3A3847"/>
	<path style="fill:#403F4C" d="M499.994,79.961c-2.202,0-4.029-1.788-4.029-3.998c0-2.209,1.749-3.998,3.951-3.998h0.078   c2.218,0,3.998,1.789,3.998,3.998C503.992,78.173,502.212,79.961,499.994,79.961z" data-original="#3A3847" class="active-path" data-old_color="#3A3847"/>
	<path style="fill:#403F4C" d="M348.067,511.754c-2.202,0-4.029-1.788-4.029-3.998s1.749-3.998,3.951-3.998h0.078   c2.218,0,3.998,1.788,3.998,3.998S350.285,511.754,348.067,511.754z" data-original="#3A3847" class="active-path" data-old_color="#3A3847"/>
	<path style="fill:#403F4C" d="M28.225,431.793c-2.206,0-4.037-1.789-4.037-3.998c0-2.211,1.75-3.998,3.959-3.998h0.078   c2.21,0,3.998,1.787,3.998,3.998C32.223,430.004,30.435,431.793,28.225,431.793z" data-original="#3A3847" class="active-path" data-old_color="#3A3847"/>
	<path style="fill:#403F4C" d="M120.149,291.859c-2.206,0-4.037-1.788-4.037-3.998c0-2.209,1.749-3.998,3.959-3.998h0.078   c2.21,0,3.998,1.789,3.998,3.998C124.148,290.071,122.359,291.859,120.149,291.859z" data-original="#3A3847" class="active-path" data-old_color="#3A3847"/>
	<path style="fill:#403F4C" d="M136.142,307.852c-2.206,0-4.037-1.788-4.037-3.998c0-2.209,1.749-3.998,3.959-3.998h0.078   c2.21,0,3.998,1.789,3.998,3.998C140.14,306.064,138.352,307.852,136.142,307.852z" data-original="#3A3847" class="active-path" data-old_color="#3A3847"/>
	<path style="fill:#403F4C" d="M152.134,323.844c-2.206,0-4.037-1.787-4.037-3.998c0-2.209,1.75-3.998,3.959-3.998h0.078   c2.21,0,3.998,1.789,3.998,3.998C156.132,322.057,154.344,323.844,152.134,323.844z" data-original="#3A3847" class="active-path" data-old_color="#3A3847"/>
	<path style="fill:#403F4C" d="M168.127,339.837c-2.206,0-4.037-1.788-4.037-3.998s1.749-3.998,3.959-3.998h0.078   c2.21,0,3.998,1.788,3.998,3.998S170.336,339.837,168.127,339.837z" data-original="#3A3847" class="active-path" data-old_color="#3A3847"/>
	<path style="fill:#403F4C" d="M184.119,355.829c-2.206,0-4.037-1.788-4.037-3.998s1.75-3.998,3.959-3.998h0.078   c2.21,0,3.999,1.788,3.999,3.998S186.329,355.829,184.119,355.829z" data-original="#3A3847" class="active-path" data-old_color="#3A3847"/>
	<path style="fill:#403F4C" d="M200.111,371.821c-2.206,0-4.037-1.788-4.037-3.998s1.749-3.998,3.959-3.998h0.078   c2.21,0,3.998,1.788,3.998,3.998S202.321,371.821,200.111,371.821z" data-original="#3A3847" class="active-path" data-old_color="#3A3847"/>
	<path style="fill:#403F4C" d="M216.104,387.814c-2.206,0-4.037-1.788-4.037-3.998s1.749-3.998,3.959-3.998h0.078   c2.21,0,3.998,1.788,3.998,3.998S218.314,387.814,216.104,387.814z" data-original="#3A3847" class="active-path" data-old_color="#3A3847"/>
	<path style="fill:#403F4C" d="M120.149,259.875c-2.206,0-4.037-1.788-4.037-3.998c0-2.21,1.749-3.998,3.959-3.998h0.078   c2.21,0,3.998,1.788,3.998,3.998C124.147,258.087,122.359,259.875,120.149,259.875z" data-original="#3A3847" class="active-path" data-old_color="#3A3847"/>
	<path style="fill:#403F4C" d="M136.142,275.867c-2.206,0-4.037-1.788-4.037-3.998s1.749-3.998,3.959-3.998h0.078   c2.21,0,3.998,1.788,3.998,3.998S138.352,275.867,136.142,275.867z" data-original="#3A3847" class="active-path" data-old_color="#3A3847"/>
	<path style="fill:#403F4C" d="M152.134,291.859c-2.206,0-4.037-1.788-4.037-3.998c0-2.209,1.75-3.998,3.959-3.998h0.078   c2.21,0,3.998,1.789,3.998,3.998C156.132,290.071,154.344,291.859,152.134,291.859z" data-original="#3A3847" class="active-path" data-old_color="#3A3847"/>
	<path style="fill:#403F4C" d="M168.127,307.852c-2.206,0-4.037-1.788-4.037-3.998c0-2.209,1.749-3.998,3.959-3.998h0.078   c2.21,0,3.998,1.789,3.998,3.998C172.125,306.064,170.336,307.852,168.127,307.852z" data-original="#3A3847" class="active-path" data-old_color="#3A3847"/>
	<path style="fill:#403F4C" d="M184.119,323.844c-2.206,0-4.037-1.787-4.037-3.998c0-2.209,1.75-3.998,3.959-3.998h0.078   c2.21,0,3.999,1.789,3.999,3.998C188.117,322.057,186.329,323.844,184.119,323.844z" data-original="#3A3847" class="active-path" data-old_color="#3A3847"/>
	<path style="fill:#403F4C" d="M200.111,339.837c-2.206,0-4.037-1.788-4.037-3.998s1.749-3.998,3.959-3.998h0.078   c2.21,0,3.998,1.788,3.998,3.998S202.321,339.837,200.111,339.837z" data-original="#3A3847" class="active-path" data-old_color="#3A3847"/>
	<path style="fill:#403F4C" d="M216.104,355.829c-2.206,0-4.037-1.788-4.037-3.998s1.749-3.998,3.959-3.998h0.078   c2.21,0,3.998,1.788,3.998,3.998S218.314,355.829,216.104,355.829z" data-original="#3A3847" class="active-path" data-old_color="#3A3847"/>
	<path style="fill:#403F4C" d="M232.096,371.821c-2.206,0-4.037-1.788-4.037-3.998s1.749-3.998,3.959-3.998h0.078   c2.21,0,3.998,1.788,3.998,3.998S234.306,371.821,232.096,371.821z" data-original="#3A3847" class="active-path" data-old_color="#3A3847"/>
	<path style="fill:#403F4C" d="M248.088,387.814c-2.206,0-4.037-1.788-4.037-3.998s1.749-3.998,3.959-3.998h0.078   c2.21,0,3.998,1.788,3.998,3.998S250.298,387.814,248.088,387.814z" data-original="#3A3847" class="active-path" data-old_color="#3A3847"/>
	<path style="fill:#403F4C" d="M120.149,227.891c-2.206,0-4.037-1.788-4.037-3.998s1.749-3.998,3.959-3.998h0.078   c2.21,0,3.998,1.788,3.998,3.998S122.359,227.891,120.149,227.891z" data-original="#3A3847" class="active-path" data-old_color="#3A3847"/>
	<path style="fill:#403F4C" d="M136.142,243.883c-2.206,0-4.037-1.788-4.037-3.998s1.749-3.998,3.959-3.998h0.078   c2.21,0,3.998,1.788,3.998,3.998S138.352,243.883,136.142,243.883z" data-original="#3A3847" class="active-path" data-old_color="#3A3847"/>
	<path style="fill:#403F4C" d="M152.134,259.875c-2.206,0-4.037-1.788-4.037-3.998c0-2.21,1.75-3.998,3.959-3.998h0.078   c2.21,0,3.998,1.788,3.998,3.998C156.132,258.087,154.344,259.875,152.134,259.875z" data-original="#3A3847" class="active-path" data-old_color="#3A3847"/>
	<path style="fill:#403F4C" d="M168.127,275.867c-2.206,0-4.037-1.788-4.037-3.998s1.749-3.998,3.959-3.998h0.078   c2.21,0,3.998,1.788,3.998,3.998S170.336,275.867,168.127,275.867z" data-original="#3A3847" class="active-path" data-old_color="#3A3847"/>
	<path style="fill:#403F4C" d="M184.119,291.859c-2.206,0-4.037-1.788-4.037-3.998c0-2.209,1.75-3.998,3.959-3.998h0.078   c2.21,0,3.999,1.789,3.999,3.998C188.117,290.071,186.329,291.859,184.119,291.859z" data-original="#3A3847" class="active-path" data-old_color="#3A3847"/>
	<path style="fill:#403F4C" d="M200.111,307.852c-2.206,0-4.037-1.788-4.037-3.998c0-2.209,1.749-3.998,3.959-3.998h0.078   c2.21,0,3.998,1.789,3.998,3.998C204.109,306.064,202.321,307.852,200.111,307.852z" data-original="#3A3847" class="active-path" data-old_color="#3A3847"/>
	<path style="fill:#403F4C" d="M216.104,323.844c-2.206,0-4.037-1.787-4.037-3.998c0-2.209,1.749-3.998,3.959-3.998h0.078   c2.21,0,3.998,1.789,3.998,3.998C220.102,322.057,218.314,323.844,216.104,323.844z" data-original="#3A3847" class="active-path" data-old_color="#3A3847"/>
	<path style="fill:#403F4C" d="M232.096,339.837c-2.206,0-4.037-1.788-4.037-3.998s1.749-3.998,3.959-3.998h0.078   c2.21,0,3.998,1.788,3.998,3.998S234.306,339.837,232.096,339.837z" data-original="#3A3847" class="active-path" data-old_color="#3A3847"/>
	<path style="fill:#403F4C" d="M248.088,355.829c-2.206,0-4.037-1.788-4.037-3.998s1.749-3.998,3.959-3.998h0.078   c2.21,0,3.998,1.788,3.998,3.998S250.298,355.829,248.088,355.829z" data-original="#3A3847" class="active-path" data-old_color="#3A3847"/>
	<path style="fill:#403F4C" d="M264.076,371.821c-2.202,0-4.033-1.788-4.033-3.998s1.749-3.998,3.955-3.998h0.078   c2.218,0,3.998,1.788,3.998,3.998S266.294,371.821,264.076,371.821z" data-original="#3A3847" class="active-path" data-old_color="#3A3847"/>
	<path style="fill:#403F4C" d="M280.068,387.814c-2.201,0-4.029-1.788-4.029-3.998s1.75-3.998,3.951-3.998h0.078   c2.218,0,3.998,1.788,3.998,3.998S282.286,387.814,280.068,387.814z" data-original="#3A3847" class="active-path" data-old_color="#3A3847"/>
	<path style="fill:#403F4C" d="M136.142,211.898c-2.206,0-4.037-1.789-4.037-3.998c0-2.21,1.749-3.999,3.959-3.999h0.078   c2.21,0,3.998,1.789,3.998,3.999C140.14,210.11,138.352,211.898,136.142,211.898z" data-original="#3A3847" class="active-path" data-old_color="#3A3847"/>
	<path style="fill:#403F4C" d="M152.134,227.891c-2.206,0-4.037-1.788-4.037-3.998s1.75-3.998,3.959-3.998h0.078   c2.21,0,3.998,1.788,3.998,3.998S154.344,227.891,152.134,227.891z" data-original="#3A3847" class="active-path" data-old_color="#3A3847"/>
	<path style="fill:#403F4C" d="M168.127,243.883c-2.206,0-4.037-1.788-4.037-3.998s1.749-3.998,3.959-3.998h0.078   c2.21,0,3.998,1.788,3.998,3.998S170.336,243.883,168.127,243.883z" data-original="#3A3847" class="active-path" data-old_color="#3A3847"/>
	<path style="fill:#403F4C" d="M184.119,259.875c-2.206,0-4.037-1.788-4.037-3.998c0-2.21,1.75-3.998,3.959-3.998h0.078   c2.21,0,3.999,1.788,3.999,3.998C188.118,258.087,186.329,259.875,184.119,259.875z" data-original="#3A3847" class="active-path" data-old_color="#3A3847"/>
	<path style="fill:#403F4C" d="M200.111,275.867c-2.206,0-4.037-1.788-4.037-3.998s1.749-3.998,3.959-3.998h0.078   c2.21,0,3.998,1.788,3.998,3.998S202.321,275.867,200.111,275.867z" data-original="#3A3847" class="active-path" data-old_color="#3A3847"/>
	<path style="fill:#403F4C" d="M216.104,291.859c-2.206,0-4.037-1.788-4.037-3.998c0-2.209,1.749-3.998,3.959-3.998h0.078   c2.21,0,3.998,1.789,3.998,3.998C220.102,290.071,218.314,291.859,216.104,291.859z" data-original="#3A3847" class="active-path" data-old_color="#3A3847"/>
	<path style="fill:#403F4C" d="M232.096,307.852c-2.206,0-4.037-1.788-4.037-3.998c0-2.209,1.749-3.998,3.959-3.998h0.078   c2.21,0,3.998,1.789,3.998,3.998C236.094,306.064,234.306,307.852,232.096,307.852z" data-original="#3A3847" class="active-path" data-old_color="#3A3847"/>
	<path style="fill:#403F4C" d="M248.088,323.844c-2.206,0-4.037-1.787-4.037-3.998c0-2.209,1.749-3.998,3.959-3.998h0.078   c2.21,0,3.998,1.789,3.998,3.998C252.086,322.057,250.298,323.844,248.088,323.844z" data-original="#3A3847" class="active-path" data-old_color="#3A3847"/>
	<path style="fill:#403F4C" d="M264.076,339.837c-2.202,0-4.033-1.788-4.033-3.998s1.749-3.998,3.955-3.998h0.078   c2.218,0,3.998,1.788,3.998,3.998S266.294,339.837,264.076,339.837z" data-original="#3A3847" class="active-path" data-old_color="#3A3847"/>
	<path style="fill:#403F4C" d="M280.068,355.829c-2.201,0-4.029-1.788-4.029-3.998s1.75-3.998,3.951-3.998h0.078   c2.218,0,3.998,1.788,3.998,3.998S282.286,355.829,280.068,355.829z" data-original="#3A3847" class="active-path" data-old_color="#3A3847"/>
	<path style="fill:#403F4C" d="M296.061,371.821c-2.201,0-4.029-1.788-4.029-3.998s1.75-3.998,3.951-3.998h0.078   c2.219,0,3.998,1.788,3.998,3.998S298.279,371.821,296.061,371.821z" data-original="#3A3847" class="active-path" data-old_color="#3A3847"/>
	<path style="fill:#403F4C" d="M152.134,195.906c-2.206,0-4.037-1.788-4.037-3.998s1.75-3.998,3.959-3.998h0.078   c2.21,0,3.998,1.788,3.998,3.998S154.344,195.906,152.134,195.906z" data-original="#3A3847" class="active-path" data-old_color="#3A3847"/>
	<path style="fill:#403F4C" d="M168.127,211.898c-2.206,0-4.037-1.789-4.037-3.998c0-2.21,1.749-3.999,3.959-3.999h0.078   c2.21,0,3.998,1.789,3.998,3.999C172.125,210.11,170.336,211.898,168.127,211.898z" data-original="#3A3847" class="active-path" data-old_color="#3A3847"/>
	<path style="fill:#403F4C" d="M184.119,227.891c-2.206,0-4.037-1.788-4.037-3.998s1.75-3.998,3.959-3.998h0.078   c2.21,0,3.999,1.788,3.999,3.998S186.329,227.891,184.119,227.891z" data-original="#3A3847" class="active-path" data-old_color="#3A3847"/>
	<path style="fill:#403F4C" d="M200.111,243.883c-2.206,0-4.037-1.788-4.037-3.998s1.749-3.998,3.959-3.998h0.078   c2.21,0,3.998,1.788,3.998,3.998S202.321,243.883,200.111,243.883z" data-original="#3A3847" class="active-path" data-old_color="#3A3847"/>
	<path style="fill:#403F4C" d="M216.104,259.875c-2.206,0-4.037-1.788-4.037-3.998c0-2.21,1.749-3.998,3.959-3.998h0.078   c2.21,0,3.998,1.788,3.998,3.998C220.102,258.087,218.314,259.875,216.104,259.875z" data-original="#3A3847" class="active-path" data-old_color="#3A3847"/>
	<path style="fill:#403F4C" d="M232.096,275.867c-2.206,0-4.037-1.788-4.037-3.998s1.749-3.998,3.959-3.998h0.078   c2.21,0,3.998,1.788,3.998,3.998S234.306,275.867,232.096,275.867z" data-original="#3A3847" class="active-path" data-old_color="#3A3847"/>
	<path style="fill:#403F4C" d="M248.088,291.859c-2.206,0-4.037-1.788-4.037-3.998c0-2.209,1.749-3.998,3.959-3.998h0.078   c2.21,0,3.998,1.789,3.998,3.998C252.086,290.071,250.298,291.859,248.088,291.859z" data-original="#3A3847" class="active-path" data-old_color="#3A3847"/>
	<path style="fill:#403F4C" d="M264.076,307.852c-2.202,0-4.033-1.788-4.033-3.998c0-2.209,1.749-3.998,3.955-3.998h0.078   c2.218,0,3.998,1.789,3.998,3.998C268.074,306.064,266.294,307.852,264.076,307.852z" data-original="#3A3847" class="active-path" data-old_color="#3A3847"/>
	<path style="fill:#403F4C" d="M280.068,323.844c-2.201,0-4.029-1.787-4.029-3.998c0-2.209,1.75-3.998,3.951-3.998h0.078   c2.218,0,3.998,1.789,3.998,3.998C284.066,322.057,282.286,323.844,280.068,323.844z" data-original="#3A3847" class="active-path" data-old_color="#3A3847"/>
	<path style="fill:#403F4C" d="M296.061,339.837c-2.201,0-4.029-1.788-4.029-3.998s1.75-3.998,3.951-3.998h0.078   c2.219,0,3.998,1.788,3.998,3.998S298.279,339.837,296.061,339.837z" data-original="#3A3847" class="active-path" data-old_color="#3A3847"/>
	<path style="fill:#403F4C" d="M312.054,355.829c-2.202,0-4.03-1.788-4.03-3.998s1.75-3.998,3.952-3.998h0.078   c2.218,0,3.998,1.788,3.998,3.998S314.272,355.829,312.054,355.829z" data-original="#3A3847" class="active-path" data-old_color="#3A3847"/>
	<path style="fill:#403F4C" d="M328.046,371.821c-2.202,0-4.029-1.788-4.029-3.998s1.749-3.998,3.951-3.998h0.078   c2.218,0,3.998,1.788,3.998,3.998S330.264,371.821,328.046,371.821z" data-original="#3A3847" class="active-path" data-old_color="#3A3847"/>
	<path style="fill:#403F4C" d="M168.127,179.914c-2.206,0-4.037-1.789-4.037-3.998c0-2.21,1.749-3.999,3.959-3.999h0.078   c2.21,0,3.998,1.789,3.998,3.999C172.125,178.125,170.336,179.914,168.127,179.914z" data-original="#3A3847" class="active-path" data-old_color="#3A3847"/>
	<path style="fill:#403F4C" d="M184.119,195.906c-2.206,0-4.037-1.788-4.037-3.998s1.75-3.998,3.959-3.998h0.078   c2.21,0,3.999,1.788,3.999,3.998S186.329,195.906,184.119,195.906z" data-original="#3A3847" class="active-path" data-old_color="#3A3847"/>
	<path style="fill:#403F4C" d="M200.111,211.898c-2.206,0-4.037-1.789-4.037-3.998c0-2.21,1.749-3.999,3.959-3.999h0.078   c2.21,0,3.998,1.789,3.998,3.999C204.109,210.11,202.321,211.898,200.111,211.898z" data-original="#3A3847" class="active-path" data-old_color="#3A3847"/>
	<path style="fill:#403F4C" d="M216.104,227.891c-2.206,0-4.037-1.788-4.037-3.998s1.749-3.998,3.959-3.998h0.078   c2.21,0,3.998,1.788,3.998,3.998S218.314,227.891,216.104,227.891z" data-original="#3A3847" class="active-path" data-old_color="#3A3847"/>
	<path style="fill:#403F4C" d="M232.096,243.883c-2.206,0-4.037-1.788-4.037-3.998s1.749-3.998,3.959-3.998h0.078   c2.21,0,3.998,1.788,3.998,3.998S234.306,243.883,232.096,243.883z" data-original="#3A3847" class="active-path" data-old_color="#3A3847"/>
	<path style="fill:#403F4C" d="M248.088,259.875c-2.206,0-4.037-1.788-4.037-3.998c0-2.21,1.749-3.998,3.959-3.998h0.078   c2.21,0,3.998,1.788,3.998,3.998C252.086,258.087,250.298,259.875,248.088,259.875z" data-original="#3A3847" class="active-path" data-old_color="#3A3847"/>
	<path style="fill:#403F4C" d="M264.076,275.867c-2.202,0-4.033-1.788-4.033-3.998s1.749-3.998,3.955-3.998h0.078   c2.218,0,3.998,1.788,3.998,3.998S266.294,275.867,264.076,275.867z" data-original="#3A3847" class="active-path" data-old_color="#3A3847"/>
	<path style="fill:#403F4C" d="M280.068,291.859c-2.201,0-4.029-1.788-4.029-3.998c0-2.209,1.75-3.998,3.951-3.998h0.078   c2.218,0,3.998,1.789,3.998,3.998C284.066,290.071,282.286,291.859,280.068,291.859z" data-original="#3A3847" class="active-path" data-old_color="#3A3847"/>
	<path style="fill:#403F4C" d="M296.061,307.852c-2.201,0-4.029-1.788-4.029-3.998c0-2.209,1.75-3.998,3.951-3.998h0.078   c2.219,0,3.998,1.789,3.998,3.998C300.059,306.064,298.279,307.852,296.061,307.852z" data-original="#3A3847" class="active-path" data-old_color="#3A3847"/>
	<path style="fill:#403F4C" d="M312.054,323.844c-2.202,0-4.03-1.787-4.03-3.998c0-2.209,1.75-3.998,3.952-3.998h0.078   c2.218,0,3.998,1.789,3.998,3.998C316.052,322.057,314.272,323.844,312.054,323.844z" data-original="#3A3847" class="active-path" data-old_color="#3A3847"/>
	<path style="fill:#403F4C" d="M328.046,339.837c-2.202,0-4.029-1.788-4.029-3.998s1.749-3.998,3.951-3.998h0.078   c2.218,0,3.998,1.788,3.998,3.998S330.264,339.837,328.046,339.837z" data-original="#3A3847" class="active-path" data-old_color="#3A3847"/>
	<path style="fill:#403F4C" d="M344.038,355.829c-2.202,0-4.029-1.788-4.029-3.998s1.749-3.998,3.951-3.998h0.078   c2.218,0,3.998,1.788,3.998,3.998S346.256,355.829,344.038,355.829z" data-original="#3A3847" class="active-path" data-old_color="#3A3847"/>
	<path style="fill:#403F4C" d="M184.119,163.921c-2.206,0-4.037-1.788-4.037-3.998s1.75-3.998,3.959-3.998h0.078   c2.21,0,3.999,1.788,3.999,3.998S186.329,163.921,184.119,163.921z" data-original="#3A3847" class="active-path" data-old_color="#3A3847"/>
	<path style="fill:#403F4C" d="M200.111,179.914c-2.206,0-4.037-1.789-4.037-3.998c0-2.21,1.749-3.999,3.959-3.999h0.078   c2.21,0,3.998,1.789,3.998,3.999C204.109,178.125,202.321,179.914,200.111,179.914z" data-original="#3A3847" class="active-path" data-old_color="#3A3847"/>
	<path style="fill:#403F4C" d="M216.104,195.906c-2.206,0-4.037-1.788-4.037-3.998s1.749-3.998,3.959-3.998h0.078   c2.21,0,3.998,1.788,3.998,3.998S218.314,195.906,216.104,195.906z" data-original="#3A3847" class="active-path" data-old_color="#3A3847"/>
	<path style="fill:#403F4C" d="M232.096,211.898c-2.206,0-4.037-1.789-4.037-3.998c0-2.21,1.749-3.999,3.959-3.999h0.078   c2.21,0,3.998,1.789,3.998,3.999C236.094,210.11,234.306,211.898,232.096,211.898z" data-original="#3A3847" class="active-path" data-old_color="#3A3847"/>
	<path style="fill:#403F4C" d="M248.088,227.891c-2.206,0-4.037-1.788-4.037-3.998s1.749-3.998,3.959-3.998h0.078   c2.21,0,3.998,1.788,3.998,3.998S250.298,227.891,248.088,227.891z" data-original="#3A3847" class="active-path" data-old_color="#3A3847"/>
	<path style="fill:#403F4C" d="M264.076,243.883c-2.202,0-4.033-1.788-4.033-3.998s1.749-3.998,3.955-3.998h0.078   c2.218,0,3.998,1.788,3.998,3.998S266.294,243.883,264.076,243.883z" data-original="#3A3847" class="active-path" data-old_color="#3A3847"/>
	<path style="fill:#403F4C" d="M280.068,259.875c-2.201,0-4.029-1.788-4.029-3.998c0-2.21,1.75-3.998,3.951-3.998h0.078   c2.218,0,3.998,1.788,3.998,3.998C284.066,258.087,282.286,259.875,280.068,259.875z" data-original="#3A3847" class="active-path" data-old_color="#3A3847"/>
	<path style="fill:#403F4C" d="M296.061,275.867c-2.201,0-4.029-1.788-4.029-3.998s1.75-3.998,3.951-3.998h0.078   c2.219,0,3.998,1.788,3.998,3.998S298.279,275.867,296.061,275.867z" data-original="#3A3847" class="active-path" data-old_color="#3A3847"/>
	<path style="fill:#403F4C" d="M312.054,291.859c-2.202,0-4.03-1.788-4.03-3.998c0-2.209,1.75-3.998,3.952-3.998h0.078   c2.218,0,3.998,1.789,3.998,3.998C316.052,290.071,314.272,291.859,312.054,291.859z" data-original="#3A3847" class="active-path" data-old_color="#3A3847"/>
	<path style="fill:#403F4C" d="M328.046,307.852c-2.202,0-4.029-1.788-4.029-3.998c0-2.209,1.749-3.998,3.951-3.998h0.078   c2.218,0,3.998,1.789,3.998,3.998C332.044,306.064,330.264,307.852,328.046,307.852z" data-original="#3A3847" class="active-path" data-old_color="#3A3847"/>
	<path style="fill:#403F4C" d="M344.038,323.844c-2.202,0-4.029-1.787-4.029-3.998c0-2.209,1.749-3.998,3.951-3.998h0.078   c2.218,0,3.998,1.789,3.998,3.998C348.036,322.057,346.256,323.844,344.038,323.844z" data-original="#3A3847" class="active-path" data-old_color="#3A3847"/>
	<path style="fill:#403F4C" d="M360.03,339.837c-2.202,0-4.029-1.788-4.029-3.998s1.749-3.998,3.951-3.998h0.078   c2.218,0,3.998,1.788,3.998,3.998S362.248,339.837,360.03,339.837z" data-original="#3A3847" class="active-path" data-old_color="#3A3847"/>
	<path style="fill:#403F4C" d="M200.111,147.929c-2.206,0-4.037-1.788-4.037-3.998s1.749-3.998,3.959-3.998h0.078   c2.21,0,3.998,1.788,3.998,3.998S202.321,147.929,200.111,147.929z" data-original="#3A3847" class="active-path" data-old_color="#3A3847"/>
	<path style="fill:#403F4C" d="M216.104,163.921c-2.206,0-4.037-1.788-4.037-3.998s1.749-3.998,3.959-3.998h0.078   c2.21,0,3.998,1.788,3.998,3.998S218.314,163.921,216.104,163.921z" data-original="#3A3847" class="active-path" data-old_color="#3A3847"/>
	<path style="fill:#403F4C" d="M232.096,179.914c-2.206,0-4.037-1.789-4.037-3.998c0-2.21,1.749-3.999,3.959-3.999h0.078   c2.21,0,3.998,1.789,3.998,3.999C236.094,178.125,234.306,179.914,232.096,179.914z" data-original="#3A3847" class="active-path" data-old_color="#3A3847"/>
	<path style="fill:#403F4C" d="M248.088,195.906c-2.206,0-4.037-1.788-4.037-3.998s1.749-3.998,3.959-3.998h0.078   c2.21,0,3.998,1.788,3.998,3.998S250.298,195.906,248.088,195.906z" data-original="#3A3847" class="active-path" data-old_color="#3A3847"/>
	<path style="fill:#403F4C" d="M264.076,211.898c-2.202,0-4.033-1.789-4.033-3.998c0-2.21,1.749-3.999,3.955-3.999h0.078   c2.218,0,3.998,1.789,3.998,3.999C268.074,210.11,266.294,211.898,264.076,211.898z" data-original="#3A3847" class="active-path" data-old_color="#3A3847"/>
	<path style="fill:#403F4C" d="M280.068,227.891c-2.201,0-4.029-1.788-4.029-3.998s1.75-3.998,3.951-3.998h0.078   c2.218,0,3.998,1.788,3.998,3.998S282.286,227.891,280.068,227.891z" data-original="#3A3847" class="active-path" data-old_color="#3A3847"/>
	<path style="fill:#403F4C" d="M296.061,243.883c-2.201,0-4.029-1.788-4.029-3.998s1.75-3.998,3.951-3.998h0.078   c2.219,0,3.998,1.788,3.998,3.998S298.279,243.883,296.061,243.883z" data-original="#3A3847" class="active-path" data-old_color="#3A3847"/>
	<path style="fill:#403F4C" d="M312.054,259.875c-2.202,0-4.03-1.788-4.03-3.998c0-2.21,1.75-3.998,3.952-3.998h0.078   c2.218,0,3.998,1.788,3.998,3.998C316.052,258.087,314.272,259.875,312.054,259.875z" data-original="#3A3847" class="active-path" data-old_color="#3A3847"/>
	<path style="fill:#403F4C" d="M328.046,275.867c-2.202,0-4.029-1.788-4.029-3.998s1.749-3.998,3.951-3.998h0.078   c2.218,0,3.998,1.788,3.998,3.998S330.264,275.867,328.046,275.867z" data-original="#3A3847" class="active-path" data-old_color="#3A3847"/>
	<path style="fill:#403F4C" d="M344.038,291.859c-2.202,0-4.029-1.788-4.029-3.998c0-2.209,1.749-3.998,3.951-3.998h0.078   c2.218,0,3.998,1.789,3.998,3.998C348.036,290.071,346.256,291.859,344.038,291.859z" data-original="#3A3847" class="active-path" data-old_color="#3A3847"/>
	<path style="fill:#403F4C" d="M360.03,307.852c-2.202,0-4.029-1.788-4.029-3.998c0-2.209,1.749-3.998,3.951-3.998h0.078   c2.218,0,3.998,1.789,3.998,3.998C364.028,306.064,362.248,307.852,360.03,307.852z" data-original="#3A3847" class="active-path" data-old_color="#3A3847"/>
	<path style="fill:#403F4C" d="M376.023,323.844c-2.202,0-4.029-1.787-4.029-3.998c0-2.209,1.749-3.998,3.951-3.998h0.078   c2.218,0,3.998,1.789,3.998,3.998C380.021,322.057,378.24,323.844,376.023,323.844z" data-original="#3A3847" class="active-path" data-old_color="#3A3847"/>
	<path style="fill:#403F4C" d="M216.104,131.937c-2.206,0-4.037-1.788-4.037-3.998s1.749-3.998,3.959-3.998h0.078   c2.21,0,3.998,1.788,3.998,3.998C220.102,130.149,218.314,131.937,216.104,131.937z" data-original="#3A3847" class="active-path" data-old_color="#3A3847"/>
	<path style="fill:#403F4C" d="M232.096,147.929c-2.206,0-4.037-1.788-4.037-3.998s1.749-3.998,3.959-3.998h0.078   c2.21,0,3.998,1.788,3.998,3.998S234.306,147.929,232.096,147.929z" data-original="#3A3847" class="active-path" data-old_color="#3A3847"/>
	<path style="fill:#403F4C" d="M248.088,163.921c-2.206,0-4.037-1.788-4.037-3.998s1.749-3.998,3.959-3.998h0.078   c2.21,0,3.998,1.788,3.998,3.998S250.298,163.921,248.088,163.921z" data-original="#3A3847" class="active-path" data-old_color="#3A3847"/>
	<path style="fill:#403F4C" d="M264.076,179.914c-2.202,0-4.033-1.789-4.033-3.998c0-2.21,1.749-3.999,3.955-3.999h0.078   c2.218,0,3.998,1.789,3.998,3.999C268.074,178.125,266.294,179.914,264.076,179.914z" data-original="#3A3847" class="active-path" data-old_color="#3A3847"/>
	<path style="fill:#403F4C" d="M280.068,195.906c-2.201,0-4.029-1.788-4.029-3.998s1.75-3.998,3.951-3.998h0.078   c2.218,0,3.998,1.788,3.998,3.998S282.286,195.906,280.068,195.906z" data-original="#3A3847" class="active-path" data-old_color="#3A3847"/>
	<path style="fill:#403F4C" d="M296.061,211.898c-2.201,0-4.029-1.789-4.029-3.998c0-2.21,1.75-3.999,3.951-3.999h0.078   c2.219,0,3.998,1.789,3.998,3.999C300.059,210.11,298.279,211.898,296.061,211.898z" data-original="#3A3847" class="active-path" data-old_color="#3A3847"/>
	<path style="fill:#403F4C" d="M312.054,227.891c-2.202,0-4.03-1.788-4.03-3.998s1.75-3.998,3.952-3.998h0.078   c2.218,0,3.998,1.788,3.998,3.998S314.272,227.891,312.054,227.891z" data-original="#3A3847" class="active-path" data-old_color="#3A3847"/>
	<path style="fill:#403F4C" d="M328.046,243.883c-2.202,0-4.029-1.788-4.029-3.998s1.749-3.998,3.951-3.998h0.078   c2.218,0,3.998,1.788,3.998,3.998S330.264,243.883,328.046,243.883z" data-original="#3A3847" class="active-path" data-old_color="#3A3847"/>
	<path style="fill:#403F4C" d="M344.038,259.875c-2.202,0-4.029-1.788-4.029-3.998c0-2.21,1.749-3.998,3.951-3.998h0.078   c2.218,0,3.998,1.788,3.998,3.998C348.036,258.087,346.256,259.875,344.038,259.875z" data-original="#3A3847" class="active-path" data-old_color="#3A3847"/>
	<path style="fill:#403F4C" d="M360.03,275.867c-2.202,0-4.029-1.788-4.029-3.998s1.749-3.998,3.951-3.998h0.078   c2.218,0,3.998,1.788,3.998,3.998S362.248,275.867,360.03,275.867z" data-original="#3A3847" class="active-path" data-old_color="#3A3847"/>
	<path style="fill:#403F4C" d="M376.023,291.859c-2.202,0-4.029-1.788-4.029-3.998c0-2.209,1.749-3.998,3.951-3.998h0.078   c2.218,0,3.998,1.789,3.998,3.998C380.021,290.071,378.24,291.859,376.023,291.859z" data-original="#3A3847" class="active-path" data-old_color="#3A3847"/>
	<path style="fill:#403F4C" d="M248.088,131.937c-2.206,0-4.037-1.788-4.037-3.998s1.749-3.998,3.959-3.998h0.078   c2.21,0,3.998,1.788,3.998,3.998C252.086,130.149,250.298,131.937,248.088,131.937z" data-original="#3A3847" class="active-path" data-old_color="#3A3847"/>
	<path style="fill:#403F4C" d="M264.076,147.929c-2.202,0-4.033-1.788-4.033-3.998s1.749-3.998,3.955-3.998h0.078   c2.218,0,3.998,1.788,3.998,3.998S266.294,147.929,264.076,147.929z" data-original="#3A3847" class="active-path" data-old_color="#3A3847"/>
	<path style="fill:#403F4C" d="M280.068,163.921c-2.201,0-4.029-1.788-4.029-3.998s1.75-3.998,3.951-3.998h0.078   c2.218,0,3.998,1.788,3.998,3.998S282.286,163.921,280.068,163.921z" data-original="#3A3847" class="active-path" data-old_color="#3A3847"/>
	<path style="fill:#403F4C" d="M296.061,179.914c-2.201,0-4.029-1.789-4.029-3.998c0-2.21,1.75-3.999,3.951-3.999h0.078   c2.219,0,3.998,1.789,3.998,3.999C300.059,178.125,298.279,179.914,296.061,179.914z" data-original="#3A3847" class="active-path" data-old_color="#3A3847"/>
	<path style="fill:#403F4C" d="M312.054,195.906c-2.202,0-4.03-1.788-4.03-3.998s1.75-3.998,3.952-3.998h0.078   c2.218,0,3.998,1.788,3.998,3.998S314.272,195.906,312.054,195.906z" data-original="#3A3847" class="active-path" data-old_color="#3A3847"/>
	<path style="fill:#403F4C" d="M328.046,211.898c-2.202,0-4.029-1.789-4.029-3.998c0-2.21,1.749-3.999,3.951-3.999h0.078   c2.218,0,3.998,1.789,3.998,3.999C332.044,210.11,330.264,211.898,328.046,211.898z" data-original="#3A3847" class="active-path" data-old_color="#3A3847"/>
	<path style="fill:#403F4C" d="M344.038,227.891c-2.202,0-4.029-1.788-4.029-3.998s1.749-3.998,3.951-3.998h0.078   c2.218,0,3.998,1.788,3.998,3.998S346.256,227.891,344.038,227.891z" data-original="#3A3847" class="active-path" data-old_color="#3A3847"/>
	<path style="fill:#403F4C" d="M360.03,243.883c-2.202,0-4.029-1.788-4.029-3.998s1.749-3.998,3.951-3.998h0.078   c2.218,0,3.998,1.788,3.998,3.998S362.248,243.883,360.03,243.883z" data-original="#3A3847" class="active-path" data-old_color="#3A3847"/>
	<path style="fill:#403F4C" d="M376.023,259.875c-2.202,0-4.029-1.788-4.029-3.998c0-2.21,1.749-3.998,3.951-3.998h0.078   c2.218,0,3.998,1.788,3.998,3.998C380.021,258.087,378.24,259.875,376.023,259.875z" data-original="#3A3847" class="active-path" data-old_color="#3A3847"/>
	<path style="fill:#403F4C" d="M392.015,275.867c-2.202,0-4.029-1.788-4.029-3.998s1.749-3.998,3.951-3.998h0.078   c2.218,0,3.998,1.788,3.998,3.998S394.232,275.867,392.015,275.867z" data-original="#3A3847" class="active-path" data-old_color="#3A3847"/>
	<path style="fill:#403F4C" d="M280.068,131.937c-2.201,0-4.029-1.788-4.029-3.998s1.75-3.998,3.951-3.998h0.078   c2.218,0,3.998,1.788,3.998,3.998C284.066,130.149,282.286,131.937,280.068,131.937z" data-original="#3A3847" class="active-path" data-old_color="#3A3847"/>
	<path style="fill:#403F4C" d="M296.061,147.929c-2.201,0-4.029-1.788-4.029-3.998s1.75-3.998,3.951-3.998h0.078   c2.219,0,3.998,1.788,3.998,3.998S298.279,147.929,296.061,147.929z" data-original="#3A3847" class="active-path" data-old_color="#3A3847"/>
	<path style="fill:#403F4C" d="M312.054,163.921c-2.202,0-4.03-1.788-4.03-3.998s1.75-3.998,3.952-3.998h0.078   c2.218,0,3.998,1.788,3.998,3.998S314.272,163.921,312.054,163.921z" data-original="#3A3847" class="active-path" data-old_color="#3A3847"/>
	<path style="fill:#403F4C" d="M328.046,179.914c-2.202,0-4.029-1.789-4.029-3.998c0-2.21,1.749-3.999,3.951-3.999h0.078   c2.218,0,3.998,1.789,3.998,3.999C332.044,178.125,330.264,179.914,328.046,179.914z" data-original="#3A3847" class="active-path" data-old_color="#3A3847"/>
	<path style="fill:#403F4C" d="M344.038,195.906c-2.202,0-4.029-1.788-4.029-3.998s1.749-3.998,3.951-3.998h0.078   c2.218,0,3.998,1.788,3.998,3.998S346.256,195.906,344.038,195.906z" data-original="#3A3847" class="active-path" data-old_color="#3A3847"/>
	<path style="fill:#403F4C" d="M360.03,211.898c-2.202,0-4.029-1.789-4.029-3.998c0-2.21,1.749-3.999,3.951-3.999h0.078   c2.218,0,3.998,1.789,3.998,3.999C364.028,210.11,362.248,211.898,360.03,211.898z" data-original="#3A3847" class="active-path" data-old_color="#3A3847"/>
	<path style="fill:#403F4C" d="M376.023,227.891c-2.202,0-4.029-1.788-4.029-3.998s1.749-3.998,3.951-3.998h0.078   c2.218,0,3.998,1.788,3.998,3.998S378.24,227.891,376.023,227.891z" data-original="#3A3847" class="active-path" data-old_color="#3A3847"/>
	<path style="fill:#403F4C" d="M392.015,243.883c-2.202,0-4.029-1.788-4.029-3.998s1.749-3.998,3.951-3.998h0.078   c2.218,0,3.998,1.788,3.998,3.998S394.232,243.883,392.015,243.883z" data-original="#3A3847" class="active-path" data-old_color="#3A3847"/>
	<path style="fill:#403F4C" d="M312.054,131.937c-2.202,0-4.03-1.788-4.03-3.998s1.75-3.998,3.952-3.998h0.078   c2.218,0,3.998,1.788,3.998,3.998C316.052,130.149,314.272,131.937,312.054,131.937z" data-original="#3A3847" class="active-path" data-old_color="#3A3847"/>
	<path style="fill:#403F4C" d="M328.046,147.929c-2.202,0-4.029-1.788-4.029-3.998s1.749-3.998,3.951-3.998h0.078   c2.218,0,3.998,1.788,3.998,3.998S330.264,147.929,328.046,147.929z" data-original="#3A3847" class="active-path" data-old_color="#3A3847"/>
	<path style="fill:#403F4C" d="M344.038,163.921c-2.202,0-4.029-1.788-4.029-3.998s1.749-3.998,3.951-3.998h0.078   c2.218,0,3.998,1.788,3.998,3.998S346.256,163.921,344.038,163.921z" data-original="#3A3847" class="active-path" data-old_color="#3A3847"/>
	<path style="fill:#403F4C" d="M360.03,179.914c-2.202,0-4.029-1.789-4.029-3.998c0-2.21,1.749-3.999,3.951-3.999h0.078   c2.218,0,3.998,1.789,3.998,3.999C364.028,178.125,362.248,179.914,360.03,179.914z" data-original="#3A3847" class="active-path" data-old_color="#3A3847"/>
	<path style="fill:#403F4C" d="M376.023,195.906c-2.202,0-4.029-1.788-4.029-3.998s1.749-3.998,3.951-3.998h0.078   c2.218,0,3.998,1.788,3.998,3.998S378.24,195.906,376.023,195.906z" data-original="#3A3847" class="active-path" data-old_color="#3A3847"/>
	<path style="fill:#403F4C" d="M344.038,131.937c-2.202,0-4.029-1.788-4.029-3.998s1.749-3.998,3.951-3.998h0.078   c2.218,0,3.998,1.788,3.998,3.998C348.036,130.149,346.256,131.937,344.038,131.937z" data-original="#3A3847" class="active-path" data-old_color="#3A3847"/>
	<path style="fill:#403F4C" d="M255.846,399.808c-79.364,0-143.931-64.562-143.931-143.931   c0-79.364,64.566-143.931,143.931-143.931c79.368,0,143.932,64.566,143.932,143.931   C399.777,335.245,335.214,399.808,255.846,399.808z M255.846,119.942c-74.956,0-135.935,60.979-135.935,135.935   s60.979,135.935,135.935,135.935c74.957,0,135.936-60.979,135.936-135.935S330.803,119.942,255.846,119.942z" data-original="#3A3847" class="active-path" data-old_color="#3A3847"/>
	<path style="fill:#403F4C" d="M239.904,483.205c-0.094,0-0.188,0-0.285-0.008c-5.349-0.367-10.792-0.945-16.172-1.71   c-2.187-0.312-3.705-2.335-3.396-4.521c0.312-2.187,2.327-3.701,4.521-3.396c5.192,0.733,10.444,1.296,15.609,1.655   c2.202,0.156,3.861,2.062,3.705,4.264C243.742,481.597,241.985,483.205,239.904,483.205z M208.275,478.707   c-0.281,0-0.566-0.031-0.848-0.094c-50.542-10.932-96.364-39.238-129.027-79.711c-1.387-1.719-1.117-4.232,0.601-5.623   c1.722-1.39,4.24-1.116,5.623,0.609c31.52,39.044,75.729,66.359,124.491,76.908c2.159,0.469,3.53,2.601,3.065,4.756   C211.773,477.427,210.118,478.707,208.275,478.707z M383.574,443.811c-1.266,0-2.507-0.602-3.288-1.711   c-1.265-1.812-0.812-4.311,0.999-5.575c4.279-2.968,8.496-6.138,12.557-9.409c1.719-1.398,4.24-1.117,5.623,0.602   c1.39,1.717,1.116,4.231-0.602,5.622c-4.209,3.389-8.582,6.669-13.01,9.761C385.159,443.584,384.362,443.811,383.574,443.811z    M408.429,423.75c-1.077,0-2.14-0.422-2.928-1.266c-1.507-1.624-1.414-4.154,0.194-5.653   c36.709-34.194,60.799-80.243,67.835-129.656c0.312-2.179,2.327-3.687,4.521-3.39c2.187,0.312,3.709,2.327,3.396,4.514   c-7.293,51.226-32.258,98.952-70.302,134.381C410.381,423.398,409.398,423.75,408.429,423.75z M71.931,387.61   c-1.265,0-2.511-0.593-3.288-1.718c-3.081-4.42-6.044-9.027-8.804-13.665c-1.129-1.905-0.508-4.357,1.39-5.481   c1.913-1.141,4.361-0.5,5.482,1.39c2.667,4.481,5.525,8.917,8.5,13.196c1.261,1.812,0.812,4.295-0.999,5.561   C73.516,387.376,72.719,387.61,71.931,387.61z M479.184,275.844c-0.094,0-0.188-0.008-0.289-0.008   c-2.201-0.156-3.857-2.069-3.701-4.271c0.359-5.177,0.547-10.451,0.547-15.688c0-2.21,1.788-3.998,3.998-3.998   s3.998,1.788,3.998,3.998c0,5.419-0.188,10.886-0.57,16.25C483.018,274.235,481.269,275.844,479.184,275.844z M34.199,228.059   c-0.188,0-0.375-0.012-0.566-0.039c-2.187-0.312-3.706-2.335-3.397-4.521c0.762-5.353,1.726-10.741,2.866-16.016   c0.469-2.155,2.601-3.514,4.755-3.062c2.155,0.469,3.526,2.597,3.061,4.756c-1.101,5.083-2.03,10.284-2.764,15.446   C37.869,226.618,36.159,228.059,34.199,228.059z M40.945,196.835c-0.371,0-0.75-0.051-1.125-0.16   c-2.116-0.621-3.334-2.842-2.713-4.962c14.536-49.64,46.04-93.33,88.707-123.027c1.808-1.261,4.307-0.812,5.568,1   c1.261,1.812,0.812,4.302-1,5.567c-41.176,28.654-71.575,70.81-85.6,118.708C44.272,195.703,42.679,196.835,40.945,196.835z    M462.715,174.057c-1.562,0-3.053-0.929-3.693-2.467c-1.991-4.802-4.193-9.601-6.52-14.255c-1-1.972-0.203-4.373,1.78-5.365   c1.983-0.987,4.372-0.188,5.356,1.78c2.429,4.822,4.701,9.796,6.771,14.778c0.851,2.038-0.117,4.377-2.163,5.224   C463.746,173.959,463.231,174.057,462.715,174.057z M448.402,145.531c-1.367,0-2.694-0.698-3.444-1.952   c-25.62-43.069-65.515-76.393-112.321-93.826c-2.068-0.773-3.123-3.073-2.357-5.142c0.78-2.077,3.092-3.108,5.146-2.354   c48.516,18.073,89.855,52.604,116.405,97.23c1.132,1.898,0.516,4.354-1.391,5.482C449.8,145.352,449.097,145.531,448.402,145.531z    M141.53,67.315c-1.363,0-2.694-0.699-3.44-1.952c-1.128-1.901-0.507-4.354,1.39-5.482c4.615-2.745,9.414-5.373,14.263-7.809   c1.987-0.979,4.381-0.191,5.369,1.777c0.992,1.976,0.195,4.376-1.776,5.369c-4.682,2.351-9.312,4.888-13.763,7.535   C142.928,67.136,142.225,67.315,141.53,67.315z M318.862,44.967c-0.374,0-0.749-0.051-1.124-0.16   c-4.975-1.456-10.089-2.757-15.212-3.865c-2.163-0.469-3.529-2.597-3.068-4.752c0.468-2.159,2.632-3.525,4.755-3.064   c5.311,1.147,10.612,2.495,15.774,4.006c2.116,0.621,3.326,2.842,2.71,4.962C322.189,43.838,320.588,44.967,318.862,44.967z" data-original="#3A3847" class="active-path" data-old_color="#3A3847"/>
	<path style="fill:#403F4C" d="M190.912,440.523c-0.449,0-0.905-0.078-1.354-0.234c-5.087-1.827-10.171-3.904-15.114-6.153   c-2.011-0.921-2.893-3.295-1.979-5.302c0.918-2.007,3.284-2.882,5.299-1.976c4.744,2.163,9.62,4.154,14.504,5.903   c2.077,0.749,3.155,3.038,2.409,5.122C194.087,439.508,192.552,440.523,190.912,440.523z M338.713,433.026   c-1.492,0-2.921-0.828-3.608-2.265c-0.952-1.991-0.117-4.381,1.874-5.334c4.686-2.248,9.34-4.724,13.807-7.348   c1.905-1.124,4.357-0.477,5.474,1.43c1.116,1.896,0.477,4.349-1.429,5.474c-4.662,2.733-9.504,5.31-14.392,7.652   C339.884,432.901,339.29,433.026,338.713,433.026z M161.848,427.232c-0.664,0-1.335-0.156-1.956-0.516   c-45.419-25.551-79.325-68.936-93.026-119.021c-0.582-2.123,0.672-4.325,2.804-4.903c2.124-0.555,4.326,0.671,4.912,2.796   c13.138,48.039,45.662,89.645,89.23,114.164c1.925,1.085,2.608,3.521,1.523,5.45C164.601,426.498,163.246,427.232,161.848,427.232z    M366.254,416.878c-1.258,0-2.491-0.594-3.271-1.702c-1.273-1.805-0.844-4.295,0.968-5.568   c40.895-28.807,69.045-73.48,77.236-122.558c0.359-2.187,2.405-3.663,4.6-3.296c2.179,0.367,3.654,2.429,3.287,4.607   c-8.534,51.179-37.88,97.75-80.516,127.782C367.855,416.636,367.051,416.878,366.254,416.878z M67.151,295.062   c-1.89,0-3.568-1.343-3.928-3.265c-0.98-5.302-1.757-10.729-2.304-16.148c-0.223-2.201,1.382-4.162,3.577-4.389   c2.28-0.141,4.162,1.383,4.38,3.577c0.523,5.2,1.27,10.417,2.21,15.5c0.402,2.171-1.03,4.256-3.201,4.662   C67.64,295.046,67.394,295.062,67.151,295.062z M447.098,275.836c-0.109,0-0.219,0-0.328-0.008   c-2.201-0.18-3.842-2.116-3.654-4.318c0.422-5.169,0.641-10.432,0.641-15.633c0-23.383-4.248-46.192-12.604-67.795   c-0.797-2.058,0.234-4.373,2.296-5.169c2.038-0.805,4.365,0.227,5.169,2.288c8.715,22.524,13.135,46.302,13.135,70.677   c0,5.415-0.227,10.901-0.672,16.289C450.908,274.259,449.159,275.836,447.098,275.836z M428.513,175.989   c-1.483,0-2.912-0.827-3.607-2.249c-2.265-4.669-4.763-9.3-7.418-13.763c-1.125-1.901-0.508-4.354,1.39-5.481   c1.905-1.132,4.357-0.5,5.481,1.39c2.765,4.658,5.373,9.488,7.747,14.356c0.96,1.987,0.133,4.381-1.852,5.345   C429.692,175.861,429.091,175.989,428.513,175.989z M107.851,137.676c-0.894,0-1.796-0.301-2.542-0.917   c-1.703-1.406-1.945-3.924-0.535-5.626c3.463-4.193,7.133-8.277,10.908-12.135c1.55-1.574,4.08-1.605,5.654-0.062   c1.578,1.546,1.605,4.076,0.062,5.654c-3.62,3.697-7.137,7.613-10.464,11.635C110.147,137.18,109.002,137.676,107.851,137.676z    M130.176,114.824c-1.116,0-2.229-0.468-3.021-1.378c-1.445-1.667-1.266-4.193,0.402-5.642   c39.36-34.128,91.226-51.226,143.423-47.259c2.202,0.168,3.857,2.085,3.686,4.287c-0.164,2.202-2.124,3.822-4.279,3.686   c-50.089-3.814-99.831,12.588-137.59,45.33C132.038,114.503,131.106,114.824,130.176,114.824z M302.215,73.606   c-0.312,0-0.641-0.039-0.969-0.117c-5.014-1.246-10.167-2.3-15.328-3.128c-2.18-0.351-3.663-2.401-3.312-4.583   c0.352-2.178,2.351-3.693,4.584-3.311c5.372,0.863,10.753,1.96,15.992,3.26c2.14,0.531,3.443,2.702,2.913,4.845   C305.643,72.391,304.01,73.606,302.215,73.606z" data-original="#3A3847" class="active-path" data-old_color="#3A3847"/>
	<path style="fill:#403F4C" d="M255.846,423.797L255.846,423.797c-1.261,0-2.444-0.594-3.201-1.602l-7.075-9.448l-8.23,8.41   c-0.875,0.897-2.101,1.335-3.381,1.171c-1.245-0.172-2.343-0.906-2.959-2.007l-5.787-10.284l-9.296,7.309   c-0.992,0.781-2.276,1.055-3.506,0.719c-1.215-0.32-2.206-1.202-2.675-2.374l-4.404-10.963l-10.136,5.997   c-1.089,0.641-2.401,0.734-3.564,0.258c-1.164-0.477-2.03-1.477-2.347-2.694l-2.944-11.424l-10.854,4.638   c-1.152,0.492-2.472,0.414-3.569-0.211c-1.089-0.632-1.819-1.733-1.972-2.982l-1.414-11.721l-11.377,3.17   c-1.218,0.336-2.511,0.086-3.51-0.68c-0.996-0.765-1.574-1.951-1.562-3.217l0.129-11.807l-11.682,1.671   c-1.233,0.172-2.507-0.25-3.393-1.132c-0.891-0.891-1.309-2.147-1.133-3.397l1.683-11.666l-11.823,0.102   c-1.456-0.125-2.452-0.57-3.209-1.569c-0.766-1-1.016-2.296-0.676-3.514l3.19-11.339l-11.721-1.421   c-1.25-0.148-2.354-0.875-2.983-1.968c-0.629-1.094-0.707-2.405-0.215-3.562l4.623-10.869l-11.433-2.921   c-1.218-0.312-2.217-1.179-2.701-2.343c-0.48-1.155-0.387-2.482,0.253-3.561l6.009-10.167l-10.94-4.373   c-1.171-0.468-2.05-1.468-2.378-2.678c-0.328-1.219-0.062-2.515,0.715-3.507l7.293-9.292l-10.308-5.802   c-1.097-0.617-1.839-1.71-2.003-2.96c-0.164-1.249,0.27-2.499,1.168-3.381l8.449-8.254l-9.441-7.079   c-1.007-0.753-1.601-1.939-1.601-3.197c0-1.261,0.594-2.444,1.601-3.202l9.445-7.071l-8.449-8.246   c-0.902-0.878-1.336-2.132-1.172-3.381c0.16-1.246,0.902-2.347,1.999-2.964l10.308-5.81l-7.301-9.28   c-0.777-0.988-1.047-2.288-0.719-3.502c0.324-1.218,1.203-2.21,2.37-2.678l10.967-4.408l-6.024-10.144   c-0.644-1.082-0.742-2.405-0.261-3.568c0.484-1.164,1.483-2.03,2.701-2.347l11.44-2.94l-4.627-10.854   c-0.492-1.156-0.414-2.475,0.215-3.565c0.628-1.089,1.733-1.819,2.983-1.972l11.721-1.413l-3.19-11.37   c-0.34-1.214-0.09-2.514,0.676-3.514c0.765-1.003,1.812-1.854,3.221-1.565l11.819,0.133l-1.687-11.678   c-0.183-1.25,0.234-2.507,1.129-3.401c0.886-0.886,2.128-1.3,3.396-1.132l11.682,1.679l-0.133-11.814   c-0.015-1.261,0.566-2.452,1.566-3.221c1.003-0.757,2.312-1,3.514-0.675l11.361,3.197l1.421-11.729   c0.152-1.249,0.882-2.354,1.972-2.983c1.093-0.625,2.405-0.714,3.569-0.214l10.862,4.63l2.92-11.432   c0.312-1.218,1.179-2.222,2.343-2.702c1.163-0.484,2.483-0.391,3.568,0.253l10.155,6.024l4.4-10.967   c0.469-1.172,1.46-2.05,2.675-2.374c1.226-0.348,2.518-0.059,3.506,0.718l9.281,7.297l5.802-10.3   c0.617-1.097,1.714-1.839,2.963-2.003c1.238-0.152,2.503,0.27,3.381,1.167L245.57,99l7.071-9.444c1.519-2.007,4.896-2.015,6.399,0   l7.078,9.433l8.262-8.457c0.883-0.898,2.14-1.324,3.374-1.167c1.249,0.164,2.35,0.902,2.967,1.999l5.81,10.3l9.308-7.297   c0.992-0.781,2.281-1.039,3.507-0.714c1.218,0.328,2.21,1.21,2.679,2.378l4.373,10.943l10.143-6.013   c1.086-0.64,2.405-0.733,3.569-0.253c1.155,0.48,2.03,1.48,2.343,2.702l2.936,11.448l10.862-4.638   c1.155-0.492,2.476-0.414,3.568,0.214s1.819,1.734,1.968,2.983l1.421,11.717l11.339-3.17c1.202-0.352,2.514-0.09,3.506,0.675   c1,0.761,1.585,1.953,1.569,3.209l-0.102,11.807l11.683-1.683c1.272-0.172,2.506,0.242,3.396,1.132s1.312,2.147,1.132,3.397   l-1.679,11.689l11.83-0.117c1.016,0.039,2.444,0.566,3.21,1.565c0.765,0.996,1.015,2.296,0.679,3.506l-3.162,11.358l11.705,1.409   c1.25,0.152,2.351,0.883,2.991,1.972c0.624,1.09,0.702,2.409,0.21,3.569l-4.638,10.874l11.408,2.917   c1.227,0.312,2.226,1.179,2.71,2.343c0.477,1.159,0.383,2.483-0.258,3.564l-6.005,10.167l10.956,4.381   c1.171,0.468,2.045,1.46,2.373,2.674s0.062,2.514-0.71,3.502l-7.294,9.312l10.276,5.786c1.102,0.617,1.835,1.71,2.007,2.96   c0.156,1.245-0.266,2.499-1.171,3.377l-8.426,8.27l9.44,7.063c1.016,0.753,1.609,1.937,1.609,3.198   c0,1.258-0.594,2.444-1.594,3.201l-9.464,7.103l8.434,8.238c0.897,0.874,1.327,2.124,1.171,3.373   c-0.164,1.25-0.905,2.343-1.999,2.968l-10.292,5.81l7.294,9.292c0.78,0.984,1.046,2.28,0.718,3.499   c-0.32,1.218-1.202,2.218-2.373,2.686l-10.948,4.381l6.013,10.151c0.641,1.086,0.734,2.397,0.258,3.568   c-0.477,1.156-1.476,2.031-2.702,2.343l-11.439,2.937l4.653,10.854c0.5,1.156,0.422,2.483-0.202,3.577   c-0.633,1.085-1.733,1.819-2.983,1.968l-11.744,1.421l3.178,11.354c0.336,1.21,0.086,2.514-0.679,3.514   c-0.766,0.991-1.687,1.335-3.21,1.562l-11.83-0.109l1.53,10.597c0.234,0.508,0.359,1.069,0.359,1.655   c0,2.241-2.218,4.178-4.076,3.998c-0.203-0.008-0.429-0.008-0.64-0.039l-11.714-1.687l0.109,10.713   c0.117,0.367,0.172,0.758,0.172,1.164c0.008,2.241-2.022,4.068-4.076,3.998c-0.344,0.008-0.772-0.039-1.155-0.148l-11.362-3.178   l-1.413,11.729c-0.148,1.249-0.875,2.358-1.968,2.99c-1.093,0.625-2.437,0.695-3.568,0.211l-10.878-4.646l-2.904,11.416   c-0.312,1.218-1.172,2.226-2.343,2.71c-1.156,0.484-2.483,0.391-3.569-0.258l-10.174-6.013l-4.357,10.947   c-0.469,1.172-1.461,2.046-2.671,2.374c-1.233,0.312-2.522,0.062-3.515-0.711l-9.315-7.301l-5.802,10.292   c-0.617,1.093-1.718,1.827-2.967,1.999c-1.234,0.172-2.491-0.273-3.374-1.171l-8.246-8.434l-7.094,9.456   C258.29,423.203,257.104,423.797,255.846,423.797z M245.976,402.619c0.086,0,0.176,0,0.262,0.008   c1.167,0.078,2.241,0.664,2.94,1.593l6.672,8.91l6.685-8.91c0.699-0.929,1.776-1.515,2.933-1.593   c1.14-0.07,2.311,0.359,3.123,1.194l7.785,7.949l5.475-9.698c0.577-1.016,1.562-1.726,2.701-1.952   c1.141-0.242,2.327,0.055,3.248,0.773l8.777,6.871l4.107-10.331c0.438-1.077,1.32-1.921,2.421-2.295   c1.124-0.383,2.335-0.25,3.335,0.343l9.597,5.677l2.748-10.768c0.281-1.141,1.055-2.085,2.108-2.601   c1.039-0.523,2.265-0.554,3.335-0.094l10.261,4.389l1.335-11.065c0.141-1.155,0.78-2.201,1.749-2.842   c0.961-0.656,2.171-0.859,3.295-0.531l10.722,2.998l-0.117-11.166c-0.016-1.163,0.484-2.28,1.358-3.045   c0.875-0.773,2.047-1.117,3.202-0.953l11.034,1.585l-1.586-11.002c-0.172-1.156,0.172-2.327,0.938-3.21   c0.766-0.866,1.858-1.366,3.014-1.366c0.016,0,0.023,0,0.039,0l11.167,0.109l-2.999-10.714c-0.32-1.124-0.125-2.327,0.523-3.295   c0.648-0.969,1.687-1.609,2.843-1.749l11.072-1.344l-4.388-10.245c-0.469-1.077-0.438-2.295,0.077-3.342   c0.516-1.047,1.469-1.819,2.601-2.108l10.792-2.765l-5.677-9.581c-0.594-1.007-0.727-2.218-0.352-3.318   c0.383-1.109,1.218-1.999,2.303-2.437l10.324-4.131l-6.872-8.754c-0.727-0.913-1.007-2.093-0.781-3.248   c0.219-1.141,0.938-2.124,1.952-2.702l9.715-5.481l-7.949-7.777c-0.828-0.812-1.266-1.952-1.195-3.116   c0.078-1.163,0.656-2.237,1.585-2.939l8.918-6.696l-8.902-6.661c-0.937-0.698-1.522-1.769-1.601-2.936   c-0.078-1.164,0.359-2.304,1.195-3.12l7.949-7.805l-9.691-5.458c-1.015-0.57-1.733-1.558-1.96-2.702   c-0.233-1.144,0.055-2.327,0.773-3.244l6.88-8.781l-10.34-4.135c-1.085-0.434-1.92-1.319-2.295-2.425   c-0.383-1.104-0.258-2.319,0.344-3.322l5.669-9.593l-10.761-2.749c-1.14-0.289-2.085-1.058-2.601-2.101   c-0.515-1.046-0.554-2.269-0.093-3.342l4.38-10.265l-11.049-1.328c-1.164-0.141-2.194-0.777-2.851-1.75   c-0.641-0.968-0.844-2.171-0.523-3.295l2.991-10.718l-11.175,0.109c-1.304,0.059-2.279-0.488-3.053-1.366   c-0.766-0.875-1.109-2.046-0.945-3.202l1.586-11.018l-11.003,1.585c-1.171,0.168-2.327-0.184-3.202-0.949   c-0.882-0.765-1.382-1.878-1.366-3.045l0.094-11.143l-10.698,2.995c-1.124,0.316-2.326,0.117-3.295-0.523   c-0.969-0.648-1.608-1.687-1.749-2.846l-1.343-11.058l-10.253,4.377c-1.07,0.453-2.288,0.43-3.335-0.094   c-1.046-0.516-1.819-1.46-2.108-2.593l-2.764-10.795l-9.581,5.677c-1.008,0.589-2.219,0.718-3.327,0.343   c-1.101-0.375-1.991-1.214-2.429-2.299l-4.123-10.327l-8.777,6.875c-0.921,0.714-2.123,1.015-3.248,0.773   c-1.14-0.227-2.124-0.941-2.701-1.956l-5.475-9.71l-7.801,7.98c-0.812,0.835-1.874,1.288-3.123,1.194   c-1.156-0.078-2.233-0.66-2.933-1.593l-6.673-8.894l-6.668,8.91c-0.703,0.933-1.776,1.515-2.94,1.593   c-1.16,0.066-2.304-0.363-3.124-1.194l-7.781-7.969l-5.474,9.718c-0.57,1.019-1.562,1.733-2.706,1.96   c-1.152,0.25-2.331-0.055-3.249-0.777l-8.754-6.883l-4.15,10.343c-0.433,1.085-1.319,1.925-2.424,2.299   c-1.101,0.371-2.311,0.254-3.323-0.347l-9.577-5.681l-2.753,10.776c-0.289,1.129-1.058,2.077-2.104,2.593   c-1.042,0.52-2.256,0.551-3.338,0.094l-10.253-4.369l-1.339,11.073c-0.141,1.16-0.781,2.198-1.753,2.846   c-0.968,0.652-2.179,0.832-3.299,0.523l-10.713-3.014l0.128,11.143c0.012,1.167-0.484,2.284-1.362,3.053s-2.046,1.117-3.206,0.953   l-11.014-1.585l1.593,11.014c0.168,1.16-0.18,2.331-0.948,3.21c-0.77,0.874-2.097,1.241-3.054,1.362l-11.154-0.129l3.01,10.722   c0.316,1.124,0.125,2.331-0.523,3.299c-0.648,0.973-1.687,1.613-2.846,1.753l-11.065,1.335l4.361,10.237   c0.457,1.069,0.422,2.288-0.094,3.334c-0.515,1.046-1.46,1.812-2.588,2.104l-10.78,2.772l5.685,9.569   c0.598,1.003,0.727,2.218,0.352,3.322c-0.375,1.109-1.214,1.995-2.296,2.429l-10.347,4.158l6.884,8.754   c0.722,0.917,1.007,2.104,0.776,3.248c-0.226,1.144-0.94,2.132-1.956,2.706l-9.722,5.478l7.973,7.785   c0.836,0.816,1.273,1.956,1.199,3.124c-0.078,1.163-0.66,2.237-1.593,2.939l-8.911,6.673l8.901,6.673   c0.934,0.698,1.515,1.776,1.593,2.932c0.074,1.172-0.359,2.312-1.195,3.124l-7.969,7.793l9.718,5.466   c1.016,0.57,1.734,1.562,1.96,2.702c0.23,1.14-0.055,2.327-0.772,3.248l-6.876,8.762l10.319,4.123   c1.085,0.438,1.925,1.327,2.3,2.429c0.379,1.101,0.254,2.319-0.344,3.318l-5.673,9.597l10.784,2.757   c1.128,0.289,2.077,1.062,2.592,2.101c0.516,1.047,0.551,2.265,0.094,3.334l-4.365,10.261l11.069,1.344   c1.159,0.14,2.198,0.78,2.846,1.749c0.648,0.968,0.839,2.171,0.523,3.295l-3.01,10.706l11.15-0.102   c0.957,0.008,2.276,0.484,3.046,1.366c0.765,0.883,1.112,2.046,0.948,3.202l-1.585,10.994l11.014-1.577   c1.156-0.172,2.327,0.18,3.202,0.953c0.878,0.772,1.374,1.882,1.362,3.053l-0.121,11.151l10.729-2.991   c1.121-0.336,2.327-0.125,3.295,0.523c0.968,0.656,1.609,1.687,1.75,2.842l1.335,11.05l10.233-4.373   c1.07-0.46,2.292-0.43,3.334,0.086c1.047,0.516,1.816,1.468,2.108,2.593l2.776,10.775l9.569-5.669   c1.004-0.593,2.214-0.718,3.323-0.343c1.105,0.374,1.991,1.218,2.424,2.295l4.15,10.347l8.77-6.895   c0.914-0.719,2.097-1.016,3.249-0.773c1.148,0.227,2.135,0.944,2.706,1.96l5.462,9.698l7.766-7.934   C243.871,403.049,244.906,402.619,245.976,402.619z" data-original="#3A3847" class="active-path" data-old_color="#3A3847"/>
	<path style="fill:#403F4C" d="M19.991,39.981c-2.21,0-3.999-1.788-3.999-3.998V3.998c0-2.21,1.789-3.998,3.999-3.998   c2.209,0,3.998,1.788,3.998,3.998v31.984C23.989,38.192,22.2,39.981,19.991,39.981z" data-original="#3A3847" class="active-path" data-old_color="#3A3847"/>
	<path style="fill:#403F4C" d="M27.987,23.988H11.994c-2.209,0-3.998-1.788-3.998-3.998s1.789-3.998,3.998-3.998h15.993   c2.209,0,3.998,1.788,3.998,3.998S30.196,23.988,27.987,23.988z" data-original="#3A3847" class="active-path" data-old_color="#3A3847"/>
	<path style="fill:#403F4C" d="M475.772,455.781c-2.21,0-3.998-1.789-3.998-3.998v-31.985c0-2.21,1.788-3.998,3.998-3.998   s3.998,1.788,3.998,3.998v31.985C479.77,453.992,477.981,455.781,475.772,455.781z" data-original="#3A3847" class="active-path" data-old_color="#3A3847"/>
	<path style="fill:#403F4C" d="M483.768,439.789h-15.992c-2.21,0-3.998-1.789-3.998-3.998c0-2.211,1.788-3.998,3.998-3.998h15.992   c2.21,0,3.998,1.787,3.998,3.998C487.766,438,485.978,439.789,483.768,439.789z" data-original="#3A3847" class="active-path" data-old_color="#3A3847"/>
</g></g> </svg>
