<?xml version="1.0"?>
<svg xmlns="http://www.w3.org/2000/svg" xmlns:xlink="http://www.w3.org/1999/xlink" version="1.1" id="Capa_1" x="0px" y="0px" viewBox="0 0 511.788 511.788" style="enable-background:new 0 0 511.788 511.788;" xml:space="preserve" width="512px" height="512px" class=""><g transform="matrix(-1 0 0 1 511.788 0)"><path style="fill:#403F4C" d="M483.568,375.836h-31.984c8.832,0,15.992-7.161,15.992-15.992c0-8.832-7.16-15.992-15.992-15.992  H419.6c8.831,0,15.992-7.161,15.992-15.993c0-8.831-7.161-15.992-15.992-15.992h-47.978c8.832,0,15.993-7.16,15.993-15.992  c0-8.831-7.161-15.992-15.993-15.992h87.958c8.832,0,15.992-7.16,15.992-15.992s-7.16-15.992-15.992-15.992H419.6  c8.831,0,15.992-7.161,15.992-15.992c0-8.832-7.161-15.992-15.992-15.992h-15.992c8.831,0,15.992-7.161,15.992-15.993  s-7.161-15.992-15.992-15.992h79.961c8.832,0,15.992-7.161,15.992-15.993c0-8.831-7.16-15.992-15.992-15.992h-31.984  c8.832,0,15.992-7.16,15.992-15.992s-7.16-15.992-15.992-15.992h-31.984c8.831,0,15.992-7.161,15.992-15.992  c0-8.832-7.161-15.992-15.992-15.992h-23.988c8.831,0,15.992-7.161,15.992-15.993s-7.161-15.992-15.992-15.992H155.726  c-8.832,0-15.992,7.161-15.992,15.992s7.16,15.991,15.992,15.991H99.752c-8.832,0-15.992,7.16-15.992,15.992  s7.161,15.992,15.992,15.992H83.76c-8.832,0-15.992,7.161-15.992,15.992c0,8.832,7.16,15.992,15.992,15.992h47.977  c-8.832,0-15.993,7.161-15.993,15.992c0,8.832,7.161,15.993,15.993,15.993H43.78c-8.832,0-15.993,7.161-15.993,15.992  s7.161,15.993,15.993,15.993h39.98c-8.832,0-15.992,7.16-15.992,15.992s7.16,15.992,15.992,15.992H43.78  c-8.832,0-15.993,7.161-15.993,15.992c0,8.832,7.161,15.992,15.993,15.992H27.787c-8.832,0-15.992,7.161-15.992,15.992  c0,8.832,7.161,15.992,15.992,15.992h39.981c-8.832,0-15.992,7.161-15.992,15.992c0,8.832,7.16,15.993,15.992,15.993H51.776  c-8.832,0-15.993,7.16-15.993,15.992c0,8.831,7.161,15.992,15.993,15.992h79.961c-8.832,0-15.993,7.161-15.993,15.992  c0,8.832,7.161,15.992,15.993,15.992H99.752c-8.832,0-15.992,7.161-15.992,15.993c0,8.831,7.161,15.992,15.992,15.992h271.869  c8.832,0,15.993-7.161,15.993-15.992c0-8.832-7.161-15.993-15.993-15.993h111.946c8.832,0,15.992-7.16,15.992-15.992  C499.56,382.998,492.4,375.836,483.568,375.836z" data-original="#656D78" class="" data-old_color="#656D78"/><circle style="fill:#FFCE54" cx="435.594" cy="83.974" r="31.984" data-original="#FFCE54" class=""/><g style="opacity:0.5;">
	<path style="fill:#000000" d="M411.603,83.977c0-16.293,12.229-29.596,27.986-31.583c-1.328-0.168-2.624-0.402-3.998-0.402   c-17.664,0-31.984,14.321-31.984,31.985c0,17.663,14.32,31.984,31.984,31.984c1.374,0,2.67-0.234,3.998-0.402   C423.832,113.572,411.603,100.27,411.603,83.977z" data-original="#FFFFFF" class="" data-old_color="#FFFFFF"/>
</g><g style="opacity:0.2;">
	<path d="M459.58,83.977c0,16.293-12.229,29.595-27.986,31.582c1.327,0.168,2.623,0.402,3.998,0.402   c17.663,0,31.984-14.321,31.984-31.984c0-17.664-14.321-31.985-31.984-31.985c-1.375,0-2.671,0.234-3.998,0.402   C447.351,54.381,459.58,67.684,459.58,83.977z" data-original="#000000" class="" style="fill:#FFFFFF" data-old_color="#000000"/>
</g><path id="SVGCleanerId_0" style="fill:#FFF39D" d="M403.607,247.898c0,81.695-66.234,147.929-147.929,147.929  c-81.699,0-147.929-66.233-147.929-147.929s66.23-147.929,147.929-147.929C337.373,99.969,403.607,166.203,403.607,247.898z" data-original="#CCD1D9" class="" data-old_color="#CCD1D9"/><g>
	<path id="SVGCleanerId_0_1_" style="fill:#FFF39D" d="M403.607,247.898c0,81.695-66.234,147.929-147.929,147.929   c-81.699,0-147.929-66.233-147.929-147.929s66.23-147.929,147.929-147.929C337.373,99.969,403.607,166.203,403.607,247.898z" data-original="#CCD1D9" class="" data-old_color="#CCD1D9"/>
</g><g style="opacity:0.5;">
	<path style="fill:#000000" d="M139.733,247.898c0-76.288,57.765-139.054,131.936-147.031c-5.263-0.566-10.584-0.897-15.992-0.897   c-81.699,0-147.929,66.233-147.929,147.929s66.23,147.929,147.929,147.929c5.408,0,10.729-0.328,15.992-0.897   C197.498,386.956,139.733,324.189,139.733,247.898z" data-original="#FFFFFF" class="" data-old_color="#FFFFFF"/>
</g><g style="opacity:0.2;">
	<path d="M371.622,247.898c0,76.291-57.769,139.059-131.937,147.031c5.26,0.569,10.585,0.897,15.993,0.897   c81.695,0,147.929-66.233,147.929-147.929S337.373,99.968,255.678,99.968c-5.408,0-10.733,0.332-15.993,0.897   C313.853,108.844,371.622,171.61,371.622,247.898z" data-original="#000000" class="" style="fill:#FFFFFF" data-old_color="#000000"/>
</g><circle style="fill:#FFCE54" cx="247.684" cy="135.954" r="11.994" data-original="#AAB2BD" class="active-path" data-old_color="#AAB2BD"/><g style="opacity:0.2;">
	<path d="M243.683,135.952c0-5.212,3.351-9.604,7.996-11.26c-1.257-0.445-2.588-0.734-3.998-0.734   c-6.622,0-11.994,5.372-11.994,11.994s5.373,11.994,11.994,11.994c1.41,0,2.741-0.289,3.998-0.734   C247.034,145.556,243.683,141.164,243.683,135.952z" data-original="#000000" class="" style="fill:#FFFFFF" data-old_color="#000000"/>
</g><g>
	<path style="fill:#FFCE54" d="M291.661,163.938c-4.42,0-7.997,3.584-7.997,7.996c0,4.42,3.577,7.997,7.997,7.997   c4.419,0,7.996-3.577,7.996-7.997C299.657,167.522,296.08,163.938,291.661,163.938z" data-original="#AAB2BD" class="active-path" data-old_color="#AAB2BD"/>
	<path style="fill:#FFCE54" d="M227.691,195.923c-4.42,0-7.996,3.584-7.996,7.996c0,4.42,3.576,7.997,7.996,7.997   s7.996-3.577,7.996-7.997C235.687,199.507,232.111,195.923,227.691,195.923z" data-original="#AAB2BD" class="active-path" data-old_color="#AAB2BD"/>
	<path style="fill:#FFCE54" d="M275.667,235.904c-8.839,0-15.992,7.168-15.992,15.992c0,8.84,7.153,15.992,15.992,15.992   c8.84,0,15.993-7.152,15.993-15.992C291.661,243.072,284.507,235.904,275.667,235.904z" data-original="#AAB2BD" class="active-path" data-old_color="#AAB2BD"/>
</g><g style="opacity:0.2;">
	<path d="M267.671,251.896c0-7.438,5.107-13.642,11.994-15.426c-1.28-0.332-2.607-0.566-3.998-0.566   c-8.839,0-15.992,7.168-15.992,15.992c0,8.84,7.153,15.992,15.992,15.992c1.391,0,2.718-0.234,3.998-0.562   C272.779,265.545,267.671,259.345,267.671,251.896z" data-original="#000000" class="" style="fill:#FFFFFF" data-old_color="#000000"/>
</g><path style="fill:#FFCE54" d="M335.639,315.865c-6.63,0-11.994,5.373-11.994,11.994c0,6.638,5.364,11.995,11.994,11.995  s11.994-5.357,11.994-11.995C347.633,321.238,342.269,315.865,335.639,315.865z" data-original="#AAB2BD" class="active-path" data-old_color="#AAB2BD"/><g style="opacity:0.2;">
	<path d="M331.641,327.859c0-5.216,3.342-9.604,7.996-11.26c-1.257-0.445-2.593-0.734-3.998-0.734   c-6.63,0-11.994,5.373-11.994,11.994c0,6.638,5.364,11.995,11.994,11.995c1.405,0,2.741-0.289,3.998-0.734   C334.983,337.472,331.641,333.083,331.641,327.859z" data-original="#000000" class="" style="fill:#FFFFFF" data-old_color="#000000"/>
</g><g>
	<path style="fill:#FFCE54" d="M347.633,267.888c-4.42,0-7.996,3.576-7.996,7.996s3.576,7.996,7.996,7.996s7.996-3.576,7.996-7.996   S352.053,267.888,347.633,267.888z" data-original="#AAB2BD" class="active-path" data-old_color="#AAB2BD"/>
	<path style="fill:#FFCE54" d="M339.637,219.912c0,4.419,3.576,7.996,7.996,7.996s7.996-3.577,7.996-7.996   c0-4.42-3.576-7.996-7.996-7.996S339.637,215.492,339.637,219.912z" data-original="#AAB2BD" class="active-path" data-old_color="#AAB2BD"/>
	<path style="fill:#FFCE54" d="M167.72,187.927c-6.63,0-11.995,5.373-11.995,11.994c0,6.637,5.365,11.995,11.995,11.995   c6.629,0,11.994-5.357,11.994-11.995C179.714,193.299,174.35,187.927,167.72,187.927z" data-original="#AAB2BD" class="active-path" data-old_color="#AAB2BD"/>
</g><g style="opacity:0.2;">
	<path d="M163.722,199.921c0-5.212,3.346-9.609,7.996-11.26c-1.258-0.445-2.589-0.734-3.998-0.734   c-6.63,0-11.995,5.373-11.995,11.994c0,6.637,5.365,11.995,11.995,11.995c1.409,0,2.74-0.289,3.998-0.734   C167.068,209.534,163.722,205.145,163.722,199.921z" data-original="#000000" class="" style="fill:#FFFFFF" data-old_color="#000000"/>
</g><g>
	<path style="fill:#FFCE54" d="M339.637,171.934c4.42,0,7.996-3.576,7.996-7.996c0-4.419-3.576-7.996-7.996-7.996   s-7.996,3.577-7.996,7.996C331.641,168.358,335.217,171.934,339.637,171.934z" data-original="#AAB2BD" class="active-path" data-old_color="#AAB2BD"/>
	<path style="fill:#FFCE54" d="M215.697,283.88c-6.63,0-11.994,5.373-11.994,11.994c0,6.638,5.364,11.994,11.994,11.994   s11.994-5.356,11.994-11.994C227.691,289.253,222.327,283.88,215.697,283.88z" data-original="#AAB2BD" class="active-path" data-old_color="#AAB2BD"/>
</g><g style="opacity:0.2;">
	<path d="M211.699,295.874c0-5.216,3.346-9.604,7.996-11.26c-1.257-0.445-2.589-0.734-3.998-0.734   c-6.63,0-11.994,5.373-11.994,11.994c0,6.638,5.364,11.994,11.994,11.994c1.409,0,2.741-0.289,3.998-0.733   C215.045,305.488,211.699,301.099,211.699,295.874z" data-original="#000000" class="" style="fill:#FFFFFF" data-old_color="#000000"/>
</g><g>
	<path style="fill:#FFCE54" d="M187.71,339.854c-4.42,0-7.996,3.576-7.996,7.996c0,4.419,3.576,7.996,7.996,7.996   s7.996-3.577,7.996-7.996C195.706,343.43,192.13,339.854,187.71,339.854z" data-original="#AAB2BD" class="active-path" data-old_color="#AAB2BD"/>
	<path style="fill:#FFCE54" d="M259.675,347.85c-4.419,0-7.996,3.576-7.996,7.996s3.577,7.996,7.996,7.996   c4.42,0,7.996-3.576,7.996-7.996S264.095,347.85,259.675,347.85z" data-original="#AAB2BD" class="active-path" data-old_color="#AAB2BD"/>
	<path style="fill:#FFCE54" d="M139.733,251.896c-4.419,0-7.996,3.576-7.996,7.996s3.577,7.996,7.996,7.996   s7.996-3.576,7.996-7.996S144.153,251.896,139.733,251.896z" data-original="#AAB2BD" class="active-path" data-old_color="#AAB2BD"/>
</g><path style="fill:#AC92EC;" d="M95.754,419.815c0,4.42-3.58,7.997-7.996,7.997s-7.996-3.577-7.996-7.997  c0-4.419,3.58-7.996,7.996-7.996S95.754,415.396,95.754,419.815z" data-original="#AC92EC" class=""/><g>
	<path style="fill:#3A3847;" d="M371.856,47.994c-2.202,0-4.029-1.788-4.029-3.998c0-2.209,1.749-3.998,3.951-3.998h0.078   c2.218,0,3.998,1.789,3.998,3.998C375.854,46.206,374.074,47.994,371.856,47.994z" data-original="#3A3847" class=""/>
	<path style="fill:#3A3847;" d="M235.925,32.001c-2.206,0-4.037-1.788-4.037-3.998s1.749-3.998,3.959-3.998h0.078   c2.21,0,3.998,1.788,3.998,3.998S238.135,32.001,235.925,32.001z" data-original="#3A3847" class=""/>
	<path style="fill:#3A3847;" d="M52.014,127.956c-2.206,0-4.038-1.788-4.038-3.998s1.75-3.998,3.959-3.998h0.078   c2.209,0,3.998,1.788,3.998,3.998S54.224,127.956,52.014,127.956z" data-original="#3A3847" class=""/>
	<path style="fill:#3A3847;" d="M4.037,183.929c-2.206,0-4.037-1.789-4.037-3.998c0-2.21,1.749-3.998,3.959-3.998h0.078   c2.21,0,3.998,1.788,3.998,3.998C8.035,182.14,6.247,183.929,4.037,183.929z" data-original="#3A3847" class=""/>
	<path style="fill:#3A3847;" d="M99.991,367.84c-2.206,0-4.037-1.788-4.037-3.998s1.749-3.998,3.959-3.998h0.078   c2.21,0,3.998,1.788,3.998,3.998S102.201,367.84,99.991,367.84z" data-original="#3A3847" class=""/>
	<path style="fill:#3A3847;" d="M147.968,63.986c-2.206,0-4.037-1.789-4.037-3.998c0-2.21,1.749-3.998,3.959-3.998h0.078   c2.209,0,3.998,1.788,3.998,3.998C151.966,62.198,150.177,63.986,147.968,63.986z" data-original="#3A3847" class=""/>
	<path style="fill:#3A3847;" d="M307.887,63.986c-2.202,0-4.029-1.789-4.029-3.998c0-2.21,1.749-3.998,3.951-3.998h0.078   c2.218,0,3.998,1.788,3.998,3.998C311.885,62.198,310.105,63.986,307.887,63.986z" data-original="#3A3847" class=""/>
	<path style="fill:#3A3847;" d="M36.021,335.856c-2.206,0-4.037-1.788-4.037-3.998s1.75-3.999,3.959-3.999h0.078   c2.21,0,3.998,1.789,3.998,3.999S38.231,335.856,36.021,335.856z" data-original="#3A3847" class=""/>
	<path style="fill:#3A3847;" d="M219.933,431.81c-2.206,0-4.037-1.789-4.037-3.998c0-2.211,1.749-3.998,3.959-3.998h0.078   c2.21,0,3.998,1.787,3.998,3.998C223.931,430.021,222.143,431.81,219.933,431.81z" data-original="#3A3847" class=""/>
	<path style="fill:#3A3847;" d="M187.949,487.783c-2.206,0-4.037-1.788-4.037-3.998s1.749-3.998,3.959-3.998h0.078   c2.21,0,3.998,1.788,3.998,3.998S190.159,487.783,187.949,487.783z" data-original="#3A3847" class=""/>
	<path style="fill:#3A3847;" d="M411.837,471.79c-2.203,0-4.029-1.788-4.029-3.998s1.749-3.998,3.951-3.998h0.078   c2.217,0,3.998,1.788,3.998,3.998S414.054,471.79,411.837,471.79z" data-original="#3A3847" class=""/>
	<path style="fill:#3A3847;" d="M403.841,399.825c-2.203,0-4.029-1.788-4.029-3.998s1.748-3.998,3.951-3.998h0.078   c2.217,0,3.998,1.788,3.998,3.998S406.058,399.825,403.841,399.825z" data-original="#3A3847" class=""/>
	<path style="fill:#3A3847;" d="M323.879,463.794c-2.202,0-4.029-1.789-4.029-3.998c0-2.21,1.749-3.998,3.951-3.998h0.078   c2.218,0,3.998,1.788,3.998,3.998C327.877,462.005,326.097,463.794,323.879,463.794z" data-original="#3A3847" class=""/>
	<path style="fill:#3A3847;" d="M435.826,335.856c-2.202,0-4.029-1.788-4.029-3.998s1.749-3.999,3.951-3.999h0.078   c2.218,0,3.998,1.789,3.998,3.999S438.043,335.856,435.826,335.856z" data-original="#3A3847" class=""/>
	<path style="fill:#3A3847;" d="M491.798,271.886c-2.202,0-4.029-1.788-4.029-3.998s1.749-3.998,3.951-3.998h0.078   c2.218,0,3.998,1.788,3.998,3.998S494.016,271.886,491.798,271.886z" data-original="#3A3847" class=""/>
	<path style="fill:#3A3847;" d="M467.81,199.921c-2.202,0-4.029-1.788-4.029-3.998c0-2.209,1.749-3.998,3.951-3.998h0.078   c2.218,0,3.998,1.789,3.998,3.998C471.808,198.133,470.028,199.921,467.81,199.921z" data-original="#3A3847" class=""/>
	<path style="fill:#3A3847;" d="M507.79,143.948c-2.201,0-4.029-1.788-4.029-3.998s1.75-3.998,3.951-3.998h0.078   c2.218,0,3.998,1.788,3.998,3.998S510.008,143.948,507.79,143.948z" data-original="#3A3847" class=""/>
	<path style="fill:#3A3847;" d="M87.758,431.81c-6.614,0-11.994-5.381-11.994-11.995s5.38-11.994,11.994-11.994   s11.994,5.38,11.994,11.994S94.373,431.81,87.758,431.81z M87.758,415.817c-2.206,0-3.998,1.796-3.998,3.998   s1.792,3.999,3.998,3.999s3.998-1.797,3.998-3.999S89.964,415.817,87.758,415.817z" data-original="#3A3847" class=""/>
	<path style="fill:#3A3847;" d="M151.731,463.794c-0.269,0-0.539-0.031-0.812-0.078c-39.696-8.199-60.572-33.984-61.443-35.077   c-1.37-1.718-1.085-4.232,0.641-5.606c1.722-1.375,4.236-1.094,5.618,0.625c0.195,0.249,20.061,24.644,56.801,32.219   c2.163,0.453,3.553,2.561,3.108,4.731C155.253,462.498,153.59,463.794,151.731,463.794z" data-original="#3A3847" class=""/>
	<path style="fill:#3A3847;" d="M251.917,319.863c-2.206,0-4.037-1.787-4.037-3.998c0-2.209,1.749-3.998,3.959-3.998h0.078   c2.21,0,3.998,1.789,3.998,3.998C255.915,318.076,254.127,319.863,251.917,319.863z" data-original="#3A3847" class=""/>
	<path style="fill:#3A3847;" d="M171.956,319.863c-2.206,0-4.037-1.787-4.037-3.998c0-2.209,1.75-3.998,3.959-3.998h0.078   c2.21,0,3.999,1.789,3.999,3.998C175.955,318.076,174.166,319.863,171.956,319.863z" data-original="#3A3847" class=""/>
	<path style="fill:#3A3847;" d="M171.956,279.882c-2.206,0-4.037-1.788-4.037-3.998s1.75-3.998,3.959-3.998h0.078   c2.21,0,3.999,1.788,3.999,3.998S174.166,279.882,171.956,279.882z" data-original="#3A3847" class=""/>
	<path style="fill:#3A3847;" d="M219.933,255.894c-2.206,0-4.037-1.788-4.037-3.998s1.749-3.998,3.959-3.998h0.078   c2.21,0,3.998,1.788,3.998,3.998S222.143,255.894,219.933,255.894z" data-original="#3A3847" class=""/>
	<path style="fill:#3A3847;" d="M227.929,359.844c-2.206,0-4.037-1.788-4.037-3.998s1.749-3.998,3.959-3.998h0.078   c2.21,0,3.998,1.788,3.998,3.998S230.139,359.844,227.929,359.844z" data-original="#3A3847" class=""/>
	<path style="fill:#3A3847;" d="M299.891,351.848c-2.202,0-4.03-1.788-4.03-3.998s1.75-3.998,3.952-3.998h0.078   c2.218,0,3.998,1.788,3.998,3.998S302.109,351.848,299.891,351.848z" data-original="#3A3847" class=""/>
	<path style="fill:#3A3847;" d="M315.883,303.871c-2.202,0-4.029-1.788-4.029-3.998c0-2.209,1.749-3.998,3.951-3.998h0.078   c2.218,0,3.998,1.789,3.998,3.998S318.101,303.871,315.883,303.871z" data-original="#3A3847" class=""/>
	<path style="fill:#3A3847;" d="M283.898,295.874c-2.201,0-4.029-1.788-4.029-3.998c0-2.209,1.75-3.998,3.951-3.998h0.078   c2.219,0,3.998,1.789,3.998,3.998C287.896,294.086,286.117,295.874,283.898,295.874z" data-original="#3A3847" class=""/>
	<path style="fill:#3A3847;" d="M315.883,255.894c-2.202,0-4.029-1.788-4.029-3.998s1.749-3.998,3.951-3.998h0.078   c2.218,0,3.998,1.788,3.998,3.998S318.101,255.894,315.883,255.894z" data-original="#3A3847" class=""/>
	<path style="fill:#3A3847;" d="M307.887,215.914c-2.202,0-4.029-1.789-4.029-3.998c0-2.21,1.749-3.998,3.951-3.998h0.078   c2.218,0,3.998,1.788,3.998,3.998C311.885,214.125,310.105,215.914,307.887,215.914z" data-original="#3A3847" class=""/>
	<path style="fill:#3A3847;" d="M203.941,127.956c-2.206,0-4.037-1.788-4.037-3.998s1.749-3.998,3.959-3.998h0.078   c2.21,0,3.998,1.788,3.998,3.998S206.151,127.956,203.941,127.956z" data-original="#3A3847" class=""/>
	<path style="fill:#3A3847;" d="M211.937,167.936c-2.206,0-4.037-1.788-4.037-3.998c0-2.209,1.749-3.998,3.959-3.998h0.078   c2.21,0,3.998,1.789,3.998,3.998C215.935,166.148,214.147,167.936,211.937,167.936z" data-original="#3A3847" class=""/>
	<path style="fill:#3A3847;" d="M187.949,239.902c-2.206,0-4.037-1.788-4.037-3.998s1.749-3.998,3.959-3.998h0.078   c2.21,0,3.998,1.788,3.998,3.998S190.159,239.902,187.949,239.902z" data-original="#3A3847" class=""/>
	<path style="fill:#3A3847;" d="M139.971,231.906c-2.206,0-4.037-1.788-4.037-3.998s1.75-3.998,3.959-3.998h0.078   c2.21,0,3.998,1.788,3.998,3.998S142.181,231.906,139.971,231.906z" data-original="#3A3847" class=""/>
	<path style="fill:#3A3847;" d="M163.96,167.936c-2.206,0-4.037-1.788-4.037-3.998c0-2.209,1.75-3.998,3.959-3.998h0.078   c2.21,0,3.998,1.789,3.998,3.998C167.958,166.148,166.17,167.936,163.96,167.936z" data-original="#3A3847" class=""/>
	<path style="fill:#3A3847;" d="M259.914,215.914c-2.205,0-4.037-1.789-4.037-3.998c0-2.21,1.75-3.998,3.959-3.998h0.078   c2.21,0,3.994,1.788,3.994,3.998C263.908,214.125,262.123,215.914,259.914,215.914z" data-original="#3A3847" class=""/>
	<path style="fill:#3A3847;" d="M363.86,191.925c-2.202,0-4.029-1.788-4.029-3.998s1.749-3.998,3.951-3.998h0.078   c2.218,0,3.998,1.788,3.998,3.998S366.078,191.925,363.86,191.925z" data-original="#3A3847" class=""/>
	<path style="fill:#3A3847;" d="M299.891,143.948c-2.202,0-4.03-1.788-4.03-3.998s1.75-3.998,3.952-3.998h0.078   c2.218,0,3.998,1.788,3.998,3.998S302.109,143.948,299.891,143.948z" data-original="#3A3847" class=""/>
	<path style="fill:#3A3847;" d="M379.852,247.898c-2.202,0-4.029-1.788-4.029-3.998s1.749-3.998,3.951-3.998h0.078   c2.218,0,3.998,1.788,3.998,3.998S382.07,247.898,379.852,247.898z" data-original="#3A3847" class=""/>
	<path style="fill:#3A3847;" d="M363.86,311.867c-2.202,0-4.029-1.788-4.029-3.998c0-2.209,1.749-3.998,3.951-3.998h0.078   c2.218,0,3.998,1.789,3.998,3.998C367.858,310.079,366.078,311.867,363.86,311.867z" data-original="#3A3847" class=""/>
	<path style="fill:#3A3847;" d="M259.914,383.832c-2.205,0-4.037-1.788-4.037-3.998s1.75-3.998,3.959-3.998h0.078   c2.21,0,3.994,1.788,3.994,3.998S262.123,383.832,259.914,383.832z" data-original="#3A3847" class=""/>
	<path style="fill:#3A3847;" d="M255.678,399.825c-83.772,0-151.927-68.154-151.927-151.927S171.905,95.971,255.678,95.971   c83.772,0,151.927,68.154,151.927,151.927S339.45,399.825,255.678,399.825z M255.678,103.967   c-79.364,0-143.931,64.566-143.931,143.931c0,79.368,64.567,143.931,143.931,143.931c79.368,0,143.931-64.562,143.931-143.931   C399.609,168.534,335.045,103.967,255.678,103.967z" data-original="#3A3847" class=""/>
	<path style="fill:#3A3847;" d="M247.681,151.944c-8.819,0-15.992-7.172-15.992-15.992c0-8.82,7.173-15.992,15.992-15.992   c8.82,0,15.992,7.172,15.992,15.992C263.673,144.772,256.501,151.944,247.681,151.944z M247.681,127.956   c-4.408,0-7.996,3.588-7.996,7.996s3.588,7.996,7.996,7.996s7.997-3.588,7.997-7.996S252.089,127.956,247.681,127.956z" data-original="#3A3847" class=""/>
	<path style="fill:#3A3847;" d="M291.661,183.929c-6.614,0-11.995-5.38-11.995-11.995c0-6.614,5.381-11.994,11.995-11.994   s11.994,5.38,11.994,11.994S298.275,183.929,291.661,183.929z M291.661,167.936c-2.202,0-3.998,1.792-3.998,3.998   s1.796,3.999,3.998,3.999s3.998-1.792,3.998-3.999C295.659,169.728,293.863,167.936,291.661,167.936z" data-original="#3A3847" class=""/>
	<path style="fill:#3A3847;" d="M227.691,215.914c-6.614,0-11.994-5.381-11.994-11.995s5.38-11.994,11.994-11.994   s11.994,5.38,11.994,11.994S234.305,215.914,227.691,215.914z M227.691,199.921c-2.206,0-3.998,1.792-3.998,3.998   s1.792,3.999,3.998,3.999s3.998-1.792,3.998-3.999C231.689,201.713,229.897,199.921,227.691,199.921z" data-original="#3A3847" class=""/>
	<path style="fill:#3A3847;" d="M275.667,271.886c-11.025,0-19.99-8.969-19.99-19.99c0-11.022,8.964-19.99,19.99-19.99   s19.991,8.968,19.991,19.99C295.659,262.917,286.694,271.886,275.667,271.886z M275.667,239.902   c-6.613,0-11.994,5.38-11.994,11.994s5.381,11.994,11.994,11.994c6.614,0,11.995-5.38,11.995-11.994   S282.282,239.902,275.667,239.902z" data-original="#3A3847" class=""/>
	<path style="fill:#3A3847;" d="M335.639,343.852c-8.823,0-15.992-7.169-15.992-15.993c0-8.823,7.169-15.992,15.992-15.992   c8.824,0,15.992,7.169,15.992,15.992C351.631,336.683,344.463,343.852,335.639,343.852z M335.639,319.863   c-4.404,0-7.996,3.593-7.996,7.996c0,4.404,3.592,7.997,7.996,7.997s7.996-3.593,7.996-7.997   C343.635,323.456,340.043,319.863,335.639,319.863z" data-original="#3A3847" class=""/>
	<path style="fill:#3A3847;" d="M347.633,287.878c-6.614,0-11.994-5.38-11.994-11.994c0-6.613,5.38-11.994,11.994-11.994   s11.994,5.381,11.994,11.994C359.627,282.498,354.248,287.878,347.633,287.878z M347.633,271.886c-2.202,0-3.998,1.796-3.998,3.998   s1.796,3.998,3.998,3.998s3.998-1.796,3.998-3.998S349.835,271.886,347.633,271.886z" data-original="#3A3847" class=""/>
	<path style="fill:#3A3847;" d="M347.633,231.906c-6.614,0-11.994-5.38-11.994-11.994s5.38-11.994,11.994-11.994   s11.994,5.38,11.994,11.994C359.627,226.525,354.248,231.906,347.633,231.906z M347.633,215.914c-2.202,0-3.998,1.792-3.998,3.998   s1.796,3.998,3.998,3.998s3.998-1.792,3.998-3.998S349.835,215.914,347.633,215.914z" data-original="#3A3847" class=""/>
	<path style="fill:#3A3847;" d="M167.72,215.914c-8.82,0-15.993-7.173-15.993-15.993s7.172-15.992,15.993-15.992   c8.819,0,15.992,7.172,15.992,15.992S176.54,215.914,167.72,215.914z M167.72,191.925c-4.408,0-7.997,3.588-7.997,7.996   s3.588,7.997,7.997,7.997c4.408,0,7.996-3.588,7.996-7.997C175.716,195.513,172.128,191.925,167.72,191.925z" data-original="#3A3847" class=""/>
	<path style="fill:#3A3847;" d="M339.637,175.933c-6.614,0-11.994-5.38-11.994-11.995c0-6.614,5.38-11.994,11.994-11.994   s11.994,5.38,11.994,11.994S346.251,175.933,339.637,175.933z M339.637,159.94c-2.202,0-3.998,1.792-3.998,3.998   s1.796,3.998,3.998,3.998s3.998-1.792,3.998-3.998C343.635,161.732,341.839,159.94,339.637,159.94z" data-original="#3A3847" class=""/>
	<path style="fill:#3A3847;" d="M215.697,311.867c-8.82,0-15.992-7.168-15.992-15.992c0-8.823,7.172-15.992,15.992-15.992   c8.82,0,15.992,7.169,15.992,15.992C231.689,304.699,224.517,311.867,215.697,311.867z M215.697,287.878   c-4.408,0-7.996,3.592-7.996,7.996s3.588,7.996,7.996,7.996s7.996-3.592,7.996-7.996S220.105,287.878,215.697,287.878z" data-original="#3A3847" class=""/>
	<path style="fill:#3A3847;" d="M187.71,359.844c-6.614,0-11.994-5.38-11.994-11.994s5.38-11.994,11.994-11.994   s11.994,5.38,11.994,11.994S194.324,359.844,187.71,359.844z M187.71,343.852c-2.206,0-3.998,1.796-3.998,3.998   s1.792,3.998,3.998,3.998s3.998-1.796,3.998-3.998S189.916,343.852,187.71,343.852z" data-original="#3A3847" class=""/>
	<path style="fill:#3A3847;" d="M259.675,367.84c-6.613,0-11.994-5.38-11.994-11.994s5.381-11.994,11.994-11.994   c6.614,0,11.994,5.38,11.994,11.994S266.29,367.84,259.675,367.84z M259.675,351.848c-2.205,0-3.998,1.796-3.998,3.998   s1.792,3.998,3.998,3.998s3.998-1.796,3.998-3.998S261.881,351.848,259.675,351.848z" data-original="#3A3847" class=""/>
	<path style="fill:#3A3847;" d="M139.733,271.886c-6.614,0-11.995-5.38-11.995-11.994s5.381-11.994,11.995-11.994   s11.994,5.38,11.994,11.994C151.727,266.506,146.347,271.886,139.733,271.886z M139.733,255.894c-2.206,0-3.998,1.792-3.998,3.998   s1.792,3.998,3.998,3.998s3.998-1.792,3.998-3.998S141.939,255.894,139.733,255.894z" data-original="#3A3847" class=""/>
	<path style="fill:#3A3847;" d="M459.58,439.806c-2.21,0-3.998-1.789-3.998-3.998v-31.985c0-2.21,1.788-3.998,3.998-3.998   s3.998,1.788,3.998,3.998v31.985C463.578,438.017,461.79,439.806,459.58,439.806z" data-original="#3A3847" class=""/>
	<path style="fill:#3A3847;" d="M467.576,423.814h-15.992c-2.21,0-3.998-1.789-3.998-3.999s1.788-3.998,3.998-3.998h15.992   c2.21,0,3.998,1.788,3.998,3.998S469.786,423.814,467.576,423.814z" data-original="#3A3847" class=""/>
	<path style="fill:#3A3847;" d="M43.78,279.882c-2.21,0-3.998-1.788-3.998-3.998V243.9c0-2.21,1.788-3.998,3.998-3.998   c2.209,0,3.998,1.788,3.998,3.998v31.984C47.778,278.094,45.989,279.882,43.78,279.882z" data-original="#3A3847" class=""/>
	<path style="fill:#3A3847;" d="M51.776,263.89H35.783c-2.209,0-3.998-1.788-3.998-3.998s1.789-3.998,3.998-3.998h15.993   c2.21,0,3.998,1.788,3.998,3.998S53.986,263.89,51.776,263.89z" data-original="#3A3847" class=""/>
	<path style="fill:#3A3847;" d="M435.591,119.959c-19.842,0-35.982-16.141-35.982-35.982c0-19.842,16.141-35.983,35.982-35.983   s35.982,16.141,35.982,35.983C471.574,103.819,455.433,119.959,435.591,119.959z M435.591,55.99   c-15.43,0-27.986,12.556-27.986,27.987c0,15.43,12.557,27.986,27.986,27.986s27.986-12.557,27.986-27.986   C463.578,68.546,451.021,55.99,435.591,55.99z" data-original="#3A3847" class=""/>
	<path style="fill:#3A3847;" d="M420.676,83.543c-9.948,0-17.429-3.768-17.897-4.01c-1.952-1.012-2.718-3.413-1.718-5.373   c1.007-1.96,3.412-2.741,5.38-1.738c0.133,0.059,13.923,6.927,27.315,0.004c17.116-8.843,33.929-0.371,34.647,0   c1.952,1.012,2.717,3.413,1.718,5.373c-1.016,1.96-3.405,2.736-5.38,1.737c-0.133-0.062-13.924-6.919-27.315-0.004   C431.601,82.54,425.807,83.543,420.676,83.543z" data-original="#3A3847" class=""/>
	<path style="fill:#3A3847;" d="M420.676,99.536c-9.948,0-17.429-3.768-17.897-4.01c-1.952-1.011-2.718-3.412-1.718-5.373   c1.007-1.96,3.412-2.745,5.38-1.737c0.133,0.066,13.923,6.922,27.315,0.004c17.116-8.847,33.929-0.371,34.647,0   c1.952,1.011,2.717,3.413,1.718,5.373c-1.016,1.96-3.405,2.737-5.38,1.737c-0.133-0.062-13.924-6.919-27.315-0.004   C431.601,98.532,425.807,99.536,420.676,99.536z" data-original="#3A3847" class=""/>
</g></g> </svg>
