<?xml version="1.0" encoding="iso-8859-1"?>
<!-- Generator: Adobe Illustrator 19.0.0, SVG Export Plug-In . SVG Version: 6.00 Build 0)  -->
<svg version="1.1" id="Capa_1" xmlns="http://www.w3.org/2000/svg" xmlns:xlink="http://www.w3.org/1999/xlink" x="0px" y="0px"
	 viewBox="0 0 512.001 512.001" style="enable-background:new 0 0 512.001 512.001;" xml:space="preserve">
<rect x="181.68" y="222.97" style="fill:#867E88;" width="148.65" height="16.516"/>
<path style="fill:#DBD9DC;" d="M198.194,478.968V214.71c0-9.122-7.395-16.516-16.516-16.516l0,0
	c-9.122,0-16.516,7.395-16.516,16.516v264.258L198.194,478.968L198.194,478.968z"/>
<path style="fill:#C9C6CA;" d="M189.935,200.484c-2.438-1.419-5.234-2.291-8.258-2.291c-9.121,0-16.516,7.394-16.516,16.516v264.258
	h16.516V214.71C181.677,208.611,185.02,203.345,189.935,200.484z"/>
<path style="fill:#DBD9DC;" d="M346.839,478.968V214.71c0-9.122-7.395-16.516-16.516-16.516l0,0
	c-9.122,0-16.516,7.395-16.516,16.516v264.258L346.839,478.968L346.839,478.968z"/>
<path style="fill:#C9C6CA;" d="M338.581,200.484c-2.438-1.419-5.234-2.291-8.258-2.291c-9.121,0-16.516,7.394-16.516,16.516v264.258
	h16.516V214.71C330.323,208.611,333.665,203.345,338.581,200.484z"/>
<path style="fill:#867E88;" d="M198.194,478.968h-33.032l-6.305,25.221c-0.992,3.968,2.009,7.812,6.099,7.812H198.4
	c4.09,0,7.091-3.844,6.099-7.812L198.194,478.968z"/>
<path style="fill:#6F6571;" d="M181.419,495.484h20.904l-4.129-16.516h-33.032l-6.305,25.221c-0.992,3.968,2.009,7.811,6.099,7.811
	h6.097l2.616-10.465C174.558,497.979,177.753,495.484,181.419,495.484z"/>
<path style="fill:#867E88;" d="M346.839,478.968h-33.032l-6.305,25.221c-0.992,3.968,2.009,7.812,6.099,7.812h33.444
	c4.09,0,7.091-3.844,6.099-7.812L346.839,478.968z"/>
<path style="fill:#6F6571;" d="M330.064,495.484h20.904l-4.129-16.516h-33.032l-6.305,25.221c-0.992,3.968,2.009,7.811,6.099,7.811
	h6.097l2.616-10.465C323.203,497.979,326.398,495.484,330.064,495.484z"/>
<path style="fill:#DBD9DC;" d="M280.774,107.355h-49.548V470.71c0,4.561,3.697,8.258,8.258,8.258h33.032
	c4.561,0,8.258-3.697,8.258-8.258V107.355z"/>
<path style="fill:#867E88;" d="M272.516,478.968h-33.032l-6.305,25.221c-0.992,3.968,2.009,7.812,6.099,7.812h33.444
	c4.09,0,7.091-3.844,6.099-7.812L272.516,478.968z"/>
<path style="fill:#C9C6CA;" d="M264.258,132.129h16.516v-24.774h-49.548V470.71c0,4.561,3.697,8.258,8.258,8.258h8.258V148.645
	C247.742,139.524,255.136,132.129,264.258,132.129z"/>
<path style="fill:#EDEBED;" d="M280.774,115.613c4.561,0,8.258-3.697,8.258-8.258V73.687C289.032,32.99,274.243,0,256,0
	s-33.032,32.99-33.032,73.687v33.668c0,4.561,3.697,8.258,8.258,8.258H280.774z"/>
<path style="fill:#DBD9DC;" d="M247.742,107.355V73.687c0-30.917,8.544-57.344,20.645-68.281C264.559,1.947,260.384,0,256,0
	c-18.243,0-33.032,32.99-33.032,73.687v33.668c0,4.56,3.697,8.258,8.258,8.258H256C251.439,115.613,247.742,111.915,247.742,107.355
	z"/>
<path style="fill:#6F6571;" d="M255.742,495.484h20.904l-4.129-16.516h-33.032l-6.305,25.221c-0.992,3.968,2.009,7.811,6.099,7.811
	h6.097l2.616-10.465C248.88,497.979,252.076,495.484,255.742,495.484z"/>
<g>
	<rect x="313.81" y="222.97" style="fill:#9C969E;" width="33.03" height="16.516"/>
	<rect x="165.16" y="222.97" style="fill:#9C969E;" width="33.03" height="16.516"/>
</g>
<rect x="181.68" y="421.16" style="fill:#867E88;" width="148.65" height="16.516"/>
<g>
	<rect x="313.81" y="421.16" style="fill:#9C969E;" width="33.03" height="16.516"/>
	<rect x="165.16" y="421.16" style="fill:#9C969E;" width="33.03" height="16.516"/>
</g>
<g>
</g>
<g>
</g>
<g>
</g>
<g>
</g>
<g>
</g>
<g>
</g>
<g>
</g>
<g>
</g>
<g>
</g>
<g>
</g>
<g>
</g>
<g>
</g>
<g>
</g>
<g>
</g>
<g>
</g>
</svg>
