<?xml version="1.0" encoding="iso-8859-1"?>
<!-- Generator: Adobe Illustrator 19.0.0, SVG Export Plug-In . SVG Version: 6.00 Build 0)  -->
<svg version="1.1" id="Capa_1" xmlns="http://www.w3.org/2000/svg" xmlns:xlink="http://www.w3.org/1999/xlink" x="0px" y="0px"
	 viewBox="0 0 511.754 511.754" style="enable-background:new 0 0 511.754 511.754;" xml:space="preserve">
<g>
	<path style="fill:#E6E9ED;" d="M203.902,92.471c6.637,0,11.994,5.357,11.994,11.994s-5.357,11.995-11.994,11.995
		c-6.638,0-11.994-5.357-11.994-11.995S197.265,92.471,203.902,92.471z"/>
	<path style="fill:#E6E9ED;" d="M307.853,92.471c6.638,0,11.994,5.357,11.994,11.994s-5.356,11.995-11.994,11.995
		s-11.995-5.357-11.995-11.995S301.215,92.471,307.853,92.471z"/>
</g>
<path style="fill:#CCD1D9;" d="M463.777,180.429c13.275,0,23.988,10.714,23.988,23.988c0,13.275-10.713,23.989-23.988,23.989
	h-15.992h-31.984v-47.977H463.777z"/>
<path style="fill:#656D78;" d="M447.785,228.406v31.985v23.988v23.988v33.344v0.078c2.475-0.961,5.2-1.438,7.996-1.438
	c2.795,0,5.521,0.477,7.996,1.438v-0.078v-33.344v-23.988v-23.988v-31.985L447.785,228.406L447.785,228.406z"/>
<g>
	<path style="fill:#ED5565;" d="M431.793,364.341c0-10.472,6.637-19.351,15.992-22.552c2.475-0.961,5.2-1.438,7.996-1.438
		c2.795,0,5.521,0.477,7.996,1.438c9.354,3.201,15.992,12.08,15.992,22.552v23.988h-15.992v-23.988c0-4.396-3.6-7.997-7.996-7.997
		s-7.996,3.601-7.996,7.997v23.988h-15.992V364.341z"/>
	<path style="fill:#ED5565;" d="M319.847,428.31v15.992c0,35.343-28.627,63.97-63.97,63.97c-35.342,0-63.969-28.627-63.969-63.97
		V428.31H319.847z"/>
</g>
<g style="opacity:0.3;">
	<path style="fill:#FFFFFF;" d="M207.9,444.302v-7.996h-15.992v7.996c0,35.343,28.627,63.97,63.969,63.97
		c2.718,0,5.373-0.227,7.996-0.555C232.318,503.781,207.9,476.927,207.9,444.302z"/>
</g>
<g style="opacity:0.2;">
	<path d="M303.855,444.302v-7.996h15.992v7.996c0,35.343-28.627,63.97-63.97,63.97c-2.718,0-5.372-0.227-7.996-0.555
		C279.437,503.781,303.855,476.927,303.855,444.302z"/>
</g>
<g>
	<rect x="367.827" y="356.347" style="fill:#656D78;" width="15.992" height="15.993"/>
	<rect x="367.827" y="324.357" style="fill:#656D78;" width="15.992" height="15.992"/>
	<path style="fill:#656D78;" d="M167.919,340.352c4.396,0,7.997,3.601,7.997,7.996c0,4.396-3.601,7.996-7.997,7.996
		s-7.996-3.6-7.996-7.996S163.523,340.352,167.919,340.352z"/>
</g>
<path style="fill:#E6E9ED;" d="M135.935,372.337v-47.978c0-8.792,7.2-15.992,15.992-15.992h199.904
	c8.793,0,15.992,7.2,15.992,15.992v15.992v15.992v15.993c0,8.792-7.199,15.992-15.992,15.992H151.927
	C143.135,388.329,135.935,381.129,135.935,372.337z M159.923,348.348c0,4.396,3.601,7.996,7.996,7.996
	c4.396,0,7.997-3.6,7.997-7.996s-3.601-7.996-7.997-7.996C163.523,340.352,159.923,343.952,159.923,348.348z"/>
<path style="fill:#FFFFFF;" d="M143.931,372.337v-47.978c0-8.792,7.2-15.992,15.992-15.992h-7.996
	c-8.792,0-15.992,7.2-15.992,15.992v47.978c0,8.792,7.2,15.992,15.992,15.992h7.996
	C151.131,388.329,143.931,381.129,143.931,372.337z"/>
<g style="opacity:0.2;">
	<path d="M359.827,324.367v47.97c0,8.792-7.199,15.992-15.992,16l7.996-0.008c8.801,0.008,16-7.192,15.992-15.992v-47.97
		c0.008-8.8-7.191-16-15.992-15.992h-7.996C352.636,308.367,359.835,315.567,359.827,324.367z"/>
</g>
<path style="fill:#ED5565;" d="M55.974,340.352c2.795,0,5.521,0.477,7.996,1.438c9.354,3.201,15.992,12.08,15.992,22.552v23.988
	H63.97v-23.988c0-4.396-3.601-7.997-7.996-7.997c-4.396,0-7.997,3.601-7.997,7.997v23.988H31.984v-23.988
	c0-10.472,6.638-19.351,15.992-22.552C50.452,340.828,53.178,340.352,55.974,340.352z"/>
<g style="opacity:0.3;">
	<path style="fill:#FFFFFF;" d="M39.981,364.652c-0.133-10.471,6.388-19.436,15.704-22.754c1.39-0.562,2.881-0.938,4.404-1.188
		c-1.336-0.242-2.718-0.359-4.115-0.359c-2.796,0-5.521,0.477-7.997,1.438c-9.354,3.201-15.992,12.08-15.992,22.552v23.988h8.309
		L39.981,364.652z"/>
</g>
<g style="opacity:0.2;">
	<path d="M72.083,364.652c0.133-10.471-6.388-19.436-15.704-22.754c-1.39-0.562-2.881-0.938-4.403-1.188
		c1.335-0.242,2.717-0.359,4.114-0.359c2.796,0,5.521,0.477,7.997,1.438c9.354,3.201,15.992,12.08,15.992,22.552v23.988H71.77
		L72.083,364.652z"/>
</g>
<g style="opacity:0.3;">
	<path style="fill:#FFFFFF;" d="M439.727,364.652c-0.133-10.471,6.388-19.436,15.703-22.754c1.391-0.562,2.882-0.938,4.404-1.188
		c-1.336-0.242-2.718-0.359-4.115-0.359c-2.796,0-5.521,0.477-7.996,1.438c-9.355,3.201-15.992,12.08-15.992,22.552v23.988h8.309
		L439.727,364.652z"/>
</g>
<g style="opacity:0.2;">
	<path d="M471.828,364.652c0.133-10.471-6.388-19.436-15.703-22.754c-1.391-0.562-2.882-0.938-4.404-1.188
		c1.335-0.242,2.717-0.359,4.115-0.359c2.795,0,5.521,0.477,7.996,1.438c9.354,3.201,15.992,12.08,15.992,22.552v23.988h-8.309
		L471.828,364.652z"/>
</g>
<path style="fill:#656D78;" d="M47.977,228.406v31.985v23.988v23.988v33.344v0.078c2.476-0.961,5.201-1.438,7.997-1.438
	c2.795,0,5.521,0.477,7.996,1.438v-0.078v-33.344v-23.988v-23.988v-31.985L47.977,228.406L47.977,228.406z"/>
<path style="fill:#CCD1D9;" d="M95.954,181.952v46.454H63.97H47.977c-13.274,0-23.988-10.713-23.988-23.989
	c0-13.274,10.714-23.988,23.988-23.988h47.978L95.954,181.952L95.954,181.952z"/>
<g style="opacity:0.5;">
	<path style="fill:#FFFFFF;" d="M39.981,204.417c0-13.274,10.714-23.988,23.989-23.988H47.977
		c-13.274,0-23.988,10.714-23.988,23.988c0,13.275,10.714,23.989,23.988,23.989H63.97C50.694,228.406,39.981,217.692,39.981,204.417
		z"/>
</g>
<g style="opacity:0.2;">
	<path d="M471.773,204.417c0-13.274-10.714-23.988-23.988-23.988h15.992c13.275,0,23.988,10.714,23.988,23.988
		c0,13.275-10.713,23.989-23.988,23.989h-15.992C461.06,228.406,471.773,217.692,471.773,204.417z"/>
</g>
<path style="fill:#FFCE54;" d="M147.929,204.417c6.638,0,11.994,5.357,11.994,11.995s-5.356,11.994-11.994,11.994
	c-6.637,0-11.994-5.357-11.994-11.994S141.292,204.417,147.929,204.417z"/>
<g style="opacity:0.5;">
	<path style="fill:#FFFFFF;" d="M143.931,216.412c0-5.224,3.343-9.613,7.996-11.26c-1.257-0.445-2.584-0.734-3.998-0.734
		c-6.637,0-11.994,5.357-11.994,11.995s5.357,11.994,11.994,11.994c1.414,0,2.741-0.289,3.998-0.734
		C147.273,226.024,143.931,221.636,143.931,216.412z"/>
</g>
<g>
	<path style="fill:#FFFFFF;" d="M199.904,104.465c0-5.224,3.342-9.613,7.996-11.26c-1.258-0.445-2.585-0.734-3.998-0.734
		c-6.638,0-11.994,5.357-11.994,11.994s5.356,11.995,11.994,11.995c1.413,0,2.74-0.289,3.998-0.734
		C203.246,114.078,199.904,109.689,199.904,104.465z"/>
	<path style="fill:#FFFFFF;" d="M303.855,104.465c0-5.224,3.342-9.613,7.996-11.26c-1.258-0.445-2.585-0.734-3.998-0.734
		c-6.638,0-11.995,5.357-11.995,11.994s5.357,11.995,11.995,11.995c1.413,0,2.74-0.289,3.998-0.734
		C307.196,114.078,303.855,109.689,303.855,104.465z"/>
</g>
<polygon style="fill:#656D78;" points="255.877,204.417 271.869,204.417 287.861,204.417 303.855,204.417 319.847,204.417 
	319.847,228.406 255.877,228.406 191.908,228.406 191.908,204.417 207.9,204.417 223.893,204.417 239.885,204.417 "/>
<path style="fill:#FFCE54;" d="M363.825,204.417c6.638,0,11.994,5.357,11.994,11.995s-5.356,11.994-11.994,11.994
	s-11.994-5.357-11.994-11.994S357.188,204.417,363.825,204.417z"/>
<path style="fill:#E6E9ED;" d="M399.809,164.437c8.792,0,15.992,7.2,15.992,15.992v47.977v183.911
	c0,8.879-7.114,15.992-15.992,15.992h-79.962H191.908h-79.962c-8.879,0-15.992-7.113-15.992-15.992V228.406v-46.454v-1.523
	c0-8.792,7.113-15.992,15.992-15.992L399.809,164.437L399.809,164.437z M351.831,308.367H151.927c-8.792,0-15.992,7.2-15.992,15.992
	v47.978c0,8.792,7.2,15.992,15.992,15.992h199.904c8.793,0,15.992-7.2,15.992-15.992h15.992v-15.993h-15.992v-15.992h15.992V324.36
	h-15.992C367.823,315.567,360.624,308.367,351.831,308.367z M375.819,216.412c0-6.637-5.356-11.995-11.994-11.995
	s-11.994,5.357-11.994,11.995s5.356,11.994,11.994,11.994S375.819,223.049,375.819,216.412z M319.847,228.406v-23.989h-15.992
	h-15.993H271.87h-15.993h-15.992h-15.992h-15.992h-15.992v23.989h63.968L319.847,228.406L319.847,228.406z M159.923,216.412
	c0-6.637-5.356-11.995-11.994-11.995c-6.637,0-11.994,5.357-11.994,11.995s5.357,11.994,11.994,11.994
	C154.566,228.406,159.923,223.049,159.923,216.412z"/>
<g style="opacity:0.5;">
	<path style="fill:#FFFFFF;" d="M359.827,216.412c0-5.224,3.343-9.613,7.996-11.26c-1.257-0.445-2.585-0.734-3.998-0.734
		c-6.638,0-11.994,5.357-11.994,11.995s5.356,11.994,11.994,11.994c1.413,0,2.741-0.289,3.998-0.734
		C363.17,226.024,359.827,221.636,359.827,216.412z"/>
</g>
<path style="fill:#FFFFFF;" d="M111.946,412.317V228.406v-46.454v-1.523c0-8.792,7.113-15.992,15.992-15.992h-15.992
	c-8.879,0-15.992,7.2-15.992,15.992v1.523v46.454v183.911c0,8.879,7.113,15.992,15.992,15.992h15.992
	C119.06,428.31,111.946,421.196,111.946,412.317z"/>
<g style="opacity:0.2;">
	<path d="M399.809,412.317V228.406v-46.454v-1.523c0-8.792-7.114-15.992-15.993-15.992h15.993c8.878,0,15.992,7.2,15.992,15.992
		v1.523v46.454v183.911c0,8.879-7.114,15.992-15.992,15.992h-15.993C392.694,428.31,399.809,421.196,399.809,412.317z"/>
</g>
<path style="fill:#5D9CEC;" d="M399.809,164.437H111.946v-15.992c0-79.486,64.446-143.931,143.931-143.931
	s143.932,64.445,143.932,143.931V164.437z M319.847,104.465c0-6.637-5.356-11.994-11.994-11.994s-11.995,5.357-11.995,11.994
	s5.357,11.995,11.995,11.995S319.847,111.103,319.847,104.465z M215.897,104.465c0-6.637-5.357-11.994-11.994-11.994
	c-6.638,0-11.994,5.357-11.994,11.994s5.356,11.995,11.994,11.995C210.539,116.46,215.897,111.103,215.897,104.465z"/>
<g style="opacity:0.3;">
	<path style="fill:#FFFFFF;" d="M267.871,5.123c-3.967-0.328-7.941-0.609-11.994-0.609c-79.485,0-143.931,64.445-143.931,143.931
		v7.996h23.988v-7.996C135.935,73.012,194.009,11.229,267.871,5.123z"/>
</g>
<g style="opacity:0.2;">
	<path d="M243.883,5.123c3.967-0.328,7.941-0.609,11.994-0.609c79.485,0,143.932,64.445,143.932,143.931v7.996H375.82v-7.996
		C375.819,73.012,317.746,11.229,243.883,5.123z"/>
</g>
<g style="opacity:0.2;">
	<rect x="111.947" y="156.437" width="287.86" height="7.996"/>
</g>
<g style="opacity:0.2;">
	<rect x="87.957" y="180.427" width="7.996" height="47.977"/>
</g>
<g style="opacity:0.2;">
	<rect x="415.797" y="180.427" width="7.996" height="47.977"/>
</g>
<g style="opacity:0.2;">
	<rect x="191.907" y="428.307" width="127.94" height="7.996"/>
</g>
<g style="opacity:0.2;">
	<rect x="367.827" y="324.367" width="7.996" height="15.984"/>
</g>
<g style="opacity:0.2;">
	<rect x="367.827" y="356.357" width="7.996" height="15.985"/>
</g>
<g style="opacity:0.2;">
	<path style="fill:#FFFFFF;" d="M47.977,228.406v31.985v23.988v23.988v33.344v0.078c2.476-0.961,5.201-1.438,7.997-1.438V228.406
		H47.977z"/>
</g>
<g style="opacity:0.2;">
	<path d="M455.781,340.352c2.795,0,5.521,0.477,7.996,1.438v-0.078v-33.345v-23.988v-23.988v-31.985h-7.996V340.352z"/>
</g>
<g style="opacity:0.2;">
	<rect x="191.907" y="204.417" style="fill:#FFFFFF;" width="127.94" height="7.981"/>
</g>
<g>
	<path style="fill:#3A3847;" d="M399.809,151.927c-2.211,0-3.998-1.788-3.998-3.998c0-77.158-62.776-139.933-139.934-139.933
		S115.944,70.771,115.944,147.929c0,2.21-1.788,3.998-3.998,3.998s-3.998-1.788-3.998-3.998C107.948,66.358,174.307,0,255.877,0
		s147.93,66.358,147.93,147.929C403.807,150.139,402.018,151.927,399.809,151.927z"/>
	<path style="fill:#3A3847;" d="M399.801,167.919H111.946c-2.21,0-3.998-1.788-3.998-3.998c0-2.209,1.788-3.998,3.998-3.998H399.8
		c2.209,0,3.998,1.789,3.998,3.998C403.799,166.131,402.01,167.919,399.801,167.919z"/>
	<path style="fill:#3A3847;" d="M95.954,183.919c-2.21,0-3.998-1.789-3.998-3.998c0-11.026,8.964-19.991,19.99-19.991
		c2.21,0,3.998,1.788,3.998,3.998s-1.788,3.998-3.998,3.998c-6.614,0-11.994,5.381-11.994,11.995
		C99.952,182.131,98.164,183.919,95.954,183.919z"/>
	<path style="fill:#3A3847;" d="M415.793,183.919c-2.21,0-3.998-1.789-3.998-3.998c0-6.614-5.381-11.995-11.994-11.995
		c-2.211,0-3.998-1.788-3.998-3.998s1.787-3.998,3.998-3.998c11.025,0,19.99,8.965,19.99,19.991
		C419.791,182.131,418.002,183.919,415.793,183.919z"/>
	<path style="fill:#3A3847;" d="M95.954,415.8c-2.21,0-3.998-1.788-3.998-3.998V181.421c0-2.21,1.788-3.998,3.998-3.998
		s3.998,1.788,3.998,3.998v230.381C99.952,414.012,98.164,415.8,95.954,415.8z"/>
	<path style="fill:#3A3847;" d="M399.809,431.793H111.946c-2.21,0-3.998-1.789-3.998-3.998c0-2.211,1.788-3.998,3.998-3.998h287.862
		c2.209,0,3.998,1.787,3.998,3.998C403.807,430.004,402.018,431.793,399.809,431.793z"/>
	<path style="fill:#3A3847;" d="M415.801,415.8c-2.21,0-3.998-1.788-3.998-3.998v-231.88c0-2.21,1.788-3.998,3.998-3.998
		c2.209,0,3.998,1.788,3.998,3.998v231.88C419.799,414.012,418.01,415.8,415.801,415.8z"/>
	<path style="fill:#3A3847;" d="M111.946,431.793c-11.026,0-19.99-8.965-19.99-19.991c0-2.21,1.788-3.998,3.998-3.998
		s3.998,1.788,3.998,3.998c0,6.614,5.38,11.995,11.994,11.995c2.21,0,3.998,1.787,3.998,3.998
		C115.944,430.004,114.156,431.793,111.946,431.793z"/>
	<path style="fill:#3A3847;" d="M399.809,431.793c-2.211,0-3.998-1.789-3.998-3.998c0-2.211,1.787-3.998,3.998-3.998
		c6.613,0,11.994-5.381,11.994-11.995c0-2.21,1.788-3.998,3.998-3.998c2.209,0,3.998,1.788,3.998,3.998
		C419.799,422.828,410.834,431.793,399.809,431.793z"/>
	<path style="fill:#3A3847;" d="M255.877,511.754c-37.474,0-67.967-30.493-67.967-67.967c0-2.21,1.788-3.998,3.998-3.998
		s3.998,1.788,3.998,3.998c0,33.069,26.9,59.971,59.971,59.971s59.972-26.901,59.972-59.971c0-2.21,1.788-3.998,3.998-3.998
		s3.998,1.788,3.998,3.998C323.845,481.261,293.352,511.754,255.877,511.754z"/>
	<path style="fill:#3A3847;" d="M47.977,231.889c-15.43,0-27.986-12.557-27.986-27.987s12.556-27.979,27.986-27.979
		c2.21,0,3.999,1.788,3.999,3.998c0,2.209-1.789,3.998-3.999,3.998c-11.025,0-19.99,8.964-19.99,19.982
		c0,11.026,8.965,19.991,19.99,19.991c2.21,0,3.999,1.788,3.999,3.998S50.187,231.889,47.977,231.889z"/>
	<path style="fill:#3A3847;" d="M47.977,335.839c-2.209,0-3.998-1.788-3.998-3.998v-95.954c0-2.21,1.789-3.998,3.998-3.998
		c2.21,0,3.999,1.788,3.999,3.998v95.954C51.976,334.051,50.187,335.839,47.977,335.839z"/>
	<path style="fill:#3A3847;" d="M63.97,335.839c-2.21,0-3.998-1.788-3.998-3.998v-95.954c0-2.21,1.788-3.998,3.998-3.998
		c2.21,0,3.998,1.788,3.998,3.998v95.954C67.968,334.051,66.18,335.839,63.97,335.839z"/>
	<path style="fill:#3A3847;" d="M79.962,367.823c-2.21,0-3.998-1.788-3.998-3.998c0-11.026-8.965-19.99-19.99-19.99
		c-11.026,0-19.991,8.964-19.991,19.99c0,2.21-1.788,3.998-3.998,3.998s-3.998-1.788-3.998-3.998
		c0-15.431,12.557-27.986,27.987-27.986s27.986,12.556,27.986,27.986C83.96,366.035,82.172,367.823,79.962,367.823z"/>
	<path style="fill:#3A3847;" d="M63.97,367.823c-2.21,0-3.998-1.788-3.998-3.998c0-2.202-1.797-3.998-3.998-3.998
		c-2.202,0-3.998,1.796-3.998,3.998c0,2.21-1.789,3.998-3.999,3.998c-2.209,0-3.998-1.788-3.998-3.998
		c0-6.614,5.381-11.994,11.995-11.994c6.613,0,11.994,5.38,11.994,11.994C67.968,366.035,66.18,367.823,63.97,367.823z"/>
	<path style="fill:#3A3847;" d="M47.977,391.812H31.984c-2.21,0-3.998-1.788-3.998-3.998s1.788-3.998,3.998-3.998h15.993
		c2.21,0,3.999,1.788,3.999,3.998S50.187,391.812,47.977,391.812z"/>
	<path style="fill:#3A3847;" d="M79.962,391.812H63.97c-2.21,0-3.998-1.788-3.998-3.998s1.788-3.998,3.998-3.998h15.992
		c2.21,0,3.998,1.788,3.998,3.998S82.172,391.812,79.962,391.812z"/>
	<path style="fill:#3A3847;" d="M47.977,391.812c-2.209,0-3.998-1.788-3.998-3.998v-23.988c0-2.21,1.789-3.998,3.998-3.998
		c2.21,0,3.999,1.788,3.999,3.998v23.988C51.976,390.023,50.187,391.812,47.977,391.812z"/>
	<path style="fill:#3A3847;" d="M31.984,391.812c-2.21,0-3.998-1.788-3.998-3.998v-23.988c0-2.21,1.788-3.998,3.998-3.998
		s3.998,1.788,3.998,3.998v23.988C35.982,390.023,34.194,391.812,31.984,391.812z"/>
	<path style="fill:#3A3847;" d="M63.97,391.812c-2.21,0-3.998-1.788-3.998-3.998v-23.988c0-2.21,1.788-3.998,3.998-3.998
		c2.21,0,3.998,1.788,3.998,3.998v23.988C67.968,390.023,66.18,391.812,63.97,391.812z"/>
	<path style="fill:#3A3847;" d="M79.962,391.812c-2.21,0-3.998-1.788-3.998-3.998v-23.988c0-2.21,1.788-3.998,3.998-3.998
		s3.998,1.788,3.998,3.998v23.988C83.96,390.023,82.172,391.812,79.962,391.812z"/>
	<path style="fill:#3A3847;" d="M67.968,311.85H43.979c-2.209,0-3.998-1.788-3.998-3.998c0-2.209,1.789-3.998,3.998-3.998h23.989
		c2.21,0,3.998,1.789,3.998,3.998C71.966,310.062,70.178,311.85,67.968,311.85z"/>
	<path style="fill:#3A3847;" d="M67.968,287.861H43.979c-2.209,0-3.998-1.788-3.998-3.998s1.789-3.998,3.998-3.998h23.989
		c2.21,0,3.998,1.788,3.998,3.998S70.178,287.861,67.968,287.861z"/>
	<path style="fill:#3A3847;" d="M67.968,263.873H43.979c-2.209,0-3.998-1.788-3.998-3.998s1.789-3.998,3.998-3.998h23.989
		c2.21,0,3.998,1.788,3.998,3.998S70.178,263.873,67.968,263.873z"/>
	<path style="fill:#3A3847;" d="M87.958,183.919H47.977c-2.209,0-3.998-1.789-3.998-3.998c0-2.21,1.789-3.998,3.998-3.998h39.981
		c2.21,0,3.998,1.788,3.998,3.998C91.956,182.131,90.168,183.919,87.958,183.919z"/>
	<path style="fill:#3A3847;" d="M87.958,231.889H47.977c-2.209,0-3.998-1.788-3.998-3.998s1.789-3.998,3.998-3.998h39.981
		c2.21,0,3.998,1.788,3.998,3.998S90.168,231.889,87.958,231.889z"/>
	<path style="fill:#3A3847;" d="M463.777,231.889c-2.21,0-3.998-1.788-3.998-3.998s1.788-3.998,3.998-3.998
		c11.025,0,19.99-8.965,19.99-19.991c0-11.018-8.965-19.982-19.99-19.982c-2.21,0-3.998-1.789-3.998-3.998
		c0-2.21,1.788-3.998,3.998-3.998c15.43,0,27.986,12.548,27.986,27.979S479.207,231.889,463.777,231.889z"/>
	<path style="fill:#3A3847;" d="M463.777,335.839c-2.21,0-3.998-1.788-3.998-3.998v-95.954c0-2.21,1.788-3.998,3.998-3.998
		s3.998,1.788,3.998,3.998v95.954C467.775,334.051,465.987,335.839,463.777,335.839z"/>
	<path style="fill:#3A3847;" d="M447.785,335.839c-2.21,0-3.998-1.788-3.998-3.998v-95.954c0-2.21,1.788-3.998,3.998-3.998
		s3.998,1.788,3.998,3.998v95.954C451.783,334.051,449.995,335.839,447.785,335.839z"/>
	<path style="fill:#3A3847;" d="M479.77,367.823c-2.21,0-3.998-1.788-3.998-3.998c0-11.026-8.965-19.99-19.99-19.99
		c-11.026,0-19.99,8.964-19.99,19.99c0,2.21-1.789,3.998-3.998,3.998c-2.21,0-3.998-1.788-3.998-3.998
		c0-15.431,12.557-27.986,27.986-27.986s27.986,12.556,27.986,27.986C483.768,366.035,481.98,367.823,479.77,367.823z"/>
	<path style="fill:#3A3847;" d="M463.777,367.823c-2.21,0-3.998-1.788-3.998-3.998c0-2.202-1.796-3.998-3.998-3.998
		s-3.998,1.796-3.998,3.998c0,2.21-1.788,3.998-3.998,3.998s-3.998-1.788-3.998-3.998c0-6.614,5.38-11.994,11.994-11.994
		s11.994,5.38,11.994,11.994C467.775,366.035,465.987,367.823,463.777,367.823z"/>
	<path style="fill:#3A3847;" d="M479.77,391.812h-15.993c-2.21,0-3.998-1.788-3.998-3.998s1.788-3.998,3.998-3.998h15.992
		c2.21,0,3.998,1.788,3.998,3.998S481.98,391.812,479.77,391.812z"/>
	<path style="fill:#3A3847;" d="M447.785,391.812h-15.992c-2.21,0-3.998-1.788-3.998-3.998s1.788-3.998,3.998-3.998h15.992
		c2.21,0,3.998,1.788,3.998,3.998S449.995,391.812,447.785,391.812z"/>
	<path style="fill:#3A3847;" d="M463.777,391.812c-2.21,0-3.998-1.788-3.998-3.998v-23.988c0-2.21,1.788-3.998,3.998-3.998
		s3.998,1.788,3.998,3.998v23.988C467.775,390.023,465.987,391.812,463.777,391.812z"/>
	<path style="fill:#3A3847;" d="M479.77,391.812c-2.21,0-3.998-1.788-3.998-3.998v-23.988c0-2.21,1.788-3.998,3.998-3.998
		s3.998,1.788,3.998,3.998v23.988C483.768,390.023,481.98,391.812,479.77,391.812z"/>
	<path style="fill:#3A3847;" d="M447.785,391.812c-2.21,0-3.998-1.788-3.998-3.998v-23.988c0-2.21,1.788-3.998,3.998-3.998
		s3.998,1.788,3.998,3.998v23.988C451.783,390.023,449.995,391.812,447.785,391.812z"/>
	<path style="fill:#3A3847;" d="M431.793,391.812c-2.21,0-3.998-1.788-3.998-3.998v-23.988c0-2.21,1.788-3.998,3.998-3.998
		c2.209,0,3.998,1.788,3.998,3.998v23.988C435.791,390.023,434.002,391.812,431.793,391.812z"/>
	<path style="fill:#3A3847;" d="M467.775,311.85h-23.988c-2.21,0-3.998-1.788-3.998-3.998c0-2.209,1.788-3.998,3.998-3.998h23.988
		c2.21,0,3.998,1.789,3.998,3.998C471.773,310.062,469.985,311.85,467.775,311.85z"/>
	<path style="fill:#3A3847;" d="M467.775,287.861h-23.988c-2.21,0-3.998-1.788-3.998-3.998s1.788-3.998,3.998-3.998h23.988
		c2.21,0,3.998,1.788,3.998,3.998S469.985,287.861,467.775,287.861z"/>
	<path style="fill:#3A3847;" d="M467.775,263.873h-23.988c-2.21,0-3.998-1.788-3.998-3.998s1.788-3.998,3.998-3.998h23.988
		c2.21,0,3.998,1.788,3.998,3.998S469.985,263.873,467.775,263.873z"/>
	<path style="fill:#3A3847;" d="M463.777,183.919h-39.98c-2.21,0-3.998-1.789-3.998-3.998c0-2.21,1.788-3.998,3.998-3.998h39.98
		c2.21,0,3.998,1.788,3.998,3.998C467.775,182.131,465.987,183.919,463.777,183.919z"/>
	<path style="fill:#3A3847;" d="M463.777,231.889h-39.98c-2.21,0-3.998-1.788-3.998-3.998s1.788-3.998,3.998-3.998h39.98
		c2.21,0,3.998,1.788,3.998,3.998S465.987,231.889,463.777,231.889z"/>
	<path style="fill:#3A3847;" d="M307.853,119.942c-8.816,0-15.993-7.176-15.993-15.992s7.177-15.992,15.993-15.992
		c8.815,0,15.992,7.176,15.992,15.992C323.845,112.766,316.668,119.942,307.853,119.942z M307.853,95.954
		c-4.412,0-7.996,3.584-7.996,7.996s3.584,7.996,7.996,7.996c4.411,0,7.996-3.584,7.996-7.996S312.264,95.954,307.853,95.954z"/>
	<path style="fill:#3A3847;" d="M203.902,119.942c-8.816,0-15.992-7.176-15.992-15.992s7.176-15.992,15.992-15.992
		c8.815,0,15.992,7.176,15.992,15.992C219.895,112.766,212.718,119.942,203.902,119.942z M203.902,95.954
		c-4.412,0-7.996,3.584-7.996,7.996s3.584,7.996,7.996,7.996s7.996-3.584,7.996-7.996S208.315,95.954,203.902,95.954z"/>
	<path style="fill:#3A3847;" d="M223.893,151.927c-2.21,0-3.998-1.788-3.998-3.998v-7.996c0-2.21,1.788-3.998,3.998-3.998
		s3.998,1.788,3.998,3.998v7.996C227.891,150.139,226.103,151.927,223.893,151.927z"/>
	<path style="fill:#3A3847;" d="M287.861,151.927h-63.969c-2.21,0-3.998-1.788-3.998-3.998s1.788-3.998,3.998-3.998h63.969
		c2.211,0,3.998,1.788,3.998,3.998S290.072,151.927,287.861,151.927z"/>
	<path style="fill:#3A3847;" d="M287.861,151.927c-2.209,0-3.998-1.788-3.998-3.998v-7.996c0-2.21,1.789-3.998,3.998-3.998
		c2.211,0,3.998,1.788,3.998,3.998v7.996C291.859,150.139,290.072,151.927,287.861,151.927z"/>
	<path style="fill:#3A3847;" d="M319.847,231.889H191.908c-2.21,0-3.998-1.788-3.998-3.998v-23.989c0-2.209,1.788-3.998,3.998-3.998
		h127.939c2.21,0,3.998,1.789,3.998,3.998v23.989C323.845,230.101,322.057,231.889,319.847,231.889z M195.906,223.893h119.942
		v-15.992H195.906V223.893z"/>
	<path style="fill:#3A3847;" d="M255.877,231.889c-2.21,0-3.998-1.788-3.998-3.998v-7.996c0-2.21,1.788-3.998,3.998-3.998
		c2.21,0,3.998,1.788,3.998,3.998v7.996C259.875,230.101,258.087,231.889,255.877,231.889z"/>
	<path style="fill:#3A3847;" d="M207.9,211.898c-2.21,0-3.998-1.789-3.998-3.998v-3.999c0-2.209,1.788-3.998,3.998-3.998
		s3.998,1.789,3.998,3.998v3.999C211.898,210.11,210.11,211.898,207.9,211.898z"/>
	<path style="fill:#3A3847;" d="M223.893,211.898c-2.21,0-3.998-1.789-3.998-3.998v-3.999c0-2.209,1.788-3.998,3.998-3.998
		s3.998,1.789,3.998,3.998v3.999C227.891,210.11,226.103,211.898,223.893,211.898z"/>
	<path style="fill:#3A3847;" d="M239.885,211.898c-2.21,0-3.998-1.789-3.998-3.998v-3.999c0-2.209,1.788-3.998,3.998-3.998
		s3.998,1.789,3.998,3.998v3.999C243.883,210.11,242.095,211.898,239.885,211.898z"/>
	<path style="fill:#3A3847;" d="M255.877,211.898c-2.21,0-3.998-1.789-3.998-3.998v-3.999c0-2.209,1.788-3.998,3.998-3.998
		c2.21,0,3.998,1.789,3.998,3.998v3.999C259.875,210.11,258.087,211.898,255.877,211.898z"/>
	<path style="fill:#3A3847;" d="M271.869,211.898c-2.209,0-3.998-1.789-3.998-3.998v-3.999c0-2.209,1.789-3.998,3.998-3.998
		c2.21,0,3.998,1.789,3.998,3.998v3.999C275.867,210.11,274.079,211.898,271.869,211.898z"/>
	<path style="fill:#3A3847;" d="M287.861,211.898c-2.209,0-3.998-1.789-3.998-3.998v-3.999c0-2.209,1.789-3.998,3.998-3.998
		c2.211,0,3.998,1.789,3.998,3.998v3.999C291.859,210.11,290.072,211.898,287.861,211.898z"/>
	<path style="fill:#3A3847;" d="M303.855,211.898c-2.21,0-3.998-1.789-3.998-3.998v-3.999c0-2.209,1.788-3.998,3.998-3.998
		s3.998,1.789,3.998,3.998v3.999C307.853,210.11,306.065,211.898,303.855,211.898z"/>
	<path style="fill:#3A3847;" d="M351.831,391.812H151.927c-11.025,0-19.99-8.964-19.99-19.99v-47.978
		c0-11.025,8.965-19.99,19.99-19.99h199.904c11.026,0,19.99,8.965,19.99,19.99v47.978
		C371.821,382.848,362.857,391.812,351.831,391.812z M151.927,311.85c-6.613,0-11.994,5.381-11.994,11.994v47.978
		c0,6.614,5.381,11.994,11.994,11.994h199.904c6.614,0,11.994-5.38,11.994-11.994v-47.978c0-6.613-5.38-11.994-11.994-11.994
		H151.927z"/>
	<path style="fill:#3A3847;" d="M383.815,327.842h-7.996c-2.21,0-3.998-1.787-3.998-3.998c0-2.209,1.788-3.998,3.998-3.998h7.996
		c2.21,0,3.998,1.789,3.998,3.998C387.814,326.055,386.025,327.842,383.815,327.842z"/>
	<path style="fill:#3A3847;" d="M383.815,343.835h-7.996c-2.21,0-3.998-1.788-3.998-3.998s1.788-3.998,3.998-3.998h7.996
		c2.21,0,3.998,1.788,3.998,3.998S386.025,343.835,383.815,343.835z"/>
	<path style="fill:#3A3847;" d="M383.815,359.827h-7.996c-2.21,0-3.998-1.788-3.998-3.998s1.788-3.998,3.998-3.998h7.996
		c2.21,0,3.998,1.788,3.998,3.998S386.025,359.827,383.815,359.827z"/>
	<path style="fill:#3A3847;" d="M383.815,375.819h-7.996c-2.21,0-3.998-1.788-3.998-3.998s1.788-3.998,3.998-3.998h7.996
		c2.21,0,3.998,1.788,3.998,3.998S386.025,375.819,383.815,375.819z"/>
	<path style="fill:#3A3847;" d="M383.815,343.835c-2.21,0-3.998-1.788-3.998-3.998v-15.993c0-2.209,1.788-3.998,3.998-3.998
		s3.998,1.789,3.998,3.998v15.993C387.814,342.047,386.025,343.835,383.815,343.835z"/>
	<path style="fill:#3A3847;" d="M383.815,375.819c-2.21,0-3.998-1.788-3.998-3.998v-15.992c0-2.21,1.788-3.998,3.998-3.998
		s3.998,1.788,3.998,3.998v15.992C387.814,374.031,386.025,375.819,383.815,375.819z"/>
	<path style="fill:#3A3847;" d="M167.919,359.827c-6.613,0-11.994-5.38-11.994-11.994s5.381-11.994,11.994-11.994
		c6.614,0,11.995,5.38,11.995,11.994S174.533,359.827,167.919,359.827z M167.919,343.835c-2.201,0-3.998,1.796-3.998,3.998
		s1.797,3.998,3.998,3.998c2.202,0,3.998-1.796,3.998-3.998S170.121,343.835,167.919,343.835z"/>
	<path style="fill:#3A3847;" d="M147.929,231.889c-8.815,0-15.992-7.177-15.992-15.992c0-8.816,7.177-15.993,15.992-15.993
		c8.816,0,15.992,7.176,15.992,15.993C163.921,224.712,156.745,231.889,147.929,231.889z M147.929,207.9
		c-4.412,0-7.996,3.584-7.996,7.996s3.584,7.996,7.996,7.996s7.996-3.584,7.996-7.996S152.341,207.9,147.929,207.9z"/>
	<path style="fill:#3A3847;" d="M363.825,231.889c-8.815,0-15.992-7.177-15.992-15.992c0-8.816,7.177-15.993,15.992-15.993
		c8.816,0,15.992,7.176,15.992,15.993C379.817,224.712,372.642,231.889,363.825,231.889z M363.825,207.9
		c-4.412,0-7.996,3.584-7.996,7.996s3.584,7.996,7.996,7.996s7.996-3.584,7.996-7.996S368.237,207.9,363.825,207.9z"/>
	<path style="fill:#3A3847;" d="M191.908,279.865c-2.21,0-3.998-1.788-3.998-3.998v-7.996c0-2.21,1.788-3.998,3.998-3.998
		s3.998,1.788,3.998,3.998v7.996C195.906,278.077,194.118,279.865,191.908,279.865z"/>
	<path style="fill:#3A3847;" d="M207.9,287.861c-2.21,0-3.998-1.788-3.998-3.998v-23.988c0-2.21,1.788-3.998,3.998-3.998
		s3.998,1.788,3.998,3.998v23.988C211.898,286.073,210.11,287.861,207.9,287.861z"/>
	<path style="fill:#3A3847;" d="M223.893,287.861c-2.21,0-3.998-1.788-3.998-3.998v-23.988c0-2.21,1.788-3.998,3.998-3.998
		s3.998,1.788,3.998,3.998v23.988C227.891,286.073,226.103,287.861,223.893,287.861z"/>
	<path style="fill:#3A3847;" d="M239.885,287.861c-2.21,0-3.998-1.788-3.998-3.998v-23.988c0-2.21,1.788-3.998,3.998-3.998
		s3.998,1.788,3.998,3.998v23.988C243.883,286.073,242.095,287.861,239.885,287.861z"/>
	<path style="fill:#3A3847;" d="M255.877,287.861c-2.21,0-3.998-1.788-3.998-3.998v-23.988c0-2.21,1.788-3.998,3.998-3.998
		c2.21,0,3.998,1.788,3.998,3.998v23.988C259.875,286.073,258.087,287.861,255.877,287.861z"/>
	<path style="fill:#3A3847;" d="M271.869,287.861c-2.209,0-3.998-1.788-3.998-3.998v-23.988c0-2.21,1.789-3.998,3.998-3.998
		c2.21,0,3.998,1.788,3.998,3.998v23.988C275.867,286.073,274.079,287.861,271.869,287.861z"/>
	<path style="fill:#3A3847;" d="M287.861,287.861c-2.209,0-3.998-1.788-3.998-3.998v-23.988c0-2.21,1.789-3.998,3.998-3.998
		c2.211,0,3.998,1.788,3.998,3.998v23.988C291.859,286.073,290.072,287.861,287.861,287.861z"/>
	<path style="fill:#3A3847;" d="M303.855,287.861c-2.21,0-3.998-1.788-3.998-3.998v-23.988c0-2.21,1.788-3.998,3.998-3.998
		s3.998,1.788,3.998,3.998v23.988C307.853,286.073,306.065,287.861,303.855,287.861z"/>
	<path style="fill:#3A3847;" d="M319.847,279.865c-2.21,0-3.998-1.788-3.998-3.998v-7.996c0-2.21,1.788-3.998,3.998-3.998
		s3.998,1.788,3.998,3.998v7.996C323.845,278.077,322.057,279.865,319.847,279.865z"/>
</g>
<g>
</g>
<g>
</g>
<g>
</g>
<g>
</g>
<g>
</g>
<g>
</g>
<g>
</g>
<g>
</g>
<g>
</g>
<g>
</g>
<g>
</g>
<g>
</g>
<g>
</g>
<g>
</g>
<g>
</g>
</svg>
