<?xml version="1.0"?>
<svg xmlns="http://www.w3.org/2000/svg" viewBox="0 0 64 64" width="512px" height="512px"><g><g id="Network-4" data-name="Network"><path d="M5,18h5v3H7v2H19V21H16V18h5a3,3,0,0,0,3-3V5a3,3,0,0,0-3-3H5A3,3,0,0,0,2,5V15A3,3,0,0,0,5,18Zm9,3H12V18h2ZM4,5A1,1,0,0,1,5,4H21a1,1,0,0,1,1,1V15a1,1,0,0,1-1,1H5a1,1,0,0,1-1-1Z" data-original="#000000" class="active-path" data-old_color="#000000" fill="#FFFFFF"/><path d="M59,2H43a3,3,0,0,0-3,3V15a3,3,0,0,0,3,3h5v3H45v2H57V21H54V18h5a3,3,0,0,0,3-3V5A3,3,0,0,0,59,2ZM52,21H50V18h2Zm8-6a1,1,0,0,1-1,1H43a1,1,0,0,1-1-1V5a1,1,0,0,1,1-1H59a1,1,0,0,1,1,1Z" data-original="#000000" class="active-path" data-old_color="#000000" fill="#FFFFFF"/><rect x="12" y="13" width="2" height="2" data-original="#000000" class="active-path" data-old_color="#000000" fill="#FFFFFF"/><rect x="15" y="13" width="2" height="2" data-original="#000000" class="active-path" data-old_color="#000000" fill="#FFFFFF"/><rect x="9" y="13" width="2" height="2" data-original="#000000" class="active-path" data-old_color="#000000" fill="#FFFFFF"/><rect x="50" y="13" width="2" height="2" data-original="#000000" class="active-path" data-old_color="#000000" fill="#FFFFFF"/><rect x="53" y="13" width="2" height="2" data-original="#000000" class="active-path" data-old_color="#000000" fill="#FFFFFF"/><rect x="47" y="13" width="2" height="2" data-original="#000000" class="active-path" data-old_color="#000000" fill="#FFFFFF"/><path d="M21,41H5a3,3,0,0,0-3,3V54a3,3,0,0,0,3,3h5v3H7v2H19V60H16V57h5a3,3,0,0,0,3-3V44A3,3,0,0,0,21,41ZM14,60H12V57h2Zm8-6a1,1,0,0,1-1,1H5a1,1,0,0,1-1-1V44a1,1,0,0,1,1-1H21a1,1,0,0,1,1,1Z" data-original="#000000" class="active-path" data-old_color="#000000" fill="#FFFFFF"/><path d="M59,41H43a3,3,0,0,0-3,3V54a3,3,0,0,0,3,3h5v3H45v2H57V60H54V57h5a3,3,0,0,0,3-3V44A3,3,0,0,0,59,41ZM52,60H50V57h2Zm8-6a1,1,0,0,1-1,1H43a1,1,0,0,1-1-1V44a1,1,0,0,1,1-1H59a1,1,0,0,1,1,1Z" data-original="#000000" class="active-path" data-old_color="#000000" fill="#FFFFFF"/><rect x="12" y="52" width="2" height="2" data-original="#000000" class="active-path" data-old_color="#000000" fill="#FFFFFF"/><rect x="15" y="52" width="2" height="2" data-original="#000000" class="active-path" data-old_color="#000000" fill="#FFFFFF"/><rect x="9" y="52" width="2" height="2" data-original="#000000" class="active-path" data-old_color="#000000" fill="#FFFFFF"/><rect x="50" y="52" width="2" height="2" data-original="#000000" class="active-path" data-old_color="#000000" fill="#FFFFFF"/><rect x="53" y="52" width="2" height="2" data-original="#000000" class="active-path" data-old_color="#000000" fill="#FFFFFF"/><rect x="47" y="52" width="2" height="2" data-original="#000000" class="active-path" data-old_color="#000000" fill="#FFFFFF"/><path d="M33,50.184V39H31V50.184A3,3,0,0,0,29.184,52H25v2h4.184a2.982,2.982,0,0,0,5.632,0H39V52H34.816A3,3,0,0,0,33,50.184ZM32,54a1,1,0,1,1,1-1A1,1,0,0,1,32,54Z" data-original="#000000" class="active-path" data-old_color="#000000" fill="#FFFFFF"/><path d="M31,13.816V25h2V13.816A3,3,0,0,0,34.816,12H39V10H34.816a2.982,2.982,0,0,0-5.632,0H25v2h4.184A3,3,0,0,0,31,13.816ZM32,10a1,1,0,1,1-1,1A1,1,0,0,1,32,10Z" data-original="#000000" class="active-path" data-old_color="#000000" fill="#FFFFFF"/><path d="M10,29v6a3,3,0,0,0,3,3H51a3,3,0,0,0,3-3V29a3,3,0,0,0-3-3H13A3,3,0,0,0,10,29Zm42,0v6a1,1,0,0,1-1,1H13a1,1,0,0,1-1-1V29a1,1,0,0,1,1-1H51A1,1,0,0,1,52,29Z" data-original="#000000" class="active-path" data-old_color="#000000" fill="#FFFFFF"/><path d="M50,29H34v6H50Zm-2,4H36V31H48Z" data-original="#000000" class="active-path" data-old_color="#000000" fill="#FFFFFF"/><rect x="14" y="33" width="2" height="2" data-original="#000000" class="active-path" data-old_color="#000000" fill="#FFFFFF"/><rect x="17" y="33" width="2" height="2" data-original="#000000" class="active-path" data-old_color="#000000" fill="#FFFFFF"/><rect x="20" y="33" width="2" height="2" data-original="#000000" class="active-path" data-old_color="#000000" fill="#FFFFFF"/><rect x="23" y="33" width="2" height="2" data-original="#000000" class="active-path" data-old_color="#000000" fill="#FFFFFF"/><rect x="14" y="29" width="2" height="2" data-original="#000000" class="active-path" data-old_color="#000000" fill="#FFFFFF"/><rect x="17" y="29" width="2" height="2" data-original="#000000" class="active-path" data-old_color="#000000" fill="#FFFFFF"/><rect x="20" y="29" width="2" height="2" data-original="#000000" class="active-path" data-old_color="#000000" fill="#FFFFFF"/><rect x="23" y="29" width="2" height="2" data-original="#000000" class="active-path" data-old_color="#000000" fill="#FFFFFF"/><rect x="26" y="33" width="2" height="2" data-original="#000000" class="active-path" data-old_color="#000000" fill="#FFFFFF"/><rect x="26" y="29" width="2" height="2" data-original="#000000" class="active-path" data-old_color="#000000" fill="#FFFFFF"/><rect x="29" y="33" width="2" height="2" data-original="#000000" class="active-path" data-old_color="#000000" fill="#FFFFFF"/><rect x="29" y="29" width="2" height="2" data-original="#000000" class="active-path" data-old_color="#000000" fill="#FFFFFF"/></g></g> </svg>
