<?xml version="1.0"?>
<svg xmlns="http://www.w3.org/2000/svg" viewBox="0 0 64 64" width="512px" height="512px"><g><g id="Protect"><path d="M21,21a11,11,0,0,1,22,0V31H38.179L47,44.862,55.821,31H51V21a19,19,0,0,0-38,0V33h8ZM19,31H15V21a17,17,0,0,1,34,0V33h3.179L47,41.138,41.821,33H45V21a13,13,0,0,0-26,0Z" data-original="#000000" class="active-path" data-old_color="#000000" fill="#FFFFFF"/><path d="M52,24v2h4V49A11.013,11.013,0,0,1,45,60H19A11.013,11.013,0,0,1,8,49V26h4V24H6V49A13.015,13.015,0,0,0,19,62H45A13.015,13.015,0,0,0,58,49V24Z" data-original="#000000" class="active-path" data-old_color="#000000" fill="#FFFFFF"/><path d="M12,49a7.009,7.009,0,0,0,7,7h4V54H19a5.006,5.006,0,0,1-5-5V39H12Z" data-original="#000000" class="active-path" data-old_color="#000000" fill="#FFFFFF"/><path d="M51,49a5.006,5.006,0,0,1-5,5H41v2h5a7.009,7.009,0,0,0,7-7V46H51Z" data-original="#000000" class="active-path" data-old_color="#000000" fill="#FFFFFF"/><rect x="22" y="24" width="20" height="2" data-original="#000000" class="active-path" data-old_color="#000000" fill="#FFFFFF"/><path d="M32,56a3,3,0,0,0,3-3V45.865a.97.97,0,0,1,.527-.821,7,7,0,1,0-7.034.012.942.942,0,0,1,.507.8V53A3,3,0,0,0,32,56ZM27,39a5,5,0,0,1,5.014-5,5.246,5.246,0,0,1,1.067.11,4.977,4.977,0,0,1,3.813,3.838,5.032,5.032,0,0,1-2.372,5.364A2.948,2.948,0,0,0,33,45.865V53a1,1,0,0,1-2,0V45.861a2.922,2.922,0,0,0-1.507-2.538A5,5,0,0,1,27,39Z" data-original="#000000" class="active-path" data-old_color="#000000" fill="#FFFFFF"/><rect x="31" y="35" width="2" height="2" data-original="#000000" class="active-path" data-old_color="#000000" fill="#FFFFFF"/><rect x="31" y="38" width="2" height="2" data-original="#000000" class="active-path" data-old_color="#000000" fill="#FFFFFF"/><rect x="31" y="41" width="2" height="2" data-original="#000000" class="active-path" data-old_color="#000000" fill="#FFFFFF"/><rect x="25" y="54" width="2" height="2" data-original="#000000" class="active-path" data-old_color="#000000" fill="#FFFFFF"/><rect x="37" y="54" width="2" height="2" data-original="#000000" class="active-path" data-old_color="#000000" fill="#FFFFFF"/><rect x="12" y="35" width="2" height="2" data-original="#000000" class="active-path" data-old_color="#000000" fill="#FFFFFF"/><rect x="51" y="42" width="2" height="2" data-original="#000000" class="active-path" data-old_color="#000000" fill="#FFFFFF"/></g></g> </svg>
