<?xml version="1.0"?>
<svg xmlns="http://www.w3.org/2000/svg" viewBox="0 0 64 64" width="512px" height="512px" class=""><g><g id="Sharing"><path d="M59,6H58V5a3,3,0,0,0-3-3H5A3,3,0,0,0,2,5V39a3,3,0,0,0,3,3H6v5a3,3,0,0,0,3,3H27.5L23.333,60H20v2H48V60H44.667L40.5,50H59a3,3,0,0,0,3-3V9A3,3,0,0,0,59,6ZM5,40a1,1,0,0,1-1-1V5A1,1,0,0,1,5,4H55a1,1,0,0,1,1,1V6H6V40ZM56,12H8V8H56Zm0,2V39a1,1,0,0,1-1,1H8V14ZM42.5,60h-17l4.167-10h8.666ZM60,47a1,1,0,0,1-1,1H9a1,1,0,0,1-1-1V42H55a3,3,0,0,0,3-3V8h1a1,1,0,0,1,1,1Z" data-original="#000000" class="active-path" data-old_color="#000000" fill="#FFFFFF"/><rect x="14" y="9" width="2" height="2" data-original="#000000" class="active-path" data-old_color="#000000" fill="#FFFFFF"/><rect x="18" y="9" width="2" height="2" data-original="#000000" class="active-path" data-old_color="#000000" fill="#FFFFFF"/><rect x="10" y="9" width="2" height="2" data-original="#000000" class="active-path" data-old_color="#000000" fill="#FFFFFF"/><rect x="33" y="44" width="2" height="2" data-original="#000000" class="active-path" data-old_color="#000000" fill="#FFFFFF"/><rect x="37" y="44" width="2" height="2" data-original="#000000" class="active-path" data-old_color="#000000" fill="#FFFFFF"/><rect x="29" y="44" width="2" height="2" data-original="#000000" class="active-path" data-old_color="#000000" fill="#FFFFFF"/><rect x="50" y="60" width="2" height="2" data-original="#000000" class="active-path" data-old_color="#000000" fill="#FFFFFF"/><rect x="16" y="60" width="2" height="2" data-original="#000000" class="active-path" data-old_color="#000000" fill="#FFFFFF"/><path d="M23,18H18.414l-2-2H13V26H23Zm-2,6H15V18h.586l2,2H21Z" data-original="#000000" class="active-path" data-old_color="#000000" fill="#FFFFFF"/><path d="M23,38V30H18.414l-2-2H13V38Zm-8-8h.586l2,2H21v4H15Z" data-original="#000000" class="active-path" data-old_color="#000000" fill="#FFFFFF"/><path d="M37,18H32.414l-2-2H27V26H37Zm-2,6H29V18h.586l2,2H35Z" data-original="#000000" class="active-path" data-old_color="#000000" fill="#FFFFFF"/><path d="M37,30H32.414l-2-2H27V38H37Zm-2,6H29V30h.586l2,2H35Z" data-original="#000000" class="active-path" data-old_color="#000000" fill="#FFFFFF"/><path d="M51,18H46.414l-2-2H41V26H51Zm-2,6H43V18h.586l2,2H49Z" data-original="#000000" class="active-path" data-old_color="#000000" fill="#FFFFFF"/><path d="M51,30H46.414l-2-2H41V38H51Zm-2,6H43V30h.586l2,2H49Z" data-original="#000000" class="active-path" data-old_color="#000000" fill="#FFFFFF"/></g></g> </svg>
